<svg xmlns="http://www.w3.org/2000/svg" viewBox="0 0 720 360" width="720" height="360" font-family="-apple-system, BlinkMacSystemFont, 'Segoe UI', system-ui, sans-serif" font-size="11"><rect width="720" height="360" fill="#fafaf7" /><text x="360" y="26" text-anchor="middle" fill="#1a1a1a" font-size="17" font-weight="600">Signed bias per prayer (calc − ground truth, minutes)</text><line x1="70" y1="300" x2="590" y2="300" stroke="#dcdcd0" stroke-width="0.5" /><text x="64" y="303" text-anchor="end" fill="#1a1a1a">-10.0</text><line x1="70" y1="268.75" x2="590" y2="268.75" stroke="#dcdcd0" stroke-width="0.5" /><text x="64" y="271.75" text-anchor="end" fill="#1a1a1a">-7.5</text><line x1="70" y1="237.5" x2="590" y2="237.5" stroke="#dcdcd0" stroke-width="0.5" /><text x="64" y="240.5" text-anchor="end" fill="#1a1a1a">-5.0</text><line x1="70" y1="206.25" x2="590" y2="206.25" stroke="#dcdcd0" stroke-width="0.5" /><text x="64" y="209.25" text-anchor="end" fill="#1a1a1a">-2.5</text><line x1="70" y1="143.75" x2="590" y2="143.75" stroke="#dcdcd0" stroke-width="0.5" /><text x="64" y="146.75" text-anchor="end" fill="#1a1a1a">+2.5</text><line x1="70" y1="112.5" x2="590" y2="112.5" stroke="#dcdcd0" stroke-width="0.5" /><text x="64" y="115.5" text-anchor="end" fill="#1a1a1a">+5.0</text><line x1="70" y1="81.25" x2="590" y2="81.25" stroke="#dcdcd0" stroke-width="0.5" /><text x="64" y="84.25" text-anchor="end" fill="#1a1a1a">+7.5</text><line x1="70" y1="50" x2="590" y2="50" stroke="#dcdcd0" stroke-width="0.5" /><text x="64" y="53" text-anchor="end" fill="#1a1a1a">+10.0</text><line x1="70" y1="175" x2="590" y2="175" stroke="#888" stroke-width="1.2" /><text x="64" y="178" text-anchor="end" fill="#1a1a1a">0</text><rect x="84.33333333333334" y="175" width="28" height="9.047619047619037" fill="#1f7a4d" /><text x="98.33333333333334" y="195.04761904761904" text-anchor="middle" fill="#1a1a1a" font-size="9">-0.72</text><rect x="114.33333333333334" y="89.03280270139894" width="28" height="85.96719729860106" fill="#7a4d9c" /><text x="128.33333333333334" y="86.03280270139894" text-anchor="middle" fill="#1a1a1a" font-size="9">+6.88</text><text x="113.33333333333334" y="318" text-anchor="middle" fill="#1a1a1a" font-size="11">fajr</text><text x="113.33333333333334" y="332" text-anchor="middle" fill="#888" font-size="9">unsafe ↓</text><rect x="171" y="172.13064484126983" width="28" height="2.8693551587301727" fill="#1f7a4d" /><text x="185" y="169.13064484126983" text-anchor="middle" fill="#1a1a1a" font-size="9">+0.23</text><rect x="201" y="175" width="28" height="30.69826338639652" fill="#7a4d9c" /><text x="215" y="216.69826338639652" text-anchor="middle" fill="#1a1a1a" font-size="9">-2.46</text><text x="200" y="318" text-anchor="middle" fill="#1a1a1a" font-size="11">shuruq</text><text x="200" y="332" text-anchor="middle" fill="#888" font-size="9">unsafe ↑</text><rect x="257.6666666666667" y="168.75" width="28" height="6.25" fill="#1f7a4d" /><text x="271.6666666666667" y="165.75" text-anchor="middle" fill="#1a1a1a" font-size="9">+0.50</text><rect x="287.6666666666667" y="175" width="28" height="19.75397973950797" fill="#7a4d9c" /><text x="301.6666666666667" y="205.75397973950797" text-anchor="middle" fill="#1a1a1a" font-size="9">-1.58</text><text x="286.6666666666667" y="318" text-anchor="middle" fill="#1a1a1a" font-size="11">dhuhr</text><text x="286.6666666666667" y="332" text-anchor="middle" fill="#888" font-size="9">unsafe ↑</text><rect x="344.33333333333337" y="162.91666666666669" width="28" height="12.083333333333314" fill="#1f7a4d" /><text x="358.33333333333337" y="159.91666666666669" text-anchor="middle" fill="#1a1a1a" font-size="9">+0.97</text><rect x="374.33333333333337" y="175" width="28" height="30.390738060781473" fill="#7a4d9c" /><text x="388.33333333333337" y="216.39073806078147" text-anchor="middle" fill="#1a1a1a" font-size="9">-2.43</text><text x="373.33333333333337" y="318" text-anchor="middle" fill="#1a1a1a" font-size="11">asr</text><text x="373.33333333333337" y="332" text-anchor="middle" fill="#888" font-size="9">unsafe ↑</text><rect x="431" y="173.76224206349207" width="28" height="1.2377579365079328" fill="#1f7a4d" /><text x="445" y="170.76224206349207" text-anchor="middle" fill="#1a1a1a" font-size="9">+0.10</text><rect x="461" y="175" width="28" height="27.704413892908832" fill="#7a4d9c" /><text x="475" y="213.70441389290883" text-anchor="middle" fill="#1a1a1a" font-size="9">-2.22</text><text x="475" y="223.70441389290883" text-anchor="middle" fill="#c83030" font-size="11">⚠</text><text x="460" y="318" text-anchor="middle" fill="#1a1a1a" font-size="11">maghrib</text><text x="460" y="332" text-anchor="middle" fill="#888" font-size="9">unsafe ↓</text><rect x="517.6666666666667" y="170.41666666666666" width="28" height="4.583333333333343" fill="#1f7a4d" /><text x="531.6666666666667" y="167.41666666666666" text-anchor="middle" fill="#1a1a1a" font-size="9">+0.37</text><rect x="547.6666666666667" y="175" width="28" height="111.28349357814761" fill="#7a4d9c" /><text x="561.6666666666667" y="297.2834935781476" text-anchor="middle" fill="#1a1a1a" font-size="9">-8.90</text><text x="561.6666666666667" y="307.2834935781476" text-anchor="middle" fill="#c83030" font-size="11">⚠</text><text x="546.6666666666667" y="318" text-anchor="middle" fill="#1a1a1a" font-size="11">isha</text><text x="546.6666666666667" y="332" text-anchor="middle" fill="#888" font-size="9">unsafe ↓</text><rect x="600" y="60" width="12" height="10" fill="#1f7a4d" /><text x="616" y="69" fill="#1a1a1a">train</text><rect x="600" y="76" width="12" height="10" fill="#7a4d9c" /><text x="616" y="85" fill="#1a1a1a">holdout</text><text x="600" y="110" fill="#888" font-size="10">↑↓ = direction</text><text x="600" y="122" fill="#888" font-size="10">that violates</text><text x="600" y="134" fill="#888" font-size="10">ihtiyat</text><text x="600" y="152" fill="#c83030" font-size="11">⚠ = unsafe drift</text></svg>