<svg xmlns="http://www.w3.org/2000/svg" viewBox="0 0 720 360" width="720" height="360" font-family="-apple-system, BlinkMacSystemFont, 'Segoe UI', system-ui, sans-serif" font-size="11"><rect width="720" height="360" fill="#fafaf7" /><text x="360" y="26" text-anchor="middle" fill="#1a1a1a" font-size="17" font-weight="600">Signed bias per prayer (calc − ground truth, minutes)</text><line x1="70" y1="300" x2="590" y2="300" stroke="#dcdcd0" stroke-width="0.5" /><text x="64" y="303" text-anchor="end" fill="#1a1a1a">-20.0</text><line x1="70" y1="268.75" x2="590" y2="268.75" stroke="#dcdcd0" stroke-width="0.5" /><text x="64" y="271.75" text-anchor="end" fill="#1a1a1a">-15.0</text><line x1="70" y1="237.5" x2="590" y2="237.5" stroke="#dcdcd0" stroke-width="0.5" /><text x="64" y="240.5" text-anchor="end" fill="#1a1a1a">-10.0</text><line x1="70" y1="206.25" x2="590" y2="206.25" stroke="#dcdcd0" stroke-width="0.5" /><text x="64" y="209.25" text-anchor="end" fill="#1a1a1a">-5.0</text><line x1="70" y1="143.75" x2="590" y2="143.75" stroke="#dcdcd0" stroke-width="0.5" /><text x="64" y="146.75" text-anchor="end" fill="#1a1a1a">+5.0</text><line x1="70" y1="112.5" x2="590" y2="112.5" stroke="#dcdcd0" stroke-width="0.5" /><text x="64" y="115.5" text-anchor="end" fill="#1a1a1a">+10.0</text><line x1="70" y1="81.25" x2="590" y2="81.25" stroke="#dcdcd0" stroke-width="0.5" /><text x="64" y="84.25" text-anchor="end" fill="#1a1a1a">+15.0</text><line x1="70" y1="50" x2="590" y2="50" stroke="#dcdcd0" stroke-width="0.5" /><text x="64" y="53" text-anchor="end" fill="#1a1a1a">+20.0</text><line x1="70" y1="175" x2="590" y2="175" stroke="#888" stroke-width="1.2" /><text x="64" y="178" text-anchor="end" fill="#1a1a1a">0</text><rect x="84.33333333333334" y="175" width="28" height="10.078125" fill="#1f7a4d" /><text x="98.33333333333334" y="196.078125" text-anchor="middle" fill="#1a1a1a" font-size="9">-1.61</text><text x="98.33333333333334" y="206.078125" text-anchor="middle" fill="#c83030" font-size="11">⚠</text><rect x="114.33333333333334" y="121.79625789889411" width="28" height="53.20374210110589" fill="#7a4d9c" /><text x="128.33333333333334" y="118.79625789889411" text-anchor="middle" fill="#1a1a1a" font-size="9">+8.51</text><text x="113.33333333333334" y="318" text-anchor="middle" fill="#1a1a1a" font-size="11">fajr</text><text x="113.33333333333334" y="332" text-anchor="middle" fill="#888" font-size="9">unsafe ↓</text><rect x="171" y="175" width="28" height="6.184401041666661" fill="#1f7a4d" /><text x="185" y="192.18440104166666" text-anchor="middle" fill="#1a1a1a" font-size="9">-0.99</text><rect x="201" y="175" width="28" height="2.1385303120063384" fill="#7a4d9c" /><text x="215" y="188.13853031200634" text-anchor="middle" fill="#1a1a1a" font-size="9">-0.34</text><text x="200" y="318" text-anchor="middle" fill="#1a1a1a" font-size="11">shuruq</text><text x="200" y="332" text-anchor="middle" fill="#888" font-size="9">unsafe ↑</text><rect x="257.6666666666667" y="171.875" width="28" height="3.125" fill="#1f7a4d" /><text x="271.6666666666667" y="168.875" text-anchor="middle" fill="#1a1a1a" font-size="9">+0.50</text><rect x="287.6666666666667" y="167.0616113744076" width="28" height="7.93838862559241" fill="#7a4d9c" /><text x="301.6666666666667" y="164.0616113744076" text-anchor="middle" fill="#1a1a1a" font-size="9">+1.27</text><text x="286.6666666666667" y="318" text-anchor="middle" fill="#1a1a1a" font-size="11">dhuhr</text><text x="286.6666666666667" y="332" text-anchor="middle" fill="#888" font-size="9">unsafe ↑</text><rect x="344.33333333333337" y="169.0625" width="28" height="5.9375" fill="#1f7a4d" /><text x="358.33333333333337" y="166.0625" text-anchor="middle" fill="#1a1a1a" font-size="9">+0.95</text><rect x="374.33333333333337" y="175" width="28" height="6.7535545023696955" fill="#7a4d9c" /><text x="388.33333333333337" y="192.7535545023697" text-anchor="middle" fill="#1a1a1a" font-size="9">-1.08</text><text x="373.33333333333337" y="318" text-anchor="middle" fill="#1a1a1a" font-size="11">asr</text><text x="373.33333333333337" y="332" text-anchor="middle" fill="#888" font-size="9">unsafe ↑</text><rect x="431" y="165.97716145833337" width="28" height="9.02283854166663" fill="#1f7a4d" /><text x="445" y="162.97716145833337" text-anchor="middle" fill="#1a1a1a" font-size="9">+1.44</text><rect x="461" y="169.5144140007899" width="28" height="5.4855859992100875" fill="#7a4d9c" /><text x="475" y="166.5144140007899" text-anchor="middle" fill="#1a1a1a" font-size="9">+0.88</text><text x="460" y="318" text-anchor="middle" fill="#1a1a1a" font-size="11">maghrib</text><text x="460" y="332" text-anchor="middle" fill="#888" font-size="9">unsafe ↓</text><rect x="517.6666666666667" y="172.734375" width="28" height="2.265625" fill="#1f7a4d" /><text x="531.6666666666667" y="169.734375" text-anchor="middle" fill="#1a1a1a" font-size="9">+0.36</text><rect x="547.6666666666667" y="175" width="28" height="71.26308451816746" fill="#7a4d9c" /><text x="561.6666666666667" y="257.2630845181675" text-anchor="middle" fill="#1a1a1a" font-size="9">-11.40</text><text x="561.6666666666667" y="267.2630845181675" text-anchor="middle" fill="#c83030" font-size="11">⚠</text><text x="546.6666666666667" y="318" text-anchor="middle" fill="#1a1a1a" font-size="11">isha</text><text x="546.6666666666667" y="332" text-anchor="middle" fill="#888" font-size="9">unsafe ↓</text><rect x="600" y="60" width="12" height="10" fill="#1f7a4d" /><text x="616" y="69" fill="#1a1a1a">train</text><rect x="600" y="76" width="12" height="10" fill="#7a4d9c" /><text x="616" y="85" fill="#1a1a1a">holdout</text><text x="600" y="110" fill="#888" font-size="10">↑↓ = direction</text><text x="600" y="122" fill="#888" font-size="10">that violates</text><text x="600" y="134" fill="#888" font-size="10">ihtiyat</text><text x="600" y="152" fill="#c83030" font-size="11">⚠ = unsafe drift</text></svg>