<svg xmlns="http://www.w3.org/2000/svg" viewBox="0 0 720 360" width="720" height="360" font-family="-apple-system, BlinkMacSystemFont, 'Segoe UI', system-ui, sans-serif" font-size="11"><rect width="720" height="360" fill="#fafaf7" /><text x="360" y="26" text-anchor="middle" fill="#1a1a1a" font-size="17" font-weight="600">Signed bias per prayer (calc − ground truth, minutes)</text><line x1="70" y1="300" x2="590" y2="300" stroke="#dcdcd0" stroke-width="0.5" /><text x="64" y="303" text-anchor="end" fill="#1a1a1a">-2.0</text><line x1="70" y1="268.75" x2="590" y2="268.75" stroke="#dcdcd0" stroke-width="0.5" /><text x="64" y="271.75" text-anchor="end" fill="#1a1a1a">-1.5</text><line x1="70" y1="237.5" x2="590" y2="237.5" stroke="#dcdcd0" stroke-width="0.5" /><text x="64" y="240.5" text-anchor="end" fill="#1a1a1a">-1.0</text><line x1="70" y1="206.25" x2="590" y2="206.25" stroke="#dcdcd0" stroke-width="0.5" /><text x="64" y="209.25" text-anchor="end" fill="#1a1a1a">-0.5</text><line x1="70" y1="143.75" x2="590" y2="143.75" stroke="#dcdcd0" stroke-width="0.5" /><text x="64" y="146.75" text-anchor="end" fill="#1a1a1a">+0.5</text><line x1="70" y1="112.5" x2="590" y2="112.5" stroke="#dcdcd0" stroke-width="0.5" /><text x="64" y="115.5" text-anchor="end" fill="#1a1a1a">+1.0</text><line x1="70" y1="81.25" x2="590" y2="81.25" stroke="#dcdcd0" stroke-width="0.5" /><text x="64" y="84.25" text-anchor="end" fill="#1a1a1a">+1.5</text><line x1="70" y1="50" x2="590" y2="50" stroke="#dcdcd0" stroke-width="0.5" /><text x="64" y="53" text-anchor="end" fill="#1a1a1a">+2.0</text><line x1="70" y1="175" x2="590" y2="175" stroke="#888" stroke-width="1.2" /><text x="64" y="178" text-anchor="end" fill="#1a1a1a">0</text><rect x="84.33333333333334" y="175" width="28" height="15.697674418604663" fill="#1f7a4d" /><text x="98.33333333333334" y="201.69767441860466" text-anchor="middle" fill="#1a1a1a" font-size="9">-0.25</text><rect x="114.33333333333334" y="175" width="28" height="79.80285234899327" fill="#7a4d9c" /><text x="128.33333333333334" y="265.80285234899327" text-anchor="middle" fill="#1a1a1a" font-size="9">-1.28</text><text x="128.33333333333334" y="275.80285234899327" text-anchor="middle" fill="#c83030" font-size="11">⚠</text><text x="113.33333333333334" y="318" text-anchor="middle" fill="#1a1a1a" font-size="11">fajr</text><text x="113.33333333333334" y="332" text-anchor="middle" fill="#888" font-size="9">unsafe ↓</text><rect x="171" y="175" width="28" height="20.34883720930233" fill="#1f7a4d" /><text x="185" y="206.34883720930233" text-anchor="middle" fill="#1a1a1a" font-size="9">-0.33</text><rect x="201" y="160.9270134228188" width="28" height="14.072986577181211" fill="#7a4d9c" /><text x="215" y="157.9270134228188" text-anchor="middle" fill="#1a1a1a" font-size="9">+0.23</text><text x="200" y="318" text-anchor="middle" fill="#1a1a1a" font-size="11">shuruq</text><text x="200" y="332" text-anchor="middle" fill="#888" font-size="9">unsafe ↑</text><rect x="257.6666666666667" y="157.84883720930233" width="28" height="17.15116279069767" fill="#1f7a4d" /><text x="271.6666666666667" y="154.84883720930233" text-anchor="middle" fill="#1a1a1a" font-size="9">+0.27</text><rect x="287.6666666666667" y="175" width="28" height="51.405201342281885" fill="#7a4d9c" /><text x="301.6666666666667" y="237.40520134228188" text-anchor="middle" fill="#1a1a1a" font-size="9">-0.82</text><text x="286.6666666666667" y="318" text-anchor="middle" fill="#1a1a1a" font-size="11">dhuhr</text><text x="286.6666666666667" y="332" text-anchor="middle" fill="#888" font-size="9">unsafe ↑</text><rect x="344.33333333333337" y="98.83720930232559" width="28" height="76.16279069767441" fill="#1f7a4d" /><text x="358.33333333333337" y="95.83720930232559" text-anchor="middle" fill="#1a1a1a" font-size="9">+1.22</text><rect x="374.33333333333337" y="175" width="28" height="77.70553691275165" fill="#7a4d9c" /><text x="388.33333333333337" y="263.70553691275165" text-anchor="middle" fill="#1a1a1a" font-size="9">-1.24</text><text x="373.33333333333337" y="318" text-anchor="middle" fill="#1a1a1a" font-size="11">asr</text><text x="373.33333333333337" y="332" text-anchor="middle" fill="#888" font-size="9">unsafe ↑</text><rect x="431" y="144.1860465116279" width="28" height="30.813953488372107" fill="#1f7a4d" /><text x="445" y="141.1860465116279" text-anchor="middle" fill="#1a1a1a" font-size="9">+0.49</text><rect x="461" y="175" width="28" height="55.80956375838926" fill="#7a4d9c" /><text x="475" y="241.80956375838926" text-anchor="middle" fill="#1a1a1a" font-size="9">-0.89</text><text x="460" y="318" text-anchor="middle" fill="#1a1a1a" font-size="11">maghrib</text><text x="460" y="332" text-anchor="middle" fill="#888" font-size="9">unsafe ↓</text><rect x="517.6666666666667" y="130.52325581395348" width="28" height="44.47674418604652" fill="#1f7a4d" /><text x="531.6666666666667" y="127.52325581395348" text-anchor="middle" fill="#1a1a1a" font-size="9">+0.71</text><rect x="547.6666666666667" y="175" width="28" height="52.160234899328856" fill="#7a4d9c" /><text x="561.6666666666667" y="238.16023489932886" text-anchor="middle" fill="#1a1a1a" font-size="9">-0.83</text><text x="546.6666666666667" y="318" text-anchor="middle" fill="#1a1a1a" font-size="11">isha</text><text x="546.6666666666667" y="332" text-anchor="middle" fill="#888" font-size="9">unsafe ↓</text><rect x="600" y="60" width="12" height="10" fill="#1f7a4d" /><text x="616" y="69" fill="#1a1a1a">train</text><rect x="600" y="76" width="12" height="10" fill="#7a4d9c" /><text x="616" y="85" fill="#1a1a1a">holdout</text><text x="600" y="110" fill="#888" font-size="10">↑↓ = direction</text><text x="600" y="122" fill="#888" font-size="10">that violates</text><text x="600" y="134" fill="#888" font-size="10">ihtiyat</text><text x="600" y="152" fill="#c83030" font-size="11">⚠ = unsafe drift</text></svg>