<svg xmlns="http://www.w3.org/2000/svg" viewBox="0 0 720 360" width="720" height="360" font-family="-apple-system, BlinkMacSystemFont, 'Segoe UI', system-ui, sans-serif" font-size="11"><rect width="720" height="360" fill="#fafaf7" /><text x="360" y="26" text-anchor="middle" fill="#1a1a1a" font-size="17" font-weight="600">Signed bias per prayer (calc − ground truth, minutes)</text><line x1="70" y1="300" x2="590" y2="300" stroke="#dcdcd0" stroke-width="0.5" /><text x="64" y="303" text-anchor="end" fill="#1a1a1a">-10.0</text><line x1="70" y1="268.75" x2="590" y2="268.75" stroke="#dcdcd0" stroke-width="0.5" /><text x="64" y="271.75" text-anchor="end" fill="#1a1a1a">-7.5</text><line x1="70" y1="237.5" x2="590" y2="237.5" stroke="#dcdcd0" stroke-width="0.5" /><text x="64" y="240.5" text-anchor="end" fill="#1a1a1a">-5.0</text><line x1="70" y1="206.25" x2="590" y2="206.25" stroke="#dcdcd0" stroke-width="0.5" /><text x="64" y="209.25" text-anchor="end" fill="#1a1a1a">-2.5</text><line x1="70" y1="143.75" x2="590" y2="143.75" stroke="#dcdcd0" stroke-width="0.5" /><text x="64" y="146.75" text-anchor="end" fill="#1a1a1a">+2.5</text><line x1="70" y1="112.5" x2="590" y2="112.5" stroke="#dcdcd0" stroke-width="0.5" /><text x="64" y="115.5" text-anchor="end" fill="#1a1a1a">+5.0</text><line x1="70" y1="81.25" x2="590" y2="81.25" stroke="#dcdcd0" stroke-width="0.5" /><text x="64" y="84.25" text-anchor="end" fill="#1a1a1a">+7.5</text><line x1="70" y1="50" x2="590" y2="50" stroke="#dcdcd0" stroke-width="0.5" /><text x="64" y="53" text-anchor="end" fill="#1a1a1a">+10.0</text><line x1="70" y1="175" x2="590" y2="175" stroke="#888" stroke-width="1.2" /><text x="64" y="178" text-anchor="end" fill="#1a1a1a">0</text><rect x="84.33333333333334" y="175" width="28" height="8.260869565217405" fill="#1f7a4d" /><text x="98.33333333333334" y="194.2608695652174" text-anchor="middle" fill="#1a1a1a" font-size="9">-0.66</text><rect x="114.33333333333334" y="87.77043563387178" width="28" height="87.22956436612822" fill="#7a4d9c" /><text x="128.33333333333334" y="84.77043563387178" text-anchor="middle" fill="#1a1a1a" font-size="9">+6.98</text><text x="113.33333333333334" y="318" text-anchor="middle" fill="#1a1a1a" font-size="11">fajr</text><text x="113.33333333333334" y="332" text-anchor="middle" fill="#888" font-size="9">unsafe ↓</text><rect x="171" y="172.38015398550726" width="28" height="2.6198460144927367" fill="#1f7a4d" /><text x="185" y="169.38015398550726" text-anchor="middle" fill="#1a1a1a" font-size="9">+0.21</text><rect x="201" y="175" width="28" height="31.14904552129221" fill="#7a4d9c" /><text x="215" y="217.1490455212922" text-anchor="middle" fill="#1a1a1a" font-size="9">-2.49</text><text x="200" y="318" text-anchor="middle" fill="#1a1a1a" font-size="11">shuruq</text><text x="200" y="332" text-anchor="middle" fill="#888" font-size="9">unsafe ↑</text><rect x="257.6666666666667" y="169.29347826086956" width="28" height="5.706521739130437" fill="#1f7a4d" /><text x="271.6666666666667" y="166.29347826086956" text-anchor="middle" fill="#1a1a1a" font-size="9">+0.46</text><rect x="287.6666666666667" y="175" width="28" height="20.044052863436093" fill="#7a4d9c" /><text x="301.6666666666667" y="206.0440528634361" text-anchor="middle" fill="#1a1a1a" font-size="9">-1.60</text><text x="286.6666666666667" y="318" text-anchor="middle" fill="#1a1a1a" font-size="11">dhuhr</text><text x="286.6666666666667" y="332" text-anchor="middle" fill="#888" font-size="9">unsafe ↑</text><rect x="344.33333333333337" y="162.17391304347825" width="28" height="12.826086956521749" fill="#1f7a4d" /><text x="358.33333333333337" y="159.17391304347825" text-anchor="middle" fill="#1a1a1a" font-size="9">+1.03</text><rect x="374.33333333333337" y="175" width="28" height="31.139867841409682" fill="#7a4d9c" /><text x="388.33333333333337" y="217.13986784140968" text-anchor="middle" fill="#1a1a1a" font-size="9">-2.49</text><text x="373.33333333333337" y="318" text-anchor="middle" fill="#1a1a1a" font-size="11">asr</text><text x="373.33333333333337" y="332" text-anchor="middle" fill="#888" font-size="9">unsafe ↑</text><rect x="431" y="172.2394384057971" width="28" height="2.7605615942028976" fill="#1f7a4d" /><text x="445" y="169.2394384057971" text-anchor="middle" fill="#1a1a1a" font-size="9">+0.22</text><rect x="461" y="175" width="28" height="27.643171806167402" fill="#7a4d9c" /><text x="475" y="213.6431718061674" text-anchor="middle" fill="#1a1a1a" font-size="9">-2.21</text><text x="475" y="223.6431718061674" text-anchor="middle" fill="#c83030" font-size="11">⚠</text><text x="460" y="318" text-anchor="middle" fill="#1a1a1a" font-size="11">maghrib</text><text x="460" y="332" text-anchor="middle" fill="#888" font-size="9">unsafe ↓</text><rect x="517.6666666666667" y="168.91304347826085" width="28" height="6.086956521739154" fill="#1f7a4d" /><text x="531.6666666666667" y="165.91304347826085" text-anchor="middle" fill="#1a1a1a" font-size="9">+0.49</text><rect x="547.6666666666667" y="175" width="28" height="112.4954391519824" fill="#7a4d9c" /><text x="561.6666666666667" y="298.4954391519824" text-anchor="middle" fill="#1a1a1a" font-size="9">-9.00</text><text x="561.6666666666667" y="308.4954391519824" text-anchor="middle" fill="#c83030" font-size="11">⚠</text><text x="546.6666666666667" y="318" text-anchor="middle" fill="#1a1a1a" font-size="11">isha</text><text x="546.6666666666667" y="332" text-anchor="middle" fill="#888" font-size="9">unsafe ↓</text><rect x="600" y="60" width="12" height="10" fill="#1f7a4d" /><text x="616" y="69" fill="#1a1a1a">train</text><rect x="600" y="76" width="12" height="10" fill="#7a4d9c" /><text x="616" y="85" fill="#1a1a1a">holdout</text><text x="600" y="110" fill="#888" font-size="10">↑↓ = direction</text><text x="600" y="122" fill="#888" font-size="10">that violates</text><text x="600" y="134" fill="#888" font-size="10">ihtiyat</text><text x="600" y="152" fill="#c83030" font-size="11">⚠ = unsafe drift</text></svg>