<svg xmlns="http://www.w3.org/2000/svg" viewBox="0 0 880 540" width="880" height="540" font-family="-apple-system, BlinkMacSystemFont, 'Segoe UI', system-ui, sans-serif" font-size="11"><rect width="880" height="540" fill="#fafaf7" /><text x="440" y="28" text-anchor="middle" fill="#1a1a1a" font-size="17" font-weight="600">Cross-criterion isolines: where Odeh and Yallop structurally diverge</text><text x="440" y="50" text-anchor="middle" fill="#1a1a1a" font-size="11" opacity="0.8">Both A/B and B/C visibility thresholds are parallel curves in the (ARCV, W) plane, offset by a constant ~2.5° in ARCV</text><rect x="70" y="70" width="610" height="390" fill="#f1efe8" /><line x1="70" y1="460" x2="680" y2="460" stroke="#dcdcd0" stroke-width="0.5" stroke-dasharray="2,3" /><text x="64" y="463" text-anchor="end" fill="#5a5a5a" font-size="9">0°</text><line x1="70" y1="404.2857142857143" x2="680" y2="404.2857142857143" stroke="#dcdcd0" stroke-width="0.5" stroke-dasharray="2,3" /><text x="64" y="407.2857142857143" text-anchor="end" fill="#5a5a5a" font-size="9">2°</text><line x1="70" y1="348.57142857142856" x2="680" y2="348.57142857142856" stroke="#dcdcd0" stroke-width="0.5" stroke-dasharray="2,3" /><text x="64" y="351.57142857142856" text-anchor="end" fill="#5a5a5a" font-size="9">4°</text><line x1="70" y1="292.8571428571429" x2="680" y2="292.8571428571429" stroke="#dcdcd0" stroke-width="0.5" stroke-dasharray="2,3" /><text x="64" y="295.8571428571429" text-anchor="end" fill="#5a5a5a" font-size="9">6°</text><line x1="70" y1="237.14285714285714" x2="680" y2="237.14285714285714" stroke="#dcdcd0" stroke-width="0.5" stroke-dasharray="2,3" /><text x="64" y="240.14285714285714" text-anchor="end" fill="#5a5a5a" font-size="9">8°</text><line x1="70" y1="181.42857142857144" x2="680" y2="181.42857142857144" stroke="#dcdcd0" stroke-width="0.5" stroke-dasharray="2,3" /><text x="64" y="184.42857142857144" text-anchor="end" fill="#5a5a5a" font-size="9">10°</text><line x1="70" y1="125.71428571428572" x2="680" y2="125.71428571428572" stroke="#dcdcd0" stroke-width="0.5" stroke-dasharray="2,3" /><text x="64" y="128.71428571428572" text-anchor="end" fill="#5a5a5a" font-size="9">12°</text><line x1="70" y1="70" x2="680" y2="70" stroke="#dcdcd0" stroke-width="0.5" stroke-dasharray="2,3" /><text x="64" y="73" text-anchor="end" fill="#5a5a5a" font-size="9">14°</text><text x="31" y="265" transform="rotate(-90 31 265)" text-anchor="middle" fill="#5a5a5a" font-size="10">ARCV (degrees)</text><line x1="70" y1="70" x2="70" y2="460" stroke="#dcdcd0" stroke-width="0.5" stroke-dasharray="2,3" /><text x="70" y="474" text-anchor="middle" fill="#5a5a5a" font-size="9">0.0</text><line x1="131" y1="70" x2="131" y2="460" stroke="#dcdcd0" stroke-width="0.5" stroke-dasharray="2,3" /><text x="131" y="474" text-anchor="middle" fill="#5a5a5a" font-size="9">0.1</text><line x1="192" y1="70" x2="192" y2="460" stroke="#dcdcd0" stroke-width="0.5" stroke-dasharray="2,3" /><text x="192" y="474" text-anchor="middle" fill="#5a5a5a" font-size="9">0.2</text><line x1="253.00000000000003" y1="70" x2="253.00000000000003" y2="460" stroke="#dcdcd0" stroke-width="0.5" stroke-dasharray="2,3" /><text x="253.00000000000003" y="474" text-anchor="middle" fill="#5a5a5a" font-size="9">0.3</text><line x1="314" y1="70" x2="314" y2="460" stroke="#dcdcd0" stroke-width="0.5" stroke-dasharray="2,3" /><text x="314" y="474" text-anchor="middle" fill="#5a5a5a" font-size="9">0.4</text><line x1="375" y1="70" x2="375" y2="460" stroke="#dcdcd0" stroke-width="0.5" stroke-dasharray="2,3" /><text x="375" y="474" text-anchor="middle" fill="#5a5a5a" font-size="9">0.5</text><line x1="436.00000000000006" y1="70" x2="436.00000000000006" y2="460" stroke="#dcdcd0" stroke-width="0.5" stroke-dasharray="2,3" /><text x="436.00000000000006" y="474" text-anchor="middle" fill="#5a5a5a" font-size="9">0.6</text><line x1="497.00000000000006" y1="70" x2="497.00000000000006" y2="460" stroke="#dcdcd0" stroke-width="0.5" stroke-dasharray="2,3" /><text x="497.00000000000006" y="474" text-anchor="middle" fill="#5a5a5a" font-size="9">0.7</text><line x1="558" y1="70" x2="558" y2="460" stroke="#dcdcd0" stroke-width="0.5" stroke-dasharray="2,3" /><text x="558" y="474" text-anchor="middle" fill="#5a5a5a" font-size="9">0.8</text><line x1="619" y1="70" x2="619" y2="460" stroke="#dcdcd0" stroke-width="0.5" stroke-dasharray="2,3" /><text x="619" y="474" text-anchor="middle" fill="#5a5a5a" font-size="9">0.9</text><line x1="680" y1="70" x2="680" y2="460" stroke="#dcdcd0" stroke-width="0.5" stroke-dasharray="2,3" /><text x="680" y="474" text-anchor="middle" fill="#5a5a5a" font-size="9">1.0</text><text x="375" y="494" text-anchor="middle" fill="#5a5a5a" font-size="10">crescent width W (arcminutes)</text><polygon points="70.0,204.7 76.1,206.4 82.2,208.2 88.3,210.0 94.4,211.7 100.5,213.4 106.6,215.2 112.7,216.9 118.8,218.6 124.9,220.4 131.0,222.1 137.1,223.8 143.2,225.5 149.3,227.2 155.4,229.0 161.5,230.7 167.6,232.4 173.7,234.1 179.8,235.7 185.9,237.4 192.0,239.1 198.1,240.8 204.2,242.5 210.3,244.2 216.4,245.8 222.5,247.5 228.6,249.2 234.7,250.8 240.8,252.5 246.9,254.1 253.0,255.8 259.1,257.4 265.2,259.1 271.3,260.7 277.4,262.3 283.5,264.0 289.6,265.6 295.7,267.2 301.8,268.8 307.9,270.4 314.0,272.1 320.1,273.7 326.2,275.3 332.3,276.9 338.4,278.5 344.5,280.1 350.6,281.7 356.7,283.3 362.8,284.8 368.9,286.4 375.0,288.0 381.1,289.6 387.2,291.2 393.3,292.7 399.4,294.3 405.5,295.9 411.6,297.4 417.7,299.0 423.8,300.5 429.9,302.1 436.0,303.6 442.1,305.2 448.2,306.7 454.3,308.3 460.4,309.8 466.5,311.3 472.6,312.9 478.7,314.4 484.8,315.9 490.9,317.4 497.0,319.0 503.1,320.5 509.2,322.0 515.3,323.5 521.4,325.0 527.5,326.5 533.6,328.0 539.7,329.5 545.8,331.0 551.9,332.5 558.0,334.0 564.1,335.5 570.2,337.0 576.3,338.4 582.4,339.9 588.5,341.4 594.6,342.9 600.7,344.4 606.8,345.8 612.9,347.3 619.0,348.8 625.1,350.2 631.2,351.7 637.3,353.1 643.4,354.6 649.5,356.0 655.6,357.5 661.7,358.9 667.8,360.4 673.9,361.8 673.9,291.3 667.8,289.8 661.7,288.4 655.6,287.0 649.5,285.5 643.4,284.1 637.3,282.6 631.2,281.1 625.1,279.7 619.0,278.2 612.9,276.8 606.8,275.3 600.7,273.8 594.6,272.3 588.5,270.9 582.4,269.4 576.3,267.9 570.2,266.4 564.1,264.9 558.0,263.5 551.9,262.0 545.8,260.5 539.7,259.0 533.6,257.5 527.5,256.0 521.4,254.5 515.3,253.0 509.2,251.5 503.1,249.9 497.0,248.4 490.9,246.9 484.8,245.4 478.7,243.9 472.6,242.3 466.5,240.8 460.4,239.3 454.3,237.7 448.2,236.2 442.1,234.6 436.0,233.1 429.9,231.6 423.8,230.0 417.7,228.4 411.6,226.9 405.5,225.3 399.4,223.8 393.3,222.2 387.2,220.6 381.1,219.1 375.0,217.5 368.9,215.9 362.8,214.3 356.7,212.7 350.6,211.1 344.5,209.5 338.4,207.9 332.3,206.3 326.2,204.7 320.1,203.1 314.0,201.5 307.9,199.9 301.8,198.3 295.7,196.7 289.6,195.0 283.5,193.4 277.4,191.8 271.3,190.2 265.2,188.5 259.1,186.9 253.0,185.2 246.9,183.6 240.8,181.9 234.7,180.3 228.6,178.6 222.5,177.0 216.4,175.3 210.3,173.6 204.2,171.9 198.1,170.3 192.0,168.6 185.9,166.9 179.8,165.2 173.7,163.5 167.6,161.8 161.5,160.1 155.4,158.4 149.3,156.7 143.2,155.0 137.1,153.3 131.0,151.6 124.9,149.8 118.8,148.1 112.7,146.4 106.6,144.6 100.5,142.9 94.4,141.2 88.3,139.4 82.2,137.7 76.1,135.9 70.0,134.2" fill="#c8881a" opacity="0.18" /><text x="375" y="97.9" text-anchor="middle" fill="#1f7a4d" font-size="11" opacity="0.85" font-weight="600">naked-eye visible (both criteria)</text><text x="375" y="251.1" text-anchor="middle" fill="#c8881a" font-size="10" opacity="0.85">ikhtilaf zone (Odeh visible, Yallop not)</text><text x="375" y="404.3" text-anchor="middle" fill="#9aa0a8" font-size="11" opacity="0.85" font-weight="600">not visible (both criteria)</text><polyline points="70.0,204.7 76.1,206.4 82.2,208.2 88.3,210.0 94.4,211.7 100.5,213.4 106.6,215.2 112.7,216.9 118.8,218.6 124.9,220.4 131.0,222.1 137.1,223.8 143.2,225.5 149.3,227.2 155.4,229.0 161.5,230.7 167.6,232.4 173.7,234.1 179.8,235.7 185.9,237.4 192.0,239.1 198.1,240.8 204.2,242.5 210.3,244.2 216.4,245.8 222.5,247.5 228.6,249.2 234.7,250.8 240.8,252.5 246.9,254.1 253.0,255.8 259.1,257.4 265.2,259.1 271.3,260.7 277.4,262.3 283.5,264.0 289.6,265.6 295.7,267.2 301.8,268.8 307.9,270.4 314.0,272.1 320.1,273.7 326.2,275.3 332.3,276.9 338.4,278.5 344.5,280.1 350.6,281.7 356.7,283.3 362.8,284.8 368.9,286.4 375.0,288.0 381.1,289.6 387.2,291.2 393.3,292.7 399.4,294.3 405.5,295.9 411.6,297.4 417.7,299.0 423.8,300.5 429.9,302.1 436.0,303.6 442.1,305.2 448.2,306.7 454.3,308.3 460.4,309.8 466.5,311.3 472.6,312.9 478.7,314.4 484.8,315.9 490.9,317.4 497.0,319.0 503.1,320.5 509.2,322.0 515.3,323.5 521.4,325.0 527.5,326.5 533.6,328.0 539.7,329.5 545.8,331.0 551.9,332.5 558.0,334.0 564.1,335.5 570.2,337.0 576.3,338.4 582.4,339.9 588.5,341.4 594.6,342.9 600.7,344.4 606.8,345.8 612.9,347.3 619.0,348.8 625.1,350.2 631.2,351.7 637.3,353.1 643.4,354.6 649.5,356.0 655.6,357.5 661.7,358.9 667.8,360.4 673.9,361.8" fill="none" stroke="#1f7a4d" stroke-width="1.8" stroke-dasharray="0" opacity="0.9" /><text x="592.5" y="337.40741201785715" fill="#1f7a4d" font-size="9" opacity="0.95">Odeh V=2.0 (B/C)</text><polyline points="70.0,134.2 76.1,135.9 82.2,137.7 88.3,139.4 94.4,141.2 100.5,142.9 106.6,144.6 112.7,146.4 118.8,148.1 124.9,149.8 131.0,151.6 137.1,153.3 143.2,155.0 149.3,156.7 155.4,158.4 161.5,160.1 167.6,161.8 173.7,163.5 179.8,165.2 185.9,166.9 192.0,168.6 198.1,170.3 204.2,171.9 210.3,173.6 216.4,175.3 222.5,177.0 228.6,178.6 234.7,180.3 240.8,181.9 246.9,183.6 253.0,185.2 259.1,186.9 265.2,188.5 271.3,190.2 277.4,191.8 283.5,193.4 289.6,195.0 295.7,196.7 301.8,198.3 307.9,199.9 314.0,201.5 320.1,203.1 326.2,204.7 332.3,206.3 338.4,207.9 344.5,209.5 350.6,211.1 356.7,212.7 362.8,214.3 368.9,215.9 375.0,217.5 381.1,219.1 387.2,220.6 393.3,222.2 399.4,223.8 405.5,225.3 411.6,226.9 417.7,228.4 423.8,230.0 429.9,231.6 436.0,233.1 442.1,234.6 448.2,236.2 454.3,237.7 460.4,239.3 466.5,240.8 472.6,242.3 478.7,243.9 484.8,245.4 490.9,246.9 497.0,248.4 503.1,249.9 509.2,251.5 515.3,253.0 521.4,254.5 527.5,256.0 533.6,257.5 539.7,259.0 545.8,260.5 551.9,262.0 558.0,263.5 564.1,264.9 570.2,266.4 576.3,267.9 582.4,269.4 588.5,270.9 594.6,272.3 600.7,273.8 606.8,275.3 612.9,276.8 619.0,278.2 625.1,279.7 631.2,281.1 637.3,282.6 643.4,284.1 649.5,285.5 655.6,287.0 661.7,288.4 667.8,289.8 673.9,291.3" fill="none" stroke="#7a4d9c" stroke-width="1.8" stroke-dasharray="4,3" opacity="0.9" /><text x="592.5" y="266.87312630357144" fill="#7a4d9c" font-size="9" opacity="0.95">Yallop q=−0.014 (B/C)</text><polyline points="70.0,103.0 76.1,104.8 82.2,106.5 88.3,108.3 94.4,110.0 100.5,111.8 106.6,113.5 112.7,115.2 118.8,117.0 124.9,118.7 131.0,120.4 137.1,122.1 143.2,123.9 149.3,125.6 155.4,127.3 161.5,129.0 167.6,130.7 173.7,132.4 179.8,134.1 185.9,135.8 192.0,137.4 198.1,139.1 204.2,140.8 210.3,142.5 216.4,144.1 222.5,145.8 228.6,147.5 234.7,149.1 240.8,150.8 246.9,152.4 253.0,154.1 259.1,155.7 265.2,157.4 271.3,159.0 277.4,160.6 283.5,162.3 289.6,163.9 295.7,165.5 301.8,167.1 307.9,168.8 314.0,170.4 320.1,172.0 326.2,173.6 332.3,175.2 338.4,176.8 344.5,178.4 350.6,180.0 356.7,181.6 362.8,183.2 368.9,184.7 375.0,186.3 381.1,187.9 387.2,189.5 393.3,191.1 399.4,192.6 405.5,194.2 411.6,195.7 417.7,197.3 423.8,198.9 429.9,200.4 436.0,202.0 442.1,203.5 448.2,205.0 454.3,206.6 460.4,208.1 466.5,209.7 472.6,211.2 478.7,212.7 484.8,214.2 490.9,215.8 497.0,217.3 503.1,218.8 509.2,220.3 515.3,221.8 521.4,223.3 527.5,224.8 533.6,226.3 539.7,227.8 545.8,229.3 551.9,230.8 558.0,232.3 564.1,233.8 570.2,235.3 576.3,236.8 582.4,238.3 588.5,239.7 594.6,241.2 600.7,242.7 606.8,244.1 612.9,245.6 619.0,247.1 625.1,248.5 631.2,250.0 637.3,251.5 643.4,252.9 649.5,254.4 655.6,255.8 661.7,257.3 667.8,258.7 673.9,260.1" fill="none" stroke="#1f7a4d" stroke-width="1.8" stroke-dasharray="1,2" opacity="0.9" /><text x="592.5" y="235.72884058928574" fill="#1f7a4d" font-size="9" opacity="0.95">Odeh V=5.65 (A/B)</text><polyline points="70.0,70.1 76.1,71.8 82.2,73.6 88.3,75.3 94.4,77.1 100.5,78.8 106.6,80.6 112.7,82.3 118.8,84.0 124.9,85.8 131.0,87.5 137.1,89.2 143.2,90.9 149.3,92.6 155.4,94.3 161.5,96.1 167.6,97.8 173.7,99.4 179.8,101.1 185.9,102.8 192.0,104.5 198.1,106.2 204.2,107.9 210.3,109.5 216.4,111.2 222.5,112.9 228.6,114.5 234.7,116.2 240.8,117.9 246.9,119.5 253.0,121.2 259.1,122.8 265.2,124.4 271.3,126.1 277.4,127.7 283.5,129.4 289.6,131.0 295.7,132.6 301.8,134.2 307.9,135.8 314.0,137.5 320.1,139.1 326.2,140.7 332.3,142.3 338.4,143.9 344.5,145.5 350.6,147.1 356.7,148.7 362.8,150.2 368.9,151.8 375.0,153.4 381.1,155.0 387.2,156.6 393.3,158.1 399.4,159.7 405.5,161.3 411.6,162.8 417.7,164.4 423.8,165.9 429.9,167.5 436.0,169.0 442.1,170.6 448.2,172.1 454.3,173.7 460.4,175.2 466.5,176.7 472.6,178.3 478.7,179.8 484.8,181.3 490.9,182.8 497.0,184.4 503.1,185.9 509.2,187.4 515.3,188.9 521.4,190.4 527.5,191.9 533.6,193.4 539.7,194.9 545.8,196.4 551.9,197.9 558.0,199.4 564.1,200.9 570.2,202.4 576.3,203.8 582.4,205.3 588.5,206.8 594.6,208.3 600.7,209.7 606.8,211.2 612.9,212.7 619.0,214.1 625.1,215.6 631.2,217.1 637.3,218.5 643.4,220.0 649.5,221.4 655.6,222.9 661.7,224.3 667.8,225.8 673.9,227.2" fill="none" stroke="#7a4d9c" stroke-width="1.8" stroke-dasharray="5,2,1,2" opacity="0.9" /><text x="592.5" y="202.80169773214288" fill="#7a4d9c" font-size="9" opacity="0.95">Yallop q=0.216 (A/B)</text><circle cx="128.0" cy="279.3" r="5" fill="#c83030" stroke="#fafaf7" stroke-width="1.5" /><text x="135.9" y="282.3" fill="#1a1a1a" font-size="9" opacity="0.85">R 1441 4/7</text><circle cx="121.2" cy="289.3" r="5" fill="#c83030" stroke="#fafaf7" stroke-width="1.5" /><text x="129.2" y="292.3" fill="#1a1a1a" font-size="9" opacity="0.85">R 1442 5/7</text><circle cx="162.1" cy="232.8" r="5" fill="#c83030" stroke="#fafaf7" stroke-width="1.5" /><text x="170.1" y="235.8" fill="#1a1a1a" font-size="9" opacity="0.85">Sh 1443 3/4</text><circle cx="267.0" cy="140.3" r="5" fill="#1f7a4d" stroke="#fafaf7" stroke-width="1.5" /><text x="275.0" y="143.3" fill="#1a1a1a" font-size="9" opacity="0.85">R 1444 4/4</text><circle cx="106.6" cy="320.7" r="5" fill="#c83030" stroke="#fafaf7" stroke-width="1.5" /><text x="114.6" y="323.7" fill="#1a1a1a" font-size="9" opacity="0.85">Sh 1444 3/6</text><circle cx="121.2" cy="291.5" r="5" fill="#c83030" stroke="#fafaf7" stroke-width="1.5" /><text x="129.2" y="294.5" fill="#1a1a1a" font-size="9" opacity="0.85">DH 1444 2/3</text><circle cx="85.9" cy="370.4" r="5" fill="#c83030" stroke="#fafaf7" stroke-width="1.5" /><text x="93.9" y="373.4" fill="#1a1a1a" font-size="9" opacity="0.85">R 1445 3/7</text><circle cx="96.8" cy="340.9" r="5" fill="#1f7a4d" stroke="#fafaf7" stroke-width="1.5" /><text x="104.8" y="343.9" fill="#1a1a1a" font-size="9" opacity="0.85">DH 1445 3/3</text><circle cx="149.9" cy="258.3" r="5" fill="#c83030" stroke="#fafaf7" stroke-width="1.5" /><text x="157.9" y="261.3" fill="#1a1a1a" font-size="9" opacity="0.85">R 1446 4/8</text><circle cx="76.1" cy="405.4" r="5" fill="#c83030" stroke="#fafaf7" stroke-width="1.5" /><text x="84.1" y="408.4" fill="#1a1a1a" font-size="9" opacity="0.85">Sh 1446 2/6</text><circle cx="168.8" cy="236.5" r="5" fill="#1f7a4d" stroke="#fafaf7" stroke-width="1.5" /><text x="176.8" y="239.5" fill="#1a1a1a" font-size="9" opacity="0.85">DH 1446 2/2</text><text x="690" y="80" fill="#1a1a1a" font-size="11" font-weight="600">Isolines</text><line x1="690" y1="98" x2="714" y2="98" stroke="#1f7a4d" stroke-width="1.8" /><text x="720" y="102" fill="#1a1a1a" font-size="10">Odeh thresholds</text><line x1="690" y1="114" x2="714" y2="114" stroke="#7a4d9c" stroke-width="1.8" stroke-dasharray="4,3" /><text x="720" y="118" fill="#1a1a1a" font-size="10">Yallop thresholds</text><text x="690" y="142" fill="#1a1a1a" font-size="11" font-weight="600">Historical cases</text><circle cx="697" cy="160" r="5" fill="#1f7a4d" stroke="#fafaf7" stroke-width="1.5" /><text x="712" y="164" fill="#1a1a1a" font-size="10">all committees sighted</text><circle cx="697" cy="178" r="5" fill="#9aa0a8" stroke="#fafaf7" stroke-width="1.5" /><text x="712" y="182" fill="#1a1a1a" font-size="10">none sighted</text><circle cx="697" cy="196" r="5" fill="#c83030" stroke="#fafaf7" stroke-width="1.5" /><text x="712" y="200" fill="#1a1a1a" font-size="10">committees split</text><text x="690" y="232" fill="#5a5a5a" font-size="9" opacity="0.85">Each marker is one Hijri</text><text x="690" y="244" fill="#5a5a5a" font-size="9" opacity="0.85">month onset, plotted at</text><text x="690" y="256" fill="#5a5a5a" font-size="9" opacity="0.85">fajr's computed (W, ARCV)</text><text x="690" y="268" fill="#5a5a5a" font-size="9" opacity="0.85">at the first decision's location.</text></svg>