<svg xmlns="http://www.w3.org/2000/svg" viewBox="0 0 1100 600" width="1100" height="600" font-family="-apple-system, system-ui, sans-serif" font-size="11"><rect width="1100" height="600" fill="#fafaf7" /><rect x="60" y="70" width="1010" height="440" fill="#f1efe8" /><text x="550" y="30" text-anchor="middle" fill="#1a1a1a" font-size="17" font-weight="600">Hilal visibility map — Hijri 1447-09 (sighting 2026-02-18 UTC)</text><text x="550" y="50" text-anchor="middle" fill="#1a1a1a" font-size="11" opacity="0.8">Three-criterion classification at sunset on day 29 of the prior Hijri month — Odeh + Yallop + Shaukat</text><line x1="60" y1="436.6666666666667" x2="1070" y2="436.6666666666667" stroke="#dcdcd0" stroke-width="0.5" stroke-dasharray="2,3" /><text x="54" y="439.6666666666667" text-anchor="end" fill="#1a1a1a" font-size="9" opacity="0.6">-60°</text><line x1="60" y1="363.3333333333333" x2="1070" y2="363.3333333333333" stroke="#dcdcd0" stroke-width="0.5" stroke-dasharray="2,3" /><text x="54" y="366.3333333333333" text-anchor="end" fill="#1a1a1a" font-size="9" opacity="0.6">-30°</text><line x1="60" y1="290" x2="1070" y2="290" stroke="#dcdcd0" stroke-width="0.5" stroke-dasharray="2,3" /><text x="54" y="293" text-anchor="end" fill="#1a1a1a" font-size="9" opacity="0.6">+0°</text><line x1="60" y1="216.66666666666666" x2="1070" y2="216.66666666666666" stroke="#dcdcd0" stroke-width="0.5" stroke-dasharray="2,3" /><text x="54" y="219.66666666666666" text-anchor="end" fill="#1a1a1a" font-size="9" opacity="0.6">+30°</text><line x1="60" y1="143.33333333333331" x2="1070" y2="143.33333333333331" stroke="#dcdcd0" stroke-width="0.5" stroke-dasharray="2,3" /><text x="54" y="146.33333333333331" text-anchor="end" fill="#1a1a1a" font-size="9" opacity="0.6">+60°</text><line x1="60" y1="70" x2="60" y2="510" stroke="#dcdcd0" stroke-width="0.5" stroke-dasharray="2,3" /><text x="60" y="524" text-anchor="middle" fill="#1a1a1a" font-size="9" opacity="0.6">-180°</text><line x1="228.33333333333331" y1="70" x2="228.33333333333331" y2="510" stroke="#dcdcd0" stroke-width="0.5" stroke-dasharray="2,3" /><text x="228.33333333333331" y="524" text-anchor="middle" fill="#1a1a1a" font-size="9" opacity="0.6">-120°</text><line x1="396.66666666666663" y1="70" x2="396.66666666666663" y2="510" stroke="#dcdcd0" stroke-width="0.5" stroke-dasharray="2,3" /><text x="396.66666666666663" y="524" text-anchor="middle" fill="#1a1a1a" font-size="9" opacity="0.6">-60°</text><line x1="565" y1="70" x2="565" y2="510" stroke="#dcdcd0" stroke-width="0.5" stroke-dasharray="2,3" /><text x="565" y="524" text-anchor="middle" fill="#1a1a1a" font-size="9" opacity="0.6">0°</text><line x1="733.3333333333333" y1="70" x2="733.3333333333333" y2="510" stroke="#dcdcd0" stroke-width="0.5" stroke-dasharray="2,3" /><text x="733.3333333333333" y="524" text-anchor="middle" fill="#1a1a1a" font-size="9" opacity="0.6">60°</text><line x1="901.6666666666667" y1="70" x2="901.6666666666667" y2="510" stroke="#dcdcd0" stroke-width="0.5" stroke-dasharray="2,3" /><text x="901.6666666666667" y="524" text-anchor="middle" fill="#1a1a1a" font-size="9" opacity="0.6">120°</text><line x1="1070" y1="70" x2="1070" y2="510" stroke="#dcdcd0" stroke-width="0.5" stroke-dasharray="2,3" /><text x="1070" y="524" text-anchor="middle" fill="#1a1a1a" font-size="9" opacity="0.6">180°</text><rect x="60.0" y="143.3" width="28.1" height="24.4" fill="#c83030" opacity="0.85" /><rect x="88.1" y="143.3" width="28.1" height="24.4" fill="#c8881a" opacity="0.85" /><rect x="116.1" y="143.3" width="28.1" height="24.4" fill="#c8881a" opacity="0.85" /><rect x="144.2" y="143.3" width="28.1" height="24.4" fill="#c8881a" opacity="0.85" /><rect x="172.2" y="143.3" width="28.1" height="24.4" fill="#c8881a" opacity="0.85" /><rect x="200.3" y="143.3" width="28.1" height="24.4" fill="#c8881a" opacity="0.85" /><rect x="228.3" y="143.3" width="28.1" height="24.4" fill="#c8881a" opacity="0.85" /><rect x="256.4" y="143.3" width="28.1" height="24.4" fill="#9aa0a8" opacity="0.85" /><rect x="284.4" y="143.3" width="28.1" height="24.4" fill="#9aa0a8" opacity="0.85" /><rect x="312.5" y="143.3" width="28.1" height="24.4" fill="#9aa0a8" opacity="0.85" /><rect x="340.6" y="143.3" width="28.1" height="24.4" fill="#9aa0a8" opacity="0.85" /><rect x="368.6" y="143.3" width="28.1" height="24.4" fill="#9aa0a8" opacity="0.85" /><rect x="396.7" y="143.3" width="28.1" height="24.4" fill="#9aa0a8" opacity="0.85" /><rect x="424.7" y="143.3" width="28.1" height="24.4" fill="#9aa0a8" opacity="0.85" /><rect x="452.8" y="143.3" width="28.1" height="24.4" fill="#9aa0a8" opacity="0.85" /><rect x="480.8" y="143.3" width="28.1" height="24.4" fill="#9aa0a8" opacity="0.85" /><rect x="508.9" y="143.3" width="28.1" height="24.4" fill="#9aa0a8" opacity="0.85" /><rect x="536.9" y="143.3" width="28.1" height="24.4" fill="#9aa0a8" opacity="0.85" /><rect x="565.0" y="143.3" width="28.1" height="24.4" fill="#9aa0a8" opacity="0.85" /><rect x="593.1" y="143.3" width="28.1" height="24.4" fill="#9aa0a8" opacity="0.85" /><rect x="621.1" y="143.3" width="28.1" height="24.4" fill="#9aa0a8" opacity="0.85" /><rect x="649.2" y="143.3" width="28.1" height="24.4" fill="#9aa0a8" opacity="0.85" /><rect x="677.2" y="143.3" width="28.1" height="24.4" fill="#9aa0a8" opacity="0.85" /><rect x="705.3" y="143.3" width="28.1" height="24.4" fill="#9aa0a8" opacity="0.85" /><rect x="733.3" y="143.3" width="28.1" height="24.4" fill="#9aa0a8" opacity="0.85" /><rect x="761.4" y="143.3" width="28.1" height="24.4" fill="#9aa0a8" opacity="0.85" /><rect x="789.4" y="143.3" width="28.1" height="24.4" fill="#9aa0a8" opacity="0.85" /><rect x="817.5" y="143.3" width="28.1" height="24.4" fill="#9aa0a8" opacity="0.85" /><rect x="845.6" y="143.3" width="28.1" height="24.4" fill="#9aa0a8" opacity="0.85" /><rect x="873.6" y="143.3" width="28.1" height="24.4" fill="#9aa0a8" opacity="0.85" /><rect x="901.7" y="143.3" width="28.1" height="24.4" fill="#9aa0a8" opacity="0.85" /><rect x="929.7" y="143.3" width="28.1" height="24.4" fill="#9aa0a8" opacity="0.85" /><rect x="957.8" y="143.3" width="28.1" height="24.4" fill="#9aa0a8" opacity="0.85" /><rect x="985.8" y="143.3" width="28.1" height="24.4" fill="#9aa0a8" opacity="0.85" /><rect x="1013.9" y="143.3" width="28.1" height="24.4" fill="#9aa0a8" opacity="0.85" /><rect x="1041.9" y="143.3" width="28.1" height="24.4" fill="#9aa0a8" opacity="0.85" /><rect x="60.0" y="167.8" width="28.1" height="24.4" fill="#c83030" opacity="0.85" /><rect x="88.1" y="167.8" width="28.1" height="24.4" fill="#c8881a" opacity="0.85" /><rect x="116.1" y="167.8" width="28.1" height="24.4" fill="#c8881a" opacity="0.85" /><rect x="144.2" y="167.8" width="28.1" height="24.4" fill="#c8881a" opacity="0.85" /><rect x="172.2" y="167.8" width="28.1" height="24.4" fill="#c8881a" opacity="0.85" /><rect x="200.3" y="167.8" width="28.1" height="24.4" fill="#c8881a" opacity="0.85" /><rect x="228.3" y="167.8" width="28.1" height="24.4" fill="#c8881a" opacity="0.85" /><rect x="256.4" y="167.8" width="28.1" height="24.4" fill="#9aa0a8" opacity="0.85" /><rect x="284.4" y="167.8" width="28.1" height="24.4" fill="#9aa0a8" opacity="0.85" /><rect x="312.5" y="167.8" width="28.1" height="24.4" fill="#9aa0a8" opacity="0.85" /><rect x="340.6" y="167.8" width="28.1" height="24.4" fill="#9aa0a8" opacity="0.85" /><rect x="368.6" y="167.8" width="28.1" height="24.4" fill="#9aa0a8" opacity="0.85" /><rect x="396.7" y="167.8" width="28.1" height="24.4" fill="#9aa0a8" opacity="0.85" /><rect x="424.7" y="167.8" width="28.1" height="24.4" fill="#9aa0a8" opacity="0.85" /><rect x="452.8" y="167.8" width="28.1" height="24.4" fill="#9aa0a8" opacity="0.85" /><rect x="480.8" y="167.8" width="28.1" height="24.4" fill="#9aa0a8" opacity="0.85" /><rect x="508.9" y="167.8" width="28.1" height="24.4" fill="#9aa0a8" opacity="0.85" /><rect x="536.9" y="167.8" width="28.1" height="24.4" fill="#9aa0a8" opacity="0.85" /><rect x="565.0" y="167.8" width="28.1" height="24.4" fill="#9aa0a8" opacity="0.85" /><rect x="593.1" y="167.8" width="28.1" height="24.4" fill="#9aa0a8" opacity="0.85" /><rect x="621.1" y="167.8" width="28.1" height="24.4" fill="#9aa0a8" opacity="0.85" /><rect x="649.2" y="167.8" width="28.1" height="24.4" fill="#9aa0a8" opacity="0.85" /><rect x="677.2" y="167.8" width="28.1" height="24.4" fill="#9aa0a8" opacity="0.85" /><rect x="705.3" y="167.8" width="28.1" height="24.4" fill="#9aa0a8" opacity="0.85" /><rect x="733.3" y="167.8" width="28.1" height="24.4" fill="#9aa0a8" opacity="0.85" /><rect x="761.4" y="167.8" width="28.1" height="24.4" fill="#9aa0a8" opacity="0.85" /><rect x="789.4" y="167.8" width="28.1" height="24.4" fill="#9aa0a8" opacity="0.85" /><rect x="817.5" y="167.8" width="28.1" height="24.4" fill="#9aa0a8" opacity="0.85" /><rect x="845.6" y="167.8" width="28.1" height="24.4" fill="#9aa0a8" opacity="0.85" /><rect x="873.6" y="167.8" width="28.1" height="24.4" fill="#9aa0a8" opacity="0.85" /><rect x="901.7" y="167.8" width="28.1" height="24.4" fill="#9aa0a8" opacity="0.85" /><rect x="929.7" y="167.8" width="28.1" height="24.4" fill="#9aa0a8" opacity="0.85" /><rect x="957.8" y="167.8" width="28.1" height="24.4" fill="#9aa0a8" opacity="0.85" /><rect x="985.8" y="167.8" width="28.1" height="24.4" fill="#9aa0a8" opacity="0.85" /><rect x="1013.9" y="167.8" width="28.1" height="24.4" fill="#9aa0a8" opacity="0.85" /><rect x="1041.9" y="167.8" width="28.1" height="24.4" fill="#9aa0a8" opacity="0.85" /><rect x="60.0" y="192.2" width="28.1" height="24.4" fill="#c83030" opacity="0.85" /><rect x="88.1" y="192.2" width="28.1" height="24.4" fill="#c8881a" opacity="0.85" /><rect x="116.1" y="192.2" width="28.1" height="24.4" fill="#c8881a" opacity="0.85" /><rect x="144.2" y="192.2" width="28.1" height="24.4" fill="#c8881a" opacity="0.85" /><rect x="172.2" y="192.2" width="28.1" height="24.4" fill="#c8881a" opacity="0.85" /><rect x="200.3" y="192.2" width="28.1" height="24.4" fill="#c8881a" opacity="0.85" /><rect x="228.3" y="192.2" width="28.1" height="24.4" fill="#c8881a" opacity="0.85" /><rect x="256.4" y="192.2" width="28.1" height="24.4" fill="#9aa0a8" opacity="0.85" /><rect x="284.4" y="192.2" width="28.1" height="24.4" fill="#9aa0a8" opacity="0.85" /><rect x="312.5" y="192.2" width="28.1" height="24.4" fill="#9aa0a8" opacity="0.85" /><rect x="340.6" y="192.2" width="28.1" height="24.4" fill="#9aa0a8" opacity="0.85" /><rect x="368.6" y="192.2" width="28.1" height="24.4" fill="#9aa0a8" opacity="0.85" /><rect x="396.7" y="192.2" width="28.1" height="24.4" fill="#9aa0a8" opacity="0.85" /><rect x="424.7" y="192.2" width="28.1" height="24.4" fill="#9aa0a8" opacity="0.85" /><rect x="452.8" y="192.2" width="28.1" height="24.4" fill="#9aa0a8" opacity="0.85" /><rect x="480.8" y="192.2" width="28.1" height="24.4" fill="#9aa0a8" opacity="0.85" /><rect x="508.9" y="192.2" width="28.1" height="24.4" fill="#9aa0a8" opacity="0.85" /><rect x="536.9" y="192.2" width="28.1" height="24.4" fill="#9aa0a8" opacity="0.85" /><rect x="565.0" y="192.2" width="28.1" height="24.4" fill="#9aa0a8" opacity="0.85" /><rect x="593.1" y="192.2" width="28.1" height="24.4" fill="#9aa0a8" opacity="0.85" /><rect x="621.1" y="192.2" width="28.1" height="24.4" fill="#9aa0a8" opacity="0.85" /><rect x="649.2" y="192.2" width="28.1" height="24.4" fill="#9aa0a8" opacity="0.85" /><rect x="677.2" y="192.2" width="28.1" height="24.4" fill="#9aa0a8" opacity="0.85" /><rect x="705.3" y="192.2" width="28.1" height="24.4" fill="#9aa0a8" opacity="0.85" /><rect x="733.3" y="192.2" width="28.1" height="24.4" fill="#9aa0a8" opacity="0.85" /><rect x="761.4" y="192.2" width="28.1" height="24.4" fill="#9aa0a8" opacity="0.85" /><rect x="789.4" y="192.2" width="28.1" height="24.4" fill="#9aa0a8" opacity="0.85" /><rect x="817.5" y="192.2" width="28.1" height="24.4" fill="#9aa0a8" opacity="0.85" /><rect x="845.6" y="192.2" width="28.1" height="24.4" fill="#9aa0a8" opacity="0.85" /><rect x="873.6" y="192.2" width="28.1" height="24.4" fill="#9aa0a8" opacity="0.85" /><rect x="901.7" y="192.2" width="28.1" height="24.4" fill="#9aa0a8" opacity="0.85" /><rect x="929.7" y="192.2" width="28.1" height="24.4" fill="#9aa0a8" opacity="0.85" /><rect x="957.8" y="192.2" width="28.1" height="24.4" fill="#9aa0a8" opacity="0.85" /><rect x="985.8" y="192.2" width="28.1" height="24.4" fill="#9aa0a8" opacity="0.85" /><rect x="1013.9" y="192.2" width="28.1" height="24.4" fill="#9aa0a8" opacity="0.85" /><rect x="1041.9" y="192.2" width="28.1" height="24.4" fill="#9aa0a8" opacity="0.85" /><rect x="60.0" y="216.7" width="28.1" height="24.4" fill="#c83030" opacity="0.85" /><rect x="88.1" y="216.7" width="28.1" height="24.4" fill="#c83030" opacity="0.85" /><rect x="116.1" y="216.7" width="28.1" height="24.4" fill="#c8881a" opacity="0.85" /><rect x="144.2" y="216.7" width="28.1" height="24.4" fill="#c8881a" opacity="0.85" /><rect x="172.2" y="216.7" width="28.1" height="24.4" fill="#c8881a" opacity="0.85" /><rect x="200.3" y="216.7" width="28.1" height="24.4" fill="#c8881a" opacity="0.85" /><rect x="228.3" y="216.7" width="28.1" height="24.4" fill="#c8881a" opacity="0.85" /><rect x="256.4" y="216.7" width="28.1" height="24.4" fill="#9aa0a8" opacity="0.85" /><rect x="284.4" y="216.7" width="28.1" height="24.4" fill="#9aa0a8" opacity="0.85" /><rect x="312.5" y="216.7" width="28.1" height="24.4" fill="#9aa0a8" opacity="0.85" /><rect x="340.6" y="216.7" width="28.1" height="24.4" fill="#9aa0a8" opacity="0.85" /><rect x="368.6" y="216.7" width="28.1" height="24.4" fill="#9aa0a8" opacity="0.85" /><rect x="396.7" y="216.7" width="28.1" height="24.4" fill="#9aa0a8" opacity="0.85" /><rect x="424.7" y="216.7" width="28.1" height="24.4" fill="#9aa0a8" opacity="0.85" /><rect x="452.8" y="216.7" width="28.1" height="24.4" fill="#9aa0a8" opacity="0.85" /><rect x="480.8" y="216.7" width="28.1" height="24.4" fill="#9aa0a8" opacity="0.85" /><rect x="508.9" y="216.7" width="28.1" height="24.4" fill="#9aa0a8" opacity="0.85" /><rect x="536.9" y="216.7" width="28.1" height="24.4" fill="#9aa0a8" opacity="0.85" /><rect x="565.0" y="216.7" width="28.1" height="24.4" fill="#9aa0a8" opacity="0.85" /><rect x="593.1" y="216.7" width="28.1" height="24.4" fill="#9aa0a8" opacity="0.85" /><rect x="621.1" y="216.7" width="28.1" height="24.4" fill="#9aa0a8" opacity="0.85" /><rect x="649.2" y="216.7" width="28.1" height="24.4" fill="#9aa0a8" opacity="0.85" /><rect x="677.2" y="216.7" width="28.1" height="24.4" fill="#9aa0a8" opacity="0.85" /><rect x="705.3" y="216.7" width="28.1" height="24.4" fill="#9aa0a8" opacity="0.85" /><rect x="733.3" y="216.7" width="28.1" height="24.4" fill="#9aa0a8" opacity="0.85" /><rect x="761.4" y="216.7" width="28.1" height="24.4" fill="#9aa0a8" opacity="0.85" /><rect x="789.4" y="216.7" width="28.1" height="24.4" fill="#9aa0a8" opacity="0.85" /><rect x="817.5" y="216.7" width="28.1" height="24.4" fill="#9aa0a8" opacity="0.85" /><rect x="845.6" y="216.7" width="28.1" height="24.4" fill="#9aa0a8" opacity="0.85" /><rect x="873.6" y="216.7" width="28.1" height="24.4" fill="#9aa0a8" opacity="0.85" /><rect x="901.7" y="216.7" width="28.1" height="24.4" fill="#9aa0a8" opacity="0.85" /><rect x="929.7" y="216.7" width="28.1" height="24.4" fill="#9aa0a8" opacity="0.85" /><rect x="957.8" y="216.7" width="28.1" height="24.4" fill="#9aa0a8" opacity="0.85" /><rect x="985.8" y="216.7" width="28.1" height="24.4" fill="#9aa0a8" opacity="0.85" /><rect x="1013.9" y="216.7" width="28.1" height="24.4" fill="#9aa0a8" opacity="0.85" /><rect x="1041.9" y="216.7" width="28.1" height="24.4" fill="#9aa0a8" opacity="0.85" /><rect x="60.0" y="241.1" width="28.1" height="24.4" fill="#c83030" opacity="0.85" /><rect x="88.1" y="241.1" width="28.1" height="24.4" fill="#c83030" opacity="0.85" /><rect x="116.1" y="241.1" width="28.1" height="24.4" fill="#c8881a" opacity="0.85" /><rect x="144.2" y="241.1" width="28.1" height="24.4" fill="#c8881a" opacity="0.85" /><rect x="172.2" y="241.1" width="28.1" height="24.4" fill="#c8881a" opacity="0.85" /><rect x="200.3" y="241.1" width="28.1" height="24.4" fill="#c8881a" opacity="0.85" /><rect x="228.3" y="241.1" width="28.1" height="24.4" fill="#c8881a" opacity="0.85" /><rect x="256.4" y="241.1" width="28.1" height="24.4" fill="#c8881a" opacity="0.85" /><rect x="284.4" y="241.1" width="28.1" height="24.4" fill="#9aa0a8" opacity="0.85" /><rect x="312.5" y="241.1" width="28.1" height="24.4" fill="#9aa0a8" opacity="0.85" /><rect x="340.6" y="241.1" width="28.1" height="24.4" fill="#9aa0a8" opacity="0.85" /><rect x="368.6" y="241.1" width="28.1" height="24.4" fill="#9aa0a8" opacity="0.85" /><rect x="396.7" y="241.1" width="28.1" height="24.4" fill="#9aa0a8" opacity="0.85" /><rect x="424.7" y="241.1" width="28.1" height="24.4" fill="#9aa0a8" opacity="0.85" /><rect x="452.8" y="241.1" width="28.1" height="24.4" fill="#9aa0a8" opacity="0.85" /><rect x="480.8" y="241.1" width="28.1" height="24.4" fill="#9aa0a8" opacity="0.85" /><rect x="508.9" y="241.1" width="28.1" height="24.4" fill="#9aa0a8" opacity="0.85" /><rect x="536.9" y="241.1" width="28.1" height="24.4" fill="#9aa0a8" opacity="0.85" /><rect x="565.0" y="241.1" width="28.1" height="24.4" fill="#9aa0a8" opacity="0.85" /><rect x="593.1" y="241.1" width="28.1" height="24.4" fill="#9aa0a8" opacity="0.85" /><rect x="621.1" y="241.1" width="28.1" height="24.4" fill="#9aa0a8" opacity="0.85" /><rect x="649.2" y="241.1" width="28.1" height="24.4" fill="#9aa0a8" opacity="0.85" /><rect x="677.2" y="241.1" width="28.1" height="24.4" fill="#9aa0a8" opacity="0.85" /><rect x="705.3" y="241.1" width="28.1" height="24.4" fill="#9aa0a8" opacity="0.85" /><rect x="733.3" y="241.1" width="28.1" height="24.4" fill="#9aa0a8" opacity="0.85" /><rect x="761.4" y="241.1" width="28.1" height="24.4" fill="#9aa0a8" opacity="0.85" /><rect x="789.4" y="241.1" width="28.1" height="24.4" fill="#9aa0a8" opacity="0.85" /><rect x="817.5" y="241.1" width="28.1" height="24.4" fill="#9aa0a8" opacity="0.85" /><rect x="845.6" y="241.1" width="28.1" height="24.4" fill="#9aa0a8" opacity="0.85" /><rect x="873.6" y="241.1" width="28.1" height="24.4" fill="#9aa0a8" opacity="0.85" /><rect x="901.7" y="241.1" width="28.1" height="24.4" fill="#9aa0a8" opacity="0.85" /><rect x="929.7" y="241.1" width="28.1" height="24.4" fill="#9aa0a8" opacity="0.85" /><rect x="957.8" y="241.1" width="28.1" height="24.4" fill="#9aa0a8" opacity="0.85" /><rect x="985.8" y="241.1" width="28.1" height="24.4" fill="#9aa0a8" opacity="0.85" /><rect x="1013.9" y="241.1" width="28.1" height="24.4" fill="#9aa0a8" opacity="0.85" /><rect x="1041.9" y="241.1" width="28.1" height="24.4" fill="#9aa0a8" opacity="0.85" /><rect x="60.0" y="265.6" width="28.1" height="24.4" fill="#c83030" opacity="0.85" /><rect x="88.1" y="265.6" width="28.1" height="24.4" fill="#c83030" opacity="0.85" /><rect x="116.1" y="265.6" width="28.1" height="24.4" fill="#c8881a" opacity="0.85" /><rect x="144.2" y="265.6" width="28.1" height="24.4" fill="#c8881a" opacity="0.85" /><rect x="172.2" y="265.6" width="28.1" height="24.4" fill="#c8881a" opacity="0.85" /><rect x="200.3" y="265.6" width="28.1" height="24.4" fill="#c8881a" opacity="0.85" /><rect x="228.3" y="265.6" width="28.1" height="24.4" fill="#c8881a" opacity="0.85" /><rect x="256.4" y="265.6" width="28.1" height="24.4" fill="#c8881a" opacity="0.85" /><rect x="284.4" y="265.6" width="28.1" height="24.4" fill="#9aa0a8" opacity="0.85" /><rect x="312.5" y="265.6" width="28.1" height="24.4" fill="#9aa0a8" opacity="0.85" /><rect x="340.6" y="265.6" width="28.1" height="24.4" fill="#9aa0a8" opacity="0.85" /><rect x="368.6" y="265.6" width="28.1" height="24.4" fill="#9aa0a8" opacity="0.85" /><rect x="396.7" y="265.6" width="28.1" height="24.4" fill="#9aa0a8" opacity="0.85" /><rect x="424.7" y="265.6" width="28.1" height="24.4" fill="#9aa0a8" opacity="0.85" /><rect x="452.8" y="265.6" width="28.1" height="24.4" fill="#9aa0a8" opacity="0.85" /><rect x="480.8" y="265.6" width="28.1" height="24.4" fill="#9aa0a8" opacity="0.85" /><rect x="508.9" y="265.6" width="28.1" height="24.4" fill="#9aa0a8" opacity="0.85" /><rect x="536.9" y="265.6" width="28.1" height="24.4" fill="#9aa0a8" opacity="0.85" /><rect x="565.0" y="265.6" width="28.1" height="24.4" fill="#9aa0a8" opacity="0.85" /><rect x="593.1" y="265.6" width="28.1" height="24.4" fill="#9aa0a8" opacity="0.85" /><rect x="621.1" y="265.6" width="28.1" height="24.4" fill="#9aa0a8" opacity="0.85" /><rect x="649.2" y="265.6" width="28.1" height="24.4" fill="#9aa0a8" opacity="0.85" /><rect x="677.2" y="265.6" width="28.1" height="24.4" fill="#9aa0a8" opacity="0.85" /><rect x="705.3" y="265.6" width="28.1" height="24.4" fill="#9aa0a8" opacity="0.85" /><rect x="733.3" y="265.6" width="28.1" height="24.4" fill="#9aa0a8" opacity="0.85" /><rect x="761.4" y="265.6" width="28.1" height="24.4" fill="#9aa0a8" opacity="0.85" /><rect x="789.4" y="265.6" width="28.1" height="24.4" fill="#9aa0a8" opacity="0.85" /><rect x="817.5" y="265.6" width="28.1" height="24.4" fill="#9aa0a8" opacity="0.85" /><rect x="845.6" y="265.6" width="28.1" height="24.4" fill="#9aa0a8" opacity="0.85" /><rect x="873.6" y="265.6" width="28.1" height="24.4" fill="#9aa0a8" opacity="0.85" /><rect x="901.7" y="265.6" width="28.1" height="24.4" fill="#9aa0a8" opacity="0.85" /><rect x="929.7" y="265.6" width="28.1" height="24.4" fill="#9aa0a8" opacity="0.85" /><rect x="957.8" y="265.6" width="28.1" height="24.4" fill="#9aa0a8" opacity="0.85" /><rect x="985.8" y="265.6" width="28.1" height="24.4" fill="#9aa0a8" opacity="0.85" /><rect x="1013.9" y="265.6" width="28.1" height="24.4" fill="#9aa0a8" opacity="0.85" /><rect x="1041.9" y="265.6" width="28.1" height="24.4" fill="#9aa0a8" opacity="0.85" /><rect x="60.0" y="290.0" width="28.1" height="24.4" fill="#c83030" opacity="0.85" /><rect x="88.1" y="290.0" width="28.1" height="24.4" fill="#c8881a" opacity="0.85" /><rect x="116.1" y="290.0" width="28.1" height="24.4" fill="#c8881a" opacity="0.85" /><rect x="144.2" y="290.0" width="28.1" height="24.4" fill="#c8881a" opacity="0.85" /><rect x="172.2" y="290.0" width="28.1" height="24.4" fill="#c8881a" opacity="0.85" /><rect x="200.3" y="290.0" width="28.1" height="24.4" fill="#c8881a" opacity="0.85" /><rect x="228.3" y="290.0" width="28.1" height="24.4" fill="#c8881a" opacity="0.85" /><rect x="256.4" y="290.0" width="28.1" height="24.4" fill="#c8881a" opacity="0.85" /><rect x="284.4" y="290.0" width="28.1" height="24.4" fill="#9aa0a8" opacity="0.85" /><rect x="312.5" y="290.0" width="28.1" height="24.4" fill="#9aa0a8" opacity="0.85" /><rect x="340.6" y="290.0" width="28.1" height="24.4" fill="#9aa0a8" opacity="0.85" /><rect x="368.6" y="290.0" width="28.1" height="24.4" fill="#9aa0a8" opacity="0.85" /><rect x="396.7" y="290.0" width="28.1" height="24.4" fill="#9aa0a8" opacity="0.85" /><rect x="424.7" y="290.0" width="28.1" height="24.4" fill="#9aa0a8" opacity="0.85" /><rect x="452.8" y="290.0" width="28.1" height="24.4" fill="#9aa0a8" opacity="0.85" /><rect x="480.8" y="290.0" width="28.1" height="24.4" fill="#9aa0a8" opacity="0.85" /><rect x="508.9" y="290.0" width="28.1" height="24.4" fill="#9aa0a8" opacity="0.85" /><rect x="536.9" y="290.0" width="28.1" height="24.4" fill="#9aa0a8" opacity="0.85" /><rect x="565.0" y="290.0" width="28.1" height="24.4" fill="#9aa0a8" opacity="0.85" /><rect x="593.1" y="290.0" width="28.1" height="24.4" fill="#9aa0a8" opacity="0.85" /><rect x="621.1" y="290.0" width="28.1" height="24.4" fill="#9aa0a8" opacity="0.85" /><rect x="649.2" y="290.0" width="28.1" height="24.4" fill="#9aa0a8" opacity="0.85" /><rect x="677.2" y="290.0" width="28.1" height="24.4" fill="#9aa0a8" opacity="0.85" /><rect x="705.3" y="290.0" width="28.1" height="24.4" fill="#9aa0a8" opacity="0.85" /><rect x="733.3" y="290.0" width="28.1" height="24.4" fill="#9aa0a8" opacity="0.85" /><rect x="761.4" y="290.0" width="28.1" height="24.4" fill="#9aa0a8" opacity="0.85" /><rect x="789.4" y="290.0" width="28.1" height="24.4" fill="#9aa0a8" opacity="0.85" /><rect x="817.5" y="290.0" width="28.1" height="24.4" fill="#9aa0a8" opacity="0.85" /><rect x="845.6" y="290.0" width="28.1" height="24.4" fill="#9aa0a8" opacity="0.85" /><rect x="873.6" y="290.0" width="28.1" height="24.4" fill="#9aa0a8" opacity="0.85" /><rect x="901.7" y="290.0" width="28.1" height="24.4" fill="#9aa0a8" opacity="0.85" /><rect x="929.7" y="290.0" width="28.1" height="24.4" fill="#9aa0a8" opacity="0.85" /><rect x="957.8" y="290.0" width="28.1" height="24.4" fill="#9aa0a8" opacity="0.85" /><rect x="985.8" y="290.0" width="28.1" height="24.4" fill="#9aa0a8" opacity="0.85" /><rect x="1013.9" y="290.0" width="28.1" height="24.4" fill="#9aa0a8" opacity="0.85" /><rect x="1041.9" y="290.0" width="28.1" height="24.4" fill="#9aa0a8" opacity="0.85" /><rect x="60.0" y="314.4" width="28.1" height="24.4" fill="#c83030" opacity="0.85" /><rect x="88.1" y="314.4" width="28.1" height="24.4" fill="#c83030" opacity="0.85" /><rect x="116.1" y="314.4" width="28.1" height="24.4" fill="#c8881a" opacity="0.85" /><rect x="144.2" y="314.4" width="28.1" height="24.4" fill="#c8881a" opacity="0.85" /><rect x="172.2" y="314.4" width="28.1" height="24.4" fill="#c8881a" opacity="0.85" /><rect x="200.3" y="314.4" width="28.1" height="24.4" fill="#c8881a" opacity="0.85" /><rect x="228.3" y="314.4" width="28.1" height="24.4" fill="#c8881a" opacity="0.85" /><rect x="256.4" y="314.4" width="28.1" height="24.4" fill="#c8881a" opacity="0.85" /><rect x="284.4" y="314.4" width="28.1" height="24.4" fill="#c8881a" opacity="0.85" /><rect x="312.5" y="314.4" width="28.1" height="24.4" fill="#9aa0a8" opacity="0.85" /><rect x="340.6" y="314.4" width="28.1" height="24.4" fill="#9aa0a8" opacity="0.85" /><rect x="368.6" y="314.4" width="28.1" height="24.4" fill="#9aa0a8" opacity="0.85" /><rect x="396.7" y="314.4" width="28.1" height="24.4" fill="#9aa0a8" opacity="0.85" /><rect x="424.7" y="314.4" width="28.1" height="24.4" fill="#9aa0a8" opacity="0.85" /><rect x="452.8" y="314.4" width="28.1" height="24.4" fill="#9aa0a8" opacity="0.85" /><rect x="480.8" y="314.4" width="28.1" height="24.4" fill="#9aa0a8" opacity="0.85" /><rect x="508.9" y="314.4" width="28.1" height="24.4" fill="#9aa0a8" opacity="0.85" /><rect x="536.9" y="314.4" width="28.1" height="24.4" fill="#9aa0a8" opacity="0.85" /><rect x="565.0" y="314.4" width="28.1" height="24.4" fill="#9aa0a8" opacity="0.85" /><rect x="593.1" y="314.4" width="28.1" height="24.4" fill="#9aa0a8" opacity="0.85" /><rect x="621.1" y="314.4" width="28.1" height="24.4" fill="#9aa0a8" opacity="0.85" /><rect x="649.2" y="314.4" width="28.1" height="24.4" fill="#9aa0a8" opacity="0.85" /><rect x="677.2" y="314.4" width="28.1" height="24.4" fill="#9aa0a8" opacity="0.85" /><rect x="705.3" y="314.4" width="28.1" height="24.4" fill="#9aa0a8" opacity="0.85" /><rect x="733.3" y="314.4" width="28.1" height="24.4" fill="#9aa0a8" opacity="0.85" /><rect x="761.4" y="314.4" width="28.1" height="24.4" fill="#9aa0a8" opacity="0.85" /><rect x="789.4" y="314.4" width="28.1" height="24.4" fill="#9aa0a8" opacity="0.85" /><rect x="817.5" y="314.4" width="28.1" height="24.4" fill="#9aa0a8" opacity="0.85" /><rect x="845.6" y="314.4" width="28.1" height="24.4" fill="#9aa0a8" opacity="0.85" /><rect x="873.6" y="314.4" width="28.1" height="24.4" fill="#9aa0a8" opacity="0.85" /><rect x="901.7" y="314.4" width="28.1" height="24.4" fill="#9aa0a8" opacity="0.85" /><rect x="929.7" y="314.4" width="28.1" height="24.4" fill="#9aa0a8" opacity="0.85" /><rect x="957.8" y="314.4" width="28.1" height="24.4" fill="#9aa0a8" opacity="0.85" /><rect x="985.8" y="314.4" width="28.1" height="24.4" fill="#9aa0a8" opacity="0.85" /><rect x="1013.9" y="314.4" width="28.1" height="24.4" fill="#9aa0a8" opacity="0.85" /><rect x="1041.9" y="314.4" width="28.1" height="24.4" fill="#9aa0a8" opacity="0.85" /><rect x="60.0" y="338.9" width="28.1" height="24.4" fill="#c83030" opacity="0.85" /><rect x="88.1" y="338.9" width="28.1" height="24.4" fill="#c83030" opacity="0.85" /><rect x="116.1" y="338.9" width="28.1" height="24.4" fill="#c8881a" opacity="0.85" /><rect x="144.2" y="338.9" width="28.1" height="24.4" fill="#c8881a" opacity="0.85" /><rect x="172.2" y="338.9" width="28.1" height="24.4" fill="#c8881a" opacity="0.85" /><rect x="200.3" y="338.9" width="28.1" height="24.4" fill="#c8881a" opacity="0.85" /><rect x="228.3" y="338.9" width="28.1" height="24.4" fill="#c8881a" opacity="0.85" /><rect x="256.4" y="338.9" width="28.1" height="24.4" fill="#c8881a" opacity="0.85" /><rect x="284.4" y="338.9" width="28.1" height="24.4" fill="#c8881a" opacity="0.85" /><rect x="312.5" y="338.9" width="28.1" height="24.4" fill="#9aa0a8" opacity="0.85" /><rect x="340.6" y="338.9" width="28.1" height="24.4" fill="#9aa0a8" opacity="0.85" /><rect x="368.6" y="338.9" width="28.1" height="24.4" fill="#9aa0a8" opacity="0.85" /><rect x="396.7" y="338.9" width="28.1" height="24.4" fill="#9aa0a8" opacity="0.85" /><rect x="424.7" y="338.9" width="28.1" height="24.4" fill="#9aa0a8" opacity="0.85" /><rect x="452.8" y="338.9" width="28.1" height="24.4" fill="#9aa0a8" opacity="0.85" /><rect x="480.8" y="338.9" width="28.1" height="24.4" fill="#9aa0a8" opacity="0.85" /><rect x="508.9" y="338.9" width="28.1" height="24.4" fill="#9aa0a8" opacity="0.85" /><rect x="536.9" y="338.9" width="28.1" height="24.4" fill="#9aa0a8" opacity="0.85" /><rect x="565.0" y="338.9" width="28.1" height="24.4" fill="#9aa0a8" opacity="0.85" /><rect x="593.1" y="338.9" width="28.1" height="24.4" fill="#9aa0a8" opacity="0.85" /><rect x="621.1" y="338.9" width="28.1" height="24.4" fill="#9aa0a8" opacity="0.85" /><rect x="649.2" y="338.9" width="28.1" height="24.4" fill="#9aa0a8" opacity="0.85" /><rect x="677.2" y="338.9" width="28.1" height="24.4" fill="#9aa0a8" opacity="0.85" /><rect x="705.3" y="338.9" width="28.1" height="24.4" fill="#9aa0a8" opacity="0.85" /><rect x="733.3" y="338.9" width="28.1" height="24.4" fill="#9aa0a8" opacity="0.85" /><rect x="761.4" y="338.9" width="28.1" height="24.4" fill="#9aa0a8" opacity="0.85" /><rect x="789.4" y="338.9" width="28.1" height="24.4" fill="#9aa0a8" opacity="0.85" /><rect x="817.5" y="338.9" width="28.1" height="24.4" fill="#9aa0a8" opacity="0.85" /><rect x="845.6" y="338.9" width="28.1" height="24.4" fill="#9aa0a8" opacity="0.85" /><rect x="873.6" y="338.9" width="28.1" height="24.4" fill="#9aa0a8" opacity="0.85" /><rect x="901.7" y="338.9" width="28.1" height="24.4" fill="#9aa0a8" opacity="0.85" /><rect x="929.7" y="338.9" width="28.1" height="24.4" fill="#9aa0a8" opacity="0.85" /><rect x="957.8" y="338.9" width="28.1" height="24.4" fill="#9aa0a8" opacity="0.85" /><rect x="985.8" y="338.9" width="28.1" height="24.4" fill="#9aa0a8" opacity="0.85" /><rect x="1013.9" y="338.9" width="28.1" height="24.4" fill="#9aa0a8" opacity="0.85" /><rect x="1041.9" y="338.9" width="28.1" height="24.4" fill="#9aa0a8" opacity="0.85" /><rect x="60.0" y="363.3" width="28.1" height="24.4" fill="#c83030" opacity="0.85" /><rect x="88.1" y="363.3" width="28.1" height="24.4" fill="#c83030" opacity="0.85" /><rect x="116.1" y="363.3" width="28.1" height="24.4" fill="#c83030" opacity="0.85" /><rect x="144.2" y="363.3" width="28.1" height="24.4" fill="#c8881a" opacity="0.85" /><rect x="172.2" y="363.3" width="28.1" height="24.4" fill="#c8881a" opacity="0.85" /><rect x="200.3" y="363.3" width="28.1" height="24.4" fill="#c8881a" opacity="0.85" /><rect x="228.3" y="363.3" width="28.1" height="24.4" fill="#c8881a" opacity="0.85" /><rect x="256.4" y="363.3" width="28.1" height="24.4" fill="#c8881a" opacity="0.85" /><rect x="284.4" y="363.3" width="28.1" height="24.4" fill="#c8881a" opacity="0.85" /><rect x="312.5" y="363.3" width="28.1" height="24.4" fill="#c8881a" opacity="0.85" /><rect x="340.6" y="363.3" width="28.1" height="24.4" fill="#9aa0a8" opacity="0.85" /><rect x="368.6" y="363.3" width="28.1" height="24.4" fill="#9aa0a8" opacity="0.85" /><rect x="396.7" y="363.3" width="28.1" height="24.4" fill="#9aa0a8" opacity="0.85" /><rect x="424.7" y="363.3" width="28.1" height="24.4" fill="#9aa0a8" opacity="0.85" /><rect x="452.8" y="363.3" width="28.1" height="24.4" fill="#9aa0a8" opacity="0.85" /><rect x="480.8" y="363.3" width="28.1" height="24.4" fill="#9aa0a8" opacity="0.85" /><rect x="508.9" y="363.3" width="28.1" height="24.4" fill="#9aa0a8" opacity="0.85" /><rect x="536.9" y="363.3" width="28.1" height="24.4" fill="#9aa0a8" opacity="0.85" /><rect x="565.0" y="363.3" width="28.1" height="24.4" fill="#9aa0a8" opacity="0.85" /><rect x="593.1" y="363.3" width="28.1" height="24.4" fill="#9aa0a8" opacity="0.85" /><rect x="621.1" y="363.3" width="28.1" height="24.4" fill="#9aa0a8" opacity="0.85" /><rect x="649.2" y="363.3" width="28.1" height="24.4" fill="#9aa0a8" opacity="0.85" /><rect x="677.2" y="363.3" width="28.1" height="24.4" fill="#9aa0a8" opacity="0.85" /><rect x="705.3" y="363.3" width="28.1" height="24.4" fill="#9aa0a8" opacity="0.85" /><rect x="733.3" y="363.3" width="28.1" height="24.4" fill="#9aa0a8" opacity="0.85" /><rect x="761.4" y="363.3" width="28.1" height="24.4" fill="#9aa0a8" opacity="0.85" /><rect x="789.4" y="363.3" width="28.1" height="24.4" fill="#9aa0a8" opacity="0.85" /><rect x="817.5" y="363.3" width="28.1" height="24.4" fill="#9aa0a8" opacity="0.85" /><rect x="845.6" y="363.3" width="28.1" height="24.4" fill="#9aa0a8" opacity="0.85" /><rect x="873.6" y="363.3" width="28.1" height="24.4" fill="#9aa0a8" opacity="0.85" /><rect x="901.7" y="363.3" width="28.1" height="24.4" fill="#9aa0a8" opacity="0.85" /><rect x="929.7" y="363.3" width="28.1" height="24.4" fill="#9aa0a8" opacity="0.85" /><rect x="957.8" y="363.3" width="28.1" height="24.4" fill="#9aa0a8" opacity="0.85" /><rect x="985.8" y="363.3" width="28.1" height="24.4" fill="#9aa0a8" opacity="0.85" /><rect x="1013.9" y="363.3" width="28.1" height="24.4" fill="#9aa0a8" opacity="0.85" /><rect x="1041.9" y="363.3" width="28.1" height="24.4" fill="#9aa0a8" opacity="0.85" /><rect x="60.0" y="387.8" width="28.1" height="24.4" fill="#c83030" opacity="0.85" /><rect x="88.1" y="387.8" width="28.1" height="24.4" fill="#c83030" opacity="0.85" /><rect x="116.1" y="387.8" width="28.1" height="24.4" fill="#c83030" opacity="0.85" /><rect x="144.2" y="387.8" width="28.1" height="24.4" fill="#c83030" opacity="0.85" /><rect x="172.2" y="387.8" width="28.1" height="24.4" fill="#c8881a" opacity="0.85" /><rect x="200.3" y="387.8" width="28.1" height="24.4" fill="#c8881a" opacity="0.85" /><rect x="228.3" y="387.8" width="28.1" height="24.4" fill="#c8881a" opacity="0.85" /><rect x="256.4" y="387.8" width="28.1" height="24.4" fill="#c8881a" opacity="0.85" /><rect x="284.4" y="387.8" width="28.1" height="24.4" fill="#c8881a" opacity="0.85" /><rect x="312.5" y="387.8" width="28.1" height="24.4" fill="#c8881a" opacity="0.85" /><rect x="340.6" y="387.8" width="28.1" height="24.4" fill="#c8881a" opacity="0.85" /><rect x="368.6" y="387.8" width="28.1" height="24.4" fill="#9aa0a8" opacity="0.85" /><rect x="396.7" y="387.8" width="28.1" height="24.4" fill="#9aa0a8" opacity="0.85" /><rect x="424.7" y="387.8" width="28.1" height="24.4" fill="#9aa0a8" opacity="0.85" /><rect x="452.8" y="387.8" width="28.1" height="24.4" fill="#9aa0a8" opacity="0.85" /><rect x="480.8" y="387.8" width="28.1" height="24.4" fill="#9aa0a8" opacity="0.85" /><rect x="508.9" y="387.8" width="28.1" height="24.4" fill="#9aa0a8" opacity="0.85" /><rect x="536.9" y="387.8" width="28.1" height="24.4" fill="#9aa0a8" opacity="0.85" /><rect x="565.0" y="387.8" width="28.1" height="24.4" fill="#9aa0a8" opacity="0.85" /><rect x="593.1" y="387.8" width="28.1" height="24.4" fill="#9aa0a8" opacity="0.85" /><rect x="621.1" y="387.8" width="28.1" height="24.4" fill="#9aa0a8" opacity="0.85" /><rect x="649.2" y="387.8" width="28.1" height="24.4" fill="#9aa0a8" opacity="0.85" /><rect x="677.2" y="387.8" width="28.1" height="24.4" fill="#9aa0a8" opacity="0.85" /><rect x="705.3" y="387.8" width="28.1" height="24.4" fill="#9aa0a8" opacity="0.85" /><rect x="733.3" y="387.8" width="28.1" height="24.4" fill="#9aa0a8" opacity="0.85" /><rect x="761.4" y="387.8" width="28.1" height="24.4" fill="#9aa0a8" opacity="0.85" /><rect x="789.4" y="387.8" width="28.1" height="24.4" fill="#9aa0a8" opacity="0.85" /><rect x="817.5" y="387.8" width="28.1" height="24.4" fill="#9aa0a8" opacity="0.85" /><rect x="845.6" y="387.8" width="28.1" height="24.4" fill="#9aa0a8" opacity="0.85" /><rect x="873.6" y="387.8" width="28.1" height="24.4" fill="#9aa0a8" opacity="0.85" /><rect x="901.7" y="387.8" width="28.1" height="24.4" fill="#9aa0a8" opacity="0.85" /><rect x="929.7" y="387.8" width="28.1" height="24.4" fill="#9aa0a8" opacity="0.85" /><rect x="957.8" y="387.8" width="28.1" height="24.4" fill="#9aa0a8" opacity="0.85" /><rect x="985.8" y="387.8" width="28.1" height="24.4" fill="#9aa0a8" opacity="0.85" /><rect x="1013.9" y="387.8" width="28.1" height="24.4" fill="#9aa0a8" opacity="0.85" /><rect x="1041.9" y="387.8" width="28.1" height="24.4" fill="#9aa0a8" opacity="0.85" /><rect x="60.0" y="412.2" width="28.1" height="24.4" fill="#c83030" opacity="0.85" /><rect x="88.1" y="412.2" width="28.1" height="24.4" fill="#c83030" opacity="0.85" /><rect x="116.1" y="412.2" width="28.1" height="24.4" fill="#c83030" opacity="0.85" /><rect x="144.2" y="412.2" width="28.1" height="24.4" fill="#c83030" opacity="0.85" /><rect x="172.2" y="412.2" width="28.1" height="24.4" fill="#c83030" opacity="0.85" /><rect x="200.3" y="412.2" width="28.1" height="24.4" fill="#c8881a" opacity="0.85" /><rect x="228.3" y="412.2" width="28.1" height="24.4" fill="#c8881a" opacity="0.85" /><rect x="256.4" y="412.2" width="28.1" height="24.4" fill="#c8881a" opacity="0.85" /><rect x="284.4" y="412.2" width="28.1" height="24.4" fill="#c8881a" opacity="0.85" /><rect x="312.5" y="412.2" width="28.1" height="24.4" fill="#c8881a" opacity="0.85" /><rect x="340.6" y="412.2" width="28.1" height="24.4" fill="#c8881a" opacity="0.85" /><rect x="368.6" y="412.2" width="28.1" height="24.4" fill="#c8881a" opacity="0.85" /><rect x="396.7" y="412.2" width="28.1" height="24.4" fill="#9aa0a8" opacity="0.85" /><rect x="424.7" y="412.2" width="28.1" height="24.4" fill="#9aa0a8" opacity="0.85" /><rect x="452.8" y="412.2" width="28.1" height="24.4" fill="#9aa0a8" opacity="0.85" /><rect x="480.8" y="412.2" width="28.1" height="24.4" fill="#9aa0a8" opacity="0.85" /><rect x="508.9" y="412.2" width="28.1" height="24.4" fill="#9aa0a8" opacity="0.85" /><rect x="536.9" y="412.2" width="28.1" height="24.4" fill="#9aa0a8" opacity="0.85" /><rect x="565.0" y="412.2" width="28.1" height="24.4" fill="#9aa0a8" opacity="0.85" /><rect x="593.1" y="412.2" width="28.1" height="24.4" fill="#9aa0a8" opacity="0.85" /><rect x="621.1" y="412.2" width="28.1" height="24.4" fill="#9aa0a8" opacity="0.85" /><rect x="649.2" y="412.2" width="28.1" height="24.4" fill="#9aa0a8" opacity="0.85" /><rect x="677.2" y="412.2" width="28.1" height="24.4" fill="#9aa0a8" opacity="0.85" /><rect x="705.3" y="412.2" width="28.1" height="24.4" fill="#9aa0a8" opacity="0.85" /><rect x="733.3" y="412.2" width="28.1" height="24.4" fill="#9aa0a8" opacity="0.85" /><rect x="761.4" y="412.2" width="28.1" height="24.4" fill="#9aa0a8" opacity="0.85" /><rect x="789.4" y="412.2" width="28.1" height="24.4" fill="#9aa0a8" opacity="0.85" /><rect x="817.5" y="412.2" width="28.1" height="24.4" fill="#9aa0a8" opacity="0.85" /><rect x="845.6" y="412.2" width="28.1" height="24.4" fill="#9aa0a8" opacity="0.85" /><rect x="873.6" y="412.2" width="28.1" height="24.4" fill="#9aa0a8" opacity="0.85" /><rect x="901.7" y="412.2" width="28.1" height="24.4" fill="#9aa0a8" opacity="0.85" /><rect x="929.7" y="412.2" width="28.1" height="24.4" fill="#9aa0a8" opacity="0.85" /><rect x="957.8" y="412.2" width="28.1" height="24.4" fill="#9aa0a8" opacity="0.85" /><rect x="985.8" y="412.2" width="28.1" height="24.4" fill="#9aa0a8" opacity="0.85" /><rect x="1013.9" y="412.2" width="28.1" height="24.4" fill="#9aa0a8" opacity="0.85" /><rect x="1041.9" y="412.2" width="28.1" height="24.4" fill="#9aa0a8" opacity="0.85" /><circle cx="676.8" cy="237.7" r="2.5" fill="#1a1a1a" stroke="#fafaf7" stroke-width="0.8" /><text x="680.8" y="233.7" fill="#1a1a1a" font-size="9" stroke="#fafaf7" stroke-width="2" paint-order="stroke" opacity="0.95">Mecca</text><circle cx="676.1" cy="230.2" r="2.5" fill="#1a1a1a" stroke="#fafaf7" stroke-width="0.8" /><text x="680.1" y="226.2" fill="#1a1a1a" font-size="9" stroke="#fafaf7" stroke-width="2" paint-order="stroke" opacity="0.95">Madinah</text><circle cx="652.6" cy="216.6" r="2.5" fill="#1a1a1a" stroke="#fafaf7" stroke-width="0.8" /><text x="656.6" y="212.6" fill="#1a1a1a" font-size="9" stroke="#fafaf7" stroke-width="2" paint-order="stroke" opacity="0.95">Cairo</text><circle cx="646.3" cy="189.8" r="2.5" fill="#1a1a1a" stroke="#fafaf7" stroke-width="0.8" /><text x="650.3" y="185.8" fill="#1a1a1a" font-size="9" stroke="#fafaf7" stroke-width="2" paint-order="stroke" opacity="0.95">Istanbul</text><circle cx="709.2" cy="202.8" r="2.5" fill="#1a1a1a" stroke="#fafaf7" stroke-width="0.8" /><text x="713.2" y="198.8" fill="#1a1a1a" font-size="9" stroke="#fafaf7" stroke-width="2" paint-order="stroke" opacity="0.95">Tehran</text><circle cx="753.0" cy="229.2" r="2.5" fill="#1a1a1a" stroke="#fafaf7" stroke-width="0.8" /><text x="757.0" y="225.2" fill="#1a1a1a" font-size="9" stroke="#fafaf7" stroke-width="2" paint-order="stroke" opacity="0.95">Karachi</text><circle cx="818.7" cy="231.8" r="2.5" fill="#1a1a1a" stroke="#fafaf7" stroke-width="0.8" /><text x="822.7" y="227.8" fill="#1a1a1a" font-size="9" stroke="#fafaf7" stroke-width="2" paint-order="stroke" opacity="0.95">Dhaka</text><circle cx="864.8" cy="305.2" r="2.5" fill="#1a1a1a" stroke="#fafaf7" stroke-width="0.8" /><text x="868.8" y="301.2" fill="#1a1a1a" font-size="9" stroke="#fafaf7" stroke-width="2" paint-order="stroke" opacity="0.95">Jakarta</text><circle cx="850.3" cy="282.3" r="2.5" fill="#1a1a1a" stroke="#fafaf7" stroke-width="0.8" /><text x="854.3" y="278.3" fill="#1a1a1a" font-size="9" stroke="#fafaf7" stroke-width="2" paint-order="stroke" opacity="0.95">Kuala Lumpur</text><circle cx="574.6" cy="274.2" r="2.5" fill="#1a1a1a" stroke="#fafaf7" stroke-width="0.8" /><text x="578.6" y="270.2" fill="#1a1a1a" font-size="9" stroke="#fafaf7" stroke-width="2" paint-order="stroke" opacity="0.95">Lagos</text><circle cx="543.7" cy="207.9" r="2.5" fill="#1a1a1a" stroke="#fafaf7" stroke-width="0.8" /><text x="547.7" y="203.9" fill="#1a1a1a" font-size="9" stroke="#fafaf7" stroke-width="2" paint-order="stroke" opacity="0.95">Casablanca</text><circle cx="564.6" cy="164.1" r="2.5" fill="#1a1a1a" stroke="#fafaf7" stroke-width="0.8" /><text x="568.6" y="160.1" fill="#1a1a1a" font-size="9" stroke="#fafaf7" stroke-width="2" paint-order="stroke" opacity="0.95">London</text><circle cx="571.6" cy="170.6" r="2.5" fill="#1a1a1a" stroke="#fafaf7" stroke-width="0.8" /><text x="575.6" y="166.6" fill="#1a1a1a" font-size="9" stroke="#fafaf7" stroke-width="2" paint-order="stroke" opacity="0.95">Paris</text><circle cx="357.4" cy="190.5" r="2.5" fill="#1a1a1a" stroke="#fafaf7" stroke-width="0.8" /><text x="361.4" y="186.5" fill="#1a1a1a" font-size="9" stroke="#fafaf7" stroke-width="2" paint-order="stroke" opacity="0.95">New York</text><circle cx="233.3" cy="206.8" r="2.5" fill="#1a1a1a" stroke="#fafaf7" stroke-width="0.8" /><text x="237.3" y="202.8" fill="#1a1a1a" font-size="9" stroke="#fafaf7" stroke-width="2" paint-order="stroke" opacity="0.95">Los Angeles</text><circle cx="342.3" cy="183.3" r="2.5" fill="#1a1a1a" stroke="#fafaf7" stroke-width="0.8" /><text x="346.3" y="179.3" fill="#1a1a1a" font-size="9" stroke="#fafaf7" stroke-width="2" paint-order="stroke" opacity="0.95">Toronto</text><circle cx="720.1" cy="228.4" r="2.5" fill="#1a1a1a" stroke="#fafaf7" stroke-width="0.8" /><text x="724.1" y="224.4" fill="#1a1a1a" font-size="9" stroke="#fafaf7" stroke-width="2" paint-order="stroke" opacity="0.95">Dubai</text><circle cx="696.0" cy="229.6" r="2.5" fill="#1a1a1a" stroke="#fafaf7" stroke-width="0.8" /><text x="700.0" y="225.6" fill="#1a1a1a" font-size="9" stroke="#fafaf7" stroke-width="2" paint-order="stroke" opacity="0.95">Riyadh</text><circle cx="616.7" cy="372.9" r="2.5" fill="#1a1a1a" stroke="#fafaf7" stroke-width="0.8" /><text x="620.7" y="368.9" fill="#1a1a1a" font-size="9" stroke="#fafaf7" stroke-width="2" paint-order="stroke" opacity="0.95">Cape Town</text><circle cx="434.2" cy="347.6" r="2.5" fill="#1a1a1a" stroke="#fafaf7" stroke-width="0.8" /><text x="438.2" y="343.6" fill="#1a1a1a" font-size="9" stroke="#fafaf7" stroke-width="2" paint-order="stroke" opacity="0.95">São Paulo</text><circle cx="357.2" cy="278.5" r="2.5" fill="#1a1a1a" stroke="#fafaf7" stroke-width="0.8" /><text x="361.2" y="274.5" fill="#1a1a1a" font-size="9" stroke="#fafaf7" stroke-width="2" paint-order="stroke" opacity="0.95">Bogotá</text><rect x="60" y="532" width="14" height="10" fill="#1f7a4d" /><text x="78" y="540" fill="#1a1a1a" font-size="10">all three criteria say visible</text><rect x="276" y="532" width="14" height="10" fill="#c8881a" /><text x="294" y="540" fill="#1a1a1a" font-size="10">optical-aid only (Odeh C, others D/F)</text><rect x="534" y="532" width="14" height="10" fill="#9aa0a8" /><text x="552" y="540" fill="#1a1a1a" font-size="10">all three say not visible</text><rect x="720" y="532" width="14" height="10" fill="#c83030" /><text x="738" y="540" fill="#1a1a1a" font-size="10">criteria disagree (ikhtilaf zone)</text><text x="1070" y="560" text-anchor="end" fill="#1a1a1a" font-size="10" opacity="0.85">0 cells visible · 77 borderline · 329 not visible · 26 disagree</text></svg>