<svg xmlns="http://www.w3.org/2000/svg" viewBox="0 0 880 360" width="880" height="360" font-family="-apple-system, BlinkMacSystemFont, 'Segoe UI', system-ui, sans-serif" font-size="11"><rect width="880" height="360" fill="#fafaf7" /><text x="440" y="26" text-anchor="middle" fill="#1a1a1a" font-size="17" font-weight="600">WMAE over time — train (ratchet) vs. holdout</text><line x1="60" y1="310" x2="750" y2="310" stroke="#dcdcd0" stroke-width="0.5" /><text x="54" y="313" text-anchor="end" fill="#1a1a1a">0.00</text><line x1="60" y1="258" x2="750" y2="258" stroke="#dcdcd0" stroke-width="0.5" /><text x="54" y="261" text-anchor="end" fill="#1a1a1a">40.00</text><line x1="60" y1="206" x2="750" y2="206" stroke="#dcdcd0" stroke-width="0.5" /><text x="54" y="209" text-anchor="end" fill="#1a1a1a">80.00</text><line x1="60" y1="154" x2="750" y2="154" stroke="#dcdcd0" stroke-width="0.5" /><text x="54" y="157" text-anchor="end" fill="#1a1a1a">120.00</text><line x1="60" y1="102" x2="750" y2="102" stroke="#dcdcd0" stroke-width="0.5" /><text x="54" y="105" text-anchor="end" fill="#1a1a1a">160.00</text><line x1="60" y1="50" x2="750" y2="50" stroke="#dcdcd0" stroke-width="0.5" /><text x="54" y="53" text-anchor="end" fill="#1a1a1a">200.00</text><line x1="60" y1="310" x2="60" y2="314" stroke="#1a1a1a" /><text x="60" y="328" text-anchor="middle" fill="#1a1a1a" font-size="9">04-30 20:49</text><line x1="149.03225806451613" y1="310" x2="149.03225806451613" y2="314" stroke="#1a1a1a" /><text x="149.03225806451613" y="328" text-anchor="middle" fill="#1a1a1a" font-size="9">04-30 21:27</text><line x1="238.06451612903226" y1="310" x2="238.06451612903226" y2="314" stroke="#1a1a1a" /><text x="238.06451612903226" y="328" text-anchor="middle" fill="#1a1a1a" font-size="9">05-01 14:00</text><line x1="327.0967741935484" y1="310" x2="327.0967741935484" y2="314" stroke="#1a1a1a" /><text x="327.0967741935484" y="328" text-anchor="middle" fill="#1a1a1a" font-size="9">05-02 00:46</text><line x1="416.1290322580645" y1="310" x2="416.1290322580645" y2="314" stroke="#1a1a1a" /><text x="416.1290322580645" y="328" text-anchor="middle" fill="#1a1a1a" font-size="9">05-02 01:06</text><line x1="505.16129032258067" y1="310" x2="505.16129032258067" y2="314" stroke="#1a1a1a" /><text x="505.16129032258067" y="328" text-anchor="middle" fill="#1a1a1a" font-size="9">05-02 09:47</text><line x1="594.1935483870968" y1="310" x2="594.1935483870968" y2="314" stroke="#1a1a1a" /><text x="594.1935483870968" y="328" text-anchor="middle" fill="#1a1a1a" font-size="9">05-02 09:56</text><line x1="683.2258064516129" y1="310" x2="683.2258064516129" y2="314" stroke="#1a1a1a" /><text x="683.2258064516129" y="328" text-anchor="middle" fill="#1a1a1a" font-size="9">05-02 10:10</text><text x="22" y="180" transform="rotate(-90 22 180)" text-anchor="middle" fill="#1a1a1a">WMAE (min)</text><path d="M60.0,308.5 L82.3,308.3 L104.5,308.3 L126.8,308.3 L149.0,308.4 L171.3,308.3 L193.5,308.4 L215.8,308.4 L238.1,308.4 L260.3,308.4 L282.6,308.4 L304.8,308.4 L327.1,308.4 L349.4,308.4 L371.6,308.4 L393.9,308.4 L416.1,308.4 L438.4,308.6 L460.6,308.6 L482.9,308.6 L505.2,309.1 L527.4,309.1 L549.7,309.1 L571.9,309.1 L594.2,309.1 L616.5,309.1 L638.7,309.1 L661.0,308.0 L683.2,309.1 L705.5,309.0 L727.7,308.9 L750.0,309.0" fill="none" stroke="#1f7a4d" stroke-width="2" /><circle cx="60" cy="308.49666868518517" r="2.5" fill="#1f7a4d" /><circle cx="82.25806451612902" cy="308.27146284126985" r="2.5" fill="#1f7a4d" /><circle cx="104.51612903225806" cy="308.27146284126985" r="2.5" fill="#1f7a4d" /><circle cx="126.7741935483871" cy="308.27146284126985" r="2.5" fill="#1f7a4d" /><circle cx="149.03225806451613" cy="308.38869498412697" r="2.5" fill="#1f7a4d" /><circle cx="171.29032258064518" cy="308.27146284126985" r="2.5" fill="#1f7a4d" /><circle cx="193.5483870967742" cy="308.38869498412697" r="2.5" fill="#1f7a4d" /><circle cx="215.80645161290323" cy="308.37863546031747" r="2.5" fill="#1f7a4d" /><circle cx="238.06451612903226" cy="308.37863546031747" r="2.5" fill="#1f7a4d" /><circle cx="260.3225806451613" cy="308.37863546031747" r="2.5" fill="#1f7a4d" /><circle cx="282.58064516129036" cy="308.37863546031747" r="2.5" fill="#1f7a4d" /><circle cx="304.8387096774194" cy="308.37863546031747" r="2.5" fill="#1f7a4d" /><circle cx="327.0967741935484" cy="308.37863546031747" r="2.5" fill="#1f7a4d" /><circle cx="349.35483870967744" cy="308.37863546031747" r="2.5" fill="#1f7a4d" /><circle cx="371.61290322580646" cy="308.37863546031747" r="2.5" fill="#1f7a4d" /><circle cx="393.8709677419355" cy="308.37863546031747" r="2.5" fill="#1f7a4d" /><circle cx="416.1290322580645" cy="308.37863546031747" r="2.5" fill="#1f7a4d" /><circle cx="438.38709677419354" cy="308.6487183374741" r="2.5" fill="#1f7a4d" /><circle cx="460.64516129032256" cy="308.6487183374741" r="2.5" fill="#1f7a4d" /><circle cx="482.9032258064516" cy="308.6487183374741" r="2.5" fill="#1f7a4d" /><circle cx="505.16129032258067" cy="309.08511108488614" r="2.5" fill="#1f7a4d" /><circle cx="527.4193548387098" cy="309.06335403726706" r="2.5" fill="#1f7a4d" /><circle cx="549.6774193548388" cy="309.08511108488614" r="2.5" fill="#1f7a4d" /><circle cx="571.9354838709678" cy="309.08511108488614" r="2.5" fill="#1f7a4d" /><circle cx="594.1935483870968" cy="309.1141794078675" r="2.5" fill="#1f7a4d" /><circle cx="616.4516129032259" cy="309.124883569161" r="2.5" fill="#1f7a4d" /><circle cx="638.7096774193549" cy="309.124883569161" r="2.5" fill="#1f7a4d" /><circle cx="660.9677419354839" cy="307.9633059183673" r="2.5" fill="#1f7a4d" /><circle cx="683.2258064516129" cy="309.124883569161" r="2.5" fill="#1f7a4d" /><circle cx="705.483870967742" cy="308.9628295416946" r="2.5" fill="#1f7a4d" /><circle cx="727.741935483871" cy="308.87302404202995" r="2.5" fill="#1f7a4d" /><circle cx="750" cy="308.9628295416946" r="2.5" fill="#1f7a4d" /><path d="M60.0,299.5 L82.3,301.8 L104.5,301.8 L126.8,302.0 L149.0,302.0 L171.3,302.0 L193.5,302.0 L215.8,302.0 L238.1,302.0 L260.3,302.0 L282.6,302.0 L304.8,112.7 L327.1,293.6 L349.4,293.6 L371.6,293.8 L393.9,293.8 L416.1,293.8 L438.4,293.9 L460.6,293.9 L482.9,293.9 L505.2,294.5 L527.4,294.5 L549.7,294.5 L571.9,294.5 L594.2,294.5 L616.5,294.7 L638.7,294.7 L661.0,294.7 L683.2,294.7 L705.5,294.9 L727.7,294.9 L750.0,294.9" fill="none" stroke="#7a4d9c" stroke-width="2" stroke-dasharray="4,3" /><circle cx="60" cy="299.53822498015876" r="2.5" fill="#7a4d9c" /><circle cx="82.25806451612902" cy="301.83368500466855" r="2.5" fill="#7a4d9c" /><circle cx="104.51612903225806" cy="301.83368500466855" r="2.5" fill="#7a4d9c" /><circle cx="126.7741935483871" cy="301.97522152110133" r="2.5" fill="#7a4d9c" /><circle cx="149.03225806451613" cy="302.00822761453395" r="2.5" fill="#7a4d9c" /><circle cx="171.29032258064518" cy="301.97522152110133" r="2.5" fill="#7a4d9c" /><circle cx="193.5483870967742" cy="302.00822761453395" r="2.5" fill="#7a4d9c" /><circle cx="215.80645161290323" cy="302.00822761453395" r="2.5" fill="#7a4d9c" /><circle cx="238.06451612903226" cy="302.00822761453395" r="2.5" fill="#7a4d9c" /><circle cx="260.3225806451613" cy="302.00822761453395" r="2.5" fill="#7a4d9c" /><circle cx="282.58064516129036" cy="302.00822761453395" r="2.5" fill="#7a4d9c" /><circle cx="304.8387096774194" cy="112.65169373740824" r="2.5" fill="#7a4d9c" /><circle cx="327.0967741935484" cy="293.60282361378205" r="2.5" fill="#7a4d9c" /><circle cx="349.35483870967744" cy="293.60282361378205" r="2.5" fill="#7a4d9c" /><circle cx="371.61290322580646" cy="293.81385773466116" r="2.5" fill="#7a4d9c" /><circle cx="393.8709677419355" cy="293.81385773466116" r="2.5" fill="#7a4d9c" /><circle cx="416.1290322580645" cy="293.81385773466116" r="2.5" fill="#7a4d9c" /><circle cx="438.38709677419354" cy="293.93204537978113" r="2.5" fill="#7a4d9c" /><circle cx="460.64516129032256" cy="293.93204537978113" r="2.5" fill="#7a4d9c" /><circle cx="482.9032258064516" cy="293.93204537978113" r="2.5" fill="#7a4d9c" /><circle cx="505.16129032258067" cy="294.49288567154395" r="2.5" fill="#7a4d9c" /><circle cx="527.4193548387098" cy="294.49288567154395" r="2.5" fill="#7a4d9c" /><circle cx="549.6774193548388" cy="294.49288567154395" r="2.5" fill="#7a4d9c" /><circle cx="571.9354838709678" cy="294.49288567154395" r="2.5" fill="#7a4d9c" /><circle cx="594.1935483870968" cy="294.4881814550556" r="2.5" fill="#7a4d9c" /><circle cx="616.4516129032259" cy="294.70070518839157" r="2.5" fill="#7a4d9c" /><circle cx="638.7096774193549" cy="294.70070518839157" r="2.5" fill="#7a4d9c" /><circle cx="660.9677419354839" cy="294.70070518839157" r="2.5" fill="#7a4d9c" /><circle cx="683.2258064516129" cy="294.70070518839157" r="2.5" fill="#7a4d9c" /><circle cx="705.483870967742" cy="294.92498701222604" r="2.5" fill="#7a4d9c" /><circle cx="727.741935483871" cy="294.9427934245637" r="2.5" fill="#7a4d9c" /><circle cx="750" cy="294.92498701222604" r="2.5" fill="#7a4d9c" /><line x1="760" y1="60" x2="784" y2="60" stroke="#1f7a4d" stroke-width="2" /><text x="790" y="63" fill="#1a1a1a">train (ratchet)</text><line x1="760" y1="78" x2="784" y2="78" stroke="#7a4d9c" stroke-width="2" stroke-dasharray="4,3" /><text x="790" y="81" fill="#1a1a1a">holdout</text></svg>