<svg xmlns="http://www.w3.org/2000/svg" viewBox="0 0 980 540" width="980" height="540" font-family="-apple-system, BlinkMacSystemFont, 'Segoe UI', system-ui, sans-serif" font-size="11"><rect width="980" height="540" fill="#fafaf7" /><text x="490" y="32" text-anchor="middle" fill="#1a1a1a" font-size="19" font-weight="700">WMAE Journey — fajr v1.0 → v1.4.5</text><text x="490" y="54" text-anchor="middle" fill="#5a5a5a" font-size="12">Train WMAE (ratchet) and Holdout WMAE across 26 eval runs · annotations call out the release that drove each delta</text><text x="490" y="72" text-anchor="middle" fill="#8a8a8a" font-size="11">Lower is better · y-axis clipped at 25 min for readability (early v1.4.0 holdout pre-tz-fix peaked at 151 min)</text><rect x="70" y="90" width="870" height="250" fill="#f1efe8" /><line x1="70" y1="340" x2="940" y2="340" stroke="#dcdcd0" stroke-width="1" stroke-dasharray="2,3" /><text x="62" y="344" text-anchor="end" fill="#8a8a8a" font-size="9">0</text><line x1="70" y1="290" x2="940" y2="290" stroke="#dcdcd0" stroke-width="1" stroke-dasharray="2,3" /><text x="62" y="294" text-anchor="end" fill="#8a8a8a" font-size="9">5</text><line x1="70" y1="240" x2="940" y2="240" stroke="#dcdcd0" stroke-width="1" stroke-dasharray="2,3" /><text x="62" y="244" text-anchor="end" fill="#8a8a8a" font-size="9">10</text><line x1="70" y1="190" x2="940" y2="190" stroke="#dcdcd0" stroke-width="1" stroke-dasharray="2,3" /><text x="62" y="194" text-anchor="end" fill="#8a8a8a" font-size="9">15</text><line x1="70" y1="140" x2="940" y2="140" stroke="#dcdcd0" stroke-width="1" stroke-dasharray="2,3" /><text x="62" y="144" text-anchor="end" fill="#8a8a8a" font-size="9">20</text><line x1="70" y1="90" x2="940" y2="90" stroke="#dcdcd0" stroke-width="1" stroke-dasharray="2,3" /><text x="62" y="94" text-anchor="end" fill="#8a8a8a" font-size="9">25</text><text x="20" y="215" text-anchor="middle" fill="#5a5a5a" font-size="10" transform="rotate(-90 20 215)">WMAE (minutes)</text><line x1="70" y1="340" x2="940" y2="340" stroke="#a8a89a" stroke-width="1.5" /><line x1="70" y1="90" x2="70" y2="340" stroke="#a8a89a" stroke-width="1.5" /><path d="M70.0,259.5 L104.8,277.2 L139.6,277.2 L174.4,278.3 L209.2,278.5 L244.0,278.3 L278.8,278.5 L313.6,278.5 L348.4,278.5 L383.2,278.5 L418.0,278.5 L452.8,90.0 L487.6,213.9 L522.4,213.9 L557.2,215.5 L592.0,215.5 L626.8,215.5 L661.6,216.4 L696.4,216.4 L731.2,216.4 L766.0,220.7 L800.8,220.7 L835.6,220.7 L870.4,220.7 L905.2,220.7 L940.0,222.3 " fill="none" stroke="#7a4d9c" stroke-width="2" opacity="0.7" /><circle cx="70" cy="259.52480753968257" r="3.5" fill="#fafaf7" stroke="#7a4d9c" stroke-width="1.8" /><circle cx="104.80000000000001" cy="277.18219234360413" r="3.5" fill="#fafaf7" stroke="#7a4d9c" stroke-width="1.8" /><circle cx="139.60000000000002" cy="277.18219234360413" r="3.5" fill="#fafaf7" stroke="#7a4d9c" stroke-width="1.8" /><circle cx="174.39999999999998" cy="278.27093477770256" r="3.5" fill="#fafaf7" stroke="#7a4d9c" stroke-width="1.8" /><circle cx="209.20000000000002" cy="278.5248278041074" r="3.5" fill="#fafaf7" stroke="#7a4d9c" stroke-width="1.8" /><circle cx="244" cy="278.27093477770256" r="3.5" fill="#fafaf7" stroke="#7a4d9c" stroke-width="1.8" /><circle cx="278.79999999999995" cy="278.5248278041074" r="3.5" fill="#fafaf7" stroke="#7a4d9c" stroke-width="1.8" /><circle cx="313.6" cy="278.5248278041074" r="3.5" fill="#fafaf7" stroke="#7a4d9c" stroke-width="1.8" /><circle cx="348.40000000000003" cy="278.5248278041074" r="3.5" fill="#fafaf7" stroke="#7a4d9c" stroke-width="1.8" /><circle cx="383.2" cy="278.5248278041074" r="3.5" fill="#fafaf7" stroke="#7a4d9c" stroke-width="1.8" /><circle cx="418" cy="278.5248278041074" r="3.5" fill="#fafaf7" stroke="#7a4d9c" stroke-width="1.8" /><circle cx="452.8" cy="90" r="3.5" fill="#fafaf7" stroke="#7a4d9c" stroke-width="1.8" /><text x="452.8" y="82" text-anchor="middle" fill="#7a4d9c" font-size="9" font-weight="bold">↑</text><circle cx="487.59999999999997" cy="213.8678739521697" r="3.5" fill="#fafaf7" stroke="#7a4d9c" stroke-width="1.8" /><circle cx="522.4000000000001" cy="213.8678739521697" r="3.5" fill="#fafaf7" stroke="#7a4d9c" stroke-width="1.8" /><circle cx="557.2" cy="215.4912133435475" r="3.5" fill="#fafaf7" stroke="#7a4d9c" stroke-width="1.8" /><circle cx="592" cy="215.4912133435475" r="3.5" fill="#fafaf7" stroke="#7a4d9c" stroke-width="1.8" /><circle cx="626.8000000000001" cy="215.4912133435475" r="3.5" fill="#fafaf7" stroke="#7a4d9c" stroke-width="1.8" /><circle cx="661.6" cy="216.40034907523955" r="3.5" fill="#fafaf7" stroke="#7a4d9c" stroke-width="1.8" /><circle cx="696.4" cy="216.40034907523955" r="3.5" fill="#fafaf7" stroke="#7a4d9c" stroke-width="1.8" /><circle cx="731.2" cy="216.40034907523955" r="3.5" fill="#fafaf7" stroke="#7a4d9c" stroke-width="1.8" /><circle cx="766" cy="220.71450516572267" r="3.5" fill="#fafaf7" stroke="#7a4d9c" stroke-width="1.8" /><circle cx="800.8" cy="220.71450516572267" r="3.5" fill="#fafaf7" stroke="#7a4d9c" stroke-width="1.8" /><circle cx="835.6" cy="220.71450516572267" r="3.5" fill="#fafaf7" stroke="#7a4d9c" stroke-width="1.8" /><circle cx="870.4000000000001" cy="220.71450516572267" r="3.5" fill="#fafaf7" stroke="#7a4d9c" stroke-width="1.8" /><circle cx="905.1999999999999" cy="220.678318885043" r="3.5" fill="#fafaf7" stroke="#7a4d9c" stroke-width="1.8" /><circle cx="940" cy="222.31311683378127" r="3.5" fill="#fafaf7" stroke="#7a4d9c" stroke-width="1.8" /><path d="M70.0,328.4 L104.8,326.7 L139.6,326.7 L174.4,326.7 L209.2,327.6 L244.0,326.7 L278.8,327.6 L313.6,327.5 L348.4,327.5 L383.2,327.5 L418.0,327.5 L452.8,327.5 L487.6,327.5 L522.4,327.5 L557.2,327.5 L592.0,327.5 L626.8,327.5 L661.6,329.6 L696.4,329.6 L731.2,329.6 L766.0,333.0 L800.8,332.8 L835.6,333.0 L870.4,333.0 L905.2,333.2 L940.0,333.3 " fill="none" stroke="#1f7a4d" stroke-width="2.5" /><circle cx="70" cy="328.43591296296296" r="3.5" fill="#1f7a4d" /><circle cx="104.80000000000001" cy="326.7035603174603" r="3.5" fill="#1f7a4d" /><circle cx="139.60000000000002" cy="326.7035603174603" r="3.5" fill="#1f7a4d" /><circle cx="174.39999999999998" cy="326.7035603174603" r="3.5" fill="#1f7a4d" /><circle cx="209.20000000000002" cy="327.6053460317461" r="3.5" fill="#1f7a4d" /><circle cx="244" cy="326.7035603174603" r="3.5" fill="#1f7a4d" /><circle cx="278.79999999999995" cy="327.6053460317461" r="3.5" fill="#1f7a4d" /><circle cx="313.6" cy="327.5279650793651" r="3.5" fill="#1f7a4d" /><circle cx="348.40000000000003" cy="327.5279650793651" r="3.5" fill="#1f7a4d" /><circle cx="383.2" cy="327.5279650793651" r="3.5" fill="#1f7a4d" /><circle cx="418" cy="327.5279650793651" r="3.5" fill="#1f7a4d" /><circle cx="452.8" cy="327.5279650793651" r="3.5" fill="#1f7a4d" /><circle cx="487.59999999999997" cy="327.5279650793651" r="3.5" fill="#1f7a4d" /><circle cx="522.4000000000001" cy="327.5279650793651" r="3.5" fill="#1f7a4d" /><circle cx="557.2" cy="327.5279650793651" r="3.5" fill="#1f7a4d" /><circle cx="592" cy="327.5279650793651" r="3.5" fill="#1f7a4d" /><circle cx="626.8000000000001" cy="327.5279650793651" r="3.5" fill="#1f7a4d" /><circle cx="661.6" cy="329.6055256728779" r="3.5" fill="#1f7a4d" /><circle cx="696.4" cy="329.6055256728779" r="3.5" fill="#1f7a4d" /><circle cx="731.2" cy="329.6055256728779" r="3.5" fill="#1f7a4d" /><circle cx="766" cy="332.96239296066256" r="3.5" fill="#1f7a4d" /><circle cx="800.8" cy="332.7950310559006" r="3.5" fill="#1f7a4d" /><circle cx="835.6" cy="332.96239296066256" r="3.5" fill="#1f7a4d" /><circle cx="870.4000000000001" cy="332.96239296066256" r="3.5" fill="#1f7a4d" /><circle cx="905.1999999999999" cy="333.1859954451346" r="3.5" fill="#1f7a4d" /><circle cx="940" cy="333.2683351473923" r="3.5" fill="#1f7a4d" /><line x1="70" y1="90" x2="70" y2="340" stroke="#c83030" stroke-width="1" stroke-dasharray="3,3" opacity="0.5" /><rect x="48" y="75" width="44" height="14" rx="3" fill="#c83030" opacity="0.9" /><text x="70" y="86" text-anchor="middle" fill="white" font-size="9" font-weight="600">v1.0</text><text x="76" y="320.43591296296296" fill="#1f7a4d" font-size="9" font-weight="600">1.16</text><text x="76" y="251.52480753968257" fill="#7a4d9c" font-size="9" font-weight="600">8.0</text><line x1="313.6" y1="90" x2="313.6" y2="340" stroke="#c83030" stroke-width="1" stroke-dasharray="3,3" opacity="0.5" /><rect x="291.6" y="61" width="44" height="14" rx="3" fill="#c83030" opacity="0.9" /><text x="313.6" y="72" text-anchor="middle" fill="white" font-size="9" font-weight="600">v1.1.1</text><text x="319.6" y="319.5279650793651" fill="#1f7a4d" font-size="9" font-weight="600">1.25</text><text x="319.6" y="270.5248278041074" fill="#7a4d9c" font-size="9" font-weight="600">6.1</text><line x1="383.2" y1="90" x2="383.2" y2="340" stroke="#c83030" stroke-width="1" stroke-dasharray="3,3" opacity="0.5" /><rect x="361.2" y="75" width="44" height="14" rx="3" fill="#c83030" opacity="0.9" /><text x="383.2" y="86" text-anchor="middle" fill="white" font-size="9" font-weight="600">v1.2</text><text x="389.2" y="319.5279650793651" fill="#1f7a4d" font-size="9" font-weight="600">1.25</text><text x="389.2" y="270.5248278041074" fill="#7a4d9c" font-size="9" font-weight="600">6.1</text><line x1="418" y1="90" x2="418" y2="340" stroke="#c83030" stroke-width="1" stroke-dasharray="3,3" opacity="0.5" /><rect x="396" y="61" width="44" height="14" rx="3" fill="#c83030" opacity="0.9" /><text x="418" y="72" text-anchor="middle" fill="white" font-size="9" font-weight="600">v1.3</text><text x="424" y="319.5279650793651" fill="#1f7a4d" font-size="9" font-weight="600">1.25</text><text x="424" y="270.5248278041074" fill="#7a4d9c" font-size="9" font-weight="600">6.1</text><line x1="557.2" y1="90" x2="557.2" y2="340" stroke="#c83030" stroke-width="1" stroke-dasharray="3,3" opacity="0.5" /><rect x="535.2" y="75" width="44" height="14" rx="3" fill="#c83030" opacity="0.9" /><text x="557.2" y="86" text-anchor="middle" fill="white" font-size="9" font-weight="600">v1.4</text><text x="563.2" y="319.5279650793651" fill="#1f7a4d" font-size="9" font-weight="600">1.25</text><text x="563.2" y="207.4912133435475" fill="#7a4d9c" font-size="9" font-weight="600">12.5</text><line x1="661.6" y1="90" x2="661.6" y2="340" stroke="#c83030" stroke-width="1" stroke-dasharray="3,3" opacity="0.5" /><rect x="639.6" y="61" width="44" height="14" rx="3" fill="#c83030" opacity="0.9" /><text x="661.6" y="72" text-anchor="middle" fill="white" font-size="9" font-weight="600">v1.4.1</text><text x="667.6" y="321.6055256728779" fill="#1f7a4d" font-size="9" font-weight="600">1.04</text><text x="667.6" y="208.40034907523955" fill="#7a4d9c" font-size="9" font-weight="600">12.4</text><line x1="835.6" y1="90" x2="835.6" y2="340" stroke="#c83030" stroke-width="1" stroke-dasharray="3,3" opacity="0.5" /><rect x="813.6" y="75" width="44" height="14" rx="3" fill="#c83030" opacity="0.9" /><text x="835.6" y="86" text-anchor="middle" fill="white" font-size="9" font-weight="600">v1.4.3</text><text x="841.6" y="324.96239296066256" fill="#1f7a4d" font-size="9" font-weight="600">0.70</text><text x="841.6" y="212.71450516572267" fill="#7a4d9c" font-size="9" font-weight="600">11.9</text><text x="70" y="372" fill="#1a1a1a" font-size="12" font-weight="600">Release timeline</text><text x="70" y="390" fill="#1a1a1a" font-size="11"><tspan font-weight="700" fill="#c83030">v1.0</tspan><tspan dx="8" fill="#1f7a4d">train 1.16</tspan><tspan dx="6" fill="#7a4d9c">holdout 8.05</tspan><tspan dx="10" fill="#5a5a5a">baseline (corpus + ratchet established)</tspan></text><text x="70" y="406" fill="#1a1a1a" font-size="11"><tspan font-weight="700" fill="#c83030">v1.1.1</tspan><tspan dx="8" fill="#1f7a4d">train 1.25</tspan><tspan dx="6" fill="#7a4d9c">holdout 6.15</tspan><tspan dx="10" fill="#5a5a5a">dayTimes elevation fix + npm publish CI</tspan></text><text x="70" y="422" fill="#1a1a1a" font-size="11"><tspan font-weight="700" fill="#c83030">v1.2</tspan><tspan dx="8" fill="#1f7a4d">train 1.25</tspan><tspan dx="6" fill="#7a4d9c">holdout 6.15</tspan><tspan dx="10" fill="#5a5a5a">notes field + scholarly grounding (13 papers)</tspan></text><text x="70" y="438" fill="#1a1a1a" font-size="11"><tspan font-weight="700" fill="#c83030">v1.3</tspan><tspan dx="8" fill="#1f7a4d">train 1.25</tspan><tspan dx="6" fill="#7a4d9c">holdout 6.15</tspan><tspan dx="10" fill="#5a5a5a">applyTayakkunBuffer + tarabishyTimes (Aabed/Tarabishy)</tspan></text><text x="70" y="454" fill="#1a1a1a" font-size="11"><tspan font-weight="700" fill="#c83030">v1.4</tspan><tspan dx="8" fill="#1f7a4d">train 1.25</tspan><tspan dx="6" fill="#7a4d9c">holdout 12.45</tspan><tspan dx="10" fill="#5a5a5a">world-coverage eval (163 countries) + 9 engine bboxes</tspan></text><text x="70" y="470" fill="#1a1a1a" font-size="11"><tspan font-weight="700" fill="#c83030">v1.4.1</tspan><tspan dx="8" fill="#1f7a4d">train 1.04</tspan><tspan dx="6" fill="#7a4d9c">holdout 12.36</tspan><tspan dx="10" fill="#5a5a5a">JAKIM Path A ihtiyati offset (train −16.6%)</tspan></text><text x="70" y="486" fill="#1a1a1a" font-size="11"><tspan font-weight="700" fill="#c83030">v1.4.3</tspan><tspan dx="8" fill="#1f7a4d">train 0.70</tspan><tspan dx="6" fill="#7a4d9c">holdout 11.93</tspan><tspan dx="10" fill="#5a5a5a">eval elevation-policy fix (train −32% to 0.70)</tspan></text><rect x="714" y="86" width="216" height="40" rx="3" fill="#fafaf7" stroke="#dcdcd0" /><circle cx="728" cy="98" r="4" fill="#1f7a4d" /><text x="738" y="101" fill="#1a1a1a" font-size="10">Train WMAE (ratchet)</text><circle cx="728" cy="116" r="4" fill="#fafaf7" stroke="#7a4d9c" stroke-width="1.5" /><text x="738" y="119" fill="#1a1a1a" font-size="10">Holdout WMAE (diagnostic)</text></svg>