<svg xmlns="http://www.w3.org/2000/svg" viewBox="0 0 980 540" width="980" height="540" font-family="-apple-system, BlinkMacSystemFont, 'Segoe UI', system-ui, sans-serif" font-size="11"><rect width="980" height="540" fill="#fafaf7" /><text x="490" y="32" text-anchor="middle" fill="#1a1a1a" font-size="19" font-weight="700">WMAE Journey — fajr v1.0 → v1.5.0</text><text x="490" y="54" text-anchor="middle" fill="#5a5a5a" font-size="12">Train WMAE (ratchet) and Holdout WMAE across 32 eval runs · annotations call out the release that drove each delta</text><text x="490" y="72" text-anchor="middle" fill="#8a8a8a" font-size="11">Lower is better · y-axis clipped at 25 min for readability (early v1.4.0 holdout pre-tz-fix peaked at 151 min)</text><rect x="70" y="90" width="870" height="250" fill="#f1efe8" /><line x1="70" y1="340" x2="940" y2="340" stroke="#dcdcd0" stroke-width="1" stroke-dasharray="2,3" /><text x="62" y="344" text-anchor="end" fill="#8a8a8a" font-size="9">0</text><line x1="70" y1="290" x2="940" y2="290" stroke="#dcdcd0" stroke-width="1" stroke-dasharray="2,3" /><text x="62" y="294" text-anchor="end" fill="#8a8a8a" font-size="9">5</text><line x1="70" y1="240" x2="940" y2="240" stroke="#dcdcd0" stroke-width="1" stroke-dasharray="2,3" /><text x="62" y="244" text-anchor="end" fill="#8a8a8a" font-size="9">10</text><line x1="70" y1="190" x2="940" y2="190" stroke="#dcdcd0" stroke-width="1" stroke-dasharray="2,3" /><text x="62" y="194" text-anchor="end" fill="#8a8a8a" font-size="9">15</text><line x1="70" y1="140" x2="940" y2="140" stroke="#dcdcd0" stroke-width="1" stroke-dasharray="2,3" /><text x="62" y="144" text-anchor="end" fill="#8a8a8a" font-size="9">20</text><line x1="70" y1="90" x2="940" y2="90" stroke="#dcdcd0" stroke-width="1" stroke-dasharray="2,3" /><text x="62" y="94" text-anchor="end" fill="#8a8a8a" font-size="9">25</text><text x="20" y="215" text-anchor="middle" fill="#5a5a5a" font-size="10" transform="rotate(-90 20 215)">WMAE (minutes)</text><line x1="70" y1="340" x2="940" y2="340" stroke="#a8a89a" stroke-width="1.5" /><line x1="70" y1="90" x2="70" y2="340" stroke="#a8a89a" stroke-width="1.5" /><path d="M70.0,259.5 L98.1,277.2 L126.1,277.2 L154.2,278.3 L182.3,278.5 L210.3,278.3 L238.4,278.5 L266.5,278.5 L294.5,278.5 L322.6,278.5 L350.6,278.5 L378.7,90.0 L406.8,213.9 L434.8,213.9 L462.9,215.5 L491.0,215.5 L519.0,215.5 L547.1,216.4 L575.2,216.4 L603.2,216.4 L631.3,220.7 L659.4,220.7 L687.4,220.7 L715.5,220.7 L743.5,220.7 L771.6,222.3 L799.7,222.3 L827.7,222.3 L855.8,222.3 L883.9,224.0 L911.9,224.2 L940.0,224.0 " fill="none" stroke="#7a4d9c" stroke-width="2" opacity="0.7" /><circle cx="70" cy="259.52480753968257" r="3.5" fill="#fafaf7" stroke="#7a4d9c" stroke-width="1.8" /><circle cx="98.06451612903226" cy="277.18219234360413" r="3.5" fill="#fafaf7" stroke="#7a4d9c" stroke-width="1.8" /><circle cx="126.12903225806451" cy="277.18219234360413" r="3.5" fill="#fafaf7" stroke="#7a4d9c" stroke-width="1.8" /><circle cx="154.19354838709677" cy="278.27093477770256" r="3.5" fill="#fafaf7" stroke="#7a4d9c" stroke-width="1.8" /><circle cx="182.25806451612902" cy="278.5248278041074" r="3.5" fill="#fafaf7" stroke="#7a4d9c" stroke-width="1.8" /><circle cx="210.32258064516128" cy="278.27093477770256" r="3.5" fill="#fafaf7" stroke="#7a4d9c" stroke-width="1.8" /><circle cx="238.38709677419354" cy="278.5248278041074" r="3.5" fill="#fafaf7" stroke="#7a4d9c" stroke-width="1.8" /><circle cx="266.4516129032258" cy="278.5248278041074" r="3.5" fill="#fafaf7" stroke="#7a4d9c" stroke-width="1.8" /><circle cx="294.51612903225805" cy="278.5248278041074" r="3.5" fill="#fafaf7" stroke="#7a4d9c" stroke-width="1.8" /><circle cx="322.58064516129036" cy="278.5248278041074" r="3.5" fill="#fafaf7" stroke="#7a4d9c" stroke-width="1.8" /><circle cx="350.64516129032256" cy="278.5248278041074" r="3.5" fill="#fafaf7" stroke="#7a4d9c" stroke-width="1.8" /><circle cx="378.7096774193549" cy="90" r="3.5" fill="#fafaf7" stroke="#7a4d9c" stroke-width="1.8" /><text x="378.7096774193549" y="82" text-anchor="middle" fill="#7a4d9c" font-size="9" font-weight="bold">↑</text><circle cx="406.7741935483871" cy="213.8678739521697" r="3.5" fill="#fafaf7" stroke="#7a4d9c" stroke-width="1.8" /><circle cx="434.8387096774194" cy="213.8678739521697" r="3.5" fill="#fafaf7" stroke="#7a4d9c" stroke-width="1.8" /><circle cx="462.9032258064516" cy="215.4912133435475" r="3.5" fill="#fafaf7" stroke="#7a4d9c" stroke-width="1.8" /><circle cx="490.9677419354839" cy="215.4912133435475" r="3.5" fill="#fafaf7" stroke="#7a4d9c" stroke-width="1.8" /><circle cx="519.0322580645161" cy="215.4912133435475" r="3.5" fill="#fafaf7" stroke="#7a4d9c" stroke-width="1.8" /><circle cx="547.0967741935483" cy="216.40034907523955" r="3.5" fill="#fafaf7" stroke="#7a4d9c" stroke-width="1.8" /><circle cx="575.1612903225807" cy="216.40034907523955" r="3.5" fill="#fafaf7" stroke="#7a4d9c" stroke-width="1.8" /><circle cx="603.2258064516129" cy="216.40034907523955" r="3.5" fill="#fafaf7" stroke="#7a4d9c" stroke-width="1.8" /><circle cx="631.2903225806451" cy="220.71450516572267" r="3.5" fill="#fafaf7" stroke="#7a4d9c" stroke-width="1.8" /><circle cx="659.3548387096773" cy="220.71450516572267" r="3.5" fill="#fafaf7" stroke="#7a4d9c" stroke-width="1.8" /><circle cx="687.4193548387098" cy="220.71450516572267" r="3.5" fill="#fafaf7" stroke="#7a4d9c" stroke-width="1.8" /><circle cx="715.483870967742" cy="220.71450516572267" r="3.5" fill="#fafaf7" stroke="#7a4d9c" stroke-width="1.8" /><circle cx="743.5483870967741" cy="220.678318885043" r="3.5" fill="#fafaf7" stroke="#7a4d9c" stroke-width="1.8" /><circle cx="771.6129032258065" cy="222.31311683378127" r="3.5" fill="#fafaf7" stroke="#7a4d9c" stroke-width="1.8" /><circle cx="799.6774193548388" cy="222.31311683378127" r="3.5" fill="#fafaf7" stroke="#7a4d9c" stroke-width="1.8" /><circle cx="827.741935483871" cy="222.31311683378127" r="3.5" fill="#fafaf7" stroke="#7a4d9c" stroke-width="1.8" /><circle cx="855.8064516129032" cy="222.31311683378127" r="3.5" fill="#fafaf7" stroke="#7a4d9c" stroke-width="1.8" /><circle cx="883.8709677419355" cy="224.03836163250813" r="3.5" fill="#fafaf7" stroke="#7a4d9c" stroke-width="1.8" /><circle cx="911.9354838709678" cy="224.17533403510552" r="3.5" fill="#fafaf7" stroke="#7a4d9c" stroke-width="1.8" /><circle cx="940" cy="224.03836163250813" r="3.5" fill="#fafaf7" stroke="#7a4d9c" stroke-width="1.8" /><path d="M70.0,328.4 L98.1,326.7 L126.1,326.7 L154.2,326.7 L182.3,327.6 L210.3,326.7 L238.4,327.6 L266.5,327.5 L294.5,327.5 L322.6,327.5 L350.6,327.5 L378.7,327.5 L406.8,327.5 L434.8,327.5 L462.9,327.5 L491.0,327.5 L519.0,327.5 L547.1,329.6 L575.2,329.6 L603.2,329.6 L631.3,333.0 L659.4,332.8 L687.4,333.0 L715.5,333.0 L743.5,333.2 L771.6,333.3 L799.7,333.3 L827.7,324.3 L855.8,333.3 L883.9,332.0 L911.9,331.3 L940.0,332.0 " fill="none" stroke="#1f7a4d" stroke-width="2.5" /><circle cx="70" cy="328.43591296296296" r="3.5" fill="#1f7a4d" /><circle cx="98.06451612903226" cy="326.7035603174603" r="3.5" fill="#1f7a4d" /><circle cx="126.12903225806451" cy="326.7035603174603" r="3.5" fill="#1f7a4d" /><circle cx="154.19354838709677" cy="326.7035603174603" r="3.5" fill="#1f7a4d" /><circle cx="182.25806451612902" cy="327.6053460317461" r="3.5" fill="#1f7a4d" /><circle cx="210.32258064516128" cy="326.7035603174603" r="3.5" fill="#1f7a4d" /><circle cx="238.38709677419354" cy="327.6053460317461" r="3.5" fill="#1f7a4d" /><circle cx="266.4516129032258" cy="327.5279650793651" r="3.5" fill="#1f7a4d" /><circle cx="294.51612903225805" cy="327.5279650793651" r="3.5" fill="#1f7a4d" /><circle cx="322.58064516129036" cy="327.5279650793651" r="3.5" fill="#1f7a4d" /><circle cx="350.64516129032256" cy="327.5279650793651" r="3.5" fill="#1f7a4d" /><circle cx="378.7096774193549" cy="327.5279650793651" r="3.5" fill="#1f7a4d" /><circle cx="406.7741935483871" cy="327.5279650793651" r="3.5" fill="#1f7a4d" /><circle cx="434.8387096774194" cy="327.5279650793651" r="3.5" fill="#1f7a4d" /><circle cx="462.9032258064516" cy="327.5279650793651" r="3.5" fill="#1f7a4d" /><circle cx="490.9677419354839" cy="327.5279650793651" r="3.5" fill="#1f7a4d" /><circle cx="519.0322580645161" cy="327.5279650793651" r="3.5" fill="#1f7a4d" /><circle cx="547.0967741935483" cy="329.6055256728779" r="3.5" fill="#1f7a4d" /><circle cx="575.1612903225807" cy="329.6055256728779" r="3.5" fill="#1f7a4d" /><circle cx="603.2258064516129" cy="329.6055256728779" r="3.5" fill="#1f7a4d" /><circle cx="631.2903225806451" cy="332.96239296066256" r="3.5" fill="#1f7a4d" /><circle cx="659.3548387096773" cy="332.7950310559006" r="3.5" fill="#1f7a4d" /><circle cx="687.4193548387098" cy="332.96239296066256" r="3.5" fill="#1f7a4d" /><circle cx="715.483870967742" cy="332.96239296066256" r="3.5" fill="#1f7a4d" /><circle cx="743.5483870967741" cy="333.1859954451346" r="3.5" fill="#1f7a4d" /><circle cx="771.6129032258065" cy="333.2683351473923" r="3.5" fill="#1f7a4d" /><circle cx="799.6774193548388" cy="333.2683351473923" r="3.5" fill="#1f7a4d" /><circle cx="827.741935483871" cy="324.33312244897957" r="3.5" fill="#1f7a4d" /><circle cx="855.8064516129032" cy="333.2683351473923" r="3.5" fill="#1f7a4d" /><circle cx="883.8709677419355" cy="332.02176570534317" r="3.5" fill="#1f7a4d" /><circle cx="911.9354838709678" cy="331.3309541694612" r="3.5" fill="#1f7a4d" /><circle cx="940" cy="332.02176570534317" r="3.5" fill="#1f7a4d" /><line x1="70" y1="90" x2="70" y2="340" stroke="#c83030" stroke-width="1" stroke-dasharray="3,3" opacity="0.5" /><rect x="48" y="75" width="44" height="14" rx="3" fill="#c83030" opacity="0.9" /><text x="70" y="86" text-anchor="middle" fill="white" font-size="9" font-weight="600">v1.0</text><text x="76" y="320.43591296296296" fill="#1f7a4d" font-size="9" font-weight="600">1.16</text><text x="76" y="251.52480753968257" fill="#7a4d9c" font-size="9" font-weight="600">8.0</text><line x1="266.4516129032258" y1="90" x2="266.4516129032258" y2="340" stroke="#c83030" stroke-width="1" stroke-dasharray="3,3" opacity="0.5" /><rect x="244.4516129032258" y="61" width="44" height="14" rx="3" fill="#c83030" opacity="0.9" /><text x="266.4516129032258" y="72" text-anchor="middle" fill="white" font-size="9" font-weight="600">v1.1.1</text><text x="272.4516129032258" y="319.5279650793651" fill="#1f7a4d" font-size="9" font-weight="600">1.25</text><text x="272.4516129032258" y="270.5248278041074" fill="#7a4d9c" font-size="9" font-weight="600">6.1</text><line x1="322.58064516129036" y1="90" x2="322.58064516129036" y2="340" stroke="#c83030" stroke-width="1" stroke-dasharray="3,3" opacity="0.5" /><rect x="300.58064516129036" y="75" width="44" height="14" rx="3" fill="#c83030" opacity="0.9" /><text x="322.58064516129036" y="86" text-anchor="middle" fill="white" font-size="9" font-weight="600">v1.2</text><text x="328.58064516129036" y="319.5279650793651" fill="#1f7a4d" font-size="9" font-weight="600">1.25</text><text x="328.58064516129036" y="270.5248278041074" fill="#7a4d9c" font-size="9" font-weight="600">6.1</text><line x1="350.64516129032256" y1="90" x2="350.64516129032256" y2="340" stroke="#c83030" stroke-width="1" stroke-dasharray="3,3" opacity="0.5" /><rect x="328.64516129032256" y="61" width="44" height="14" rx="3" fill="#c83030" opacity="0.9" /><text x="350.64516129032256" y="72" text-anchor="middle" fill="white" font-size="9" font-weight="600">v1.3</text><text x="356.64516129032256" y="319.5279650793651" fill="#1f7a4d" font-size="9" font-weight="600">1.25</text><text x="356.64516129032256" y="270.5248278041074" fill="#7a4d9c" font-size="9" font-weight="600">6.1</text><line x1="462.9032258064516" y1="90" x2="462.9032258064516" y2="340" stroke="#c83030" stroke-width="1" stroke-dasharray="3,3" opacity="0.5" /><rect x="440.9032258064516" y="75" width="44" height="14" rx="3" fill="#c83030" opacity="0.9" /><text x="462.9032258064516" y="86" text-anchor="middle" fill="white" font-size="9" font-weight="600">v1.4</text><text x="468.9032258064516" y="319.5279650793651" fill="#1f7a4d" font-size="9" font-weight="600">1.25</text><text x="468.9032258064516" y="207.4912133435475" fill="#7a4d9c" font-size="9" font-weight="600">12.5</text><line x1="547.0967741935483" y1="90" x2="547.0967741935483" y2="340" stroke="#c83030" stroke-width="1" stroke-dasharray="3,3" opacity="0.5" /><rect x="525.0967741935483" y="61" width="44" height="14" rx="3" fill="#c83030" opacity="0.9" /><text x="547.0967741935483" y="72" text-anchor="middle" fill="white" font-size="9" font-weight="600">v1.4.1</text><text x="553.0967741935483" y="321.6055256728779" fill="#1f7a4d" font-size="9" font-weight="600">1.04</text><text x="553.0967741935483" y="208.40034907523955" fill="#7a4d9c" font-size="9" font-weight="600">12.4</text><line x1="631.2903225806451" y1="90" x2="631.2903225806451" y2="340" stroke="#c83030" stroke-width="1" stroke-dasharray="3,3" opacity="0.5" /><rect x="609.2903225806451" y="75" width="44" height="14" rx="3" fill="#c83030" opacity="0.9" /><text x="631.2903225806451" y="86" text-anchor="middle" fill="white" font-size="9" font-weight="600">v1.4.3</text><text x="637.2903225806451" y="324.96239296066256" fill="#1f7a4d" font-size="9" font-weight="600">0.70</text><text x="637.2903225806451" y="212.71450516572267" fill="#7a4d9c" font-size="9" font-weight="600">11.9</text><line x1="743.5483870967741" y1="90" x2="743.5483870967741" y2="340" stroke="#c83030" stroke-width="1" stroke-dasharray="3,3" opacity="0.5" /><rect x="721.5483870967741" y="61" width="44" height="14" rx="3" fill="#c83030" opacity="0.9" /><text x="743.5483870967741" y="72" text-anchor="middle" fill="white" font-size="9" font-weight="600">v1.4.4</text><text x="749.5483870967741" y="325.1859954451346" fill="#1f7a4d" font-size="9" font-weight="600">0.68</text><text x="749.5483870967741" y="212.678318885043" fill="#7a4d9c" font-size="9" font-weight="600">11.9</text><line x1="771.6129032258065" y1="90" x2="771.6129032258065" y2="340" stroke="#c83030" stroke-width="1" stroke-dasharray="3,3" opacity="0.5" /><rect x="749.6129032258065" y="75" width="44" height="14" rx="3" fill="#c83030" opacity="0.9" /><text x="771.6129032258065" y="86" text-anchor="middle" fill="white" font-size="9" font-weight="600">v1.4.5</text><text x="777.6129032258065" y="325.2683351473923" fill="#1f7a4d" font-size="9" font-weight="600">0.67</text><text x="777.6129032258065" y="214.31311683378127" fill="#7a4d9c" font-size="9" font-weight="600">11.8</text><line x1="940" y1="90" x2="940" y2="340" stroke="#c83030" stroke-width="1" stroke-dasharray="3,3" opacity="0.5" /><rect x="918" y="61" width="44" height="14" rx="3" fill="#c83030" opacity="0.9" /><text x="940" y="72" text-anchor="middle" fill="white" font-size="9" font-weight="600">v1.5.0</text><text x="946" y="324.02176570534317" fill="#1f7a4d" font-size="9" font-weight="600">0.80</text><text x="946" y="216.03836163250813" fill="#7a4d9c" font-size="9" font-weight="600">11.6</text><text x="70" y="372" fill="#1a1a1a" font-size="12" font-weight="600">Release timeline</text><text x="70" y="390" fill="#1a1a1a" font-size="11"><tspan font-weight="700" fill="#c83030">v1.0</tspan><tspan dx="8" fill="#1f7a4d">train 1.16</tspan><tspan dx="6" fill="#7a4d9c">holdout 8.05</tspan><tspan dx="10" fill="#5a5a5a">baseline (corpus + ratchet established)</tspan></text><text x="70" y="406" fill="#1a1a1a" font-size="11"><tspan font-weight="700" fill="#c83030">v1.1.1</tspan><tspan dx="8" fill="#1f7a4d">train 1.25</tspan><tspan dx="6" fill="#7a4d9c">holdout 6.15</tspan><tspan dx="10" fill="#5a5a5a">dayTimes elevation fix + npm publish CI</tspan></text><text x="70" y="422" fill="#1a1a1a" font-size="11"><tspan font-weight="700" fill="#c83030">v1.2</tspan><tspan dx="8" fill="#1f7a4d">train 1.25</tspan><tspan dx="6" fill="#7a4d9c">holdout 6.15</tspan><tspan dx="10" fill="#5a5a5a">notes field + scholarly grounding (13 papers)</tspan></text><text x="70" y="438" fill="#1a1a1a" font-size="11"><tspan font-weight="700" fill="#c83030">v1.3</tspan><tspan dx="8" fill="#1f7a4d">train 1.25</tspan><tspan dx="6" fill="#7a4d9c">holdout 6.15</tspan><tspan dx="10" fill="#5a5a5a">applyTayakkunBuffer + tarabishyTimes (Aabed/Tarabishy)</tspan></text><text x="70" y="454" fill="#1a1a1a" font-size="11"><tspan font-weight="700" fill="#c83030">v1.4</tspan><tspan dx="8" fill="#1f7a4d">train 1.25</tspan><tspan dx="6" fill="#7a4d9c">holdout 12.45</tspan><tspan dx="10" fill="#5a5a5a">world-coverage eval (163 countries) + 9 engine bboxes</tspan></text><text x="70" y="470" fill="#1a1a1a" font-size="11"><tspan font-weight="700" fill="#c83030">v1.4.1</tspan><tspan dx="8" fill="#1f7a4d">train 1.04</tspan><tspan dx="6" fill="#7a4d9c">holdout 12.36</tspan><tspan dx="10" fill="#5a5a5a">JAKIM Path A ihtiyati offset (train −16.6%)</tspan></text><text x="70" y="486" fill="#1a1a1a" font-size="11"><tspan font-weight="700" fill="#c83030">v1.4.3</tspan><tspan dx="8" fill="#1f7a4d">train 0.70</tspan><tspan dx="6" fill="#7a4d9c">holdout 11.93</tspan><tspan dx="10" fill="#5a5a5a">eval elevation-policy fix (train −32% to 0.70)</tspan></text><text x="70" y="502" fill="#1a1a1a" font-size="11"><tspan font-weight="700" fill="#c83030">v1.4.4</tspan><tspan dx="8" fill="#1f7a4d">train 0.68</tspan><tspan dx="6" fill="#7a4d9c">holdout 11.93</tspan><tspan dx="10" fill="#5a5a5a">JAKIM Isha +1min Path A (train 0.70 → 0.68)</tspan></text><text x="70" y="518" fill="#1a1a1a" font-size="11"><tspan font-weight="700" fill="#c83030">v1.4.5</tspan><tspan dx="8" fill="#1f7a4d">train 0.67</tspan><tspan dx="6" fill="#7a4d9c">holdout 11.77</tspan><tspan dx="10" fill="#5a5a5a">Diyanet Maghrib/Isha −1min Path A + corpus curation (train 0.68 → 0.67)</tspan></text><text x="70" y="534" fill="#1a1a1a" font-size="11"><tspan font-weight="700" fill="#c83030">v1.5.0</tspan><tspan dx="8" fill="#1f7a4d">train 0.80</tspan><tspan dx="6" fill="#7a4d9c">holdout 11.60</tspan><tspan dx="10" fill="#5a5a5a">Morocco Maghrib +5min Path A + 23-mosque Mawaqit-Morocco corpus (clean −0.07)</tspan></text><rect x="714" y="86" width="216" height="40" rx="3" fill="#fafaf7" stroke="#dcdcd0" /><circle cx="728" cy="98" r="4" fill="#1f7a4d" /><text x="738" y="101" fill="#1a1a1a" font-size="10">Train WMAE (ratchet)</text><circle cx="728" cy="116" r="4" fill="#fafaf7" stroke="#7a4d9c" stroke-width="1.5" /><text x="738" y="119" fill="#1a1a1a" font-size="10">Holdout WMAE (diagnostic)</text></svg>