<svg xmlns="http://www.w3.org/2000/svg" viewBox="0 0 880 360" width="880" height="360" font-family="-apple-system, BlinkMacSystemFont, 'Segoe UI', system-ui, sans-serif" font-size="11"><rect width="880" height="360" fill="#fafaf7" /><text x="440" y="26" text-anchor="middle" fill="#1a1a1a" font-size="17" font-weight="600">WMAE over time — train (ratchet) vs. holdout</text><line x1="60" y1="310" x2="750" y2="310" stroke="#dcdcd0" stroke-width="0.5" /><text x="54" y="313" text-anchor="end" fill="#1a1a1a">0.00</text><line x1="60" y1="258" x2="750" y2="258" stroke="#dcdcd0" stroke-width="0.5" /><text x="54" y="261" text-anchor="end" fill="#1a1a1a">2.00</text><line x1="60" y1="206" x2="750" y2="206" stroke="#dcdcd0" stroke-width="0.5" /><text x="54" y="209" text-anchor="end" fill="#1a1a1a">4.00</text><line x1="60" y1="154" x2="750" y2="154" stroke="#dcdcd0" stroke-width="0.5" /><text x="54" y="157" text-anchor="end" fill="#1a1a1a">6.00</text><line x1="60" y1="102" x2="750" y2="102" stroke="#dcdcd0" stroke-width="0.5" /><text x="54" y="105" text-anchor="end" fill="#1a1a1a">8.00</text><line x1="60" y1="50" x2="750" y2="50" stroke="#dcdcd0" stroke-width="0.5" /><text x="54" y="53" text-anchor="end" fill="#1a1a1a">10.00</text><line x1="60" y1="310" x2="60" y2="314" stroke="#1a1a1a" /><text x="60" y="328" text-anchor="middle" fill="#1a1a1a" font-size="9">04-30 20:49</text><line x1="198" y1="310" x2="198" y2="314" stroke="#1a1a1a" /><text x="198" y="328" text-anchor="middle" fill="#1a1a1a" font-size="9">04-30 21:04</text><line x1="336" y1="310" x2="336" y2="314" stroke="#1a1a1a" /><text x="336" y="328" text-anchor="middle" fill="#1a1a1a" font-size="9">04-30 21:27</text><line x1="474" y1="310" x2="474" y2="314" stroke="#1a1a1a" /><text x="474" y="328" text-anchor="middle" fill="#1a1a1a" font-size="9">04-30 21:41</text><line x1="612" y1="310" x2="612" y2="314" stroke="#1a1a1a" /><text x="612" y="328" text-anchor="middle" fill="#1a1a1a" font-size="9">05-01 14:00</text><line x1="750" y1="310" x2="750" y2="314" stroke="#1a1a1a" /><text x="750" y="328" text-anchor="middle" fill="#1a1a1a" font-size="9">05-01 23:16</text><text x="22" y="180" transform="rotate(-90 22 180)" text-anchor="middle" fill="#1a1a1a">WMAE (min)</text><path d="M60.0,279.9 L129.0,275.4 L198.0,275.4 L267.0,275.4 L336.0,277.8 L405.0,275.4 L474.0,277.8 L543.0,277.6 L612.0,277.6 L681.0,277.6 L750.0,277.6" fill="none" stroke="#1f7a4d" stroke-width="2" /><circle cx="60" cy="279.9333737037037" r="2.5" fill="#1f7a4d" /><circle cx="129" cy="275.42925682539686" r="2.5" fill="#1f7a4d" /><circle cx="198" cy="275.42925682539686" r="2.5" fill="#1f7a4d" /><circle cx="267" cy="275.42925682539686" r="2.5" fill="#1f7a4d" /><circle cx="336" cy="277.7738996825397" r="2.5" fill="#1f7a4d" /><circle cx="405" cy="275.42925682539686" r="2.5" fill="#1f7a4d" /><circle cx="474" cy="277.7738996825397" r="2.5" fill="#1f7a4d" /><circle cx="543" cy="277.5727092063492" r="2.5" fill="#1f7a4d" /><circle cx="612" cy="277.5727092063492" r="2.5" fill="#1f7a4d" /><circle cx="681" cy="277.5727092063492" r="2.5" fill="#1f7a4d" /><circle cx="750" cy="277.5727092063492" r="2.5" fill="#1f7a4d" /><path d="M60.0,100.8 L129.0,146.7 L198.0,146.7 L267.0,149.5 L336.0,150.2 L405.0,149.5 L474.0,150.2 L543.0,150.2 L612.0,150.2 L681.0,150.2 L750.0,150.2" fill="none" stroke="#7a4d9c" stroke-width="2" stroke-dasharray="4,3" /><circle cx="60" cy="100.76449960317464" r="2.5" fill="#7a4d9c" /><circle cx="129" cy="146.67370009337066" r="2.5" fill="#7a4d9c" /><circle cx="198" cy="146.67370009337066" r="2.5" fill="#7a4d9c" /><circle cx="267" cy="149.5044304220266" r="2.5" fill="#7a4d9c" /><circle cx="336" cy="150.16455229067927" r="2.5" fill="#7a4d9c" /><circle cx="405" cy="149.5044304220266" r="2.5" fill="#7a4d9c" /><circle cx="474" cy="150.16455229067927" r="2.5" fill="#7a4d9c" /><circle cx="543" cy="150.16455229067927" r="2.5" fill="#7a4d9c" /><circle cx="612" cy="150.16455229067927" r="2.5" fill="#7a4d9c" /><circle cx="681" cy="150.16455229067927" r="2.5" fill="#7a4d9c" /><circle cx="750" cy="150.16455229067927" r="2.5" fill="#7a4d9c" /><line x1="760" y1="60" x2="784" y2="60" stroke="#1f7a4d" stroke-width="2" /><text x="790" y="63" fill="#1a1a1a">train (ratchet)</text><line x1="760" y1="78" x2="784" y2="78" stroke="#7a4d9c" stroke-width="2" stroke-dasharray="4,3" /><text x="790" y="81" fill="#1a1a1a">holdout</text></svg>