<svg xmlns="http://www.w3.org/2000/svg" viewBox="0 0 980 540" width="980" height="540" font-family="-apple-system, BlinkMacSystemFont, 'Segoe UI', system-ui, sans-serif" font-size="11"><rect width="980" height="540" fill="#fafaf7" /><text x="490" y="32" text-anchor="middle" fill="#1a1a1a" font-size="19" font-weight="700">WMAE Journey — fajr v1.0 → v1.5.0</text><text x="490" y="54" text-anchor="middle" fill="#5a5a5a" font-size="12">Train WMAE (ratchet) and Holdout WMAE across 67 eval runs · annotations call out the release that drove each delta</text><text x="490" y="72" text-anchor="middle" fill="#8a8a8a" font-size="11">Lower is better · y-axis clipped at 14 min for readability (early v1.4.0 holdout pre-tz-fix peaked at 151 min)</text><rect x="70" y="90" width="870" height="250" fill="#f1efe8" /><line x1="70" y1="340" x2="940" y2="340" stroke="#dcdcd0" stroke-width="1" stroke-dasharray="2,3" /><text x="62" y="344" text-anchor="end" fill="#8a8a8a" font-size="9">0</text><line x1="70" y1="249.90688320494033" x2="940" y2="249.90688320494033" stroke="#dcdcd0" stroke-width="1" stroke-dasharray="2,3" /><text x="62" y="253.90688320494033" text-anchor="end" fill="#8a8a8a" font-size="9">5</text><line x1="70" y1="159.81376640988066" x2="940" y2="159.81376640988066" stroke="#dcdcd0" stroke-width="1" stroke-dasharray="2,3" /><text x="62" y="163.81376640988066" text-anchor="end" fill="#8a8a8a" font-size="9">10</text><text x="20" y="215" text-anchor="middle" fill="#5a5a5a" font-size="10" transform="rotate(-90 20 215)">WMAE (minutes)</text><line x1="70" y1="340" x2="940" y2="340" stroke="#a8a89a" stroke-width="1.5" /><line x1="70" y1="90" x2="70" y2="340" stroke="#a8a89a" stroke-width="1.5" /><path d="M70.0,195.0 L83.2,226.8 L96.4,226.8 L109.5,228.8 L122.7,229.2 L135.9,228.8 L149.1,229.2 L162.3,229.2 L175.5,229.2 L188.6,229.2 L201.8,229.2 L215.0,90.0 L228.2,112.7 L241.4,112.7 L254.5,115.7 L267.7,115.7 L280.9,115.7 L294.1,117.3 L307.3,117.3 L320.5,117.3 L333.6,125.1 L346.8,125.1 L360.0,125.1 L373.2,125.1 L386.4,125.0 L399.5,127.9 L412.7,127.9 L425.9,127.9 L439.1,127.9 L452.3,131.1 L465.5,131.3 L478.6,131.1 L491.8,131.1 L505.0,131.1 L518.2,131.1 L531.4,146.9 L544.5,146.9 L557.7,150.3 L570.9,150.3 L584.1,131.1 L597.3,201.7 L610.5,201.7 L623.6,201.7 L636.8,202.2 L650.0,202.2 L663.2,219.2 L676.4,216.6 L689.5,215.1 L702.7,215.6 L715.9,150.3 L729.1,150.3 L781.8,218.8 L795.0,148.7 L808.2,257.3 L821.4,273.3 L834.5,257.3 L847.7,257.3 L860.9,257.3 L874.1,273.3 L887.3,274.0 L900.5,274.0 L913.6,274.0 L926.8,274.0 L940.0,274.0 " fill="none" stroke="#7a4d9c" stroke-width="2" opacity="0.7" /><circle cx="70" cy="194.9947817313543" r="3.5" fill="#fafaf7" stroke="#7a4d9c" stroke-width="1.8" /><circle cx="83.18181818181819" cy="226.8109583600546" r="3.5" fill="#fafaf7" stroke="#7a4d9c" stroke-width="1.8" /><circle cx="96.36363636363636" cy="226.8109583600546" r="3.5" fill="#fafaf7" stroke="#7a4d9c" stroke-width="1.8" /><circle cx="109.54545454545455" cy="228.772722345554" r="3.5" fill="#fafaf7" stroke="#7a4d9c" stroke-width="1.8" /><circle cx="122.72727272727272" cy="229.2302026271809" r="3.5" fill="#fafaf7" stroke="#7a4d9c" stroke-width="1.8" /><circle cx="135.9090909090909" cy="228.772722345554" r="3.5" fill="#fafaf7" stroke="#7a4d9c" stroke-width="1.8" /><circle cx="149.0909090909091" cy="229.2302026271809" r="3.5" fill="#fafaf7" stroke="#7a4d9c" stroke-width="1.8" /><circle cx="162.27272727272728" cy="229.2302026271809" r="3.5" fill="#fafaf7" stroke="#7a4d9c" stroke-width="1.8" /><circle cx="175.45454545454544" cy="229.2302026271809" r="3.5" fill="#fafaf7" stroke="#7a4d9c" stroke-width="1.8" /><circle cx="188.63636363636363" cy="229.2302026271809" r="3.5" fill="#fafaf7" stroke="#7a4d9c" stroke-width="1.8" /><circle cx="201.8181818181818" cy="229.2302026271809" r="3.5" fill="#fafaf7" stroke="#7a4d9c" stroke-width="1.8" /><circle cx="215" cy="90" r="3.5" fill="#fafaf7" stroke="#7a4d9c" stroke-width="1.8" /><text x="215" y="82" text-anchor="middle" fill="#7a4d9c" font-size="9" font-weight="bold">↑</text><circle cx="228.1818181818182" cy="112.72727272727276" r="3.5" fill="#fafaf7" stroke="#7a4d9c" stroke-width="1.8" /><circle cx="241.36363636363635" cy="112.72727272727276" r="3.5" fill="#fafaf7" stroke="#7a4d9c" stroke-width="1.8" /><circle cx="254.54545454545456" cy="115.65230683498123" r="3.5" fill="#fafaf7" stroke="#7a4d9c" stroke-width="1.8" /><circle cx="267.72727272727275" cy="115.65230683498123" r="3.5" fill="#fafaf7" stroke="#7a4d9c" stroke-width="1.8" /><circle cx="280.9090909090909" cy="115.65230683498123" r="3.5" fill="#fafaf7" stroke="#7a4d9c" stroke-width="1.8" /><circle cx="294.0909090909091" cy="117.29044426813904" r="3.5" fill="#fafaf7" stroke="#7a4d9c" stroke-width="1.8" /><circle cx="307.27272727272725" cy="117.29044426813904" r="3.5" fill="#fafaf7" stroke="#7a4d9c" stroke-width="1.8" /><circle cx="320.4545454545455" cy="117.29044426813904" r="3.5" fill="#fafaf7" stroke="#7a4d9c" stroke-width="1.8" /><circle cx="333.6363636363636" cy="125.06395963877932" r="3.5" fill="#fafaf7" stroke="#7a4d9c" stroke-width="1.8" /><circle cx="346.8181818181818" cy="125.06395963877932" r="3.5" fill="#fafaf7" stroke="#7a4d9c" stroke-width="1.8" /><circle cx="360" cy="125.06395963877932" r="3.5" fill="#fafaf7" stroke="#7a4d9c" stroke-width="1.8" /><circle cx="373.1818181818182" cy="125.06395963877932" r="3.5" fill="#fafaf7" stroke="#7a4d9c" stroke-width="1.8" /><circle cx="386.3636363636364" cy="124.99875694254627" r="3.5" fill="#fafaf7" stroke="#7a4d9c" stroke-width="1.8" /><circle cx="399.54545454545456" cy="127.94443779318627" r="3.5" fill="#fafaf7" stroke="#7a4d9c" stroke-width="1.8" /><circle cx="412.7272727272727" cy="127.94443779318627" r="3.5" fill="#fafaf7" stroke="#7a4d9c" stroke-width="1.8" /><circle cx="425.90909090909093" cy="127.94443779318627" r="3.5" fill="#fafaf7" stroke="#7a4d9c" stroke-width="1.8" /><circle cx="439.0909090909091" cy="127.94443779318627" r="3.5" fill="#fafaf7" stroke="#7a4d9c" stroke-width="1.8" /><circle cx="452.27272727272725" cy="131.05309141622166" r="3.5" fill="#fafaf7" stroke="#7a4d9c" stroke-width="1.8" /><circle cx="465.45454545454544" cy="131.29989682951978" r="3.5" fill="#fafaf7" stroke="#7a4d9c" stroke-width="1.8" /><circle cx="478.6363636363637" cy="131.05309141622166" r="3.5" fill="#fafaf7" stroke="#7a4d9c" stroke-width="1.8" /><circle cx="491.8181818181818" cy="131.05309141622166" r="3.5" fill="#fafaf7" stroke="#7a4d9c" stroke-width="1.8" /><circle cx="505" cy="131.05309141622166" r="3.5" fill="#fafaf7" stroke="#7a4d9c" stroke-width="1.8" /><circle cx="518.1818181818182" cy="131.05309141622166" r="3.5" fill="#fafaf7" stroke="#7a4d9c" stroke-width="1.8" /><circle cx="531.3636363636363" cy="146.8596069967834" r="3.5" fill="#fafaf7" stroke="#7a4d9c" stroke-width="1.8" /><circle cx="544.5454545454545" cy="146.8596069967834" r="3.5" fill="#fafaf7" stroke="#7a4d9c" stroke-width="1.8" /><circle cx="557.7272727272727" cy="150.25912304143466" r="3.5" fill="#fafaf7" stroke="#7a4d9c" stroke-width="1.8" /><circle cx="570.909090909091" cy="150.25912304143466" r="3.5" fill="#fafaf7" stroke="#7a4d9c" stroke-width="1.8" /><circle cx="584.0909090909091" cy="131.05309141622166" r="3.5" fill="#fafaf7" stroke="#7a4d9c" stroke-width="1.8" /><circle cx="597.2727272727273" cy="201.6790029474244" r="3.5" fill="#fafaf7" stroke="#7a4d9c" stroke-width="1.8" /><circle cx="610.4545454545455" cy="201.6790029474244" r="3.5" fill="#fafaf7" stroke="#7a4d9c" stroke-width="1.8" /><circle cx="623.6363636363636" cy="201.68057123888534" r="3.5" fill="#fafaf7" stroke="#7a4d9c" stroke-width="1.8" /><circle cx="636.8181818181818" cy="202.20429051520594" r="3.5" fill="#fafaf7" stroke="#7a4d9c" stroke-width="1.8" /><circle cx="650" cy="202.20429051520594" r="3.5" fill="#fafaf7" stroke="#7a4d9c" stroke-width="1.8" /><circle cx="663.1818181818181" cy="219.1856825607131" r="3.5" fill="#fafaf7" stroke="#7a4d9c" stroke-width="1.8" /><circle cx="676.3636363636364" cy="216.6377814257291" r="3.5" fill="#fafaf7" stroke="#7a4d9c" stroke-width="1.8" /><circle cx="689.5454545454546" cy="215.14847502397384" r="3.5" fill="#fafaf7" stroke="#7a4d9c" stroke-width="1.8" /><circle cx="702.7272727272727" cy="215.5838243131849" r="3.5" fill="#fafaf7" stroke="#7a4d9c" stroke-width="1.8" /><circle cx="715.9090909090909" cy="150.25912304143466" r="3.5" fill="#fafaf7" stroke="#7a4d9c" stroke-width="1.8" /><circle cx="729.0909090909091" cy="150.25912304143466" r="3.5" fill="#fafaf7" stroke="#7a4d9c" stroke-width="1.8" /><circle cx="781.8181818181819" cy="218.76864939650912" r="3.5" fill="#fafaf7" stroke="#7a4d9c" stroke-width="1.8" /><circle cx="795" cy="148.69145161992972" r="3.5" fill="#fafaf7" stroke="#7a4d9c" stroke-width="1.8" /><circle cx="808.1818181818182" cy="257.3022064977582" r="3.5" fill="#fafaf7" stroke="#7a4d9c" stroke-width="1.8" /><circle cx="821.3636363636364" cy="273.31079454725807" r="3.5" fill="#fafaf7" stroke="#7a4d9c" stroke-width="1.8" /><circle cx="834.5454545454545" cy="257.3022064977582" r="3.5" fill="#fafaf7" stroke="#7a4d9c" stroke-width="1.8" /><circle cx="847.7272727272727" cy="257.3022064977582" r="3.5" fill="#fafaf7" stroke="#7a4d9c" stroke-width="1.8" /><circle cx="860.9090909090909" cy="257.3022064977582" r="3.5" fill="#fafaf7" stroke="#7a4d9c" stroke-width="1.8" /><circle cx="874.090909090909" cy="273.31079454725807" r="3.5" fill="#fafaf7" stroke="#7a4d9c" stroke-width="1.8" /><circle cx="887.2727272727274" cy="274.0031208474618" r="3.5" fill="#fafaf7" stroke="#7a4d9c" stroke-width="1.8" /><circle cx="900.4545454545455" cy="274.0083035770952" r="3.5" fill="#fafaf7" stroke="#7a4d9c" stroke-width="1.8" /><circle cx="913.6363636363636" cy="274.0083035770952" r="3.5" fill="#fafaf7" stroke="#7a4d9c" stroke-width="1.8" /><circle cx="926.8181818181819" cy="274.0083035770952" r="3.5" fill="#fafaf7" stroke="#7a4d9c" stroke-width="1.8" /><circle cx="940" cy="274.0083035770952" r="3.5" fill="#fafaf7" stroke="#7a4d9c" stroke-width="1.8" /><path d="M70.0,319.2 L83.2,316.0 L96.4,316.0 L109.5,316.0 L122.7,317.7 L135.9,316.0 L149.1,317.7 L162.3,317.5 L175.5,317.5 L188.6,317.5 L201.8,317.5 L215.0,317.5 L228.2,317.5 L241.4,317.5 L254.5,317.5 L267.7,317.5 L280.9,317.5 L294.1,321.3 L307.3,321.3 L320.5,321.3 L333.6,327.3 L346.8,327.0 L360.0,327.3 L373.2,327.3 L386.4,327.7 L399.5,327.9 L412.7,327.9 L425.9,311.8 L439.1,327.9 L452.3,325.6 L465.5,324.4 L478.6,325.6 L491.8,325.5 L505.0,325.5 L518.2,325.5 L531.4,325.5 L544.5,325.5 L557.7,325.5 L570.9,325.5 L584.1,325.5 L597.3,325.5 L610.5,325.5 L623.6,324.2 L636.8,325.5 L650.0,325.5 L663.2,325.5 L676.4,325.5 L689.5,320.1 L702.7,320.6 L715.9,325.5 L729.1,325.5 L742.3,325.5 L755.5,325.5 L768.6,325.5 L781.8,325.5 L795.0,325.5 L808.2,320.8 L821.4,320.8 L834.5,320.8 L847.7,320.8 L860.9,320.8 L874.1,320.8 L887.3,320.8 L900.5,320.8 L913.6,320.8 L926.8,320.8 L940.0,320.8 " fill="none" stroke="#1f7a4d" stroke-width="2.5" /><circle cx="70" cy="319.16310711887974" r="3.5" fill="#1f7a4d" /><circle cx="83.18181818181819" cy="316.0416461344497" r="3.5" fill="#1f7a4d" /><circle cx="96.36363636363636" cy="316.0416461344497" r="3.5" fill="#1f7a4d" /><circle cx="109.54545454545455" cy="316.0416461344497" r="3.5" fill="#1f7a4d" /><circle cx="122.72727272727272" cy="317.6665398480749" r="3.5" fill="#1f7a4d" /><circle cx="135.9090909090909" cy="316.0416461344497" r="3.5" fill="#1f7a4d" /><circle cx="149.0909090909091" cy="317.6665398480749" r="3.5" fill="#1f7a4d" /><circle cx="162.27272727272728" cy="317.5271100244635" r="3.5" fill="#1f7a4d" /><circle cx="175.45454545454544" cy="317.5271100244635" r="3.5" fill="#1f7a4d" /><circle cx="188.63636363636363" cy="317.5271100244635" r="3.5" fill="#1f7a4d" /><circle cx="201.8181818181818" cy="317.5271100244635" r="3.5" fill="#1f7a4d" /><circle cx="215" cy="317.5271100244635" r="3.5" fill="#1f7a4d" /><circle cx="228.1818181818182" cy="317.5271100244635" r="3.5" fill="#1f7a4d" /><circle cx="241.36363636363635" cy="317.5271100244635" r="3.5" fill="#1f7a4d" /><circle cx="254.54545454545456" cy="317.5271100244635" r="3.5" fill="#1f7a4d" /><circle cx="267.72727272727275" cy="317.5271100244635" r="3.5" fill="#1f7a4d" /><circle cx="280.9090909090909" cy="317.5271100244635" r="3.5" fill="#1f7a4d" /><circle cx="294.0909090909091" cy="321.2705882084667" r="3.5" fill="#1f7a4d" /><circle cx="307.27272727272725" cy="321.2705882084667" r="3.5" fill="#1f7a4d" /><circle cx="320.4545454545455" cy="321.2705882084667" r="3.5" fill="#1f7a4d" /><circle cx="333.6363636363636" cy="327.3192009409447" r="3.5" fill="#1f7a4d" /><circle cx="346.8181818181818" cy="327.01763782828954" r="3.5" fill="#1f7a4d" /><circle cx="360" cy="327.3192009409447" r="3.5" fill="#1f7a4d" /><circle cx="373.1818181818182" cy="327.3192009409447" r="3.5" fill="#1f7a4d" /><circle cx="386.3636363636364" cy="327.7221018359288" r="3.5" fill="#1f7a4d" /><circle cx="399.54545454545456" cy="327.8704666441763" r="3.5" fill="#1f7a4d" /><circle cx="412.7272727272727" cy="327.8704666441763" r="3.5" fill="#1f7a4d" /><circle cx="425.90909090909093" cy="311.7704434196404" r="3.5" fill="#1f7a4d" /><circle cx="439.0909090909091" cy="327.8704666441763" r="3.5" fill="#1f7a4d" /><circle cx="452.27272727272725" cy="325.6243201174626" r="3.5" fill="#1f7a4d" /><circle cx="465.45454545454544" cy="324.3795728297509" r="3.5" fill="#1f7a4d" /><circle cx="478.6363636363637" cy="325.6243201174626" r="3.5" fill="#1f7a4d" /><circle cx="491.8181818181818" cy="325.54852849591634" r="3.5" fill="#1f7a4d" /><circle cx="505" cy="325.54852849591634" r="3.5" fill="#1f7a4d" /><circle cx="518.1818181818182" cy="325.54852849591634" r="3.5" fill="#1f7a4d" /><circle cx="531.3636363636363" cy="325.54852849591634" r="3.5" fill="#1f7a4d" /><circle cx="544.5454545454545" cy="325.54852849591634" r="3.5" fill="#1f7a4d" /><circle cx="557.7272727272727" cy="325.54852849591634" r="3.5" fill="#1f7a4d" /><circle cx="570.909090909091" cy="325.54852849591634" r="3.5" fill="#1f7a4d" /><circle cx="584.0909090909091" cy="325.54852849591634" r="3.5" fill="#1f7a4d" /><circle cx="597.2727272727273" cy="325.54852849591634" r="3.5" fill="#1f7a4d" /><circle cx="610.4545454545455" cy="325.54852849591634" r="3.5" fill="#1f7a4d" /><circle cx="623.6363636363636" cy="324.17099237553055" r="3.5" fill="#1f7a4d" /><circle cx="636.8181818181818" cy="325.54852849591634" r="3.5" fill="#1f7a4d" /><circle cx="650" cy="325.54852849591634" r="3.5" fill="#1f7a4d" /><circle cx="663.1818181818181" cy="325.54852849591634" r="3.5" fill="#1f7a4d" /><circle cx="676.3636363636364" cy="325.54852849591634" r="3.5" fill="#1f7a4d" /><circle cx="689.5454545454546" cy="320.1144824394784" r="3.5" fill="#1f7a4d" /><circle cx="702.7272727272727" cy="320.5634514600518" r="3.5" fill="#1f7a4d" /><circle cx="715.9090909090909" cy="325.54852849591634" r="3.5" fill="#1f7a4d" /><circle cx="729.0909090909091" cy="325.54852849591634" r="3.5" fill="#1f7a4d" /><circle cx="742.2727272727273" cy="325.54852849591634" r="3.5" fill="#1f7a4d" /><circle cx="755.4545454545454" cy="325.54852849591634" r="3.5" fill="#1f7a4d" /><circle cx="768.6363636363636" cy="325.54852849591634" r="3.5" fill="#1f7a4d" /><circle cx="781.8181818181819" cy="325.54852849591634" r="3.5" fill="#1f7a4d" /><circle cx="795" cy="325.54852849591634" r="3.5" fill="#1f7a4d" /><circle cx="808.1818181818182" cy="320.7781396658514" r="3.5" fill="#1f7a4d" /><circle cx="821.3636363636364" cy="320.7781396658514" r="3.5" fill="#1f7a4d" /><circle cx="834.5454545454545" cy="320.7781396658514" r="3.5" fill="#1f7a4d" /><circle cx="847.7272727272727" cy="320.7781396658514" r="3.5" fill="#1f7a4d" /><circle cx="860.9090909090909" cy="320.7781396658514" r="3.5" fill="#1f7a4d" /><circle cx="874.090909090909" cy="320.7781396658514" r="3.5" fill="#1f7a4d" /><circle cx="887.2727272727274" cy="320.7781396658514" r="3.5" fill="#1f7a4d" /><circle cx="900.4545454545455" cy="320.7781396658514" r="3.5" fill="#1f7a4d" /><circle cx="913.6363636363636" cy="320.7781396658514" r="3.5" fill="#1f7a4d" /><circle cx="926.8181818181819" cy="320.7781396658514" r="3.5" fill="#1f7a4d" /><circle cx="940" cy="320.7781396658514" r="3.5" fill="#1f7a4d" /><line x1="70" y1="90" x2="70" y2="340" stroke="#c83030" stroke-width="1" stroke-dasharray="3,3" opacity="0.5" /><rect x="48" y="75" width="44" height="14" rx="3" fill="#c83030" opacity="0.9" /><text x="70" y="86" text-anchor="middle" fill="white" font-size="9" font-weight="600">v1.0</text><text x="76" y="311.16310711887974" fill="#1f7a4d" font-size="9" font-weight="600">1.16</text><text x="76" y="186.9947817313543" fill="#7a4d9c" font-size="9" font-weight="600">8.0</text><line x1="162.27272727272728" y1="90" x2="162.27272727272728" y2="340" stroke="#c83030" stroke-width="1" stroke-dasharray="3,3" opacity="0.5" /><rect x="140.27272727272728" y="61" width="44" height="14" rx="3" fill="#c83030" opacity="0.9" /><text x="162.27272727272728" y="72" text-anchor="middle" fill="white" font-size="9" font-weight="600">v1.1.1</text><text x="168.27272727272728" y="309.5271100244635" fill="#1f7a4d" font-size="9" font-weight="600">1.25</text><text x="168.27272727272728" y="221.2302026271809" fill="#7a4d9c" font-size="9" font-weight="600">6.1</text><line x1="188.63636363636363" y1="90" x2="188.63636363636363" y2="340" stroke="#c83030" stroke-width="1" stroke-dasharray="3,3" opacity="0.5" /><rect x="166.63636363636363" y="75" width="44" height="14" rx="3" fill="#c83030" opacity="0.9" /><text x="188.63636363636363" y="86" text-anchor="middle" fill="white" font-size="9" font-weight="600">v1.2</text><text x="194.63636363636363" y="309.5271100244635" fill="#1f7a4d" font-size="9" font-weight="600">1.25</text><text x="194.63636363636363" y="221.2302026271809" fill="#7a4d9c" font-size="9" font-weight="600">6.1</text><line x1="201.8181818181818" y1="90" x2="201.8181818181818" y2="340" stroke="#c83030" stroke-width="1" stroke-dasharray="3,3" opacity="0.5" /><rect x="179.8181818181818" y="61" width="44" height="14" rx="3" fill="#c83030" opacity="0.9" /><text x="201.8181818181818" y="72" text-anchor="middle" fill="white" font-size="9" font-weight="600">v1.3</text><text x="207.8181818181818" y="309.5271100244635" fill="#1f7a4d" font-size="9" font-weight="600">1.25</text><text x="207.8181818181818" y="221.2302026271809" fill="#7a4d9c" font-size="9" font-weight="600">6.1</text><line x1="254.54545454545456" y1="90" x2="254.54545454545456" y2="340" stroke="#c83030" stroke-width="1" stroke-dasharray="3,3" opacity="0.5" /><rect x="232.54545454545456" y="75" width="44" height="14" rx="3" fill="#c83030" opacity="0.9" /><text x="254.54545454545456" y="86" text-anchor="middle" fill="white" font-size="9" font-weight="600">v1.4</text><text x="260.54545454545456" y="309.5271100244635" fill="#1f7a4d" font-size="9" font-weight="600">1.25</text><text x="260.54545454545456" y="107.65230683498123" fill="#7a4d9c" font-size="9" font-weight="600">12.5</text><line x1="294.0909090909091" y1="90" x2="294.0909090909091" y2="340" stroke="#c83030" stroke-width="1" stroke-dasharray="3,3" opacity="0.5" /><rect x="272.0909090909091" y="61" width="44" height="14" rx="3" fill="#c83030" opacity="0.9" /><text x="294.0909090909091" y="72" text-anchor="middle" fill="white" font-size="9" font-weight="600">v1.4.1</text><text x="300.0909090909091" y="313.2705882084667" fill="#1f7a4d" font-size="9" font-weight="600">1.04</text><text x="300.0909090909091" y="109.29044426813904" fill="#7a4d9c" font-size="9" font-weight="600">12.4</text><line x1="333.6363636363636" y1="90" x2="333.6363636363636" y2="340" stroke="#c83030" stroke-width="1" stroke-dasharray="3,3" opacity="0.5" /><rect x="311.6363636363636" y="75" width="44" height="14" rx="3" fill="#c83030" opacity="0.9" /><text x="333.6363636363636" y="86" text-anchor="middle" fill="white" font-size="9" font-weight="600">v1.4.3</text><text x="339.6363636363636" y="319.3192009409447" fill="#1f7a4d" font-size="9" font-weight="600">0.70</text><text x="339.6363636363636" y="117.06395963877932" fill="#7a4d9c" font-size="9" font-weight="600">11.9</text><line x1="386.3636363636364" y1="90" x2="386.3636363636364" y2="340" stroke="#c83030" stroke-width="1" stroke-dasharray="3,3" opacity="0.5" /><rect x="364.3636363636364" y="61" width="44" height="14" rx="3" fill="#c83030" opacity="0.9" /><text x="386.3636363636364" y="72" text-anchor="middle" fill="white" font-size="9" font-weight="600">v1.4.4</text><text x="392.3636363636364" y="319.7221018359288" fill="#1f7a4d" font-size="9" font-weight="600">0.68</text><text x="392.3636363636364" y="116.99875694254627" fill="#7a4d9c" font-size="9" font-weight="600">11.9</text><line x1="399.54545454545456" y1="90" x2="399.54545454545456" y2="340" stroke="#c83030" stroke-width="1" stroke-dasharray="3,3" opacity="0.5" /><rect x="377.54545454545456" y="75" width="44" height="14" rx="3" fill="#c83030" opacity="0.9" /><text x="399.54545454545456" y="86" text-anchor="middle" fill="white" font-size="9" font-weight="600">v1.4.5</text><text x="405.54545454545456" y="319.8704666441763" fill="#1f7a4d" font-size="9" font-weight="600">0.67</text><text x="405.54545454545456" y="119.94443779318627" fill="#7a4d9c" font-size="9" font-weight="600">11.8</text><line x1="478.6363636363637" y1="90" x2="478.6363636363637" y2="340" stroke="#c83030" stroke-width="1" stroke-dasharray="3,3" opacity="0.5" /><rect x="456.6363636363637" y="61" width="44" height="14" rx="3" fill="#c83030" opacity="0.9" /><text x="478.6363636363637" y="72" text-anchor="middle" fill="white" font-size="9" font-weight="600">v1.5.0</text><text x="484.6363636363637" y="317.6243201174626" fill="#1f7a4d" font-size="9" font-weight="600">0.80</text><text x="484.6363636363637" y="123.05309141622166" fill="#7a4d9c" font-size="9" font-weight="600">11.6</text><text x="70" y="372" fill="#1a1a1a" font-size="12" font-weight="600">Release timeline</text><text x="70" y="390" fill="#1a1a1a" font-size="11"><tspan font-weight="700" fill="#c83030">v1.0</tspan><tspan dx="8" fill="#1f7a4d">train 1.16</tspan><tspan dx="6" fill="#7a4d9c">holdout 8.05</tspan><tspan dx="10" fill="#5a5a5a">baseline (corpus + ratchet established)</tspan></text><text x="70" y="406" fill="#1a1a1a" font-size="11"><tspan font-weight="700" fill="#c83030">v1.1.1</tspan><tspan dx="8" fill="#1f7a4d">train 1.25</tspan><tspan dx="6" fill="#7a4d9c">holdout 6.15</tspan><tspan dx="10" fill="#5a5a5a">dayTimes elevation fix + npm publish CI</tspan></text><text x="70" y="422" fill="#1a1a1a" font-size="11"><tspan font-weight="700" fill="#c83030">v1.2</tspan><tspan dx="8" fill="#1f7a4d">train 1.25</tspan><tspan dx="6" fill="#7a4d9c">holdout 6.15</tspan><tspan dx="10" fill="#5a5a5a">notes field + scholarly grounding (13 papers)</tspan></text><text x="70" y="438" fill="#1a1a1a" font-size="11"><tspan font-weight="700" fill="#c83030">v1.3</tspan><tspan dx="8" fill="#1f7a4d">train 1.25</tspan><tspan dx="6" fill="#7a4d9c">holdout 6.15</tspan><tspan dx="10" fill="#5a5a5a">applyTayakkunBuffer + tarabishyTimes (Aabed/Tarabishy)</tspan></text><text x="70" y="454" fill="#1a1a1a" font-size="11"><tspan font-weight="700" fill="#c83030">v1.4</tspan><tspan dx="8" fill="#1f7a4d">train 1.25</tspan><tspan dx="6" fill="#7a4d9c">holdout 12.45</tspan><tspan dx="10" fill="#5a5a5a">world-coverage eval (163 countries) + 9 engine bboxes</tspan></text><text x="70" y="470" fill="#1a1a1a" font-size="11"><tspan font-weight="700" fill="#c83030">v1.4.1</tspan><tspan dx="8" fill="#1f7a4d">train 1.04</tspan><tspan dx="6" fill="#7a4d9c">holdout 12.36</tspan><tspan dx="10" fill="#5a5a5a">JAKIM Path A ihtiyati offset (train −16.6%)</tspan></text><text x="70" y="486" fill="#1a1a1a" font-size="11"><tspan font-weight="700" fill="#c83030">v1.4.3</tspan><tspan dx="8" fill="#1f7a4d">train 0.70</tspan><tspan dx="6" fill="#7a4d9c">holdout 11.93</tspan><tspan dx="10" fill="#5a5a5a">eval elevation-policy fix (train −32% to 0.70)</tspan></text><text x="70" y="502" fill="#1a1a1a" font-size="11"><tspan font-weight="700" fill="#c83030">v1.4.4</tspan><tspan dx="8" fill="#1f7a4d">train 0.68</tspan><tspan dx="6" fill="#7a4d9c">holdout 11.93</tspan><tspan dx="10" fill="#5a5a5a">JAKIM Isha +1min Path A (train 0.70 → 0.68)</tspan></text><text x="70" y="518" fill="#1a1a1a" font-size="11"><tspan font-weight="700" fill="#c83030">v1.4.5</tspan><tspan dx="8" fill="#1f7a4d">train 0.67</tspan><tspan dx="6" fill="#7a4d9c">holdout 11.77</tspan><tspan dx="10" fill="#5a5a5a">Diyanet Maghrib/Isha −1min Path A + corpus curation (train 0.68 → 0.67)</tspan></text><text x="70" y="534" fill="#1a1a1a" font-size="11"><tspan font-weight="700" fill="#c83030">v1.5.0</tspan><tspan dx="8" fill="#1f7a4d">train 0.80</tspan><tspan dx="6" fill="#7a4d9c">holdout 11.60</tspan><tspan dx="10" fill="#5a5a5a">Morocco Maghrib +5min Path A + 23-mosque Mawaqit-Morocco corpus (clean −0.07)</tspan></text><rect x="714" y="86" width="216" height="40" rx="3" fill="#fafaf7" stroke="#dcdcd0" /><circle cx="728" cy="98" r="4" fill="#1f7a4d" /><text x="738" y="101" fill="#1a1a1a" font-size="10">Train WMAE (ratchet)</text><circle cx="728" cy="116" r="4" fill="#fafaf7" stroke="#7a4d9c" stroke-width="1.5" /><text x="738" y="119" fill="#1a1a1a" font-size="10">Holdout WMAE (diagnostic)</text></svg>