<svg xmlns="http://www.w3.org/2000/svg" viewBox="0 0 980 540" width="980" height="540" font-family="-apple-system, BlinkMacSystemFont, 'Segoe UI', system-ui, sans-serif" font-size="11"><rect width="980" height="540" fill="#fafaf7" /><text x="490" y="32" text-anchor="middle" fill="#1a1a1a" font-size="19" font-weight="700">WMAE Journey — fajr v1.0 → v1.4.4</text><text x="490" y="54" text-anchor="middle" fill="#5a5a5a" font-size="12">Train WMAE (ratchet) and Holdout WMAE across 25 eval runs · annotations call out the release that drove each delta</text><text x="490" y="72" text-anchor="middle" fill="#8a8a8a" font-size="11">Lower is better · y-axis clipped at 25 min for readability (early v1.4.0 holdout pre-tz-fix peaked at 151 min)</text><rect x="70" y="90" width="870" height="250" fill="#f1efe8" /><line x1="70" y1="340" x2="940" y2="340" stroke="#dcdcd0" stroke-width="1" stroke-dasharray="2,3" /><text x="62" y="344" text-anchor="end" fill="#8a8a8a" font-size="9">0</text><line x1="70" y1="290" x2="940" y2="290" stroke="#dcdcd0" stroke-width="1" stroke-dasharray="2,3" /><text x="62" y="294" text-anchor="end" fill="#8a8a8a" font-size="9">5</text><line x1="70" y1="240" x2="940" y2="240" stroke="#dcdcd0" stroke-width="1" stroke-dasharray="2,3" /><text x="62" y="244" text-anchor="end" fill="#8a8a8a" font-size="9">10</text><line x1="70" y1="190" x2="940" y2="190" stroke="#dcdcd0" stroke-width="1" stroke-dasharray="2,3" /><text x="62" y="194" text-anchor="end" fill="#8a8a8a" font-size="9">15</text><line x1="70" y1="140" x2="940" y2="140" stroke="#dcdcd0" stroke-width="1" stroke-dasharray="2,3" /><text x="62" y="144" text-anchor="end" fill="#8a8a8a" font-size="9">20</text><line x1="70" y1="90" x2="940" y2="90" stroke="#dcdcd0" stroke-width="1" stroke-dasharray="2,3" /><text x="62" y="94" text-anchor="end" fill="#8a8a8a" font-size="9">25</text><text x="20" y="215" text-anchor="middle" fill="#5a5a5a" font-size="10" transform="rotate(-90 20 215)">WMAE (minutes)</text><line x1="70" y1="340" x2="940" y2="340" stroke="#a8a89a" stroke-width="1.5" /><line x1="70" y1="90" x2="70" y2="340" stroke="#a8a89a" stroke-width="1.5" /><path d="M70.0,259.5 L106.3,277.2 L142.5,277.2 L178.8,278.3 L215.0,278.5 L251.3,278.3 L287.5,278.5 L323.8,278.5 L360.0,278.5 L396.3,278.5 L432.5,278.5 L468.8,90.0 L505.0,213.9 L541.3,213.9 L577.5,215.5 L613.8,215.5 L650.0,215.5 L686.3,216.4 L722.5,216.4 L758.8,216.4 L795.0,220.7 L831.3,220.7 L867.5,220.7 L903.8,220.7 L940.0,220.7 " fill="none" stroke="#7a4d9c" stroke-width="2" opacity="0.7" /><circle cx="70" cy="259.52480753968257" r="3.5" fill="#fafaf7" stroke="#7a4d9c" stroke-width="1.8" /><circle cx="106.25" cy="277.18219234360413" r="3.5" fill="#fafaf7" stroke="#7a4d9c" stroke-width="1.8" /><circle cx="142.5" cy="277.18219234360413" r="3.5" fill="#fafaf7" stroke="#7a4d9c" stroke-width="1.8" /><circle cx="178.75" cy="278.27093477770256" r="3.5" fill="#fafaf7" stroke="#7a4d9c" stroke-width="1.8" /><circle cx="215" cy="278.5248278041074" r="3.5" fill="#fafaf7" stroke="#7a4d9c" stroke-width="1.8" /><circle cx="251.25" cy="278.27093477770256" r="3.5" fill="#fafaf7" stroke="#7a4d9c" stroke-width="1.8" /><circle cx="287.5" cy="278.5248278041074" r="3.5" fill="#fafaf7" stroke="#7a4d9c" stroke-width="1.8" /><circle cx="323.75" cy="278.5248278041074" r="3.5" fill="#fafaf7" stroke="#7a4d9c" stroke-width="1.8" /><circle cx="360" cy="278.5248278041074" r="3.5" fill="#fafaf7" stroke="#7a4d9c" stroke-width="1.8" /><circle cx="396.25" cy="278.5248278041074" r="3.5" fill="#fafaf7" stroke="#7a4d9c" stroke-width="1.8" /><circle cx="432.5" cy="278.5248278041074" r="3.5" fill="#fafaf7" stroke="#7a4d9c" stroke-width="1.8" /><circle cx="468.75" cy="90" r="3.5" fill="#fafaf7" stroke="#7a4d9c" stroke-width="1.8" /><text x="468.75" y="82" text-anchor="middle" fill="#7a4d9c" font-size="9" font-weight="bold">↑</text><circle cx="505" cy="213.8678739521697" r="3.5" fill="#fafaf7" stroke="#7a4d9c" stroke-width="1.8" /><circle cx="541.25" cy="213.8678739521697" r="3.5" fill="#fafaf7" stroke="#7a4d9c" stroke-width="1.8" /><circle cx="577.5" cy="215.4912133435475" r="3.5" fill="#fafaf7" stroke="#7a4d9c" stroke-width="1.8" /><circle cx="613.75" cy="215.4912133435475" r="3.5" fill="#fafaf7" stroke="#7a4d9c" stroke-width="1.8" /><circle cx="650" cy="215.4912133435475" r="3.5" fill="#fafaf7" stroke="#7a4d9c" stroke-width="1.8" /><circle cx="686.25" cy="216.40034907523955" r="3.5" fill="#fafaf7" stroke="#7a4d9c" stroke-width="1.8" /><circle cx="722.5" cy="216.40034907523955" r="3.5" fill="#fafaf7" stroke="#7a4d9c" stroke-width="1.8" /><circle cx="758.75" cy="216.40034907523955" r="3.5" fill="#fafaf7" stroke="#7a4d9c" stroke-width="1.8" /><circle cx="795" cy="220.71450516572267" r="3.5" fill="#fafaf7" stroke="#7a4d9c" stroke-width="1.8" /><circle cx="831.25" cy="220.71450516572267" r="3.5" fill="#fafaf7" stroke="#7a4d9c" stroke-width="1.8" /><circle cx="867.5" cy="220.71450516572267" r="3.5" fill="#fafaf7" stroke="#7a4d9c" stroke-width="1.8" /><circle cx="903.75" cy="220.71450516572267" r="3.5" fill="#fafaf7" stroke="#7a4d9c" stroke-width="1.8" /><circle cx="940" cy="220.678318885043" r="3.5" fill="#fafaf7" stroke="#7a4d9c" stroke-width="1.8" /><path d="M70.0,328.4 L106.3,326.7 L142.5,326.7 L178.8,326.7 L215.0,327.6 L251.3,326.7 L287.5,327.6 L323.8,327.5 L360.0,327.5 L396.3,327.5 L432.5,327.5 L468.8,327.5 L505.0,327.5 L541.3,327.5 L577.5,327.5 L613.8,327.5 L650.0,327.5 L686.3,329.6 L722.5,329.6 L758.8,329.6 L795.0,333.0 L831.3,332.8 L867.5,333.0 L903.8,333.0 L940.0,333.2 " fill="none" stroke="#1f7a4d" stroke-width="2.5" /><circle cx="70" cy="328.43591296296296" r="3.5" fill="#1f7a4d" /><circle cx="106.25" cy="326.7035603174603" r="3.5" fill="#1f7a4d" /><circle cx="142.5" cy="326.7035603174603" r="3.5" fill="#1f7a4d" /><circle cx="178.75" cy="326.7035603174603" r="3.5" fill="#1f7a4d" /><circle cx="215" cy="327.6053460317461" r="3.5" fill="#1f7a4d" /><circle cx="251.25" cy="326.7035603174603" r="3.5" fill="#1f7a4d" /><circle cx="287.5" cy="327.6053460317461" r="3.5" fill="#1f7a4d" /><circle cx="323.75" cy="327.5279650793651" r="3.5" fill="#1f7a4d" /><circle cx="360" cy="327.5279650793651" r="3.5" fill="#1f7a4d" /><circle cx="396.25" cy="327.5279650793651" r="3.5" fill="#1f7a4d" /><circle cx="432.5" cy="327.5279650793651" r="3.5" fill="#1f7a4d" /><circle cx="468.75" cy="327.5279650793651" r="3.5" fill="#1f7a4d" /><circle cx="505" cy="327.5279650793651" r="3.5" fill="#1f7a4d" /><circle cx="541.25" cy="327.5279650793651" r="3.5" fill="#1f7a4d" /><circle cx="577.5" cy="327.5279650793651" r="3.5" fill="#1f7a4d" /><circle cx="613.75" cy="327.5279650793651" r="3.5" fill="#1f7a4d" /><circle cx="650" cy="327.5279650793651" r="3.5" fill="#1f7a4d" /><circle cx="686.25" cy="329.6055256728779" r="3.5" fill="#1f7a4d" /><circle cx="722.5" cy="329.6055256728779" r="3.5" fill="#1f7a4d" /><circle cx="758.75" cy="329.6055256728779" r="3.5" fill="#1f7a4d" /><circle cx="795" cy="332.96239296066256" r="3.5" fill="#1f7a4d" /><circle cx="831.25" cy="332.7950310559006" r="3.5" fill="#1f7a4d" /><circle cx="867.5" cy="332.96239296066256" r="3.5" fill="#1f7a4d" /><circle cx="903.75" cy="332.96239296066256" r="3.5" fill="#1f7a4d" /><circle cx="940" cy="333.1859954451346" r="3.5" fill="#1f7a4d" /><line x1="70" y1="90" x2="70" y2="340" stroke="#c83030" stroke-width="1" stroke-dasharray="3,3" opacity="0.5" /><rect x="48" y="75" width="44" height="14" rx="3" fill="#c83030" opacity="0.9" /><text x="70" y="86" text-anchor="middle" fill="white" font-size="9" font-weight="600">v1.0</text><text x="76" y="320.43591296296296" fill="#1f7a4d" font-size="9" font-weight="600">1.16</text><text x="76" y="251.52480753968257" fill="#7a4d9c" font-size="9" font-weight="600">8.0</text><line x1="323.75" y1="90" x2="323.75" y2="340" stroke="#c83030" stroke-width="1" stroke-dasharray="3,3" opacity="0.5" /><rect x="301.75" y="61" width="44" height="14" rx="3" fill="#c83030" opacity="0.9" /><text x="323.75" y="72" text-anchor="middle" fill="white" font-size="9" font-weight="600">v1.1.1</text><text x="329.75" y="319.5279650793651" fill="#1f7a4d" font-size="9" font-weight="600">1.25</text><text x="329.75" y="270.5248278041074" fill="#7a4d9c" font-size="9" font-weight="600">6.1</text><line x1="396.25" y1="90" x2="396.25" y2="340" stroke="#c83030" stroke-width="1" stroke-dasharray="3,3" opacity="0.5" /><rect x="374.25" y="75" width="44" height="14" rx="3" fill="#c83030" opacity="0.9" /><text x="396.25" y="86" text-anchor="middle" fill="white" font-size="9" font-weight="600">v1.2</text><text x="402.25" y="319.5279650793651" fill="#1f7a4d" font-size="9" font-weight="600">1.25</text><text x="402.25" y="270.5248278041074" fill="#7a4d9c" font-size="9" font-weight="600">6.1</text><line x1="432.5" y1="90" x2="432.5" y2="340" stroke="#c83030" stroke-width="1" stroke-dasharray="3,3" opacity="0.5" /><rect x="410.5" y="61" width="44" height="14" rx="3" fill="#c83030" opacity="0.9" /><text x="432.5" y="72" text-anchor="middle" fill="white" font-size="9" font-weight="600">v1.3</text><text x="438.5" y="319.5279650793651" fill="#1f7a4d" font-size="9" font-weight="600">1.25</text><text x="438.5" y="270.5248278041074" fill="#7a4d9c" font-size="9" font-weight="600">6.1</text><line x1="577.5" y1="90" x2="577.5" y2="340" stroke="#c83030" stroke-width="1" stroke-dasharray="3,3" opacity="0.5" /><rect x="555.5" y="75" width="44" height="14" rx="3" fill="#c83030" opacity="0.9" /><text x="577.5" y="86" text-anchor="middle" fill="white" font-size="9" font-weight="600">v1.4</text><text x="583.5" y="319.5279650793651" fill="#1f7a4d" font-size="9" font-weight="600">1.25</text><text x="583.5" y="207.4912133435475" fill="#7a4d9c" font-size="9" font-weight="600">12.5</text><line x1="686.25" y1="90" x2="686.25" y2="340" stroke="#c83030" stroke-width="1" stroke-dasharray="3,3" opacity="0.5" /><rect x="664.25" y="61" width="44" height="14" rx="3" fill="#c83030" opacity="0.9" /><text x="686.25" y="72" text-anchor="middle" fill="white" font-size="9" font-weight="600">v1.4.1</text><text x="692.25" y="321.6055256728779" fill="#1f7a4d" font-size="9" font-weight="600">1.04</text><text x="692.25" y="208.40034907523955" fill="#7a4d9c" font-size="9" font-weight="600">12.4</text><line x1="867.5" y1="90" x2="867.5" y2="340" stroke="#c83030" stroke-width="1" stroke-dasharray="3,3" opacity="0.5" /><rect x="845.5" y="75" width="44" height="14" rx="3" fill="#c83030" opacity="0.9" /><text x="867.5" y="86" text-anchor="middle" fill="white" font-size="9" font-weight="600">v1.4.3</text><text x="873.5" y="324.96239296066256" fill="#1f7a4d" font-size="9" font-weight="600">0.70</text><text x="873.5" y="212.71450516572267" fill="#7a4d9c" font-size="9" font-weight="600">11.9</text><line x1="468.75" y1="90" x2="468.75" y2="340" stroke="#c83030" stroke-width="1" stroke-dasharray="3,3" opacity="0.5" /><rect x="446.75" y="61" width="44" height="14" rx="3" fill="#c83030" opacity="0.9" /><text x="468.75" y="72" text-anchor="middle" fill="white" font-size="9" font-weight="600">v1.4.4</text><text x="474.75" y="319.5279650793651" fill="#1f7a4d" font-size="9" font-weight="600">1.25</text><text x="70" y="372" fill="#1a1a1a" font-size="12" font-weight="600">Release timeline</text><text x="70" y="390" fill="#1a1a1a" font-size="11"><tspan font-weight="700" fill="#c83030">v1.0</tspan><tspan dx="8" fill="#1f7a4d">train 1.16</tspan><tspan dx="6" fill="#7a4d9c">holdout 8.05</tspan><tspan dx="10" fill="#5a5a5a">baseline (corpus + ratchet established)</tspan></text><text x="70" y="406" fill="#1a1a1a" font-size="11"><tspan font-weight="700" fill="#c83030">v1.1.1</tspan><tspan dx="8" fill="#1f7a4d">train 1.25</tspan><tspan dx="6" fill="#7a4d9c">holdout 6.15</tspan><tspan dx="10" fill="#5a5a5a">dayTimes elevation fix + npm publish CI</tspan></text><text x="70" y="422" fill="#1a1a1a" font-size="11"><tspan font-weight="700" fill="#c83030">v1.2</tspan><tspan dx="8" fill="#1f7a4d">train 1.25</tspan><tspan dx="6" fill="#7a4d9c">holdout 6.15</tspan><tspan dx="10" fill="#5a5a5a">notes field + scholarly grounding (13 papers)</tspan></text><text x="70" y="438" fill="#1a1a1a" font-size="11"><tspan font-weight="700" fill="#c83030">v1.3</tspan><tspan dx="8" fill="#1f7a4d">train 1.25</tspan><tspan dx="6" fill="#7a4d9c">holdout 6.15</tspan><tspan dx="10" fill="#5a5a5a">applyTayakkunBuffer + tarabishyTimes (Aabed/Tarabishy)</tspan></text><text x="70" y="454" fill="#1a1a1a" font-size="11"><tspan font-weight="700" fill="#c83030">v1.4</tspan><tspan dx="8" fill="#1f7a4d">train 1.25</tspan><tspan dx="6" fill="#7a4d9c">holdout 12.45</tspan><tspan dx="10" fill="#5a5a5a">world-coverage eval (163 countries) + 9 engine bboxes</tspan></text><text x="70" y="470" fill="#1a1a1a" font-size="11"><tspan font-weight="700" fill="#c83030">v1.4.1</tspan><tspan dx="8" fill="#1f7a4d">train 1.04</tspan><tspan dx="6" fill="#7a4d9c">holdout 12.36</tspan><tspan dx="10" fill="#5a5a5a">JAKIM Path A ihtiyati offset (train −16.6%)</tspan></text><text x="70" y="486" fill="#1a1a1a" font-size="11"><tspan font-weight="700" fill="#c83030">v1.4.3</tspan><tspan dx="8" fill="#1f7a4d">train 0.70</tspan><tspan dx="6" fill="#7a4d9c">holdout 11.93</tspan><tspan dx="10" fill="#5a5a5a">eval elevation-policy fix (train −32% to 0.70)</tspan></text><text x="70" y="502" fill="#1a1a1a" font-size="11"><tspan font-weight="700" fill="#c83030">v1.4.4</tspan><tspan dx="8" fill="#1f7a4d">train 1.25</tspan><tspan dx="6" fill="#7a4d9c">holdout 151.81</tspan><tspan dx="10" fill="#5a5a5a">JAKIM Isha +1min Path A (train 0.70 → 0.68)</tspan></text><rect x="714" y="86" width="216" height="40" rx="3" fill="#fafaf7" stroke="#dcdcd0" /><circle cx="728" cy="98" r="4" fill="#1f7a4d" /><text x="738" y="101" fill="#1a1a1a" font-size="10">Train WMAE (ratchet)</text><circle cx="728" cy="116" r="4" fill="#fafaf7" stroke="#7a4d9c" stroke-width="1.5" /><text x="738" y="119" fill="#1a1a1a" font-size="10">Holdout WMAE (diagnostic)</text></svg>