<svg xmlns="http://www.w3.org/2000/svg" viewBox="0 0 11440 380" width="11440" height="380" font-family="-apple-system, BlinkMacSystemFont, 'Segoe UI', system-ui, sans-serif" font-size="11"><rect width="11440" height="380" fill="#fafaf7" /><text x="5720" y="26" text-anchor="middle" fill="#1a1a1a" font-size="17" font-weight="600">WMAE per region — latest run</text><line x1="60" y1="250" x2="11300" y2="250" stroke="#dcdcd0" stroke-width="0.5" /><text x="54" y="253" text-anchor="end" fill="#1a1a1a">0.00</text><line x1="60" y1="210" x2="11300" y2="210" stroke="#dcdcd0" stroke-width="0.5" /><text x="54" y="213" text-anchor="end" fill="#1a1a1a">40.00</text><line x1="60" y1="170" x2="11300" y2="170" stroke="#dcdcd0" stroke-width="0.5" /><text x="54" y="173" text-anchor="end" fill="#1a1a1a">80.00</text><line x1="60" y1="130" x2="11300" y2="130" stroke="#dcdcd0" stroke-width="0.5" /><text x="54" y="133" text-anchor="end" fill="#1a1a1a">120.00</text><line x1="60" y1="90" x2="11300" y2="90" stroke="#dcdcd0" stroke-width="0.5" /><text x="54" y="93" text-anchor="end" fill="#1a1a1a">160.00</text><line x1="60" y1="50" x2="11300" y2="50" stroke="#dcdcd0" stroke-width="0.5" /><text x="54" y="53" text-anchor="end" fill="#1a1a1a">200.00</text><text x="22" y="150" transform="rotate(-90 22 150)" text-anchor="middle" fill="#1a1a1a">WMAE (min)</text><rect x="91.21505376344086" y="132.84693639455782" width="24.172043010752688" height="117.15306360544218" fill="#7a4d9c" /><text x="103.30107526881721" y="129.84693639455782" text-anchor="middle" fill="#1a1a1a" font-size="9">117.15</text><text x="90.21505376344086" y="262" transform="rotate(-35 90.21505376344086 262)" text-anchor="end" fill="#1a1a1a" font-size="10">Astana</text><rect x="151.64516129032256" y="187.14285952380953" width="24.172043010752688" height="62.857140476190466" fill="#7a4d9c" /><text x="163.7311827956989" y="184.14285952380953" text-anchor="middle" fill="#1a1a1a" font-size="9">62.86</text><text x="150.64516129032256" y="262" transform="rotate(-35 150.64516129032256 262)" text-anchor="end" fill="#1a1a1a" font-size="10">Vilnius</text><rect x="212.0752688172043" y="188.3265282312925" width="24.172043010752688" height="61.673471768707486" fill="#7a4d9c" /><text x="224.16129032258064" y="185.3265282312925" text-anchor="middle" fill="#1a1a1a" font-size="9">61.67</text><text x="211.0752688172043" y="262" transform="rotate(-35 211.0752688172043 262)" text-anchor="end" fill="#1a1a1a" font-size="10">Tehran</text><rect x="272.505376344086" y="189.07143095238095" width="24.172043010752688" height="60.92856904761905" fill="#7a4d9c" /><text x="284.59139784946234" y="186.07143095238095" text-anchor="middle" fill="#1a1a1a" font-size="9">60.93</text><text x="271.505376344086" y="262" transform="rotate(-35 271.505376344086 262)" text-anchor="end" fill="#1a1a1a" font-size="10">Asunción</text><rect x="332.93548387096774" y="189.31935833333333" width="24.172043010752688" height="60.68064166666667" fill="#7a4d9c" /><text x="345.02150537634407" y="186.31935833333333" text-anchor="middle" fill="#1a1a1a" font-size="9">60.68</text><text x="331.93548387096774" y="262" transform="rotate(-35 331.93548387096774 262)" text-anchor="end" fill="#1a1a1a" font-size="10">Moscow</text><rect x="393.36559139784947" y="190.00000238095237" width="24.172043010752688" height="59.99999761904763" fill="#7a4d9c" /><text x="405.4516129032258" y="187.00000238095237" text-anchor="middle" fill="#1a1a1a" font-size="9">60.00</text><text x="392.36559139784947" y="262" transform="rotate(-35 392.36559139784947 262)" text-anchor="end" fill="#1a1a1a" font-size="10">Windhoek</text><rect x="453.7956989247312" y="190.0510180272109" width="24.172043010752688" height="59.94898197278911" fill="#7a4d9c" /><text x="465.8817204301075" y="187.0510180272109" text-anchor="middle" fill="#1a1a1a" font-size="9">59.95</text><text x="452.7956989247312" y="262" transform="rotate(-35 452.7956989247312 262)" text-anchor="end" fill="#1a1a1a" font-size="10">Tbilisi</text><rect x="514.2258064516129" y="190.13265068027212" width="24.172043010752688" height="59.86734931972788" fill="#7a4d9c" /><text x="526.3118279569893" y="187.13265068027212" text-anchor="middle" fill="#1a1a1a" font-size="9">59.87</text><text x="513.2258064516129" y="262" transform="rotate(-35 513.2258064516129 262)" text-anchor="end" fill="#1a1a1a" font-size="10">Yerevan</text><rect x="574.6559139784946" y="190.29591598639456" width="24.172043010752688" height="59.70408401360544" fill="#7a4d9c" /><text x="586.741935483871" y="187.29591598639456" text-anchor="middle" fill="#1a1a1a" font-size="9">59.70</text><text x="573.6559139784946" y="262" transform="rotate(-35 573.6559139784946 262)" text-anchor="end" fill="#1a1a1a" font-size="10">Islamabad</text><rect x="635.0860215053764" y="190.34693639455782" width="24.172043010752688" height="59.653063605442185" fill="#7a4d9c" /><text x="647.1720430107528" y="187.34693639455782" text-anchor="middle" fill="#1a1a1a" font-size="9">59.65</text><text x="634.0860215053764" y="262" transform="rotate(-35 634.0860215053764 262)" text-anchor="end" fill="#1a1a1a" font-size="10">Baku</text><rect x="695.516129032258" y="190.94897721088435" width="24.172043010752688" height="59.05102278911565" fill="#7a4d9c" /><text x="707.6021505376344" y="187.94897721088435" text-anchor="middle" fill="#1a1a1a" font-size="9">59.05</text><text x="694.516129032258" y="262" transform="rotate(-35 694.516129032258 262)" text-anchor="end" fill="#1a1a1a" font-size="10">Baghdad</text><rect x="755.9462365591398" y="191.35714047619047" width="24.172043010752688" height="58.642859523809534" fill="#7a4d9c" /><text x="768.0322580645162" y="188.35714047619047" text-anchor="middle" fill="#1a1a1a" font-size="9">58.64</text><text x="754.9462365591398" y="262" transform="rotate(-35 754.9462365591398 262)" text-anchor="end" fill="#1a1a1a" font-size="10">Mexico City</text><rect x="816.3763440860215" y="191.86734455782315" width="24.172043010752688" height="58.132655442176855" fill="#7a4d9c" /><text x="828.4623655913979" y="188.86734455782315" text-anchor="middle" fill="#1a1a1a" font-size="9">58.13</text><text x="815.3763440860215" y="262" transform="rotate(-35 815.3763440860215 262)" text-anchor="end" fill="#1a1a1a" font-size="10">Juba</text><rect x="876.8064516129032" y="191.959181292517" width="24.172043010752688" height="58.040818707483" fill="#7a4d9c" /><text x="888.8924731182796" y="188.959181292517" text-anchor="middle" fill="#1a1a1a" font-size="9">58.04</text><text x="875.8064516129032" y="262" transform="rotate(-35 875.8064516129032 262)" text-anchor="end" fill="#1a1a1a" font-size="10">Khartoum</text><rect x="937.236559139785" y="192.36734455782312" width="24.172043010752688" height="57.63265544217688" fill="#7a4d9c" /><text x="949.3225806451613" y="189.36734455782312" text-anchor="middle" fill="#1a1a1a" font-size="9">57.63</text><text x="936.236559139785" y="262" transform="rotate(-35 936.236559139785 262)" text-anchor="end" fill="#1a1a1a" font-size="10">Ulaanbaatar</text><rect x="997.6666666666666" y="207.85242074829932" width="24.172043010752688" height="42.14757925170068" fill="#7a4d9c" /><text x="1009.752688172043" y="204.85242074829932" text-anchor="middle" fill="#1a1a1a" font-size="9">42.15</text><text x="996.6666666666666" y="262" transform="rotate(-35 996.6666666666666 262)" text-anchor="end" fill="#1a1a1a" font-size="10">Riga</text><rect x="1058.0967741935483" y="207.96912959183675" width="24.172043010752688" height="42.03087040816325" fill="#7a4d9c" /><text x="1070.1827956989246" y="204.96912959183675" text-anchor="middle" fill="#1a1a1a" font-size="9">42.03</text><text x="1057.0967741935483" y="262" transform="rotate(-35 1057.0967741935483 262)" text-anchor="end" fill="#1a1a1a" font-size="10">Stockholm</text><rect x="1118.52688172043" y="208.54853979591837" width="24.172043010752688" height="41.45146020408163" fill="#7a4d9c" /><text x="1130.6129032258063" y="205.54853979591837" text-anchor="middle" fill="#1a1a1a" font-size="9">41.45</text><text x="1117.52688172043" y="262" transform="rotate(-35 1117.52688172043 262)" text-anchor="end" fill="#1a1a1a" font-size="10">Oslo</text><rect x="1178.9569892473119" y="210.13441678571428" width="24.172043010752688" height="39.86558321428572" fill="#7a4d9c" /><text x="1191.0430107526881" y="207.13441678571428" text-anchor="middle" fill="#1a1a1a" font-size="9">39.87</text><text x="1177.9569892473119" y="262" transform="rotate(-35 1177.9569892473119 262)" text-anchor="end" fill="#1a1a1a" font-size="10">Longyearbyen</text><rect x="1239.3870967741937" y="213.75427585034015" width="24.172043010752688" height="36.24572414965985" fill="#7a4d9c" /><text x="1251.47311827957" y="210.75427585034015" text-anchor="middle" fill="#1a1a1a" font-size="9">36.25</text><text x="1238.3870967741937" y="262" transform="rotate(-35 1238.3870967741937 262)" text-anchor="end" fill="#1a1a1a" font-size="10">Reykjavík</text><rect x="1299.8172043010752" y="220.04081394557824" width="24.172043010752688" height="29.959186054421764" fill="#7a4d9c" /><text x="1311.9032258064515" y="217.04081394557824" text-anchor="middle" fill="#1a1a1a" font-size="9">29.96</text><text x="1298.8172043010752" y="262" transform="rotate(-35 1298.8172043010752 262)" text-anchor="end" fill="#1a1a1a" font-size="10">Colombo</text><rect x="1360.247311827957" y="225.41874183673468" width="24.172043010752688" height="24.581258163265318" fill="#7a4d9c" /><text x="1372.3333333333333" y="222.41874183673468" text-anchor="middle" fill="#1a1a1a" font-size="9">24.58</text><text x="1359.247311827957" y="262" transform="rotate(-35 1359.247311827957 262)" text-anchor="end" fill="#1a1a1a" font-size="10">Brussels</text><rect x="1420.6774193548388" y="228.1420486394558" width="24.172043010752688" height="21.857951360544206" fill="#7a4d9c" /><text x="1432.763440860215" y="225.1420486394558" text-anchor="middle" fill="#1a1a1a" font-size="9">21.86</text><text x="1419.6774193548388" y="262" transform="rotate(-35 1419.6774193548388 262)" text-anchor="end" fill="#1a1a1a" font-size="10">Dublin</text><rect x="1481.1075268817203" y="229.4127799319728" width="24.172043010752688" height="20.587220068027193" fill="#7a4d9c" /><text x="1493.1935483870966" y="226.4127799319728" text-anchor="middle" fill="#1a1a1a" font-size="9">20.59</text><text x="1480.1075268817203" y="262" transform="rotate(-35 1480.1075268817203 262)" text-anchor="end" fill="#1a1a1a" font-size="10">Bern</text><rect x="1541.5376344086021" y="237.46714523809524" width="24.172043010752688" height="12.532854761904758" fill="#7a4d9c" /><text x="1553.6236559139784" y="234.46714523809524" text-anchor="middle" fill="#1a1a1a" font-size="9">12.53</text><text x="1540.5376344086021" y="262" transform="rotate(-35 1540.5376344086021 262)" text-anchor="end" fill="#1a1a1a" font-size="10">Warsaw</text><rect x="1601.967741935484" y="237.78466020408163" width="24.172043010752688" height="12.215339795918368" fill="#7a4d9c" /><text x="1614.0537634408602" y="234.78466020408163" text-anchor="middle" fill="#1a1a1a" font-size="9">12.22</text><text x="1600.967741935484" y="262" transform="rotate(-35 1600.967741935484 262)" text-anchor="end" fill="#1a1a1a" font-size="10">Kyiv</text><rect x="1662.3978494623657" y="237.93404387755103" width="24.172043010752688" height="12.065956122448966" fill="#7a4d9c" /><text x="1674.483870967742" y="234.93404387755103" text-anchor="middle" fill="#1a1a1a" font-size="9">12.07</text><text x="1661.3978494623657" y="262" transform="rotate(-35 1661.3978494623657 262)" text-anchor="end" fill="#1a1a1a" font-size="10">Prague</text><rect x="1722.8279569892472" y="237.95832074829931" width="24.172043010752688" height="12.041679251700685" fill="#7a4d9c" /><text x="1734.9139784946235" y="234.95832074829931" text-anchor="middle" fill="#1a1a1a" font-size="9">12.04</text><text x="1721.8279569892472" y="262" transform="rotate(-35 1721.8279569892472 262)" text-anchor="end" fill="#1a1a1a" font-size="10">Amsterdam</text><rect x="1783.258064516129" y="238.03097176870747" width="24.172043010752688" height="11.969028231292526" fill="#7a4d9c" /><text x="1795.3440860215053" y="235.03097176870747" text-anchor="middle" fill="#1a1a1a" font-size="9">11.97</text><text x="1782.258064516129" y="262" transform="rotate(-35 1782.258064516129 262)" text-anchor="end" fill="#1a1a1a" font-size="10">Berlin</text><rect x="1843.6881720430108" y="239.02866224489796" width="24.172043010752688" height="10.971337755102041" fill="#7a4d9c" /><text x="1855.774193548387" y="236.02866224489796" text-anchor="middle" fill="#1a1a1a" font-size="9">10.97</text><text x="1842.6881720430108" y="262" transform="rotate(-35 1842.6881720430108 262)" text-anchor="end" fill="#1a1a1a" font-size="10">Tunis</text><rect x="1904.1182795698924" y="239.29575544217687" width="24.172043010752688" height="10.704244557823131" fill="#7a4d9c" /><text x="1916.2043010752686" y="236.29575544217687" text-anchor="middle" fill="#1a1a1a" font-size="9">10.70</text><text x="1903.1182795698924" y="262" transform="rotate(-35 1903.1182795698924 262)" text-anchor="end" fill="#1a1a1a" font-size="10">Vienna</text><rect x="1964.5483870967741" y="239.36102142857143" width="24.172043010752688" height="10.638978571428567" fill="#7a4d9c" /><text x="1976.6344086021504" y="236.36102142857143" text-anchor="middle" fill="#1a1a1a" font-size="9">10.64</text><text x="1963.5483870967741" y="262" transform="rotate(-35 1963.5483870967741 262)" text-anchor="end" fill="#1a1a1a" font-size="10">Bratislava</text><rect x="2024.978494623656" y="239.66634115646258" width="24.172043010752688" height="10.333658843537421" fill="#7a4d9c" /><text x="2037.0645161290322" y="236.66634115646258" text-anchor="middle" fill="#1a1a1a" font-size="9">10.33</text><text x="2023.978494623656" y="262" transform="rotate(-35 2023.978494623656 262)" text-anchor="end" fill="#1a1a1a" font-size="10">Sofia</text><rect x="2085.4086021505377" y="239.72216360544218" width="24.172043010752688" height="10.277836394557823" fill="#7a4d9c" /><text x="2097.494623655914" y="236.72216360544218" text-anchor="middle" fill="#1a1a1a" font-size="9">10.28</text><text x="2084.4086021505377" y="262" transform="rotate(-35 2084.4086021505377 262)" text-anchor="end" fill="#1a1a1a" font-size="10">Budapest</text><rect x="2145.8387096774195" y="240.16175476190477" width="24.172043010752688" height="9.838245238095226" fill="#7a4d9c" /><text x="2157.9247311827958" y="237.16175476190477" text-anchor="middle" fill="#1a1a1a" font-size="9">9.84</text><text x="2144.8387096774195" y="262" transform="rotate(-35 2144.8387096774195 262)" text-anchor="end" fill="#1a1a1a" font-size="10">Chișinău</text><rect x="2206.2688172043013" y="240.16579217687075" width="24.172043010752688" height="9.834207823129248" fill="#7a4d9c" /><text x="2218.3548387096776" y="237.16579217687075" text-anchor="middle" fill="#1a1a1a" font-size="9">9.83</text><text x="2205.2688172043013" y="262" transform="rotate(-35 2205.2688172043013 262)" text-anchor="end" fill="#1a1a1a" font-size="10">Ljubljana</text><rect x="2266.6989247311826" y="240.31884115646258" width="24.172043010752688" height="9.681158843537418" fill="#7a4d9c" /><text x="2278.784946236559" y="237.31884115646258" text-anchor="middle" fill="#1a1a1a" font-size="9">9.68</text><text x="2265.6989247311826" y="262" transform="rotate(-35 2265.6989247311826 262)" text-anchor="end" fill="#1a1a1a" font-size="10">Damascus</text><rect x="2327.1290322580644" y="240.38775272108845" width="24.172043010752688" height="9.612247278911553" fill="#7a4d9c" /><text x="2339.2150537634407" y="237.38775272108845" text-anchor="middle" fill="#1a1a1a" font-size="9">9.61</text><text x="2326.1290322580644" y="262" transform="rotate(-35 2326.1290322580644 262)" text-anchor="end" fill="#1a1a1a" font-size="10">Lisbon</text><rect x="2387.559139784946" y="240.49272823129252" width="24.172043010752688" height="9.507271768707483" fill="#7a4d9c" /><text x="2399.6451612903224" y="237.49272823129252" text-anchor="middle" fill="#1a1a1a" font-size="9">9.51</text><text x="2386.559139784946" y="262" transform="rotate(-35 2386.559139784946 262)" text-anchor="end" fill="#1a1a1a" font-size="10">Zagreb</text><rect x="2447.989247311828" y="240.7070486394558" width="24.172043010752688" height="9.292951360544208" fill="#7a4d9c" /><text x="2460.0752688172042" y="237.7070486394558" text-anchor="middle" fill="#1a1a1a" font-size="9">9.29</text><text x="2446.989247311828" y="262" transform="rotate(-35 2446.989247311828 262)" text-anchor="end" fill="#1a1a1a" font-size="10">Tirana</text><rect x="2508.4193548387098" y="240.72624591836734" width="24.172043010752688" height="9.27375408163266" fill="#7a4d9c" /><text x="2520.505376344086" y="237.72624591836734" text-anchor="middle" fill="#1a1a1a" font-size="9">9.27</text><text x="2507.4193548387098" y="262" transform="rotate(-35 2507.4193548387098 262)" text-anchor="end" fill="#1a1a1a" font-size="10">Sarajevo</text><rect x="2568.8494623655915" y="240.77647040816328" width="24.172043010752688" height="9.223529591836723" fill="#7a4d9c" /><text x="2580.935483870968" y="237.77647040816328" text-anchor="middle" fill="#1a1a1a" font-size="9">9.22</text><text x="2567.8494623655915" y="262" transform="rotate(-35 2567.8494623655915 262)" text-anchor="end" fill="#1a1a1a" font-size="10">Beirut</text><rect x="2629.2795698924733" y="240.8738887755102" width="24.172043010752688" height="9.12611122448979" fill="#7a4d9c" /><text x="2641.3655913978496" y="237.8738887755102" text-anchor="middle" fill="#1a1a1a" font-size="9">9.13</text><text x="2628.2795698924733" y="262" transform="rotate(-35 2628.2795698924733 262)" text-anchor="end" fill="#1a1a1a" font-size="10">Tripoli</text><rect x="2689.7096774193546" y="240.93989421768708" width="24.172043010752688" height="9.060105782312917" fill="#7a4d9c" /><text x="2701.795698924731" y="237.93989421768708" text-anchor="middle" fill="#1a1a1a" font-size="9">9.06</text><text x="2688.7096774193546" y="262" transform="rotate(-35 2688.7096774193546 262)" text-anchor="end" fill="#1a1a1a" font-size="10">Belgrade</text><rect x="2750.1397849462364" y="241.10405204081633" width="24.172043010752688" height="8.895947959183673" fill="#7a4d9c" /><text x="2762.2258064516127" y="238.10405204081633" text-anchor="middle" fill="#1a1a1a" font-size="9">8.90</text><text x="2749.1397849462364" y="262" transform="rotate(-35 2749.1397849462364 262)" text-anchor="end" fill="#1a1a1a" font-size="10">Pristina</text><rect x="2810.569892473118" y="241.109918707483" width="24.172043010752688" height="8.89008129251701" fill="#7a4d9c" /><text x="2822.6559139784945" y="238.109918707483" text-anchor="middle" fill="#1a1a1a" font-size="9">8.89</text><text x="2809.569892473118" y="262" transform="rotate(-35 2809.569892473118 262)" text-anchor="end" fill="#1a1a1a" font-size="10">Bucharest</text><rect x="2871" y="241.2414350340136" width="24.172043010752688" height="8.758564965986409" fill="#7a4d9c" /><text x="2883.0860215053763" y="238.2414350340136" text-anchor="middle" fill="#1a1a1a" font-size="9">8.76</text><text x="2870" y="262" transform="rotate(-35 2870 262)" text-anchor="end" fill="#1a1a1a" font-size="10">Asmara</text><rect x="2931.430107526882" y="241.33590238095238" width="24.172043010752688" height="8.664097619047624" fill="#7a4d9c" /><text x="2943.516129032258" y="238.33590238095238" text-anchor="middle" fill="#1a1a1a" font-size="9">8.66</text><text x="2930.430107526882" y="262" transform="rotate(-35 2930.430107526882 262)" text-anchor="end" fill="#1a1a1a" font-size="10">Athens</text><rect x="2991.8602150537636" y="241.48291394557822" width="24.172043010752688" height="8.517086054421782" fill="#7a4d9c" /><text x="3003.94623655914" y="238.48291394557822" text-anchor="middle" fill="#1a1a1a" font-size="9">8.52</text><text x="2990.8602150537636" y="262" transform="rotate(-35 2990.8602150537636 262)" text-anchor="end" fill="#1a1a1a" font-size="10">Thimphu</text><rect x="3052.2903225806454" y="241.49536972789116" width="24.172043010752688" height="8.504630272108841" fill="#7a4d9c" /><text x="3064.3763440860216" y="238.49536972789116" text-anchor="middle" fill="#1a1a1a" font-size="9">8.50</text><text x="3051.2903225806454" y="262" transform="rotate(-35 3051.2903225806454 262)" text-anchor="end" fill="#1a1a1a" font-size="10">Addis Ababa</text><rect x="3112.7204301075267" y="241.59490578231294" width="24.172043010752688" height="8.405094217687065" fill="#7a4d9c" /><text x="3124.806451612903" y="238.59490578231294" text-anchor="middle" fill="#1a1a1a" font-size="9">8.41</text><text x="3111.7204301075267" y="262" transform="rotate(-35 3111.7204301075267 262)" text-anchor="end" fill="#1a1a1a" font-size="10">Skopje</text><rect x="3173.1505376344085" y="241.60697040816328" width="24.172043010752688" height="8.393029591836722" fill="#7a4d9c" /><text x="3185.2365591397847" y="238.60697040816328" text-anchor="middle" fill="#1a1a1a" font-size="9">8.39</text><text x="3172.1505376344085" y="262" transform="rotate(-35 3172.1505376344085 262)" text-anchor="end" fill="#1a1a1a" font-size="10">Kathmandu</text><rect x="3233.5806451612902" y="241.62395" width="24.172043010752688" height="8.376049999999992" fill="#7a4d9c" /><text x="3245.6666666666665" y="238.62395" text-anchor="middle" fill="#1a1a1a" font-size="9">8.38</text><text x="3232.5806451612902" y="262" transform="rotate(-35 3232.5806451612902 262)" text-anchor="end" fill="#1a1a1a" font-size="10">Madrid</text><rect x="3294.010752688172" y="241.70431462585034" width="24.172043010752688" height="8.295685374149656" fill="#7a4d9c" /><text x="3306.0967741935483" y="238.70431462585034" text-anchor="middle" fill="#1a1a1a" font-size="9">8.30</text><text x="3293.010752688172" y="262" transform="rotate(-35 3293.010752688172 262)" text-anchor="end" fill="#1a1a1a" font-size="10">Algiers</text><rect x="3354.440860215054" y="241.8043357142857" width="24.172043010752688" height="8.195664285714287" fill="#7a4d9c" /><text x="3366.52688172043" y="238.8043357142857" text-anchor="middle" fill="#1a1a1a" font-size="9">8.20</text><text x="3353.440860215054" y="262" transform="rotate(-35 3353.440860215054 262)" text-anchor="end" fill="#1a1a1a" font-size="10">Podgorica</text><rect x="3414.8709677419356" y="241.81314455782314" width="24.172043010752688" height="8.186855442176864" fill="#7a4d9c" /><text x="3426.956989247312" y="238.81314455782314" text-anchor="middle" fill="#1a1a1a" font-size="9">8.19</text><text x="3413.8709677419356" y="262" transform="rotate(-35 3413.8709677419356 262)" text-anchor="end" fill="#1a1a1a" font-size="10">Nairobi</text><rect x="3475.3010752688174" y="241.944118707483" width="24.172043010752688" height="8.055881292517" fill="#7a4d9c" /><text x="3487.3870967741937" y="238.944118707483" text-anchor="middle" fill="#1a1a1a" font-size="9">8.06</text><text x="3474.3010752688174" y="262" transform="rotate(-35 3474.3010752688174 262)" text-anchor="end" fill="#1a1a1a" font-size="10">Rome</text><rect x="3535.7311827956987" y="241.98548741496597" width="24.172043010752688" height="8.014512585034026" fill="#7a4d9c" /><text x="3547.817204301075" y="238.98548741496597" text-anchor="middle" fill="#1a1a1a" font-size="9">8.01</text><text x="3534.7311827956987" y="262" transform="rotate(-35 3534.7311827956987 262)" text-anchor="end" fill="#1a1a1a" font-size="10">Antananarivo</text><rect x="3596.1612903225805" y="242.01861326530613" width="24.172043010752688" height="7.981386734693871" fill="#7a4d9c" /><text x="3608.2473118279568" y="239.01861326530613" text-anchor="middle" fill="#1a1a1a" font-size="9">7.98</text><text x="3595.1612903225805" y="262" transform="rotate(-35 3595.1612903225805 262)" text-anchor="end" fill="#1a1a1a" font-size="10">Gitega</text><rect x="3656.5913978494623" y="242.0274275510204" width="24.172043010752688" height="7.972572448979605" fill="#7a4d9c" /><text x="3668.6774193548385" y="239.0274275510204" text-anchor="middle" fill="#1a1a1a" font-size="9">7.97</text><text x="3655.5913978494623" y="262" transform="rotate(-35 3655.5913978494623 262)" text-anchor="end" fill="#1a1a1a" font-size="10">Kigali</text><rect x="3717.021505376344" y="242.10183503401362" width="24.172043010752688" height="7.898164965986382" fill="#7a4d9c" /><text x="3729.1075268817203" y="239.10183503401362" text-anchor="middle" fill="#1a1a1a" font-size="9">7.90</text><text x="3716.021505376344" y="262" transform="rotate(-35 3716.021505376344 262)" text-anchor="end" fill="#1a1a1a" font-size="10">Kampala</text><rect x="3777.451612903226" y="242.12757653061226" width="24.172043010752688" height="7.872423469387741" fill="#7a4d9c" /><text x="3789.537634408602" y="239.12757653061226" text-anchor="middle" fill="#1a1a1a" font-size="9">7.87</text><text x="3776.451612903226" y="262" transform="rotate(-35 3776.451612903226 262)" text-anchor="end" fill="#1a1a1a" font-size="10">Lilongwe</text><rect x="3837.8817204301076" y="242.31509897959182" width="24.172043010752688" height="7.6849010204081765" fill="#7a4d9c" /><text x="3849.967741935484" y="239.31509897959182" text-anchor="middle" fill="#1a1a1a" font-size="9">7.68</text><text x="3836.8817204301076" y="262" transform="rotate(-35 3836.8817204301076 262)" text-anchor="end" fill="#1a1a1a" font-size="10">Dodoma</text><rect x="3898.3118279569894" y="242.44039421768707" width="24.172043010752688" height="7.559605782312929" fill="#7a4d9c" /><text x="3910.3978494623657" y="239.44039421768707" text-anchor="middle" fill="#1a1a1a" font-size="9">7.56</text><text x="3897.3118279569894" y="262" transform="rotate(-35 3897.3118279569894 262)" text-anchor="end" fill="#1a1a1a" font-size="10">New Delhi</text><rect x="3958.7419354838707" y="242.54334319727892" width="24.172043010752688" height="7.456656802721085" fill="#7a4d9c" /><text x="3970.827956989247" y="239.54334319727892" text-anchor="middle" fill="#1a1a1a" font-size="9">7.46</text><text x="3957.7419354838707" y="262" transform="rotate(-35 3957.7419354838707 262)" text-anchor="end" fill="#1a1a1a" font-size="10">N&apos;Djamena</text><rect x="4019.1720430107525" y="242.5680806122449" width="24.172043010752688" height="7.4319193877551015" fill="#7a4d9c" /><text x="4031.258064516129" y="239.5680806122449" text-anchor="middle" fill="#1a1a1a" font-size="9">7.43</text><text x="4018.1720430107525" y="262" transform="rotate(-35 4018.1720430107525 262)" text-anchor="end" fill="#1a1a1a" font-size="10">Minsk</text><rect x="4079.6021505376343" y="242.59016700680272" width="24.172043010752688" height="7.409832993197284" fill="#7a4d9c" /><text x="4091.6881720430106" y="239.59016700680272" text-anchor="middle" fill="#1a1a1a" font-size="9">7.41</text><text x="4078.6021505376343" y="262" transform="rotate(-35 4078.6021505376343 262)" text-anchor="end" fill="#1a1a1a" font-size="10">Pyongyang</text><rect x="4140.032258064516" y="242.71217585034015" width="24.172043010752688" height="7.287824149659855" fill="#7a4d9c" /><text x="4152.118279569892" y="239.71217585034015" text-anchor="middle" fill="#1a1a1a" font-size="9">7.29</text><text x="4139.032258064516" y="262" transform="rotate(-35 4139.032258064516 262)" text-anchor="end" fill="#1a1a1a" font-size="10">Ashgabat</text><rect x="4200.462365591397" y="242.8350649659864" width="24.172043010752688" height="7.1649350340136095" fill="#7a4d9c" /><text x="4212.548387096774" y="239.8350649659864" text-anchor="middle" fill="#1a1a1a" font-size="9">7.16</text><text x="4199.462365591397" y="262" transform="rotate(-35 4199.462365591397 262)" text-anchor="end" fill="#1a1a1a" font-size="10">Seoul</text><rect x="4260.89247311828" y="243.04541870748298" width="24.172043010752688" height="6.95458129251702" fill="#7a4d9c" /><text x="4272.978494623656" y="240.04541870748298" text-anchor="middle" fill="#1a1a1a" font-size="9">6.95</text><text x="4259.89247311828" y="262" transform="rotate(-35 4259.89247311828 262)" text-anchor="end" fill="#1a1a1a" font-size="10">Port Louis</text><rect x="4321.322580645161" y="243.10469897959183" width="24.172043010752688" height="6.895301020408169" fill="#7a4d9c" /><text x="4333.408602150537" y="240.10469897959183" text-anchor="middle" fill="#1a1a1a" font-size="9">6.90</text><text x="4320.322580645161" y="262" transform="rotate(-35 4320.322580645161 262)" text-anchor="end" fill="#1a1a1a" font-size="10">Tokyo</text><rect x="4381.752688172043" y="243.11558877551022" width="24.172043010752688" height="6.8844112244897815" fill="#7a4d9c" /><text x="4393.8387096774195" y="240.11558877551022" text-anchor="middle" fill="#1a1a1a" font-size="9">6.88</text><text x="4380.752688172043" y="262" transform="rotate(-35 4380.752688172043 262)" text-anchor="end" fill="#1a1a1a" font-size="10">Djibouti</text><rect x="4442.182795698925" y="243.21800986394558" width="24.172043010752688" height="6.781990136054418" fill="#7a4d9c" /><text x="4454.268817204301" y="240.21800986394558" text-anchor="middle" fill="#1a1a1a" font-size="9">6.78</text><text x="4441.182795698925" y="262" transform="rotate(-35 4441.182795698925 262)" text-anchor="end" fill="#1a1a1a" font-size="10">Sanaa</text><rect x="4502.612903225807" y="243.2310023809524" width="24.172043010752688" height="6.76899761904761" fill="#7a4d9c" /><text x="4514.698924731183" y="240.2310023809524" text-anchor="middle" fill="#1a1a1a" font-size="9">6.77</text><text x="4501.612903225807" y="262" transform="rotate(-35 4501.612903225807 262)" text-anchor="end" fill="#1a1a1a" font-size="10">Moroni</text><rect x="4563.043010752688" y="243.35519285714287" width="24.172043010752688" height="6.6448071428571325" fill="#7a4d9c" /><text x="4575.129032258064" y="240.35519285714287" text-anchor="middle" fill="#1a1a1a" font-size="9">6.64</text><text x="4562.043010752688" y="262" transform="rotate(-35 4562.043010752688 262)" text-anchor="end" fill="#1a1a1a" font-size="10">Dhaka</text><rect x="4623.4731182795695" y="243.40370238095238" width="24.172043010752688" height="6.596297619047618" fill="#7a4d9c" /><text x="4635.559139784946" y="240.40370238095238" text-anchor="middle" fill="#1a1a1a" font-size="9">6.60</text><text x="4622.4731182795695" y="262" transform="rotate(-35 4622.4731182795695 262)" text-anchor="end" fill="#1a1a1a" font-size="10">Canberra</text><rect x="4683.903225806452" y="243.42054795918366" width="24.172043010752688" height="6.579452040816335" fill="#7a4d9c" /><text x="4695.989247311828" y="240.42054795918366" text-anchor="middle" fill="#1a1a1a" font-size="9">6.58</text><text x="4682.903225806452" y="262" transform="rotate(-35 4682.903225806452 262)" text-anchor="end" fill="#1a1a1a" font-size="10">Mogadishu</text><rect x="4744.333333333333" y="243.46898469387756" width="24.172043010752688" height="6.531015306122441" fill="#7a4d9c" /><text x="4756.419354838709" y="240.46898469387756" text-anchor="middle" fill="#1a1a1a" font-size="9">6.53</text><text x="4743.333333333333" y="262" transform="rotate(-35 4743.333333333333 262)" text-anchor="end" fill="#1a1a1a" font-size="10">Victoria</text><rect x="4804.763440860215" y="243.54859965986395" width="24.172043010752688" height="6.451400340136047" fill="#7a4d9c" /><text x="4816.8494623655915" y="240.54859965986395" text-anchor="middle" fill="#1a1a1a" font-size="9">6.45</text><text x="4803.763440860215" y="262" transform="rotate(-35 4803.763440860215 262)" text-anchor="end" fill="#1a1a1a" font-size="10">Guatemala City</text><rect x="4865.193548387097" y="243.55555476190477" width="24.172043010752688" height="6.444445238095227" fill="#7a4d9c" /><text x="4877.279569892473" y="240.55555476190477" text-anchor="middle" fill="#1a1a1a" font-size="9">6.44</text><text x="4864.193548387097" y="262" transform="rotate(-35 4864.193548387097 262)" text-anchor="end" fill="#1a1a1a" font-size="10">Wellington</text><rect x="4925.623655913979" y="243.66341190476192" width="24.172043010752688" height="6.336588095238085" fill="#7a4d9c" /><text x="4937.709677419355" y="240.66341190476192" text-anchor="middle" fill="#1a1a1a" font-size="9">6.34</text><text x="4924.623655913979" y="262" transform="rotate(-35 4924.623655913979 262)" text-anchor="end" fill="#1a1a1a" font-size="10">Santiago</text><rect x="4986.05376344086" y="243.6689207482993" width="24.172043010752688" height="6.331079251700686" fill="#7a4d9c" /><text x="4998.139784946236" y="240.6689207482993" text-anchor="middle" fill="#1a1a1a" font-size="9">6.33</text><text x="4985.05376344086" y="262" transform="rotate(-35 4985.05376344086 262)" text-anchor="end" fill="#1a1a1a" font-size="10">Harare</text><rect x="5046.4838709677415" y="243.80027108843538" width="24.172043010752688" height="6.19972891156462" fill="#7a4d9c" /><text x="5058.569892473118" y="240.80027108843538" text-anchor="middle" fill="#1a1a1a" font-size="9">6.20</text><text x="5045.4838709677415" y="262" transform="rotate(-35 5045.4838709677415 262)" text-anchor="end" fill="#1a1a1a" font-size="10">Lusaka</text><rect x="5106.913978494624" y="243.91756700680273" width="24.172043010752688" height="6.082432993197273" fill="#7a4d9c" /><text x="5119" y="240.91756700680273" text-anchor="middle" fill="#1a1a1a" font-size="9">6.08</text><text x="5105.913978494624" y="262" transform="rotate(-35 5105.913978494624 262)" text-anchor="end" fill="#1a1a1a" font-size="10">Brasília</text><rect x="5167.344086021505" y="244.04244455782313" width="24.172043010752688" height="5.957555442176869" fill="#7a4d9c" /><text x="5179.430107526881" y="241.04244455782313" text-anchor="middle" fill="#1a1a1a" font-size="9">5.96</text><text x="5166.344086021505" y="262" transform="rotate(-35 5166.344086021505 262)" text-anchor="end" fill="#1a1a1a" font-size="10">Montevideo</text><rect x="5227.774193548387" y="244.0717574829932" width="24.172043010752688" height="5.928242517006794" fill="#7a4d9c" /><text x="5239.860215053764" y="241.0717574829932" text-anchor="middle" fill="#1a1a1a" font-size="9">5.93</text><text x="5226.774193548387" y="262" transform="rotate(-35 5226.774193548387 262)" text-anchor="end" fill="#1a1a1a" font-size="10">Singapore</text><rect x="5288.204301075269" y="244.09044455782313" width="24.172043010752688" height="5.909555442176867" fill="#7a4d9c" /><text x="5300.290322580645" y="241.09044455782313" text-anchor="middle" fill="#1a1a1a" font-size="9">5.91</text><text x="5287.204301075269" y="262" transform="rotate(-35 5287.204301075269 262)" text-anchor="end" fill="#1a1a1a" font-size="10">Buenos Aires</text><rect x="5348.634408602151" y="244.19778469387757" width="24.172043010752688" height="5.802215306122434" fill="#7a4d9c" /><text x="5360.720430107527" y="241.19778469387757" text-anchor="middle" fill="#1a1a1a" font-size="9">5.80</text><text x="5347.634408602151" y="262" transform="rotate(-35 5347.634408602151 262)" text-anchor="end" fill="#1a1a1a" font-size="10">Havana</text><rect x="5409.064516129032" y="244.2155887755102" width="24.172043010752688" height="5.784411224489787" fill="#7a4d9c" /><text x="5421.1505376344085" y="241.2155887755102" text-anchor="middle" fill="#1a1a1a" font-size="9">5.78</text><text x="5408.064516129032" y="262" transform="rotate(-35 5408.064516129032 262)" text-anchor="end" fill="#1a1a1a" font-size="10">Yaoundé</text><rect x="5469.4946236559135" y="244.26444319727892" width="24.172043010752688" height="5.735556802721078" fill="#7a4d9c" /><text x="5481.58064516129" y="241.26444319727892" text-anchor="middle" fill="#1a1a1a" font-size="9">5.74</text><text x="5468.4946236559135" y="262" transform="rotate(-35 5468.4946236559135 262)" text-anchor="end" fill="#1a1a1a" font-size="10">Malé</text><rect x="5529.924731182796" y="244.27769081632653" width="24.172043010752688" height="5.722309183673474" fill="#7a4d9c" /><text x="5542.010752688172" y="241.27769081632653" text-anchor="middle" fill="#1a1a1a" font-size="9">5.72</text><text x="5528.924731182796" y="262" transform="rotate(-35 5528.924731182796 262)" text-anchor="end" fill="#1a1a1a" font-size="10">Taipei</text><rect x="5590.354838709677" y="244.33105408163266" width="24.172043010752688" height="5.668945918367342" fill="#7a4d9c" /><text x="5602.440860215053" y="241.33105408163266" text-anchor="middle" fill="#1a1a1a" font-size="9">5.67</text><text x="5589.354838709677" y="262" transform="rotate(-35 5589.354838709677 262)" text-anchor="end" fill="#1a1a1a" font-size="10">Naypyidaw</text><rect x="5650.784946236559" y="244.332381292517" width="24.172043010752688" height="5.667618707483001" fill="#7a4d9c" /><text x="5662.870967741936" y="241.332381292517" text-anchor="middle" fill="#1a1a1a" font-size="9">5.67</text><text x="5649.784946236559" y="262" transform="rotate(-35 5649.784946236559 262)" text-anchor="end" fill="#1a1a1a" font-size="10">Vientiane</text><rect x="5711.215053763441" y="244.36466564625852" width="24.172043010752688" height="5.635334353741484" fill="#7a4d9c" /><text x="5723.301075268817" y="241.36466564625852" text-anchor="middle" fill="#1a1a1a" font-size="9">5.64</text><text x="5710.215053763441" y="262" transform="rotate(-35 5710.215053763441 262)" text-anchor="end" fill="#1a1a1a" font-size="10">Bamako</text><rect x="5771.645161290323" y="244.369487414966" width="24.172043010752688" height="5.630512585034012" fill="#7a4d9c" /><text x="5783.731182795699" y="241.369487414966" text-anchor="middle" fill="#1a1a1a" font-size="9">5.63</text><text x="5770.645161290323" y="262" transform="rotate(-35 5770.645161290323 262)" text-anchor="end" fill="#1a1a1a" font-size="10">Ouagadougou</text><rect x="5832.075268817204" y="244.45696836734695" width="24.172043010752688" height="5.543031632653054" fill="#7a4d9c" /><text x="5844.1612903225805" y="241.45696836734695" text-anchor="middle" fill="#1a1a1a" font-size="9">5.54</text><text x="5831.075268817204" y="262" transform="rotate(-35 5831.075268817204 262)" text-anchor="end" fill="#1a1a1a" font-size="10">Abuja</text><rect x="5892.505376344086" y="244.50630646258503" width="24.172043010752688" height="5.49369353741497" fill="#7a4d9c" /><text x="5904.591397849462" y="241.50630646258503" text-anchor="middle" fill="#1a1a1a" font-size="9">5.49</text><text x="5891.505376344086" y="262" transform="rotate(-35 5891.505376344086 262)" text-anchor="end" fill="#1a1a1a" font-size="10">Hanoi</text><rect x="5952.935483870968" y="244.52365" width="24.172043010752688" height="5.4763499999999965" fill="#7a4d9c" /><text x="5965.021505376344" y="241.52365" text-anchor="middle" fill="#1a1a1a" font-size="9">5.48</text><text x="5951.935483870968" y="262" transform="rotate(-35 5951.935483870968 262)" text-anchor="end" fill="#1a1a1a" font-size="10">Abu Dhabi</text><rect x="6013.365591397849" y="244.55036156462586" width="24.172043010752688" height="5.4496384353741405" fill="#7a4d9c" /><text x="6025.451612903225" y="241.55036156462586" text-anchor="middle" fill="#1a1a1a" font-size="9">5.45</text><text x="6012.365591397849" y="262" transform="rotate(-35 6012.365591397849 262)" text-anchor="end" fill="#1a1a1a" font-size="10">Bangui</text><rect x="6073.795698924731" y="244.553787414966" width="24.172043010752688" height="5.446212585034004" fill="#7a4d9c" /><text x="6085.881720430108" y="241.553787414966" text-anchor="middle" fill="#1a1a1a" font-size="9">5.45</text><text x="6072.795698924731" y="262" transform="rotate(-35 6072.795698924731 262)" text-anchor="end" fill="#1a1a1a" font-size="10">Niamey</text><rect x="6134.225806451613" y="244.56522142857142" width="24.172043010752688" height="5.434778571428581" fill="#7a4d9c" /><text x="6146.311827956989" y="241.56522142857142" text-anchor="middle" fill="#1a1a1a" font-size="9">5.43</text><text x="6133.225806451613" y="262" transform="rotate(-35 6133.225806451613 262)" text-anchor="end" fill="#1a1a1a" font-size="10">Brazzaville</text><rect x="6194.655913978495" y="244.61262074829932" width="24.172043010752688" height="5.387379251700679" fill="#7a4d9c" /><text x="6206.741935483871" y="241.61262074829932" text-anchor="middle" fill="#1a1a1a" font-size="9">5.39</text><text x="6193.655913978495" y="262" transform="rotate(-35 6193.655913978495 262)" text-anchor="end" fill="#1a1a1a" font-size="10">Yamoussoukro</text><rect x="6255.086021505376" y="244.64844047619047" width="24.172043010752688" height="5.351559523809527" fill="#7a4d9c" /><text x="6267.1720430107525" y="241.64844047619047" text-anchor="middle" fill="#1a1a1a" font-size="9">5.35</text><text x="6254.086021505376" y="262" transform="rotate(-35 6254.086021505376 262)" text-anchor="end" fill="#1a1a1a" font-size="10">Santo Domingo</text><rect x="6315.516129032258" y="244.69605816326532" width="24.172043010752688" height="5.30394183673468" fill="#7a4d9c" /><text x="6327.602150537634" y="241.69605816326532" text-anchor="middle" fill="#1a1a1a" font-size="9">5.30</text><text x="6314.516129032258" y="262" transform="rotate(-35 6314.516129032258 262)" text-anchor="end" fill="#1a1a1a" font-size="10">Kingston</text><rect x="6375.94623655914" y="244.72283707482993" width="24.172043010752688" height="5.2771629251700745" fill="#7a4d9c" /><text x="6388.032258064516" y="241.72283707482993" text-anchor="middle" fill="#1a1a1a" font-size="9">5.28</text><text x="6374.94623655914" y="262" transform="rotate(-35 6374.94623655914 262)" text-anchor="end" fill="#1a1a1a" font-size="10">Kinshasa</text><rect x="6436.376344086021" y="244.75233775510205" width="24.172043010752688" height="5.247662244897953" fill="#7a4d9c" /><text x="6448.462365591397" y="241.75233775510205" text-anchor="middle" fill="#1a1a1a" font-size="9">5.25</text><text x="6435.376344086021" y="262" transform="rotate(-35 6435.376344086021 262)" text-anchor="end" fill="#1a1a1a" font-size="10">Praia</text><rect x="6496.806451612903" y="244.76196904761906" width="24.172043010752688" height="5.238030952380939" fill="#7a4d9c" /><text x="6508.89247311828" y="241.76196904761906" text-anchor="middle" fill="#1a1a1a" font-size="9">5.24</text><text x="6495.806451612903" y="262" transform="rotate(-35 6495.806451612903 262)" text-anchor="end" fill="#1a1a1a" font-size="10">Lima</text><rect x="6557.236559139785" y="244.76357789115647" width="24.172043010752688" height="5.236422108843527" fill="#7a4d9c" /><text x="6569.322580645161" y="241.76357789115647" text-anchor="middle" fill="#1a1a1a" font-size="9">5.24</text><text x="6556.236559139785" y="262" transform="rotate(-35 6556.236559139785 262)" text-anchor="end" fill="#1a1a1a" font-size="10">Nouakchott</text><rect x="6617.666666666667" y="244.8226329931973" width="24.172043010752688" height="5.177367006802712" fill="#7a4d9c" /><text x="6629.752688172043" y="241.8226329931973" text-anchor="middle" fill="#1a1a1a" font-size="9">5.18</text><text x="6616.666666666667" y="262" transform="rotate(-35 6616.666666666667 262)" text-anchor="end" fill="#1a1a1a" font-size="10">Manila</text><rect x="6678.096774193548" y="244.82791666666668" width="24.172043010752688" height="5.172083333333319" fill="#7a4d9c" /><text x="6690.182795698925" y="241.82791666666668" text-anchor="middle" fill="#1a1a1a" font-size="9">5.17</text><text x="6677.096774193548" y="262" transform="rotate(-35 6677.096774193548 262)" text-anchor="end" fill="#1a1a1a" font-size="10">Dakar</text><rect x="6738.52688172043" y="244.8831112244898" width="24.172043010752688" height="5.116888775510205" fill="#7a4d9c" /><text x="6750.612903225806" y="241.8831112244898" text-anchor="middle" fill="#1a1a1a" font-size="9">5.12</text><text x="6737.52688172043" y="262" transform="rotate(-35 6737.52688172043 262)" text-anchor="end" fill="#1a1a1a" font-size="10">Bissau</text><rect x="6798.956989247312" y="244.8971329931973" width="24.172043010752688" height="5.102867006802711" fill="#7a4d9c" /><text x="6811.043010752688" y="241.8971329931973" text-anchor="middle" fill="#1a1a1a" font-size="9">5.10</text><text x="6797.956989247312" y="262" transform="rotate(-35 6797.956989247312 262)" text-anchor="end" fill="#1a1a1a" font-size="10">Accra</text><rect x="6859.387096774193" y="244.91665272108844" width="24.172043010752688" height="5.08334727891156" fill="#7a4d9c" /><text x="6871.4731182795695" y="241.91665272108844" text-anchor="middle" fill="#1a1a1a" font-size="9">5.08</text><text x="6858.387096774193" y="262" transform="rotate(-35 6858.387096774193 262)" text-anchor="end" fill="#1a1a1a" font-size="10">Port Moresby</text><rect x="6919.817204301075" y="244.9429037414966" width="24.172043010752688" height="5.057096258503407" fill="#7a4d9c" /><text x="6931.903225806452" y="241.9429037414966" text-anchor="middle" fill="#1a1a1a" font-size="9">5.06</text><text x="6918.817204301075" y="262" transform="rotate(-35 6918.817204301075 262)" text-anchor="end" fill="#1a1a1a" font-size="10">Bangkok</text><rect x="6980.247311827957" y="244.94552074829932" width="24.172043010752688" height="5.054479251700684" fill="#7a4d9c" /><text x="6992.333333333333" y="241.94552074829932" text-anchor="middle" fill="#1a1a1a" font-size="9">5.05</text><text x="6979.247311827957" y="262" transform="rotate(-35 6979.247311827957 262)" text-anchor="end" fill="#1a1a1a" font-size="10">Malabo</text><rect x="7040.677419354839" y="244.95578333333333" width="24.172043010752688" height="5.044216666666671" fill="#7a4d9c" /><text x="7052.763440860215" y="241.95578333333333" text-anchor="middle" fill="#1a1a1a" font-size="9">5.04</text><text x="7039.677419354839" y="262" transform="rotate(-35 7039.677419354839 262)" text-anchor="end" fill="#1a1a1a" font-size="10">Freetown</text><rect x="7101.10752688172" y="244.97497108843538" width="24.172043010752688" height="5.025028911564618" fill="#7a4d9c" /><text x="7113.193548387097" y="241.97497108843538" text-anchor="middle" fill="#1a1a1a" font-size="9">5.03</text><text x="7100.10752688172" y="262" transform="rotate(-35 7100.10752688172 262)" text-anchor="end" fill="#1a1a1a" font-size="10">Conakry</text><rect x="7161.537634408602" y="244.9791887755102" width="24.172043010752688" height="5.0208112244897904" fill="#7a4d9c" /><text x="7173.623655913978" y="241.9791887755102" text-anchor="middle" fill="#1a1a1a" font-size="9">5.02</text><text x="7160.537634408602" y="262" transform="rotate(-35 7160.537634408602 262)" text-anchor="end" fill="#1a1a1a" font-size="10">Banjul</text><rect x="7221.967741935484" y="244.98784591836736" width="24.172043010752688" height="5.012154081632644" fill="#7a4d9c" /><text x="7234.05376344086" y="241.98784591836736" text-anchor="middle" fill="#1a1a1a" font-size="9">5.01</text><text x="7220.967741935484" y="262" transform="rotate(-35 7220.967741935484 262)" text-anchor="end" fill="#1a1a1a" font-size="10">Port of Spain</text><rect x="7282.397849462365" y="245.01043707482992" width="24.172043010752688" height="4.989562925170077" fill="#7a4d9c" /><text x="7294.4838709677415" y="242.01043707482992" text-anchor="middle" fill="#1a1a1a" font-size="9">4.99</text><text x="7281.397849462365" y="262" transform="rotate(-35 7281.397849462365 262)" text-anchor="end" fill="#1a1a1a" font-size="10">Lomé</text><rect x="7342.8279569892475" y="245.01576428571428" width="24.172043010752688" height="4.984235714285717" fill="#7a4d9c" /><text x="7354.913978494624" y="242.01576428571428" text-anchor="middle" fill="#1a1a1a" font-size="9">4.98</text><text x="7341.8279569892475" y="262" transform="rotate(-35 7341.8279569892475 262)" text-anchor="end" fill="#1a1a1a" font-size="10">Phnom Penh</text><rect x="7403.258064516129" y="245.02237585034013" width="24.172043010752688" height="4.977624149659874" fill="#7a4d9c" /><text x="7415.344086021505" y="242.02237585034013" text-anchor="middle" fill="#1a1a1a" font-size="9">4.98</text><text x="7402.258064516129" y="262" transform="rotate(-35 7402.258064516129 262)" text-anchor="end" fill="#1a1a1a" font-size="10">Suva</text><rect x="7463.688172043011" y="245.06753095238096" width="24.172043010752688" height="4.932469047619037" fill="#7a4d9c" /><text x="7475.774193548387" y="242.06753095238096" text-anchor="middle" fill="#1a1a1a" font-size="9">4.93</text><text x="7462.688172043011" y="262" transform="rotate(-35 7462.688172043011 262)" text-anchor="end" fill="#1a1a1a" font-size="10">Monrovia</text><rect x="7524.118279569892" y="245.07360918367345" width="24.172043010752688" height="4.9263908163265455" fill="#7a4d9c" /><text x="7536.204301075269" y="242.07360918367345" text-anchor="middle" fill="#1a1a1a" font-size="9">4.93</text><text x="7523.118279569892" y="262" transform="rotate(-35 7523.118279569892 262)" text-anchor="end" fill="#1a1a1a" font-size="10">Georgetown</text><rect x="7584.548387096774" y="245.08360034013606" width="24.172043010752688" height="4.9163996598639415" fill="#7a4d9c" /><text x="7596.63440860215" y="242.08360034013606" text-anchor="middle" fill="#1a1a1a" font-size="9">4.92</text><text x="7583.548387096774" y="262" transform="rotate(-35 7583.548387096774 262)" text-anchor="end" fill="#1a1a1a" font-size="10">Luanda</text><rect x="7644.978494623656" y="245.10163775510205" width="24.172043010752688" height="4.898362244897953" fill="#7a4d9c" /><text x="7657.064516129032" y="242.10163775510205" text-anchor="middle" fill="#1a1a1a" font-size="9">4.90</text><text x="7643.978494623656" y="262" transform="rotate(-35 7643.978494623656 262)" text-anchor="end" fill="#1a1a1a" font-size="10">Paramaribo</text><rect x="7705.408602150537" y="245.12800918367347" width="24.172043010752688" height="4.87199081632653" fill="#7a4d9c" /><text x="7717.4946236559135" y="242.12800918367347" text-anchor="middle" fill="#1a1a1a" font-size="9">4.87</text><text x="7704.408602150537" y="262" transform="rotate(-35 7704.408602150537 262)" text-anchor="end" fill="#1a1a1a" font-size="10">Porto-Novo</text><rect x="7765.8387096774195" y="245.14009285714286" width="24.172043010752688" height="4.859907142857139" fill="#7a4d9c" /><text x="7777.924731182796" y="242.14009285714286" text-anchor="middle" fill="#1a1a1a" font-size="9">4.86</text><text x="7764.8387096774195" y="262" transform="rotate(-35 7764.8387096774195 262)" text-anchor="end" fill="#1a1a1a" font-size="10">Libreville</text><rect x="7826.268817204301" y="245.23506836734694" width="24.172043010752688" height="4.7649316326530595" fill="#7a4d9c" /><text x="7838.354838709677" y="242.23506836734694" text-anchor="middle" fill="#1a1a1a" font-size="9">4.76</text><text x="7825.268817204301" y="262" transform="rotate(-35 7825.268817204301 262)" text-anchor="end" fill="#1a1a1a" font-size="10">São Tomé</text><rect x="7886.698924731183" y="245.7049119047619" width="24.172043010752688" height="4.2950880952381" fill="#7a4d9c" /><text x="7898.784946236559" y="242.7049119047619" text-anchor="middle" fill="#1a1a1a" font-size="9">4.30</text><text x="7885.698924731183" y="262" transform="rotate(-35 7885.698924731183 262)" text-anchor="end" fill="#1a1a1a" font-size="10">Amman</text><rect x="7947.129032258064" y="245.84890646258503" width="24.172043010752688" height="4.151093537414965" fill="#7a4d9c" /><text x="7959.215053763441" y="242.84890646258503" text-anchor="middle" fill="#1a1a1a" font-size="9">4.15</text><text x="7946.129032258064" y="262" transform="rotate(-35 7946.129032258064 262)" text-anchor="end" fill="#1a1a1a" font-size="10">Muscat</text><rect x="8007.559139784947" y="246.18327040816325" width="24.172043010752688" height="3.816729591836747" fill="#7a4d9c" /><text x="8019.645161290323" y="243.18327040816325" text-anchor="middle" fill="#1a1a1a" font-size="9">3.82</text><text x="8006.559139784947" y="262" transform="rotate(-35 8006.559139784947 262)" text-anchor="end" fill="#1a1a1a" font-size="10">Manama</text><rect x="8067.989247311828" y="246.35714285714286" width="24.172043010752688" height="3.642857142857139" fill="#7a4d9c" /><text x="8080.075268817204" y="243.35714285714286" text-anchor="middle" fill="#1a1a1a" font-size="9">3.64</text><text x="8066.989247311828" y="262" transform="rotate(-35 8066.989247311828 262)" text-anchor="end" fill="#1a1a1a" font-size="10">Limoges</text><rect x="8128.419354838709" y="246.85751734693878" width="24.172043010752688" height="3.142482653061222" fill="#7a4d9c" /><text x="8140.505376344086" y="243.85751734693878" text-anchor="middle" fill="#1a1a1a" font-size="9">3.14</text><text x="8127.419354838709" y="262" transform="rotate(-35 8127.419354838709 262)" text-anchor="end" fill="#1a1a1a" font-size="10">Kuwait City</text><rect x="8188.8494623655915" y="246.95180986394558" width="24.172043010752688" height="3.0481901360544157" fill="#7a4d9c" /><text x="8200.935483870968" y="243.95180986394558" text-anchor="middle" fill="#1a1a1a" font-size="9">3.05</text><text x="8187.8494623655915" y="262" transform="rotate(-35 8187.8494623655915 262)" text-anchor="end" fill="#1a1a1a" font-size="10">Jerusalem</text><rect x="8249.279569892473" y="246.96235476190475" width="24.172043010752688" height="3.0376452380952514" fill="#7a4d9c" /><text x="8261.36559139785" y="243.96235476190475" text-anchor="middle" fill="#1a1a1a" font-size="9">3.04</text><text x="8248.279569892473" y="262" transform="rotate(-35 8248.279569892473 262)" text-anchor="end" fill="#1a1a1a" font-size="10">Bishkek</text><rect x="8309.709677419354" y="246.97239761904763" width="24.172043010752688" height="3.0276023809523736" fill="#7a4d9c" /><text x="8321.79569892473" y="243.97239761904763" text-anchor="middle" fill="#1a1a1a" font-size="9">3.03</text><text x="8308.709677419354" y="262" transform="rotate(-35 8308.709677419354 262)" text-anchor="end" fill="#1a1a1a" font-size="10">Bogota</text><rect x="8370.139784946237" y="246.99460798319328" width="24.172043010752688" height="3.0053920168067236" fill="#7a4d9c" /><text x="8382.225806451614" y="243.99460798319328" text-anchor="middle" fill="#1a1a1a" font-size="9">3.01</text><text x="8369.139784946237" y="262" transform="rotate(-35 8369.139784946237 262)" text-anchor="end" fill="#1a1a1a" font-size="10">Reykjavik</text><rect x="8430.569892473119" y="247.01663231292517" width="24.172043010752688" height="2.983367687074832" fill="#7a4d9c" /><text x="8442.655913978495" y="244.01663231292517" text-anchor="middle" fill="#1a1a1a" font-size="9">2.98</text><text x="8429.569892473119" y="262" transform="rotate(-35 8429.569892473119 262)" text-anchor="end" fill="#1a1a1a" font-size="10">La Paz</text><rect x="8491" y="247.07076904761905" width="24.172043010752688" height="2.929230952380948" fill="#7a4d9c" /><text x="8503.086021505376" y="244.07076904761905" text-anchor="middle" fill="#1a1a1a" font-size="9">2.93</text><text x="8490" y="262" transform="rotate(-35 8490 262)" text-anchor="end" fill="#1a1a1a" font-size="10">Ramallah</text><rect x="8551.430107526881" y="247.21428571428572" width="24.172043010752688" height="2.7857142857142776" fill="#7a4d9c" /><text x="8563.516129032258" y="244.21428571428572" text-anchor="middle" fill="#1a1a1a" font-size="9">2.79</text><text x="8550.430107526881" y="262" transform="rotate(-35 8550.430107526881 262)" text-anchor="end" fill="#1a1a1a" font-size="10">Mulhouse</text><rect x="8585.68817204301" y="247.21638333333334" width="24.172043010752688" height="2.78361666666666" fill="#1f7a4d" /><text x="8597.774193548386" y="244.21638333333334" text-anchor="middle" fill="#1a1a1a" font-size="9">2.78</text><rect x="8611.860215053763" y="230.16745838095238" width="24.172043010752688" height="19.832541619047618" fill="#7a4d9c" /><text x="8623.946236559139" y="227.16745838095238" text-anchor="middle" fill="#1a1a1a" font-size="9">19.83</text><text x="8610.860215053763" y="262" transform="rotate(-35 8610.860215053763 262)" text-anchor="end" fill="#1a1a1a" font-size="10">Cairo</text><rect x="8646.118279569893" y="247.29178523809523" width="24.172043010752688" height="2.7082147619047703" fill="#1f7a4d" /><text x="8658.20430107527" y="244.29178523809523" text-anchor="middle" fill="#1a1a1a" font-size="9">2.71</text><text x="8671.290322580646" y="262" transform="rotate(-35 8671.290322580646 262)" text-anchor="end" fill="#1a1a1a" font-size="10">Alexandria</text><rect x="8732.720430107527" y="247.30927721088435" width="24.172043010752688" height="2.6907227891156538" fill="#7a4d9c" /><text x="8744.806451612903" y="244.30927721088435" text-anchor="middle" fill="#1a1a1a" font-size="9">2.69</text><text x="8731.720430107527" y="262" transform="rotate(-35 8731.720430107527 262)" text-anchor="end" fill="#1a1a1a" font-size="10">Tashkent</text><rect x="8793.150537634408" y="247.3211350340136" width="24.172043010752688" height="2.6788649659864063" fill="#7a4d9c" /><text x="8805.236559139785" y="244.3211350340136" text-anchor="middle" fill="#1a1a1a" font-size="9">2.68</text><text x="8792.150537634408" y="262" transform="rotate(-35 8792.150537634408 262)" text-anchor="end" fill="#1a1a1a" font-size="10">Dushanbe</text><rect x="8853.58064516129" y="247.52241845238095" width="24.172043010752688" height="2.477581547619053" fill="#7a4d9c" /><text x="8865.666666666666" y="244.52241845238095" text-anchor="middle" fill="#1a1a1a" font-size="9">2.48</text><text x="8852.58064516129" y="262" transform="rotate(-35 8852.58064516129 262)" text-anchor="end" fill="#1a1a1a" font-size="10">Anchorage</text><rect x="8914.010752688171" y="247.628881292517" width="24.172043010752688" height="2.3711187074829922" fill="#7a4d9c" /><text x="8926.096774193547" y="244.628881292517" text-anchor="middle" fill="#1a1a1a" font-size="9">2.37</text><text x="8913.010752688171" y="262" transform="rotate(-35 8913.010752688171 262)" text-anchor="end" fill="#1a1a1a" font-size="10">Doha</text><rect x="8974.440860215054" y="247.74343543417368" width="24.172043010752688" height="2.2565645658263236" fill="#7a4d9c" /><text x="8986.52688172043" y="244.74343543417368" text-anchor="middle" fill="#1a1a1a" font-size="9">2.26</text><text x="8973.440860215054" y="262" transform="rotate(-35 8973.440860215054 262)" text-anchor="end" fill="#1a1a1a" font-size="10">Quito</text><rect x="9034.870967741936" y="247.8323275510204" width="24.172043010752688" height="2.1676724489796015" fill="#7a4d9c" /><text x="9046.956989247312" y="244.8323275510204" text-anchor="middle" fill="#1a1a1a" font-size="9">2.17</text><text x="9033.870967741936" y="262" transform="rotate(-35 9033.870967741936 262)" text-anchor="end" fill="#1a1a1a" font-size="10">Bandar Seri Begawan</text><rect x="9095.301075268817" y="247.83974455782314" width="24.172043010752688" height="2.1602554421768616" fill="#7a4d9c" /><text x="9107.387096774193" y="244.83974455782314" text-anchor="middle" fill="#1a1a1a" font-size="9">2.16</text><text x="9094.301075268817" y="262" transform="rotate(-35 9094.301075268817 262)" text-anchor="end" fill="#1a1a1a" font-size="10">Bogotá</text><rect x="9155.731182795698" y="247.88206649659864" width="24.172043010752688" height="2.1179335034013604" fill="#7a4d9c" /><text x="9167.817204301075" y="244.88206649659864" text-anchor="middle" fill="#1a1a1a" font-size="9">2.12</text><text x="9154.731182795698" y="262" transform="rotate(-35 9154.731182795698 262)" text-anchor="end" fill="#1a1a1a" font-size="10">Helsinki</text><rect x="9216.161290322581" y="247.916918707483" width="24.172043010752688" height="2.0830812925169937" fill="#7a4d9c" /><text x="9228.247311827958" y="244.916918707483" text-anchor="middle" fill="#1a1a1a" font-size="9">2.08</text><text x="9215.161290322581" y="262" transform="rotate(-35 9215.161290322581 262)" text-anchor="end" fill="#1a1a1a" font-size="10">Kabul</text><rect x="9276.591397849463" y="248.00153843537416" width="24.172043010752688" height="1.998461564625842" fill="#7a4d9c" /><text x="9288.677419354839" y="245.00153843537416" text-anchor="middle" fill="#1a1a1a" font-size="9">2.00</text><text x="9275.591397849463" y="262" transform="rotate(-35 9275.591397849463 262)" text-anchor="end" fill="#1a1a1a" font-size="10">Beijing</text><rect x="9337.021505376344" y="248.13054795918367" width="24.172043010752688" height="1.869452040816327" fill="#7a4d9c" /><text x="9349.10752688172" y="245.13054795918367" text-anchor="middle" fill="#1a1a1a" font-size="9">1.87</text><text x="9336.021505376344" y="262" transform="rotate(-35 9336.021505376344 262)" text-anchor="end" fill="#1a1a1a" font-size="10">Denver</text><rect x="9397.451612903225" y="248.19695748299318" width="24.172043010752688" height="1.8030425170068156" fill="#7a4d9c" /><text x="9409.537634408602" y="245.19695748299318" text-anchor="middle" fill="#1a1a1a" font-size="9">1.80</text><text x="9396.451612903225" y="262" transform="rotate(-35 9396.451612903225 262)" text-anchor="end" fill="#1a1a1a" font-size="10">Maseru</text><rect x="9457.881720430107" y="248.2003098639456" width="24.172043010752688" height="1.7996901360544086" fill="#7a4d9c" /><text x="9469.967741935483" y="245.2003098639456" text-anchor="middle" fill="#1a1a1a" font-size="9">1.80</text><text x="9456.881720430107" y="262" transform="rotate(-35 9456.881720430107 262)" text-anchor="end" fill="#1a1a1a" font-size="10">Tromsø</text><rect x="9492.139784946237" y="248.20980047619048" width="24.172043010752688" height="1.7901995238095196" fill="#1f7a4d" /><text x="9504.225806451614" y="245.20980047619048" text-anchor="middle" fill="#1a1a1a" font-size="9">1.79</text><rect x="9518.31182795699" y="233.08000085714286" width="24.172043010752688" height="16.919999142857137" fill="#7a4d9c" /><text x="9530.397849462366" y="230.08000085714286" text-anchor="middle" fill="#1a1a1a" font-size="9">16.92</text><text x="9517.31182795699" y="262" transform="rotate(-35 9517.31182795699 262)" text-anchor="end" fill="#1a1a1a" font-size="10">London</text><rect x="9578.741935483871" y="248.2984581632653" width="24.172043010752688" height="1.701541836734691" fill="#7a4d9c" /><text x="9590.827956989247" y="245.2984581632653" text-anchor="middle" fill="#1a1a1a" font-size="9">1.70</text><text x="9577.741935483871" y="262" transform="rotate(-35 9577.741935483871 262)" text-anchor="end" fill="#1a1a1a" font-size="10">Mbabane</text><rect x="9639.172043010753" y="248.32087721088436" width="24.172043010752688" height="1.6791227891156382" fill="#7a4d9c" /><text x="9651.258064516129" y="245.32087721088436" text-anchor="middle" fill="#1a1a1a" font-size="9">1.68</text><text x="9638.172043010753" y="262" transform="rotate(-35 9638.172043010753 262)" text-anchor="end" fill="#1a1a1a" font-size="10">Pretoria</text><rect x="9699.602150537634" y="248.42857142857142" width="24.172043010752688" height="1.5714285714285836" fill="#7a4d9c" /><text x="9711.68817204301" y="245.42857142857142" text-anchor="middle" fill="#1a1a1a" font-size="9">1.57</text><text x="9698.602150537634" y="262" transform="rotate(-35 9698.602150537634 262)" text-anchor="end" fill="#1a1a1a" font-size="10">Marrakech</text><rect x="9733.860215053763" y="248.48357380952382" width="24.172043010752688" height="1.5164261904761815" fill="#1f7a4d" /><text x="9745.946236559139" y="245.48357380952382" text-anchor="middle" fill="#1a1a1a" font-size="9">1.52</text><rect x="9760.032258064515" y="229.8866350340136" width="24.172043010752688" height="20.113364965986392" fill="#7a4d9c" /><text x="9772.118279569891" y="226.8866350340136" text-anchor="middle" fill="#1a1a1a" font-size="9">20.11</text><text x="9759.032258064515" y="262" transform="rotate(-35 9759.032258064515 262)" text-anchor="end" fill="#1a1a1a" font-size="10">Ankara</text><rect x="9820.462365591398" y="248.5460880952381" width="24.172043010752688" height="1.4539119047618954" fill="#7a4d9c" /><text x="9832.548387096775" y="245.5460880952381" text-anchor="middle" fill="#1a1a1a" font-size="9">1.45</text><text x="9819.462365591398" y="262" transform="rotate(-35 9819.462365591398 262)" text-anchor="end" fill="#1a1a1a" font-size="10">Gaborone</text><rect x="9880.89247311828" y="248.5571962585034" width="24.172043010752688" height="1.44280374149659" fill="#7a4d9c" /><text x="9892.978494623656" y="245.5571962585034" text-anchor="middle" fill="#1a1a1a" font-size="9">1.44</text><text x="9879.89247311828" y="262" transform="rotate(-35 9879.89247311828 262)" text-anchor="end" fill="#1a1a1a" font-size="10">Caracas</text><rect x="9915.150537634408" y="248.58527857142857" width="24.172043010752688" height="1.4147214285714256" fill="#1f7a4d" /><text x="9927.236559139785" y="245.58527857142857" text-anchor="middle" fill="#1a1a1a" font-size="9">1.41</text><rect x="9941.322580645161" y="248.84752346938777" width="24.172043010752688" height="1.1524765306122333" fill="#7a4d9c" /><text x="9953.408602150537" y="245.84752346938777" text-anchor="middle" fill="#1a1a1a" font-size="9">1.15</text><text x="9940.322580645161" y="262" transform="rotate(-35 9940.322580645161 262)" text-anchor="end" fill="#1a1a1a" font-size="10">Riyadh</text><rect x="9975.58064516129" y="248.8070119047619" width="24.172043010752688" height="1.1929880952380927" fill="#1f7a4d" /><text x="9987.666666666666" y="245.8070119047619" text-anchor="middle" fill="#1a1a1a" font-size="9">1.19</text><rect x="10001.752688172042" y="248.92296238095238" width="24.172043010752688" height="1.0770376190476156" fill="#7a4d9c" /><text x="10013.838709677419" y="245.92296238095238" text-anchor="middle" fill="#1a1a1a" font-size="9">1.08</text><text x="10000.752688172042" y="262" transform="rotate(-35 10000.752688172042 262)" text-anchor="end" fill="#1a1a1a" font-size="10">Madinah</text><rect x="10036.010752688173" y="248.8792261904762" width="24.172043010752688" height="1.1207738095237971" fill="#1f7a4d" /><text x="10048.09677419355" y="245.8792261904762" text-anchor="middle" fill="#1a1a1a" font-size="9">1.12</text><rect x="10062.182795698925" y="248.30124911816577" width="24.172043010752688" height="1.6987508818342292" fill="#7a4d9c" /><text x="10074.268817204302" y="245.30124911816577" text-anchor="middle" fill="#1a1a1a" font-size="9">1.70</text><text x="10061.182795698925" y="262" transform="rotate(-35 10061.182795698925 262)" text-anchor="end" fill="#1a1a1a" font-size="10">Kuala Lumpur</text><rect x="10096.440860215054" y="249.0730538095238" width="24.172043010752688" height="0.9269461904762011" fill="#1f7a4d" /><text x="10108.52688172043" y="246.0730538095238" text-anchor="middle" fill="#1a1a1a" font-size="9">0.93</text><text x="10121.612903225807" y="262" transform="rotate(-35 10121.612903225807 262)" text-anchor="end" fill="#1a1a1a" font-size="10">George Town</text><rect x="10183.043010752688" y="249.10120850340135" width="24.172043010752688" height="0.8987914965986477" fill="#7a4d9c" /><text x="10195.129032258064" y="246.10120850340135" text-anchor="middle" fill="#1a1a1a" font-size="9">0.90</text><text x="10182.043010752688" y="262" transform="rotate(-35 10182.043010752688 262)" text-anchor="end" fill="#1a1a1a" font-size="10">Ottawa</text><rect x="10217.301075268817" y="249.15368333333333" width="24.172043010752688" height="0.8463166666666666" fill="#1f7a4d" /><text x="10229.387096774193" y="246.15368333333333" text-anchor="middle" fill="#1a1a1a" font-size="9">0.85</text><text x="10242.47311827957" y="262" transform="rotate(-35 10242.47311827957 262)" text-anchor="end" fill="#1a1a1a" font-size="10">Makkah</text><rect x="10303.90322580645" y="249.15637465986396" width="24.172043010752688" height="0.8436253401360432" fill="#7a4d9c" /><text x="10315.989247311827" y="246.15637465986396" text-anchor="middle" fill="#1a1a1a" font-size="9">0.84</text><text x="10302.90322580645" y="262" transform="rotate(-35 10302.90322580645 262)" text-anchor="end" fill="#1a1a1a" font-size="10">Copenhagen</text><rect x="10364.333333333334" y="249.19214030612244" width="24.172043010752688" height="0.8078596938775604" fill="#7a4d9c" /><text x="10376.41935483871" y="246.19214030612244" text-anchor="middle" fill="#1a1a1a" font-size="9">0.81</text><text x="10363.333333333334" y="262" transform="rotate(-35 10363.333333333334 262)" text-anchor="end" fill="#1a1a1a" font-size="10">Tallinn</text><rect x="10398.591397849463" y="249.21526428571428" width="24.172043010752688" height="0.7847357142857163" fill="#1f7a4d" /><text x="10410.677419354839" y="246.21526428571428" text-anchor="middle" fill="#1a1a1a" font-size="9">0.78</text><rect x="10424.763440860215" y="246.73312142857142" width="24.172043010752688" height="3.2668785714285775" fill="#7a4d9c" /><text x="10436.849462365592" y="243.73312142857142" text-anchor="middle" fill="#1a1a1a" font-size="9">3.27</text><text x="10423.763440860215" y="262" transform="rotate(-35 10423.763440860215 262)" text-anchor="end" fill="#1a1a1a" font-size="10">Istanbul</text><rect x="10459.021505376344" y="249.23015952380953" width="24.172043010752688" height="0.7698404761904669" fill="#1f7a4d" /><text x="10471.10752688172" y="246.23015952380953" text-anchor="middle" fill="#1a1a1a" font-size="9">0.77</text><text x="10484.193548387097" y="262" transform="rotate(-35 10484.193548387097 262)" text-anchor="end" fill="#1a1a1a" font-size="10">Toronto</text><rect x="10545.623655913978" y="249.25" width="24.172043010752688" height="0.75" fill="#7a4d9c" /><text x="10557.709677419354" y="246.25" text-anchor="middle" fill="#1a1a1a" font-size="9">0.75</text><text x="10544.623655913978" y="262" transform="rotate(-35 10544.623655913978 262)" text-anchor="end" fill="#1a1a1a" font-size="10">Mecca</text><rect x="10606.05376344086" y="249.26007380952382" width="24.172043010752688" height="0.7399261904761829" fill="#7a4d9c" /><text x="10618.139784946236" y="246.26007380952382" text-anchor="middle" fill="#1a1a1a" font-size="9">0.74</text><text x="10605.05376344086" y="262" transform="rotate(-35 10605.05376344086 262)" text-anchor="end" fill="#1a1a1a" font-size="10">Washington D.C.</text><rect x="10640.31182795699" y="249.26563666666667" width="24.172043010752688" height="0.7343633333333344" fill="#1f7a4d" /><text x="10652.397849462366" y="246.26563666666667" text-anchor="middle" fill="#1a1a1a" font-size="9">0.73</text><rect x="10666.483870967742" y="246.74490034013604" width="24.172043010752688" height="3.2550996598639585" fill="#7a4d9c" /><text x="10678.569892473119" y="243.74490034013604" text-anchor="middle" fill="#1a1a1a" font-size="9">3.26</text><text x="10665.483870967742" y="262" transform="rotate(-35 10665.483870967742 262)" text-anchor="end" fill="#1a1a1a" font-size="10">Jakarta</text><rect x="10700.741935483871" y="249.27550952380952" width="24.172043010752688" height="0.724490476190482" fill="#1f7a4d" /><text x="10712.827956989247" y="246.27550952380952" text-anchor="middle" fill="#1a1a1a" font-size="9">0.72</text><text x="10725.913978494624" y="262" transform="rotate(-35 10725.913978494624 262)" text-anchor="end" fill="#1a1a1a" font-size="10">Shah Alam</text><rect x="10761.172043010753" y="249.32147285714285" width="24.172043010752688" height="0.6785271428571491" fill="#1f7a4d" /><text x="10773.258064516129" y="246.32147285714285" text-anchor="middle" fill="#1a1a1a" font-size="9">0.68</text><rect x="10787.344086021505" y="249.52497761904763" width="24.172043010752688" height="0.4750223809523675" fill="#7a4d9c" /><text x="10799.430107526881" y="246.52497761904763" text-anchor="middle" fill="#1a1a1a" font-size="9">0.48</text><text x="10786.344086021505" y="262" transform="rotate(-35 10786.344086021505 262)" text-anchor="end" fill="#1a1a1a" font-size="10">New York</text><rect x="10821.602150537634" y="249.3522738095238" width="24.172043010752688" height="0.6477261904761917" fill="#1f7a4d" /><text x="10833.68817204301" y="246.3522738095238" text-anchor="middle" fill="#1a1a1a" font-size="9">0.65</text><text x="10846.774193548386" y="262" transform="rotate(-35 10846.774193548386 262)" text-anchor="end" fill="#1a1a1a" font-size="10">Izmir</text><rect x="10882.032258064517" y="249.38371666666666" width="24.172043010752688" height="0.6162833333333424" fill="#1f7a4d" /><text x="10894.118279569893" y="246.38371666666666" text-anchor="middle" fill="#1a1a1a" font-size="9">0.62</text><text x="10907.20430107527" y="262" transform="rotate(-35 10907.20430107527 262)" text-anchor="end" fill="#1a1a1a" font-size="10">Los Angeles</text><rect x="10968.63440860215" y="249.39176972789116" width="24.172043010752688" height="0.6082302721088411" fill="#7a4d9c" /><text x="10980.720430107527" y="246.39176972789116" text-anchor="middle" fill="#1a1a1a" font-size="9">0.61</text><text x="10967.63440860215" y="262" transform="rotate(-35 10967.63440860215 262)" text-anchor="end" fill="#1a1a1a" font-size="10">Maputo</text><rect x="11002.89247311828" y="249.41894095238095" width="24.172043010752688" height="0.5810590476190498" fill="#1f7a4d" /><text x="11014.978494623656" y="246.41894095238095" text-anchor="middle" fill="#1a1a1a" font-size="9">0.58</text><rect x="11029.064516129032" y="228.37863907563025" width="24.172043010752688" height="21.621360924369753" fill="#7a4d9c" /><text x="11041.150537634408" y="225.37863907563025" text-anchor="middle" fill="#1a1a1a" font-size="9">21.62</text><text x="11028.064516129032" y="262" transform="rotate(-35 11028.064516129032 262)" text-anchor="end" fill="#1a1a1a" font-size="10">Paris</text><rect x="11063.322580645161" y="249.4537023809524" width="24.172043010752688" height="0.546297619047607" fill="#1f7a4d" /><text x="11075.408602150537" y="246.4537023809524" text-anchor="middle" fill="#1a1a1a" font-size="9">0.55</text><rect x="11089.494623655914" y="197.09821636904763" width="24.172043010752688" height="52.901783630952366" fill="#7a4d9c" /><text x="11101.58064516129" y="194.09821636904763" text-anchor="middle" fill="#1a1a1a" font-size="9">52.90</text><text x="11088.494623655914" y="262" transform="rotate(-35 11088.494623655914 262)" text-anchor="end" fill="#1a1a1a" font-size="10">Rabat</text><rect x="11123.752688172042" y="249.51116428571427" width="24.172043010752688" height="0.48883571428572736" fill="#1f7a4d" /><text x="11135.838709677419" y="246.51116428571427" text-anchor="middle" fill="#1a1a1a" font-size="9">0.49</text><rect x="11149.924731182795" y="248.11904761904762" width="24.172043010752688" height="1.8809523809523796" fill="#7a4d9c" /><text x="11162.010752688171" y="245.11904761904762" text-anchor="middle" fill="#1a1a1a" font-size="9">1.88</text><text x="11148.924731182795" y="262" transform="rotate(-35 11148.924731182795 262)" text-anchor="end" fill="#1a1a1a" font-size="10">Casablanca</text><rect x="11184.182795698925" y="249.54826904761904" width="24.172043010752688" height="0.45173095238095584" fill="#1f7a4d" /><text x="11196.268817204302" y="246.54826904761904" text-anchor="middle" fill="#1a1a1a" font-size="9">0.45</text><rect x="11210.354838709678" y="244.66315555555556" width="24.172043010752688" height="5.336844444444438" fill="#7a4d9c" /><text x="11222.440860215054" y="241.66315555555556" text-anchor="middle" fill="#1a1a1a" font-size="9">5.34</text><text x="11209.354838709678" y="262" transform="rotate(-35 11209.354838709678 262)" text-anchor="end" fill="#1a1a1a" font-size="10">Karachi</text><rect x="11244.612903225807" y="249.7179642857143" width="24.172043010752688" height="0.28203571428571195" fill="#1f7a4d" /><text x="11256.698924731183" y="246.7179642857143" text-anchor="middle" fill="#1a1a1a" font-size="9">0.28</text><rect x="11270.78494623656" y="246.89453571428572" width="24.172043010752688" height="3.1054642857142767" fill="#7a4d9c" /><text x="11282.870967741936" y="243.89453571428572" text-anchor="middle" fill="#1a1a1a" font-size="9">3.11</text><text x="11269.78494623656" y="262" transform="rotate(-35 11269.78494623656 262)" text-anchor="end" fill="#1a1a1a" font-size="10">Dubai</text><rect x="11260" y="50" width="12" height="10" fill="#1f7a4d" /><text x="11276" y="59" fill="#1a1a1a">train (ratchet)</text><rect x="11260" y="66" width="12" height="10" fill="#7a4d9c" /><text x="11276" y="75" fill="#1a1a1a">holdout</text></svg>