<svg xmlns="http://www.w3.org/2000/svg" viewBox="0 0 720 380" width="720" height="380" font-family="-apple-system, BlinkMacSystemFont, "Segoe UI", system-ui, sans-serif" font-size="11"><rect width="720" height="380" fill="#0f1923" /><text x="360" y="26" text-anchor="middle" fill="#ecedf2" font-size="17" font-weight="600">WMAE per source — latest run</text><line x1="60" y1="250" x2="580" y2="250" stroke="#2a3a4a" stroke-width="0.5" /><text x="54" y="253" text-anchor="end" fill="#ecedf2">0.00</text><line x1="60" y1="210" x2="580" y2="210" stroke="#2a3a4a" stroke-width="0.5" /><text x="54" y="213" text-anchor="end" fill="#ecedf2">4.00</text><line x1="60" y1="170" x2="580" y2="170" stroke="#2a3a4a" stroke-width="0.5" /><text x="54" y="173" text-anchor="end" fill="#ecedf2">8.00</text><line x1="60" y1="130" x2="580" y2="130" stroke="#2a3a4a" stroke-width="0.5" /><text x="54" y="133" text-anchor="end" fill="#ecedf2">12.00</text><line x1="60" y1="90" x2="580" y2="90" stroke="#2a3a4a" stroke-width="0.5" /><text x="54" y="93" text-anchor="end" fill="#ecedf2">16.00</text><line x1="60" y1="50" x2="580" y2="50" stroke="#2a3a4a" stroke-width="0.5" /><text x="54" y="53" text-anchor="end" fill="#ecedf2">20.00</text><text x="22" y="150" transform="rotate(-90 22 150)" text-anchor="middle" fill="#ecedf2">WMAE (min)</text><rect x="104.33333333333334" y="136.8865238095238" width="28" height="113.1134761904762" fill="#9d7bff" /><text x="118.33333333333334" y="133.8865238095238" text-anchor="middle" fill="#ecedf2" font-size="9">11.31</text><text x="103.33333333333334" y="262" transform="rotate(-35 103.33333333333334 262)" text-anchor="end" fill="#ecedf2" font-size="10">muslimsalat.com (third-party a</text><rect x="191" y="215.99012333333332" width="28" height="34.009876666666685" fill="#9d7bff" /><text x="205" y="212.99012333333332" text-anchor="middle" fill="#ecedf2" font-size="9">3.40</text><text x="190" y="262" transform="rotate(-35 190 262)" text-anchor="end" fill="#ecedf2" font-size="10">praytimes.org reference (Hamid</text><rect x="247.66666666666669" y="223.6164412698413" width="28" height="26.38355873015871" fill="#3ed16f" /><text x="261.6666666666667" y="220.6164412698413" text-anchor="middle" fill="#ecedf2" font-size="9">2.64</text><text x="276.6666666666667" y="262" transform="rotate(-35 276.6666666666667 262)" text-anchor="end" fill="#ecedf2" font-size="10">JAKIM (via waktusolat.app)</text><rect x="364.33333333333337" y="227.6530612244898" width="28" height="22.34693877551021" fill="#9d7bff" /><text x="378.33333333333337" y="224.6530612244898" text-anchor="middle" fill="#ecedf2" font-size="9">2.23</text><text x="363.33333333333337" y="262" transform="rotate(-35 363.33333333333337 262)" text-anchor="end" fill="#ecedf2" font-size="10">Mawaqit (mosque-published)</text><rect x="421" y="239.39656349206348" width="28" height="10.603436507936522" fill="#3ed16f" /><text x="435" y="236.39656349206348" text-anchor="middle" fill="#ecedf2" font-size="9">1.06</text><text x="450" y="262" transform="rotate(-35 450 262)" text-anchor="end" fill="#ecedf2" font-size="10">Diyanet İşleri Başkanlığı (Tür</text><rect x="507.66666666666674" y="239.63829391534392" width="28" height="10.361706084656078" fill="#3ed16f" /><text x="521.6666666666667" y="236.63829391534392" text-anchor="middle" fill="#ecedf2" font-size="9">1.04</text><rect x="537.6666666666667" y="169.52480753968254" width="28" height="80.47519246031746" fill="#9d7bff" /><text x="551.6666666666667" y="166.52480753968254" text-anchor="middle" fill="#ecedf2" font-size="9">8.05</text><text x="536.6666666666667" y="262" transform="rotate(-35 536.6666666666667 262)" text-anchor="end" fill="#ecedf2" font-size="10">Aladhan API</text><rect x="540" y="50" width="12" height="10" fill="#3ed16f" /><text x="556" y="59" fill="#ecedf2">train (ratchet)</text><rect x="540" y="66" width="12" height="10" fill="#9d7bff" /><text x="556" y="75" fill="#ecedf2">holdout</text></svg>