<svg xmlns="http://www.w3.org/2000/svg" viewBox="0 0 980 540" width="980" height="540" font-family="-apple-system, BlinkMacSystemFont, 'Segoe UI', system-ui, sans-serif" font-size="11"><rect width="980" height="540" fill="#fafaf7" /><text x="490" y="32" text-anchor="middle" fill="#1a1a1a" font-size="19" font-weight="700">WMAE Journey — fajr v1.0 → v1.4.1</text><text x="490" y="54" text-anchor="middle" fill="#5a5a5a" font-size="12">Train WMAE (ratchet) and Holdout WMAE across 18 eval runs · annotations call out the release that drove each delta</text><text x="490" y="72" text-anchor="middle" fill="#8a8a8a" font-size="11">Lower is better · y-axis clipped at 25 min for readability (early v1.4.0 holdout pre-tz-fix peaked at 151 min)</text><rect x="70" y="90" width="870" height="250" fill="#f1efe8" /><line x1="70" y1="340" x2="940" y2="340" stroke="#dcdcd0" stroke-width="1" stroke-dasharray="2,3" /><text x="62" y="344" text-anchor="end" fill="#8a8a8a" font-size="9">0</text><line x1="70" y1="290" x2="940" y2="290" stroke="#dcdcd0" stroke-width="1" stroke-dasharray="2,3" /><text x="62" y="294" text-anchor="end" fill="#8a8a8a" font-size="9">5</text><line x1="70" y1="240" x2="940" y2="240" stroke="#dcdcd0" stroke-width="1" stroke-dasharray="2,3" /><text x="62" y="244" text-anchor="end" fill="#8a8a8a" font-size="9">10</text><line x1="70" y1="190" x2="940" y2="190" stroke="#dcdcd0" stroke-width="1" stroke-dasharray="2,3" /><text x="62" y="194" text-anchor="end" fill="#8a8a8a" font-size="9">15</text><line x1="70" y1="140" x2="940" y2="140" stroke="#dcdcd0" stroke-width="1" stroke-dasharray="2,3" /><text x="62" y="144" text-anchor="end" fill="#8a8a8a" font-size="9">20</text><line x1="70" y1="90" x2="940" y2="90" stroke="#dcdcd0" stroke-width="1" stroke-dasharray="2,3" /><text x="62" y="94" text-anchor="end" fill="#8a8a8a" font-size="9">25</text><text x="20" y="215" text-anchor="middle" fill="#5a5a5a" font-size="10" transform="rotate(-90 20 215)">WMAE (minutes)</text><line x1="70" y1="340" x2="940" y2="340" stroke="#a8a89a" stroke-width="1.5" /><line x1="70" y1="90" x2="70" y2="340" stroke="#a8a89a" stroke-width="1.5" /><path d="M70.0,259.5 L121.2,277.2 L172.4,277.2 L223.5,278.3 L274.7,278.5 L325.9,278.3 L377.1,278.5 L428.2,278.5 L479.4,278.5 L530.6,278.5 L581.8,278.5 L632.9,90.0 L684.1,213.9 L735.3,213.9 L786.5,215.5 L837.6,215.5 L888.8,215.5 L940.0,216.4 " fill="none" stroke="#7a4d9c" stroke-width="2" opacity="0.7" /><circle cx="70" cy="259.52480753968257" r="3.5" fill="#fafaf7" stroke="#7a4d9c" stroke-width="1.8" /><circle cx="121.17647058823529" cy="277.18219234360413" r="3.5" fill="#fafaf7" stroke="#7a4d9c" stroke-width="1.8" /><circle cx="172.35294117647058" cy="277.18219234360413" r="3.5" fill="#fafaf7" stroke="#7a4d9c" stroke-width="1.8" /><circle cx="223.52941176470588" cy="278.27093477770256" r="3.5" fill="#fafaf7" stroke="#7a4d9c" stroke-width="1.8" /><circle cx="274.70588235294116" cy="278.5248278041074" r="3.5" fill="#fafaf7" stroke="#7a4d9c" stroke-width="1.8" /><circle cx="325.88235294117646" cy="278.27093477770256" r="3.5" fill="#fafaf7" stroke="#7a4d9c" stroke-width="1.8" /><circle cx="377.05882352941177" cy="278.5248278041074" r="3.5" fill="#fafaf7" stroke="#7a4d9c" stroke-width="1.8" /><circle cx="428.235294117647" cy="278.5248278041074" r="3.5" fill="#fafaf7" stroke="#7a4d9c" stroke-width="1.8" /><circle cx="479.4117647058823" cy="278.5248278041074" r="3.5" fill="#fafaf7" stroke="#7a4d9c" stroke-width="1.8" /><circle cx="530.5882352941177" cy="278.5248278041074" r="3.5" fill="#fafaf7" stroke="#7a4d9c" stroke-width="1.8" /><circle cx="581.7647058823529" cy="278.5248278041074" r="3.5" fill="#fafaf7" stroke="#7a4d9c" stroke-width="1.8" /><circle cx="632.9411764705883" cy="90" r="3.5" fill="#fafaf7" stroke="#7a4d9c" stroke-width="1.8" /><text x="632.9411764705883" y="82" text-anchor="middle" fill="#7a4d9c" font-size="9" font-weight="bold">↑</text><circle cx="684.1176470588235" cy="213.8678739521697" r="3.5" fill="#fafaf7" stroke="#7a4d9c" stroke-width="1.8" /><circle cx="735.2941176470588" cy="213.8678739521697" r="3.5" fill="#fafaf7" stroke="#7a4d9c" stroke-width="1.8" /><circle cx="786.470588235294" cy="215.4912133435475" r="3.5" fill="#fafaf7" stroke="#7a4d9c" stroke-width="1.8" /><circle cx="837.6470588235294" cy="215.4912133435475" r="3.5" fill="#fafaf7" stroke="#7a4d9c" stroke-width="1.8" /><circle cx="888.8235294117646" cy="215.4912133435475" r="3.5" fill="#fafaf7" stroke="#7a4d9c" stroke-width="1.8" /><circle cx="940" cy="216.40034907523955" r="3.5" fill="#fafaf7" stroke="#7a4d9c" stroke-width="1.8" /><path d="M70.0,328.4 L121.2,326.7 L172.4,326.7 L223.5,326.7 L274.7,327.6 L325.9,326.7 L377.1,327.6 L428.2,327.5 L479.4,327.5 L530.6,327.5 L581.8,327.5 L632.9,327.5 L684.1,327.5 L735.3,327.5 L786.5,327.5 L837.6,327.5 L888.8,327.5 L940.0,329.6 " fill="none" stroke="#1f7a4d" stroke-width="2.5" /><circle cx="70" cy="328.43591296296296" r="3.5" fill="#1f7a4d" /><circle cx="121.17647058823529" cy="326.7035603174603" r="3.5" fill="#1f7a4d" /><circle cx="172.35294117647058" cy="326.7035603174603" r="3.5" fill="#1f7a4d" /><circle cx="223.52941176470588" cy="326.7035603174603" r="3.5" fill="#1f7a4d" /><circle cx="274.70588235294116" cy="327.6053460317461" r="3.5" fill="#1f7a4d" /><circle cx="325.88235294117646" cy="326.7035603174603" r="3.5" fill="#1f7a4d" /><circle cx="377.05882352941177" cy="327.6053460317461" r="3.5" fill="#1f7a4d" /><circle cx="428.235294117647" cy="327.5279650793651" r="3.5" fill="#1f7a4d" /><circle cx="479.4117647058823" cy="327.5279650793651" r="3.5" fill="#1f7a4d" /><circle cx="530.5882352941177" cy="327.5279650793651" r="3.5" fill="#1f7a4d" /><circle cx="581.7647058823529" cy="327.5279650793651" r="3.5" fill="#1f7a4d" /><circle cx="632.9411764705883" cy="327.5279650793651" r="3.5" fill="#1f7a4d" /><circle cx="684.1176470588235" cy="327.5279650793651" r="3.5" fill="#1f7a4d" /><circle cx="735.2941176470588" cy="327.5279650793651" r="3.5" fill="#1f7a4d" /><circle cx="786.470588235294" cy="327.5279650793651" r="3.5" fill="#1f7a4d" /><circle cx="837.6470588235294" cy="327.5279650793651" r="3.5" fill="#1f7a4d" /><circle cx="888.8235294117646" cy="327.5279650793651" r="3.5" fill="#1f7a4d" /><circle cx="940" cy="329.6055256728779" r="3.5" fill="#1f7a4d" /><line x1="70" y1="90" x2="70" y2="340" stroke="#c83030" stroke-width="1" stroke-dasharray="3,3" opacity="0.5" /><rect x="48" y="75" width="44" height="14" rx="3" fill="#c83030" opacity="0.9" /><text x="70" y="86" text-anchor="middle" fill="white" font-size="9" font-weight="600">v1.0</text><text x="76" y="320.43591296296296" fill="#1f7a4d" font-size="9" font-weight="600">1.16</text><text x="76" y="251.52480753968257" fill="#7a4d9c" font-size="9" font-weight="600">8.0</text><line x1="428.235294117647" y1="90" x2="428.235294117647" y2="340" stroke="#c83030" stroke-width="1" stroke-dasharray="3,3" opacity="0.5" /><rect x="406.235294117647" y="61" width="44" height="14" rx="3" fill="#c83030" opacity="0.9" /><text x="428.235294117647" y="72" text-anchor="middle" fill="white" font-size="9" font-weight="600">v1.1.1</text><text x="434.235294117647" y="319.5279650793651" fill="#1f7a4d" font-size="9" font-weight="600">1.25</text><text x="434.235294117647" y="270.5248278041074" fill="#7a4d9c" font-size="9" font-weight="600">6.1</text><line x1="530.5882352941177" y1="90" x2="530.5882352941177" y2="340" stroke="#c83030" stroke-width="1" stroke-dasharray="3,3" opacity="0.5" /><rect x="508.5882352941177" y="75" width="44" height="14" rx="3" fill="#c83030" opacity="0.9" /><text x="530.5882352941177" y="86" text-anchor="middle" fill="white" font-size="9" font-weight="600">v1.2</text><text x="536.5882352941177" y="319.5279650793651" fill="#1f7a4d" font-size="9" font-weight="600">1.25</text><text x="536.5882352941177" y="270.5248278041074" fill="#7a4d9c" font-size="9" font-weight="600">6.1</text><line x1="581.7647058823529" y1="90" x2="581.7647058823529" y2="340" stroke="#c83030" stroke-width="1" stroke-dasharray="3,3" opacity="0.5" /><rect x="559.7647058823529" y="61" width="44" height="14" rx="3" fill="#c83030" opacity="0.9" /><text x="581.7647058823529" y="72" text-anchor="middle" fill="white" font-size="9" font-weight="600">v1.3</text><text x="587.7647058823529" y="319.5279650793651" fill="#1f7a4d" font-size="9" font-weight="600">1.25</text><text x="587.7647058823529" y="270.5248278041074" fill="#7a4d9c" font-size="9" font-weight="600">6.1</text><line x1="786.470588235294" y1="90" x2="786.470588235294" y2="340" stroke="#c83030" stroke-width="1" stroke-dasharray="3,3" opacity="0.5" /><rect x="764.470588235294" y="75" width="44" height="14" rx="3" fill="#c83030" opacity="0.9" /><text x="786.470588235294" y="86" text-anchor="middle" fill="white" font-size="9" font-weight="600">v1.4</text><text x="792.470588235294" y="319.5279650793651" fill="#1f7a4d" font-size="9" font-weight="600">1.25</text><text x="792.470588235294" y="207.4912133435475" fill="#7a4d9c" font-size="9" font-weight="600">12.5</text><line x1="940" y1="90" x2="940" y2="340" stroke="#c83030" stroke-width="1" stroke-dasharray="3,3" opacity="0.5" /><rect x="918" y="61" width="44" height="14" rx="3" fill="#c83030" opacity="0.9" /><text x="940" y="72" text-anchor="middle" fill="white" font-size="9" font-weight="600">v1.4.1</text><text x="946" y="321.6055256728779" fill="#1f7a4d" font-size="9" font-weight="600">1.04</text><text x="946" y="208.40034907523955" fill="#7a4d9c" font-size="9" font-weight="600">12.4</text><text x="70" y="372" fill="#1a1a1a" font-size="12" font-weight="600">Release timeline</text><text x="70" y="390" fill="#1a1a1a" font-size="11"><tspan font-weight="700" fill="#c83030">v1.0</tspan><tspan dx="8" fill="#1f7a4d">train 1.16</tspan><tspan dx="6" fill="#7a4d9c">holdout 8.05</tspan><tspan dx="10" fill="#5a5a5a">baseline (corpus + ratchet established)</tspan></text><text x="70" y="406" fill="#1a1a1a" font-size="11"><tspan font-weight="700" fill="#c83030">v1.1.1</tspan><tspan dx="8" fill="#1f7a4d">train 1.25</tspan><tspan dx="6" fill="#7a4d9c">holdout 6.15</tspan><tspan dx="10" fill="#5a5a5a">dayTimes elevation fix + npm publish CI</tspan></text><text x="70" y="422" fill="#1a1a1a" font-size="11"><tspan font-weight="700" fill="#c83030">v1.2</tspan><tspan dx="8" fill="#1f7a4d">train 1.25</tspan><tspan dx="6" fill="#7a4d9c">holdout 6.15</tspan><tspan dx="10" fill="#5a5a5a">notes field + scholarly grounding (13 papers)</tspan></text><text x="70" y="438" fill="#1a1a1a" font-size="11"><tspan font-weight="700" fill="#c83030">v1.3</tspan><tspan dx="8" fill="#1f7a4d">train 1.25</tspan><tspan dx="6" fill="#7a4d9c">holdout 6.15</tspan><tspan dx="10" fill="#5a5a5a">applyTayakkunBuffer + tarabishyTimes (Aabed/Tarabishy)</tspan></text><text x="70" y="454" fill="#1a1a1a" font-size="11"><tspan font-weight="700" fill="#c83030">v1.4</tspan><tspan dx="8" fill="#1f7a4d">train 1.25</tspan><tspan dx="6" fill="#7a4d9c">holdout 12.45</tspan><tspan dx="10" fill="#5a5a5a">world-coverage eval (163 countries) + 9 engine bboxes</tspan></text><text x="70" y="470" fill="#1a1a1a" font-size="11"><tspan font-weight="700" fill="#c83030">v1.4.1</tspan><tspan dx="8" fill="#1f7a4d">train 1.04</tspan><tspan dx="6" fill="#7a4d9c">holdout 12.36</tspan><tspan dx="10" fill="#5a5a5a">JAKIM Path A ihtiyati offset (train −16.6%)</tspan></text><rect x="714" y="86" width="216" height="40" rx="3" fill="#fafaf7" stroke="#dcdcd0" /><circle cx="728" cy="98" r="4" fill="#1f7a4d" /><text x="738" y="101" fill="#1a1a1a" font-size="10">Train WMAE (ratchet)</text><circle cx="728" cy="116" r="4" fill="#fafaf7" stroke="#7a4d9c" stroke-width="1.5" /><text x="738" y="119" fill="#1a1a1a" font-size="10">Holdout WMAE (diagnostic)</text></svg>