<svg xmlns="http://www.w3.org/2000/svg" viewBox="0 0 980 540" width="980" height="540" font-family="-apple-system, BlinkMacSystemFont, 'Segoe UI', system-ui, sans-serif" font-size="11"><rect width="980" height="540" fill="#fafaf7" /><text x="490" y="32" text-anchor="middle" fill="#1a1a1a" font-size="19" font-weight="700">WMAE Journey — fajr v1.0 → v1.5.0</text><text x="490" y="54" text-anchor="middle" fill="#5a5a5a" font-size="12">Train WMAE (ratchet) and Holdout WMAE across 95 eval runs · annotations call out the release that drove each delta</text><text x="490" y="72" text-anchor="middle" fill="#8a8a8a" font-size="11">Lower is better · y-axis clipped at 14 min for readability (early v1.4.0 holdout pre-tz-fix peaked at 151 min)</text><rect x="70" y="90" width="870" height="250" fill="#f1efe8" /><line x1="70" y1="340" x2="940" y2="340" stroke="#dcdcd0" stroke-width="1" stroke-dasharray="2,3" /><text x="62" y="344" text-anchor="end" fill="#8a8a8a" font-size="9">0</text><line x1="70" y1="249.90688320494033" x2="940" y2="249.90688320494033" stroke="#dcdcd0" stroke-width="1" stroke-dasharray="2,3" /><text x="62" y="253.90688320494033" text-anchor="end" fill="#8a8a8a" font-size="9">5</text><line x1="70" y1="159.81376640988066" x2="940" y2="159.81376640988066" stroke="#dcdcd0" stroke-width="1" stroke-dasharray="2,3" /><text x="62" y="163.81376640988066" text-anchor="end" fill="#8a8a8a" font-size="9">10</text><text x="20" y="215" text-anchor="middle" fill="#5a5a5a" font-size="10" transform="rotate(-90 20 215)">WMAE (minutes)</text><line x1="70" y1="340" x2="940" y2="340" stroke="#a8a89a" stroke-width="1.5" /><line x1="70" y1="90" x2="70" y2="340" stroke="#a8a89a" stroke-width="1.5" /><path d="M70.0,195.0 L79.3,226.8 L88.5,226.8 L97.8,228.8 L107.0,229.2 L116.3,228.8 L125.5,229.2 L134.8,229.2 L144.0,229.2 L153.3,229.2 L162.6,229.2 L171.8,90.0 L181.1,112.7 L190.3,112.7 L199.6,115.7 L208.8,115.7 L218.1,115.7 L227.3,117.3 L236.6,117.3 L245.9,117.3 L255.1,125.1 L264.4,125.1 L273.6,125.1 L282.9,125.1 L292.1,125.0 L301.4,127.9 L310.6,127.9 L319.9,127.9 L329.1,127.9 L338.4,131.1 L347.7,131.3 L356.9,131.1 L366.2,131.1 L375.4,131.1 L384.7,131.1 L393.9,201.7 L403.2,201.7 L412.4,201.7 L421.7,202.2 L431.0,202.2 L440.2,219.2 L449.5,216.6 L458.7,215.1 L468.0,215.6 L477.2,131.1 L486.5,146.9 L495.7,146.9 L505.0,150.3 L514.3,150.3 L523.5,150.3 L532.8,150.3 L569.8,218.8 L579.0,148.7 L588.3,257.3 L597.6,273.3 L606.8,257.3 L616.1,257.3 L625.3,257.3 L634.6,273.3 L643.8,274.0 L653.1,274.0 L662.3,274.0 L671.6,274.0 L680.9,274.0 L690.1,274.7 L699.4,274.8 L708.6,177.0 L717.9,193.8 L727.1,184.7 L736.4,184.7 L745.6,184.7 L754.9,190.0 L764.1,190.0 L773.4,190.0 L782.7,190.0 L791.9,187.2 L801.2,187.2 L810.4,187.2 L819.7,187.2 L828.9,187.2 L838.2,187.2 L847.4,190.0 L856.7,190.0 L866.0,190.0 L875.2,190.0 L884.5,207.4 L893.7,207.4 L903.0,207.4 L912.2,219.6 L921.5,211.1 L930.7,208.0 L940.0,204.9 " fill="none" stroke="#7a4d9c" stroke-width="2" opacity="0.7" /><circle cx="70" cy="194.9947817313543" r="3.5" fill="#fafaf7" stroke="#7a4d9c" stroke-width="1.8" /><circle cx="79.25531914893617" cy="226.8109583600546" r="3.5" fill="#fafaf7" stroke="#7a4d9c" stroke-width="1.8" /><circle cx="88.51063829787233" cy="226.8109583600546" r="3.5" fill="#fafaf7" stroke="#7a4d9c" stroke-width="1.8" /><circle cx="97.7659574468085" cy="228.772722345554" r="3.5" fill="#fafaf7" stroke="#7a4d9c" stroke-width="1.8" /><circle cx="107.02127659574468" cy="229.2302026271809" r="3.5" fill="#fafaf7" stroke="#7a4d9c" stroke-width="1.8" /><circle cx="116.27659574468086" cy="228.772722345554" r="3.5" fill="#fafaf7" stroke="#7a4d9c" stroke-width="1.8" /><circle cx="125.53191489361701" cy="229.2302026271809" r="3.5" fill="#fafaf7" stroke="#7a4d9c" stroke-width="1.8" /><circle cx="134.7872340425532" cy="229.2302026271809" r="3.5" fill="#fafaf7" stroke="#7a4d9c" stroke-width="1.8" /><circle cx="144.04255319148936" cy="229.2302026271809" r="3.5" fill="#fafaf7" stroke="#7a4d9c" stroke-width="1.8" /><circle cx="153.29787234042553" cy="229.2302026271809" r="3.5" fill="#fafaf7" stroke="#7a4d9c" stroke-width="1.8" /><circle cx="162.55319148936172" cy="229.2302026271809" r="3.5" fill="#fafaf7" stroke="#7a4d9c" stroke-width="1.8" /><circle cx="171.8085106382979" cy="90" r="3.5" fill="#fafaf7" stroke="#7a4d9c" stroke-width="1.8" /><text x="171.8085106382979" y="82" text-anchor="middle" fill="#7a4d9c" font-size="9" font-weight="bold">↑</text><circle cx="181.06382978723403" cy="112.72727272727276" r="3.5" fill="#fafaf7" stroke="#7a4d9c" stroke-width="1.8" /><circle cx="190.31914893617022" cy="112.72727272727276" r="3.5" fill="#fafaf7" stroke="#7a4d9c" stroke-width="1.8" /><circle cx="199.5744680851064" cy="115.65230683498123" r="3.5" fill="#fafaf7" stroke="#7a4d9c" stroke-width="1.8" /><circle cx="208.82978723404256" cy="115.65230683498123" r="3.5" fill="#fafaf7" stroke="#7a4d9c" stroke-width="1.8" /><circle cx="218.08510638297872" cy="115.65230683498123" r="3.5" fill="#fafaf7" stroke="#7a4d9c" stroke-width="1.8" /><circle cx="227.34042553191492" cy="117.29044426813904" r="3.5" fill="#fafaf7" stroke="#7a4d9c" stroke-width="1.8" /><circle cx="236.59574468085106" cy="117.29044426813904" r="3.5" fill="#fafaf7" stroke="#7a4d9c" stroke-width="1.8" /><circle cx="245.85106382978722" cy="117.29044426813904" r="3.5" fill="#fafaf7" stroke="#7a4d9c" stroke-width="1.8" /><circle cx="255.10638297872342" cy="125.06395963877932" r="3.5" fill="#fafaf7" stroke="#7a4d9c" stroke-width="1.8" /><circle cx="264.36170212765956" cy="125.06395963877932" r="3.5" fill="#fafaf7" stroke="#7a4d9c" stroke-width="1.8" /><circle cx="273.6170212765958" cy="125.06395963877932" r="3.5" fill="#fafaf7" stroke="#7a4d9c" stroke-width="1.8" /><circle cx="282.8723404255319" cy="125.06395963877932" r="3.5" fill="#fafaf7" stroke="#7a4d9c" stroke-width="1.8" /><circle cx="292.12765957446805" cy="124.99875694254627" r="3.5" fill="#fafaf7" stroke="#7a4d9c" stroke-width="1.8" /><circle cx="301.3829787234042" cy="127.94443779318627" r="3.5" fill="#fafaf7" stroke="#7a4d9c" stroke-width="1.8" /><circle cx="310.63829787234044" cy="127.94443779318627" r="3.5" fill="#fafaf7" stroke="#7a4d9c" stroke-width="1.8" /><circle cx="319.8936170212766" cy="127.94443779318627" r="3.5" fill="#fafaf7" stroke="#7a4d9c" stroke-width="1.8" /><circle cx="329.1489361702128" cy="127.94443779318627" r="3.5" fill="#fafaf7" stroke="#7a4d9c" stroke-width="1.8" /><circle cx="338.40425531914894" cy="131.05309141622166" r="3.5" fill="#fafaf7" stroke="#7a4d9c" stroke-width="1.8" /><circle cx="347.6595744680851" cy="131.29989682951978" r="3.5" fill="#fafaf7" stroke="#7a4d9c" stroke-width="1.8" /><circle cx="356.9148936170213" cy="131.05309141622166" r="3.5" fill="#fafaf7" stroke="#7a4d9c" stroke-width="1.8" /><circle cx="366.17021276595744" cy="131.05309141622166" r="3.5" fill="#fafaf7" stroke="#7a4d9c" stroke-width="1.8" /><circle cx="375.4255319148936" cy="131.05309141622166" r="3.5" fill="#fafaf7" stroke="#7a4d9c" stroke-width="1.8" /><circle cx="384.68085106382983" cy="131.05309141622166" r="3.5" fill="#fafaf7" stroke="#7a4d9c" stroke-width="1.8" /><circle cx="393.93617021276594" cy="201.6790029474244" r="3.5" fill="#fafaf7" stroke="#7a4d9c" stroke-width="1.8" /><circle cx="403.1914893617021" cy="201.6790029474244" r="3.5" fill="#fafaf7" stroke="#7a4d9c" stroke-width="1.8" /><circle cx="412.44680851063833" cy="201.68057123888534" r="3.5" fill="#fafaf7" stroke="#7a4d9c" stroke-width="1.8" /><circle cx="421.70212765957444" cy="202.20429051520594" r="3.5" fill="#fafaf7" stroke="#7a4d9c" stroke-width="1.8" /><circle cx="430.9574468085106" cy="202.20429051520594" r="3.5" fill="#fafaf7" stroke="#7a4d9c" stroke-width="1.8" /><circle cx="440.21276595744683" cy="219.1856825607131" r="3.5" fill="#fafaf7" stroke="#7a4d9c" stroke-width="1.8" /><circle cx="449.468085106383" cy="216.6377814257291" r="3.5" fill="#fafaf7" stroke="#7a4d9c" stroke-width="1.8" /><circle cx="458.7234042553191" cy="215.14847502397384" r="3.5" fill="#fafaf7" stroke="#7a4d9c" stroke-width="1.8" /><circle cx="467.97872340425533" cy="215.5838243131849" r="3.5" fill="#fafaf7" stroke="#7a4d9c" stroke-width="1.8" /><circle cx="477.2340425531915" cy="131.05309141622166" r="3.5" fill="#fafaf7" stroke="#7a4d9c" stroke-width="1.8" /><circle cx="486.48936170212767" cy="146.8596069967834" r="3.5" fill="#fafaf7" stroke="#7a4d9c" stroke-width="1.8" /><circle cx="495.74468085106383" cy="146.8596069967834" r="3.5" fill="#fafaf7" stroke="#7a4d9c" stroke-width="1.8" /><circle cx="505" cy="150.25912304143466" r="3.5" fill="#fafaf7" stroke="#7a4d9c" stroke-width="1.8" /><circle cx="514.2553191489361" cy="150.25912304143466" r="3.5" fill="#fafaf7" stroke="#7a4d9c" stroke-width="1.8" /><circle cx="523.5106382978724" cy="150.25912304143466" r="3.5" fill="#fafaf7" stroke="#7a4d9c" stroke-width="1.8" /><circle cx="532.7659574468084" cy="150.25912304143466" r="3.5" fill="#fafaf7" stroke="#7a4d9c" stroke-width="1.8" /><circle cx="569.7872340425532" cy="218.76864939650912" r="3.5" fill="#fafaf7" stroke="#7a4d9c" stroke-width="1.8" /><circle cx="579.0425531914893" cy="148.69145161992972" r="3.5" fill="#fafaf7" stroke="#7a4d9c" stroke-width="1.8" /><circle cx="588.2978723404256" cy="257.3022064977582" r="3.5" fill="#fafaf7" stroke="#7a4d9c" stroke-width="1.8" /><circle cx="597.5531914893618" cy="273.31079454725807" r="3.5" fill="#fafaf7" stroke="#7a4d9c" stroke-width="1.8" /><circle cx="606.8085106382979" cy="257.3022064977582" r="3.5" fill="#fafaf7" stroke="#7a4d9c" stroke-width="1.8" /><circle cx="616.063829787234" cy="257.3022064977582" r="3.5" fill="#fafaf7" stroke="#7a4d9c" stroke-width="1.8" /><circle cx="625.3191489361702" cy="257.3022064977582" r="3.5" fill="#fafaf7" stroke="#7a4d9c" stroke-width="1.8" /><circle cx="634.5744680851063" cy="273.31079454725807" r="3.5" fill="#fafaf7" stroke="#7a4d9c" stroke-width="1.8" /><circle cx="643.8297872340426" cy="274.0031208474618" r="3.5" fill="#fafaf7" stroke="#7a4d9c" stroke-width="1.8" /><circle cx="653.0851063829788" cy="274.0083035770952" r="3.5" fill="#fafaf7" stroke="#7a4d9c" stroke-width="1.8" /><circle cx="662.3404255319149" cy="274.0083035770952" r="3.5" fill="#fafaf7" stroke="#7a4d9c" stroke-width="1.8" /><circle cx="671.5957446808511" cy="274.0083035770952" r="3.5" fill="#fafaf7" stroke="#7a4d9c" stroke-width="1.8" /><circle cx="680.8510638297872" cy="274.0083035770952" r="3.5" fill="#fafaf7" stroke="#7a4d9c" stroke-width="1.8" /><circle cx="690.1063829787233" cy="274.6958790418015" r="3.5" fill="#fafaf7" stroke="#7a4d9c" stroke-width="1.8" /><circle cx="699.3617021276597" cy="274.8409954715386" r="3.5" fill="#fafaf7" stroke="#7a4d9c" stroke-width="1.8" /><circle cx="708.6170212765958" cy="177.01908533888863" r="3.5" fill="#fafaf7" stroke="#7a4d9c" stroke-width="1.8" /><circle cx="717.8723404255319" cy="193.76564592228615" r="3.5" fill="#fafaf7" stroke="#7a4d9c" stroke-width="1.8" /><circle cx="727.1276595744681" cy="184.72472833894497" r="3.5" fill="#fafaf7" stroke="#7a4d9c" stroke-width="1.8" /><circle cx="736.3829787234042" cy="184.72472833894497" r="3.5" fill="#fafaf7" stroke="#7a4d9c" stroke-width="1.8" /><circle cx="745.6382978723403" cy="184.72472833894497" r="3.5" fill="#fafaf7" stroke="#7a4d9c" stroke-width="1.8" /><circle cx="754.8936170212767" cy="189.99865100467304" r="3.5" fill="#fafaf7" stroke="#7a4d9c" stroke-width="1.8" /><circle cx="764.1489361702128" cy="189.99865100467304" r="3.5" fill="#fafaf7" stroke="#7a4d9c" stroke-width="1.8" /><circle cx="773.4042553191489" cy="189.99865100467304" r="3.5" fill="#fafaf7" stroke="#7a4d9c" stroke-width="1.8" /><circle cx="782.6595744680851" cy="189.99865100467304" r="3.5" fill="#fafaf7" stroke="#7a4d9c" stroke-width="1.8" /><circle cx="791.9148936170212" cy="187.18629014317713" r="3.5" fill="#fafaf7" stroke="#7a4d9c" stroke-width="1.8" /><circle cx="801.1702127659574" cy="187.18629014317713" r="3.5" fill="#fafaf7" stroke="#7a4d9c" stroke-width="1.8" /><circle cx="810.4255319148937" cy="187.18629014317713" r="3.5" fill="#fafaf7" stroke="#7a4d9c" stroke-width="1.8" /><circle cx="819.6808510638298" cy="187.18629014317713" r="3.5" fill="#fafaf7" stroke="#7a4d9c" stroke-width="1.8" /><circle cx="828.936170212766" cy="187.18629014317713" r="3.5" fill="#fafaf7" stroke="#7a4d9c" stroke-width="1.8" /><circle cx="838.1914893617021" cy="187.18629014317713" r="3.5" fill="#fafaf7" stroke="#7a4d9c" stroke-width="1.8" /><circle cx="847.4468085106382" cy="189.99865100467304" r="3.5" fill="#fafaf7" stroke="#7a4d9c" stroke-width="1.8" /><circle cx="856.7021276595744" cy="189.99865100467304" r="3.5" fill="#fafaf7" stroke="#7a4d9c" stroke-width="1.8" /><circle cx="865.9574468085107" cy="189.99865100467304" r="3.5" fill="#fafaf7" stroke="#7a4d9c" stroke-width="1.8" /><circle cx="875.2127659574468" cy="189.99865100467304" r="3.5" fill="#fafaf7" stroke="#7a4d9c" stroke-width="1.8" /><circle cx="884.468085106383" cy="207.38400417102963" r="3.5" fill="#fafaf7" stroke="#7a4d9c" stroke-width="1.8" /><circle cx="893.7234042553191" cy="207.38400417102963" r="3.5" fill="#fafaf7" stroke="#7a4d9c" stroke-width="1.8" /><circle cx="902.9787234042553" cy="207.44621143421122" r="3.5" fill="#fafaf7" stroke="#7a4d9c" stroke-width="1.8" /><circle cx="912.2340425531914" cy="219.6203989832575" r="3.5" fill="#fafaf7" stroke="#7a4d9c" stroke-width="1.8" /><circle cx="921.4893617021277" cy="211.10538677285814" r="3.5" fill="#fafaf7" stroke="#7a4d9c" stroke-width="1.8" /><circle cx="930.7446808510639" cy="207.96317592360253" r="3.5" fill="#fafaf7" stroke="#7a4d9c" stroke-width="1.8" /><circle cx="940" cy="204.8673440450319" r="3.5" fill="#fafaf7" stroke="#7a4d9c" stroke-width="1.8" /><path d="M70.0,319.2 L79.3,316.0 L88.5,316.0 L97.8,316.0 L107.0,317.7 L116.3,316.0 L125.5,317.7 L134.8,317.5 L144.0,317.5 L153.3,317.5 L162.6,317.5 L171.8,317.5 L181.1,317.5 L190.3,317.5 L199.6,317.5 L208.8,317.5 L218.1,317.5 L227.3,321.3 L236.6,321.3 L245.9,321.3 L255.1,327.3 L264.4,327.0 L273.6,327.3 L282.9,327.3 L292.1,327.7 L301.4,327.9 L310.6,327.9 L319.9,311.8 L329.1,327.9 L338.4,325.6 L347.7,324.4 L356.9,325.6 L366.2,325.5 L375.4,325.5 L384.7,325.5 L393.9,325.5 L403.2,325.5 L412.4,324.2 L421.7,325.5 L431.0,325.5 L440.2,325.5 L449.5,325.5 L458.7,320.1 L468.0,320.6 L477.2,325.5 L486.5,325.5 L495.7,325.5 L505.0,325.5 L514.3,325.5 L523.5,325.5 L532.8,325.5 L542.0,325.5 L551.3,325.5 L560.5,325.5 L569.8,325.5 L579.0,325.5 L588.3,320.8 L597.6,320.8 L606.8,320.8 L616.1,320.8 L625.3,320.8 L634.6,320.8 L643.8,320.8 L653.1,320.8 L662.3,320.8 L671.6,320.8 L680.9,320.8 L690.1,322.1 L699.4,322.4 L708.6,319.9 L717.9,322.4 L727.1,322.4 L736.4,322.4 L745.6,322.4 L754.9,322.4 L764.1,322.4 L773.4,322.4 L782.7,322.4 L791.9,322.4 L801.2,322.4 L810.4,322.4 L819.7,322.4 L828.9,322.4 L838.2,322.4 L847.4,322.4 L856.7,322.4 L866.0,322.4 L875.2,322.4 L884.5,322.4 L893.7,322.4 L903.0,322.4 L912.2,322.4 L921.5,322.4 L930.7,322.4 L940.0,322.4 " fill="none" stroke="#1f7a4d" stroke-width="2.5" /><circle cx="70" cy="319.16310711887974" r="3.5" fill="#1f7a4d" /><circle cx="79.25531914893617" cy="316.0416461344497" r="3.5" fill="#1f7a4d" /><circle cx="88.51063829787233" cy="316.0416461344497" r="3.5" fill="#1f7a4d" /><circle cx="97.7659574468085" cy="316.0416461344497" r="3.5" fill="#1f7a4d" /><circle cx="107.02127659574468" cy="317.6665398480749" r="3.5" fill="#1f7a4d" /><circle cx="116.27659574468086" cy="316.0416461344497" r="3.5" fill="#1f7a4d" /><circle cx="125.53191489361701" cy="317.6665398480749" r="3.5" fill="#1f7a4d" /><circle cx="134.7872340425532" cy="317.5271100244635" r="3.5" fill="#1f7a4d" /><circle cx="144.04255319148936" cy="317.5271100244635" r="3.5" fill="#1f7a4d" /><circle cx="153.29787234042553" cy="317.5271100244635" r="3.5" fill="#1f7a4d" /><circle cx="162.55319148936172" cy="317.5271100244635" r="3.5" fill="#1f7a4d" /><circle cx="171.8085106382979" cy="317.5271100244635" r="3.5" fill="#1f7a4d" /><circle cx="181.06382978723403" cy="317.5271100244635" r="3.5" fill="#1f7a4d" /><circle cx="190.31914893617022" cy="317.5271100244635" r="3.5" fill="#1f7a4d" /><circle cx="199.5744680851064" cy="317.5271100244635" r="3.5" fill="#1f7a4d" /><circle cx="208.82978723404256" cy="317.5271100244635" r="3.5" fill="#1f7a4d" /><circle cx="218.08510638297872" cy="317.5271100244635" r="3.5" fill="#1f7a4d" /><circle cx="227.34042553191492" cy="321.2705882084667" r="3.5" fill="#1f7a4d" /><circle cx="236.59574468085106" cy="321.2705882084667" r="3.5" fill="#1f7a4d" /><circle cx="245.85106382978722" cy="321.2705882084667" r="3.5" fill="#1f7a4d" /><circle cx="255.10638297872342" cy="327.3192009409447" r="3.5" fill="#1f7a4d" /><circle cx="264.36170212765956" cy="327.01763782828954" r="3.5" fill="#1f7a4d" /><circle cx="273.6170212765958" cy="327.3192009409447" r="3.5" fill="#1f7a4d" /><circle cx="282.8723404255319" cy="327.3192009409447" r="3.5" fill="#1f7a4d" /><circle cx="292.12765957446805" cy="327.7221018359288" r="3.5" fill="#1f7a4d" /><circle cx="301.3829787234042" cy="327.8704666441763" r="3.5" fill="#1f7a4d" /><circle cx="310.63829787234044" cy="327.8704666441763" r="3.5" fill="#1f7a4d" /><circle cx="319.8936170212766" cy="311.7704434196404" r="3.5" fill="#1f7a4d" /><circle cx="329.1489361702128" cy="327.8704666441763" r="3.5" fill="#1f7a4d" /><circle cx="338.40425531914894" cy="325.6243201174626" r="3.5" fill="#1f7a4d" /><circle cx="347.6595744680851" cy="324.3795728297509" r="3.5" fill="#1f7a4d" /><circle cx="356.9148936170213" cy="325.6243201174626" r="3.5" fill="#1f7a4d" /><circle cx="366.17021276595744" cy="325.54852849591634" r="3.5" fill="#1f7a4d" /><circle cx="375.4255319148936" cy="325.54852849591634" r="3.5" fill="#1f7a4d" /><circle cx="384.68085106382983" cy="325.54852849591634" r="3.5" fill="#1f7a4d" /><circle cx="393.93617021276594" cy="325.54852849591634" r="3.5" fill="#1f7a4d" /><circle cx="403.1914893617021" cy="325.54852849591634" r="3.5" fill="#1f7a4d" /><circle cx="412.44680851063833" cy="324.17099237553055" r="3.5" fill="#1f7a4d" /><circle cx="421.70212765957444" cy="325.54852849591634" r="3.5" fill="#1f7a4d" /><circle cx="430.9574468085106" cy="325.54852849591634" r="3.5" fill="#1f7a4d" /><circle cx="440.21276595744683" cy="325.54852849591634" r="3.5" fill="#1f7a4d" /><circle cx="449.468085106383" cy="325.54852849591634" r="3.5" fill="#1f7a4d" /><circle cx="458.7234042553191" cy="320.1144824394784" r="3.5" fill="#1f7a4d" /><circle cx="467.97872340425533" cy="320.5634514600518" r="3.5" fill="#1f7a4d" /><circle cx="477.2340425531915" cy="325.54852849591634" r="3.5" fill="#1f7a4d" /><circle cx="486.48936170212767" cy="325.54852849591634" r="3.5" fill="#1f7a4d" /><circle cx="495.74468085106383" cy="325.54852849591634" r="3.5" fill="#1f7a4d" /><circle cx="505" cy="325.54852849591634" r="3.5" fill="#1f7a4d" /><circle cx="514.2553191489361" cy="325.54852849591634" r="3.5" fill="#1f7a4d" /><circle cx="523.5106382978724" cy="325.54852849591634" r="3.5" fill="#1f7a4d" /><circle cx="532.7659574468084" cy="325.54852849591634" r="3.5" fill="#1f7a4d" /><circle cx="542.0212765957447" cy="325.54852849591634" r="3.5" fill="#1f7a4d" /><circle cx="551.2765957446809" cy="325.54852849591634" r="3.5" fill="#1f7a4d" /><circle cx="560.531914893617" cy="325.54852849591634" r="3.5" fill="#1f7a4d" /><circle cx="569.7872340425532" cy="325.54852849591634" r="3.5" fill="#1f7a4d" /><circle cx="579.0425531914893" cy="325.54852849591634" r="3.5" fill="#1f7a4d" /><circle cx="588.2978723404256" cy="320.7781396658514" r="3.5" fill="#1f7a4d" /><circle cx="597.5531914893618" cy="320.7781396658514" r="3.5" fill="#1f7a4d" /><circle cx="606.8085106382979" cy="320.7781396658514" r="3.5" fill="#1f7a4d" /><circle cx="616.063829787234" cy="320.7781396658514" r="3.5" fill="#1f7a4d" /><circle cx="625.3191489361702" cy="320.7781396658514" r="3.5" fill="#1f7a4d" /><circle cx="634.5744680851063" cy="320.7781396658514" r="3.5" fill="#1f7a4d" /><circle cx="643.8297872340426" cy="320.7781396658514" r="3.5" fill="#1f7a4d" /><circle cx="653.0851063829788" cy="320.7781396658514" r="3.5" fill="#1f7a4d" /><circle cx="662.3404255319149" cy="320.7781396658514" r="3.5" fill="#1f7a4d" /><circle cx="671.5957446808511" cy="320.7781396658514" r="3.5" fill="#1f7a4d" /><circle cx="680.8510638297872" cy="320.7781396658514" r="3.5" fill="#1f7a4d" /><circle cx="690.1063829787233" cy="322.1070879667486" r="3.5" fill="#1f7a4d" /><circle cx="699.3617021276597" cy="322.41837315434617" r="3.5" fill="#1f7a4d" /><circle cx="708.6170212765958" cy="319.9280916535658" r="3.5" fill="#1f7a4d" /><circle cx="717.8723404255319" cy="322.41837315434617" r="3.5" fill="#1f7a4d" /><circle cx="727.1276595744681" cy="322.41837315434617" r="3.5" fill="#1f7a4d" /><circle cx="736.3829787234042" cy="322.41837315434617" r="3.5" fill="#1f7a4d" /><circle cx="745.6382978723403" cy="322.41837315434617" r="3.5" fill="#1f7a4d" /><circle cx="754.8936170212767" cy="322.41837315434617" r="3.5" fill="#1f7a4d" /><circle cx="764.1489361702128" cy="322.41837315434617" r="3.5" fill="#1f7a4d" /><circle cx="773.4042553191489" cy="322.41837315434617" r="3.5" fill="#1f7a4d" /><circle cx="782.6595744680851" cy="322.41837315434617" r="3.5" fill="#1f7a4d" /><circle cx="791.9148936170212" cy="322.41837315434617" r="3.5" fill="#1f7a4d" /><circle cx="801.1702127659574" cy="322.41837315434617" r="3.5" fill="#1f7a4d" /><circle cx="810.4255319148937" cy="322.41837315434617" r="3.5" fill="#1f7a4d" /><circle cx="819.6808510638298" cy="322.41837315434617" r="3.5" fill="#1f7a4d" /><circle cx="828.936170212766" cy="322.41837315434617" r="3.5" fill="#1f7a4d" /><circle cx="838.1914893617021" cy="322.41837315434617" r="3.5" fill="#1f7a4d" /><circle cx="847.4468085106382" cy="322.41837315434617" r="3.5" fill="#1f7a4d" /><circle cx="856.7021276595744" cy="322.41837315434617" r="3.5" fill="#1f7a4d" /><circle cx="865.9574468085107" cy="322.41837315434617" r="3.5" fill="#1f7a4d" /><circle cx="875.2127659574468" cy="322.41837315434617" r="3.5" fill="#1f7a4d" /><circle cx="884.468085106383" cy="322.41837315434617" r="3.5" fill="#1f7a4d" /><circle cx="893.7234042553191" cy="322.41837315434617" r="3.5" fill="#1f7a4d" /><circle cx="902.9787234042553" cy="322.41837315434617" r="3.5" fill="#1f7a4d" /><circle cx="912.2340425531914" cy="322.41837315434617" r="3.5" fill="#1f7a4d" /><circle cx="921.4893617021277" cy="322.41837315434617" r="3.5" fill="#1f7a4d" /><circle cx="930.7446808510639" cy="322.41837315434617" r="3.5" fill="#1f7a4d" /><circle cx="940" cy="322.41837315434617" r="3.5" fill="#1f7a4d" /><line x1="70" y1="90" x2="70" y2="340" stroke="#c83030" stroke-width="1" stroke-dasharray="3,3" opacity="0.5" /><rect x="48" y="75" width="44" height="14" rx="3" fill="#c83030" opacity="0.9" /><text x="70" y="86" text-anchor="middle" fill="white" font-size="9" font-weight="600">v1.0</text><text x="76" y="311.16310711887974" fill="#1f7a4d" font-size="9" font-weight="600">1.16</text><text x="76" y="186.9947817313543" fill="#7a4d9c" font-size="9" font-weight="600">8.0</text><line x1="134.7872340425532" y1="90" x2="134.7872340425532" y2="340" stroke="#c83030" stroke-width="1" stroke-dasharray="3,3" opacity="0.5" /><rect x="112.7872340425532" y="61" width="44" height="14" rx="3" fill="#c83030" opacity="0.9" /><text x="134.7872340425532" y="72" text-anchor="middle" fill="white" font-size="9" font-weight="600">v1.1.1</text><text x="140.7872340425532" y="309.5271100244635" fill="#1f7a4d" font-size="9" font-weight="600">1.25</text><text x="140.7872340425532" y="221.2302026271809" fill="#7a4d9c" font-size="9" font-weight="600">6.1</text><line x1="153.29787234042553" y1="90" x2="153.29787234042553" y2="340" stroke="#c83030" stroke-width="1" stroke-dasharray="3,3" opacity="0.5" /><rect x="131.29787234042553" y="75" width="44" height="14" rx="3" fill="#c83030" opacity="0.9" /><text x="153.29787234042553" y="86" text-anchor="middle" fill="white" font-size="9" font-weight="600">v1.2</text><text x="159.29787234042553" y="309.5271100244635" fill="#1f7a4d" font-size="9" font-weight="600">1.25</text><text x="159.29787234042553" y="221.2302026271809" fill="#7a4d9c" font-size="9" font-weight="600">6.1</text><line x1="162.55319148936172" y1="90" x2="162.55319148936172" y2="340" stroke="#c83030" stroke-width="1" stroke-dasharray="3,3" opacity="0.5" /><rect x="140.55319148936172" y="61" width="44" height="14" rx="3" fill="#c83030" opacity="0.9" /><text x="162.55319148936172" y="72" text-anchor="middle" fill="white" font-size="9" font-weight="600">v1.3</text><text x="168.55319148936172" y="309.5271100244635" fill="#1f7a4d" font-size="9" font-weight="600">1.25</text><text x="168.55319148936172" y="221.2302026271809" fill="#7a4d9c" font-size="9" font-weight="600">6.1</text><line x1="199.5744680851064" y1="90" x2="199.5744680851064" y2="340" stroke="#c83030" stroke-width="1" stroke-dasharray="3,3" opacity="0.5" /><rect x="177.5744680851064" y="75" width="44" height="14" rx="3" fill="#c83030" opacity="0.9" /><text x="199.5744680851064" y="86" text-anchor="middle" fill="white" font-size="9" font-weight="600">v1.4</text><text x="205.5744680851064" y="309.5271100244635" fill="#1f7a4d" font-size="9" font-weight="600">1.25</text><text x="205.5744680851064" y="107.65230683498123" fill="#7a4d9c" font-size="9" font-weight="600">12.5</text><line x1="227.34042553191492" y1="90" x2="227.34042553191492" y2="340" stroke="#c83030" stroke-width="1" stroke-dasharray="3,3" opacity="0.5" /><rect x="205.34042553191492" y="61" width="44" height="14" rx="3" fill="#c83030" opacity="0.9" /><text x="227.34042553191492" y="72" text-anchor="middle" fill="white" font-size="9" font-weight="600">v1.4.1</text><text x="233.34042553191492" y="313.2705882084667" fill="#1f7a4d" font-size="9" font-weight="600">1.04</text><text x="233.34042553191492" y="109.29044426813904" fill="#7a4d9c" font-size="9" font-weight="600">12.4</text><line x1="255.10638297872342" y1="90" x2="255.10638297872342" y2="340" stroke="#c83030" stroke-width="1" stroke-dasharray="3,3" opacity="0.5" /><rect x="233.10638297872342" y="75" width="44" height="14" rx="3" fill="#c83030" opacity="0.9" /><text x="255.10638297872342" y="86" text-anchor="middle" fill="white" font-size="9" font-weight="600">v1.4.3</text><text x="261.10638297872345" y="319.3192009409447" fill="#1f7a4d" font-size="9" font-weight="600">0.70</text><text x="261.10638297872345" y="117.06395963877932" fill="#7a4d9c" font-size="9" font-weight="600">11.9</text><line x1="292.12765957446805" y1="90" x2="292.12765957446805" y2="340" stroke="#c83030" stroke-width="1" stroke-dasharray="3,3" opacity="0.5" /><rect x="270.12765957446805" y="61" width="44" height="14" rx="3" fill="#c83030" opacity="0.9" /><text x="292.12765957446805" y="72" text-anchor="middle" fill="white" font-size="9" font-weight="600">v1.4.4</text><text x="298.12765957446805" y="319.7221018359288" fill="#1f7a4d" font-size="9" font-weight="600">0.68</text><text x="298.12765957446805" y="116.99875694254627" fill="#7a4d9c" font-size="9" font-weight="600">11.9</text><line x1="301.3829787234042" y1="90" x2="301.3829787234042" y2="340" stroke="#c83030" stroke-width="1" stroke-dasharray="3,3" opacity="0.5" /><rect x="279.3829787234042" y="75" width="44" height="14" rx="3" fill="#c83030" opacity="0.9" /><text x="301.3829787234042" y="86" text-anchor="middle" fill="white" font-size="9" font-weight="600">v1.4.5</text><text x="307.3829787234042" y="319.8704666441763" fill="#1f7a4d" font-size="9" font-weight="600">0.67</text><text x="307.3829787234042" y="119.94443779318627" fill="#7a4d9c" font-size="9" font-weight="600">11.8</text><line x1="356.9148936170213" y1="90" x2="356.9148936170213" y2="340" stroke="#c83030" stroke-width="1" stroke-dasharray="3,3" opacity="0.5" /><rect x="334.9148936170213" y="61" width="44" height="14" rx="3" fill="#c83030" opacity="0.9" /><text x="356.9148936170213" y="72" text-anchor="middle" fill="white" font-size="9" font-weight="600">v1.5.0</text><text x="362.9148936170213" y="317.6243201174626" fill="#1f7a4d" font-size="9" font-weight="600">0.80</text><text x="362.9148936170213" y="123.05309141622166" fill="#7a4d9c" font-size="9" font-weight="600">11.6</text><text x="70" y="372" fill="#1a1a1a" font-size="12" font-weight="600">Release timeline</text><text x="70" y="390" fill="#1a1a1a" font-size="11"><tspan font-weight="700" fill="#c83030">v1.0</tspan><tspan dx="8" fill="#1f7a4d">train 1.16</tspan><tspan dx="6" fill="#7a4d9c">holdout 8.05</tspan><tspan dx="10" fill="#5a5a5a">baseline (corpus + ratchet established)</tspan></text><text x="70" y="406" fill="#1a1a1a" font-size="11"><tspan font-weight="700" fill="#c83030">v1.1.1</tspan><tspan dx="8" fill="#1f7a4d">train 1.25</tspan><tspan dx="6" fill="#7a4d9c">holdout 6.15</tspan><tspan dx="10" fill="#5a5a5a">dayTimes elevation fix + npm publish CI</tspan></text><text x="70" y="422" fill="#1a1a1a" font-size="11"><tspan font-weight="700" fill="#c83030">v1.2</tspan><tspan dx="8" fill="#1f7a4d">train 1.25</tspan><tspan dx="6" fill="#7a4d9c">holdout 6.15</tspan><tspan dx="10" fill="#5a5a5a">notes field + scholarly grounding (13 papers)</tspan></text><text x="70" y="438" fill="#1a1a1a" font-size="11"><tspan font-weight="700" fill="#c83030">v1.3</tspan><tspan dx="8" fill="#1f7a4d">train 1.25</tspan><tspan dx="6" fill="#7a4d9c">holdout 6.15</tspan><tspan dx="10" fill="#5a5a5a">applyTayakkunBuffer + tarabishyTimes (Aabed/Tarabishy)</tspan></text><text x="70" y="454" fill="#1a1a1a" font-size="11"><tspan font-weight="700" fill="#c83030">v1.4</tspan><tspan dx="8" fill="#1f7a4d">train 1.25</tspan><tspan dx="6" fill="#7a4d9c">holdout 12.45</tspan><tspan dx="10" fill="#5a5a5a">world-coverage eval (163 countries) + 9 engine bboxes</tspan></text><text x="70" y="470" fill="#1a1a1a" font-size="11"><tspan font-weight="700" fill="#c83030">v1.4.1</tspan><tspan dx="8" fill="#1f7a4d">train 1.04</tspan><tspan dx="6" fill="#7a4d9c">holdout 12.36</tspan><tspan dx="10" fill="#5a5a5a">JAKIM Path A ihtiyati offset (train −16.6%)</tspan></text><text x="70" y="486" fill="#1a1a1a" font-size="11"><tspan font-weight="700" fill="#c83030">v1.4.3</tspan><tspan dx="8" fill="#1f7a4d">train 0.70</tspan><tspan dx="6" fill="#7a4d9c">holdout 11.93</tspan><tspan dx="10" fill="#5a5a5a">eval elevation-policy fix (train −32% to 0.70)</tspan></text><text x="70" y="502" fill="#1a1a1a" font-size="11"><tspan font-weight="700" fill="#c83030">v1.4.4</tspan><tspan dx="8" fill="#1f7a4d">train 0.68</tspan><tspan dx="6" fill="#7a4d9c">holdout 11.93</tspan><tspan dx="10" fill="#5a5a5a">JAKIM Isha +1min Path A (train 0.70 → 0.68)</tspan></text><text x="70" y="518" fill="#1a1a1a" font-size="11"><tspan font-weight="700" fill="#c83030">v1.4.5</tspan><tspan dx="8" fill="#1f7a4d">train 0.67</tspan><tspan dx="6" fill="#7a4d9c">holdout 11.77</tspan><tspan dx="10" fill="#5a5a5a">Diyanet Maghrib/Isha −1min Path A + corpus curation (train 0.68 → 0.67)</tspan></text><text x="70" y="534" fill="#1a1a1a" font-size="11"><tspan font-weight="700" fill="#c83030">v1.5.0</tspan><tspan dx="8" fill="#1f7a4d">train 0.80</tspan><tspan dx="6" fill="#7a4d9c">holdout 11.60</tspan><tspan dx="10" fill="#5a5a5a">Morocco Maghrib +5min Path A + 23-mosque Mawaqit-Morocco corpus (clean −0.07)</tspan></text><rect x="714" y="86" width="216" height="40" rx="3" fill="#fafaf7" stroke="#dcdcd0" /><circle cx="728" cy="98" r="4" fill="#1f7a4d" /><text x="738" y="101" fill="#1a1a1a" font-size="10">Train WMAE (ratchet)</text><circle cx="728" cy="116" r="4" fill="#fafaf7" stroke="#7a4d9c" stroke-width="1.5" /><text x="738" y="119" fill="#1a1a1a" font-size="10">Holdout WMAE (diagnostic)</text></svg>