<svg xmlns="http://www.w3.org/2000/svg" viewBox="0 0 2320 380" width="2320" height="380" font-family="-apple-system, BlinkMacSystemFont, 'Segoe UI', system-ui, sans-serif" font-size="11"><rect width="2320" height="380" fill="#fafaf7" /><text x="1160" y="26" text-anchor="middle" fill="#1a1a1a" font-size="17" font-weight="600">WMAE per region — latest run</text><line x1="60" y1="250" x2="2180" y2="250" stroke="#dcdcd0" stroke-width="0.5" /><text x="54" y="253" text-anchor="end" fill="#1a1a1a">0.00</text><line x1="60" y1="210" x2="2180" y2="210" stroke="#dcdcd0" stroke-width="0.5" /><text x="54" y="213" text-anchor="end" fill="#1a1a1a">10.00</text><line x1="60" y1="170" x2="2180" y2="170" stroke="#dcdcd0" stroke-width="0.5" /><text x="54" y="173" text-anchor="end" fill="#1a1a1a">20.00</text><line x1="60" y1="130" x2="2180" y2="130" stroke="#dcdcd0" stroke-width="0.5" /><text x="54" y="133" text-anchor="end" fill="#1a1a1a">30.00</text><line x1="60" y1="90" x2="2180" y2="90" stroke="#dcdcd0" stroke-width="0.5" /><text x="54" y="93" text-anchor="end" fill="#1a1a1a">40.00</text><line x1="60" y1="50" x2="2180" y2="50" stroke="#dcdcd0" stroke-width="0.5" /><text x="54" y="53" text-anchor="end" fill="#1a1a1a">50.00</text><text x="22" y="150" transform="rotate(-90 22 150)" text-anchor="middle" fill="#1a1a1a">WMAE (min)</text><rect x="92.17647058823529" y="90.53766714285717" width="24.941176470588236" height="159.46233285714283" fill="#7a4d9c" /><text x="104.6470588235294" y="87.53766714285717" text-anchor="middle" fill="#1a1a1a" font-size="9">39.87</text><text x="91.17647058823529" y="262" transform="rotate(-35 91.17647058823529 262)" text-anchor="end" fill="#1a1a1a" font-size="10">Longyearbyen</text><rect x="154.52941176470588" y="235.42857142857142" width="24.941176470588236" height="14.571428571428584" fill="#7a4d9c" /><text x="167" y="232.42857142857142" text-anchor="middle" fill="#1a1a1a" font-size="9">3.64</text><text x="153.52941176470588" y="262" transform="rotate(-35 153.52941176470588 262)" text-anchor="end" fill="#1a1a1a" font-size="10">Limoges</text><rect x="216.88235294117646" y="236.1685700680272" width="24.941176470588236" height="13.831429931972792" fill="#7a4d9c" /><text x="229.35294117647058" y="233.1685700680272" text-anchor="middle" fill="#1a1a1a" font-size="9">3.46</text><text x="215.88235294117646" y="262" transform="rotate(-35 215.88235294117646 262)" text-anchor="end" fill="#1a1a1a" font-size="10">La Paz</text><rect x="279.2352941176471" y="236.47036598639457" width="24.941176470588236" height="13.529634013605431" fill="#7a4d9c" /><text x="291.7058823529412" y="233.47036598639457" text-anchor="middle" fill="#1a1a1a" font-size="9">3.38</text><text x="278.2352941176471" y="262" transform="rotate(-35 278.2352941176471 262)" text-anchor="end" fill="#1a1a1a" font-size="10">Helsinki</text><rect x="341.5882352941176" y="237.88959047619048" width="24.941176470588236" height="12.110409523809523" fill="#7a4d9c" /><text x="354.05882352941177" y="234.88959047619048" text-anchor="middle" fill="#1a1a1a" font-size="9">3.03</text><text x="340.5882352941176" y="262" transform="rotate(-35 340.5882352941176 262)" text-anchor="end" fill="#1a1a1a" font-size="10">Bogota</text><rect x="403.94117647058823" y="237.9784319327731" width="24.941176470588236" height="12.021568067226895" fill="#7a4d9c" /><text x="416.4117647058824" y="234.9784319327731" text-anchor="middle" fill="#1a1a1a" font-size="9">3.01</text><text x="402.94117647058823" y="262" transform="rotate(-35 402.94117647058823 262)" text-anchor="end" fill="#1a1a1a" font-size="10">Reykjavik</text><rect x="466.29411764705884" y="238.85714285714286" width="24.941176470588236" height="11.142857142857139" fill="#7a4d9c" /><text x="478.764705882353" y="235.85714285714286" text-anchor="middle" fill="#1a1a1a" font-size="9">2.79</text><text x="465.29411764705884" y="262" transform="rotate(-35 465.29411764705884 262)" text-anchor="end" fill="#1a1a1a" font-size="10">Mulhouse</text><rect x="501.70588235294116" y="238.86553333333333" width="24.941176470588236" height="11.134466666666668" fill="#1f7a4d" /><text x="514.1764705882352" y="235.86553333333333" text-anchor="middle" fill="#1a1a1a" font-size="9">2.78</text><rect x="528.6470588235294" y="244.64380423280423" width="24.941176470588236" height="5.356195767195771" fill="#7a4d9c" /><text x="541.1176470588235" y="241.64380423280423" text-anchor="middle" fill="#1a1a1a" font-size="9">1.34</text><text x="527.6470588235294" y="262" transform="rotate(-35 527.6470588235294 262)" text-anchor="end" fill="#1a1a1a" font-size="10">Cairo</text><rect x="564.0588235294117" y="239.16714095238095" width="24.941176470588236" height="10.832859047619053" fill="#1f7a4d" /><text x="576.5294117647059" y="236.16714095238095" text-anchor="middle" fill="#1a1a1a" font-size="9">2.71</text><text x="590" y="262" transform="rotate(-35 590 262)" text-anchor="end" fill="#1a1a1a" font-size="10">Alexandria</text><rect x="626.4117647058823" y="239.4350723809524" width="24.941176470588236" height="10.564927619047609" fill="#1f7a4d" /><text x="638.8823529411765" y="236.4350723809524" text-anchor="middle" fill="#1a1a1a" font-size="9">2.64</text><text x="652.3529411764706" y="262" transform="rotate(-35 652.3529411764706 262)" text-anchor="end" fill="#1a1a1a" font-size="10">George Town</text><rect x="715.7058823529412" y="240.08967380952382" width="24.941176470588236" height="9.910326190476184" fill="#7a4d9c" /><text x="728.1764705882354" y="237.08967380952382" text-anchor="middle" fill="#1a1a1a" font-size="9">2.48</text><text x="714.7058823529412" y="262" transform="rotate(-35 714.7058823529412 262)" text-anchor="end" fill="#1a1a1a" font-size="10">Anchorage</text><rect x="751.1176470588234" y="240.24489523809524" width="24.941176470588236" height="9.75510476190476" fill="#1f7a4d" /><text x="763.5882352941176" y="237.24489523809524" text-anchor="middle" fill="#1a1a1a" font-size="9">2.44</text><text x="777.0588235294117" y="262" transform="rotate(-35 777.0588235294117 262)" text-anchor="end" fill="#1a1a1a" font-size="10">Shah Alam</text><rect x="840.4117647058823" y="240.8241619047619" width="24.941176470588236" height="9.175838095238106" fill="#7a4d9c" /><text x="852.8823529411765" y="237.8241619047619" text-anchor="middle" fill="#1a1a1a" font-size="9">2.29</text><text x="839.4117647058823" y="262" transform="rotate(-35 839.4117647058823 262)" text-anchor="end" fill="#1a1a1a" font-size="10">Quito</text><rect x="902.7647058823529" y="242.5221918367347" width="24.941176470588236" height="7.477808163265308" fill="#7a4d9c" /><text x="915.2352941176471" y="239.5221918367347" text-anchor="middle" fill="#1a1a1a" font-size="9">1.87</text><text x="901.7647058823529" y="262" transform="rotate(-35 901.7647058823529 262)" text-anchor="end" fill="#1a1a1a" font-size="10">Denver</text><rect x="938.1764705882352" y="242.56440952380953" width="24.941176470588236" height="7.43559047619047" fill="#1f7a4d" /><text x="950.6470588235294" y="239.56440952380953" text-anchor="middle" fill="#1a1a1a" font-size="9">1.86</text><rect x="965.1176470588235" y="237.88053142857143" width="24.941176470588236" height="12.11946857142857" fill="#7a4d9c" /><text x="977.5882352941177" y="234.88053142857143" text-anchor="middle" fill="#1a1a1a" font-size="9">3.03</text><text x="964.1176470588235" y="262" transform="rotate(-35 964.1176470588235 262)" text-anchor="end" fill="#1a1a1a" font-size="10">Kuala Lumpur</text><rect x="1027.4705882352941" y="242.8012394557823" width="24.941176470588236" height="7.198760544217691" fill="#7a4d9c" /><text x="1039.9411764705883" y="239.8012394557823" text-anchor="middle" fill="#1a1a1a" font-size="9">1.80</text><text x="1026.4705882352941" y="262" transform="rotate(-35 1026.4705882352941 262)" text-anchor="end" fill="#1a1a1a" font-size="10">Tromsø</text><rect x="1062.8823529411764" y="242.8392019047619" width="24.941176470588236" height="7.160798095238107" fill="#1f7a4d" /><text x="1075.3529411764705" y="239.8392019047619" text-anchor="middle" fill="#1a1a1a" font-size="9">1.79</text><rect x="1089.8235294117646" y="184.87182222222222" width="24.941176470588236" height="65.12817777777778" fill="#7a4d9c" /><text x="1102.2941176470588" y="181.87182222222222" text-anchor="middle" fill="#1a1a1a" font-size="9">16.28</text><text x="1088.8235294117646" y="262" transform="rotate(-35 1088.8235294117646 262)" text-anchor="end" fill="#1a1a1a" font-size="10">London</text><rect x="1152.1764705882354" y="243.71428571428572" width="24.941176470588236" height="6.285714285714278" fill="#7a4d9c" /><text x="1164.6470588235295" y="240.71428571428572" text-anchor="middle" fill="#1a1a1a" font-size="9">1.57</text><text x="1151.1764705882354" y="262" transform="rotate(-35 1151.1764705882354 262)" text-anchor="end" fill="#1a1a1a" font-size="10">Marrakech</text><rect x="1187.5882352941176" y="243.93429523809525" width="24.941176470588236" height="6.065704761904755" fill="#1f7a4d" /><text x="1200.0588235294117" y="240.93429523809525" text-anchor="middle" fill="#1a1a1a" font-size="9">1.52</text><text x="1213.5294117647059" y="262" transform="rotate(-35 1213.5294117647059 262)" text-anchor="end" fill="#1a1a1a" font-size="10">Ankara</text><rect x="1249.941176470588" y="244.3411142857143" width="24.941176470588236" height="5.658885714285702" fill="#1f7a4d" /><text x="1262.4117647058822" y="241.3411142857143" text-anchor="middle" fill="#1a1a1a" font-size="9">1.41</text><text x="1275.8823529411764" y="262" transform="rotate(-35 1275.8823529411764 262)" text-anchor="end" fill="#1a1a1a" font-size="10">Riyadh</text><rect x="1312.2941176470588" y="245.22804761904763" width="24.941176470588236" height="4.771952380952371" fill="#1f7a4d" /><text x="1324.764705882353" y="242.22804761904763" text-anchor="middle" fill="#1a1a1a" font-size="9">1.19</text><rect x="1339.235294117647" y="245.69184952380954" width="24.941176470588236" height="4.3081504761904625" fill="#7a4d9c" /><text x="1351.7058823529412" y="242.69184952380954" text-anchor="middle" fill="#1a1a1a" font-size="9">1.08</text><text x="1338.235294117647" y="262" transform="rotate(-35 1338.235294117647 262)" text-anchor="end" fill="#1a1a1a" font-size="10">Madinah</text><rect x="1374.6470588235293" y="246.61473333333333" width="24.941176470588236" height="3.3852666666666664" fill="#1f7a4d" /><text x="1387.1176470588234" y="243.61473333333333" text-anchor="middle" fill="#1a1a1a" font-size="9">0.85</text><text x="1400.5882352941176" y="262" transform="rotate(-35 1400.5882352941176 262)" text-anchor="end" fill="#1a1a1a" font-size="10">Makkah</text><rect x="1437" y="246.86105714285713" width="24.941176470588236" height="3.1389428571428653" fill="#1f7a4d" /><text x="1449.4705882352941" y="243.86105714285713" text-anchor="middle" fill="#1a1a1a" font-size="9">0.78</text><rect x="1463.9411764705883" y="236.93248571428572" width="24.941176470588236" height="13.067514285714282" fill="#7a4d9c" /><text x="1476.4117647058824" y="233.93248571428572" text-anchor="middle" fill="#1a1a1a" font-size="9">3.27</text><text x="1462.9411764705883" y="262" transform="rotate(-35 1462.9411764705883 262)" text-anchor="end" fill="#1a1a1a" font-size="10">Istanbul</text><rect x="1499.3529411764705" y="246.9206380952381" width="24.941176470588236" height="3.079361904761896" fill="#1f7a4d" /><text x="1511.8235294117646" y="243.9206380952381" text-anchor="middle" fill="#1a1a1a" font-size="9">0.77</text><text x="1525.2941176470588" y="262" transform="rotate(-35 1525.2941176470588 262)" text-anchor="end" fill="#1a1a1a" font-size="10">Toronto</text><rect x="1588.6470588235293" y="247" width="24.941176470588236" height="3" fill="#7a4d9c" /><text x="1601.1176470588234" y="244" text-anchor="middle" fill="#1a1a1a" font-size="9">0.75</text><text x="1587.6470588235293" y="262" transform="rotate(-35 1587.6470588235293 262)" text-anchor="end" fill="#1a1a1a" font-size="10">Mecca</text><rect x="1624.0588235294117" y="247.06254666666666" width="24.941176470588236" height="2.9374533333333375" fill="#1f7a4d" /><text x="1636.5294117647059" y="244.06254666666666" text-anchor="middle" fill="#1a1a1a" font-size="9">0.73</text><text x="1650" y="262" transform="rotate(-35 1650 262)" text-anchor="end" fill="#1a1a1a" font-size="10">Jakarta</text><rect x="1686.4117647058822" y="247.28589142857143" width="24.941176470588236" height="2.714108571428568" fill="#1f7a4d" /><text x="1698.8823529411764" y="244.28589142857143" text-anchor="middle" fill="#1a1a1a" font-size="9">0.68</text><rect x="1713.3529411764705" y="248.09991047619047" width="24.941176470588236" height="1.9000895238095268" fill="#7a4d9c" /><text x="1725.8235294117646" y="245.09991047619047" text-anchor="middle" fill="#1a1a1a" font-size="9">0.48</text><text x="1712.3529411764705" y="262" transform="rotate(-35 1712.3529411764705 262)" text-anchor="end" fill="#1a1a1a" font-size="10">New York</text><rect x="1748.764705882353" y="247.40909523809523" width="24.941176470588236" height="2.590904761904767" fill="#1f7a4d" /><text x="1761.235294117647" y="244.40909523809523" text-anchor="middle" fill="#1a1a1a" font-size="9">0.65</text><text x="1774.7058823529412" y="262" transform="rotate(-35 1774.7058823529412 262)" text-anchor="end" fill="#1a1a1a" font-size="10">Izmir</text><rect x="1811.1176470588234" y="247.53486666666666" width="24.941176470588236" height="2.465133333333341" fill="#1f7a4d" /><text x="1823.5882352941176" y="244.53486666666666" text-anchor="middle" fill="#1a1a1a" font-size="9">0.62</text><text x="1837.0588235294117" y="262" transform="rotate(-35 1837.0588235294117 262)" text-anchor="end" fill="#1a1a1a" font-size="10">Los Angeles</text><rect x="1873.470588235294" y="247.6757638095238" width="24.941176470588236" height="2.3242361904761992" fill="#1f7a4d" /><text x="1885.941176470588" y="244.6757638095238" text-anchor="middle" fill="#1a1a1a" font-size="9">0.58</text><rect x="1900.4117647058822" y="183.92534285714285" width="24.941176470588236" height="66.07465714285715" fill="#7a4d9c" /><text x="1912.8823529411764" y="180.92534285714285" text-anchor="middle" fill="#1a1a1a" font-size="9">16.52</text><text x="1899.4117647058822" y="262" transform="rotate(-35 1899.4117647058822 262)" text-anchor="end" fill="#1a1a1a" font-size="10">Paris</text><rect x="1935.8235294117646" y="247.81480952380952" width="24.941176470588236" height="2.185190476190485" fill="#1f7a4d" /><text x="1948.2941176470588" y="244.81480952380952" text-anchor="middle" fill="#1a1a1a" font-size="9">0.55</text><rect x="1962.764705882353" y="242" width="24.941176470588236" height="8" fill="#7a4d9c" /><text x="1975.235294117647" y="239" text-anchor="middle" fill="#1a1a1a" font-size="9">2.00</text><text x="1961.764705882353" y="262" transform="rotate(-35 1961.764705882353 262)" text-anchor="end" fill="#1a1a1a" font-size="10">Rabat</text><rect x="1998.1764705882351" y="248.04465714285715" width="24.941176470588236" height="1.9553428571428526" fill="#1f7a4d" /><text x="2010.6470588235293" y="245.04465714285715" text-anchor="middle" fill="#1a1a1a" font-size="9">0.49</text><rect x="2025.1176470588234" y="242.47619047619048" width="24.941176470588236" height="7.523809523809518" fill="#7a4d9c" /><text x="2037.5882352941176" y="239.47619047619048" text-anchor="middle" fill="#1a1a1a" font-size="9">1.88</text><text x="2024.1176470588234" y="262" transform="rotate(-35 2024.1176470588234 262)" text-anchor="end" fill="#1a1a1a" font-size="10">Casablanca</text><rect x="2060.529411764706" y="248.19307619047618" width="24.941176470588236" height="1.8069238095238234" fill="#1f7a4d" /><text x="2073" y="245.19307619047618" text-anchor="middle" fill="#1a1a1a" font-size="9">0.45</text><rect x="2087.470588235294" y="228.65262222222222" width="24.941176470588236" height="21.34737777777778" fill="#7a4d9c" /><text x="2099.9411764705883" y="225.65262222222222" text-anchor="middle" fill="#1a1a1a" font-size="9">5.34</text><text x="2086.470588235294" y="262" transform="rotate(-35 2086.470588235294 262)" text-anchor="end" fill="#1a1a1a" font-size="10">Karachi</text><rect x="2122.8823529411766" y="248.87185714285715" width="24.941176470588236" height="1.1281428571428478" fill="#1f7a4d" /><text x="2135.3529411764707" y="245.87185714285715" text-anchor="middle" fill="#1a1a1a" font-size="9">0.28</text><rect x="2149.823529411765" y="237.57814285714286" width="24.941176470588236" height="12.421857142857135" fill="#7a4d9c" /><text x="2162.294117647059" y="234.57814285714286" text-anchor="middle" fill="#1a1a1a" font-size="9">3.11</text><text x="2148.823529411765" y="262" transform="rotate(-35 2148.823529411765 262)" text-anchor="end" fill="#1a1a1a" font-size="10">Dubai</text><rect x="2140" y="50" width="12" height="10" fill="#1f7a4d" /><text x="2156" y="59" fill="#1a1a1a">train (ratchet)</text><rect x="2140" y="66" width="12" height="10" fill="#7a4d9c" /><text x="2156" y="75" fill="#1a1a1a">holdout</text></svg>