<svg xmlns="http://www.w3.org/2000/svg" viewBox="0 0 880 360" width="880" height="360" font-family="-apple-system, system-ui, sans-serif" font-size="11">
  <rect width="880" height="360" fill="#fafaf7" />
  <text x="440" y="22" text-anchor="middle" font-size="14" font-weight="600" fill="#1a1a1a">WMAE over time — train (ratchet) vs. holdout</text><line x1="60" y1="310" x2="750" y2="310" stroke="#dcdcd0" stroke-width="0.5" /><text x="54" y="313" text-anchor="end" fill="#1a1a1a">0.00</text><line x1="60" y1="258" x2="750" y2="258" stroke="#dcdcd0" stroke-width="0.5" /><text x="54" y="261" text-anchor="end" fill="#1a1a1a">2.00</text><line x1="60" y1="206" x2="750" y2="206" stroke="#dcdcd0" stroke-width="0.5" /><text x="54" y="209" text-anchor="end" fill="#1a1a1a">4.00</text><line x1="60" y1="154" x2="750" y2="154" stroke="#dcdcd0" stroke-width="0.5" /><text x="54" y="157" text-anchor="end" fill="#1a1a1a">6.00</text><line x1="60" y1="102" x2="750" y2="102" stroke="#dcdcd0" stroke-width="0.5" /><text x="54" y="105" text-anchor="end" fill="#1a1a1a">8.00</text><line x1="60" y1="50" x2="750" y2="50" stroke="#dcdcd0" stroke-width="0.5" /><text x="54" y="53" text-anchor="end" fill="#1a1a1a">10.00</text><line x1="60" y1="310" x2="60" y2="314" stroke="#1a1a1a" /><text x="60" y="328" text-anchor="middle" fill="#1a1a1a" font-size="9">04-30 20:49</text><line x1="175" y1="310" x2="175" y2="314" stroke="#1a1a1a" /><text x="175" y="328" text-anchor="middle" fill="#1a1a1a" font-size="9">04-30 20:59</text><line x1="290" y1="310" x2="290" y2="314" stroke="#1a1a1a" /><text x="290" y="328" text-anchor="middle" fill="#1a1a1a" font-size="9">04-30 21:04</text><line x1="405" y1="310" x2="405" y2="314" stroke="#1a1a1a" /><text x="405" y="328" text-anchor="middle" fill="#1a1a1a" font-size="9">04-30 21:27</text><line x1="520" y1="310" x2="520" y2="314" stroke="#1a1a1a" /><text x="520" y="328" text-anchor="middle" fill="#1a1a1a" font-size="9">04-30 21:27</text><line x1="635" y1="310" x2="635" y2="314" stroke="#1a1a1a" /><text x="635" y="328" text-anchor="middle" fill="#1a1a1a" font-size="9">04-30 21:29</text><line x1="750" y1="310" x2="750" y2="314" stroke="#1a1a1a" /><text x="750" y="328" text-anchor="middle" fill="#1a1a1a" font-size="9">04-30 21:41</text><text x="22" y="180" transform="rotate(-90 22 180)" text-anchor="middle" fill="#1a1a1a">WMAE (min)</text><path d="M60.0,279.9 L175.0,275.4 L290.0,275.4 L405.0,275.4 L520.0,277.8 L635.0,275.4 L750.0,277.8" fill="none" stroke="#1f7a4d" stroke-width="2" /><circle cx="60" cy="279.9333737037037" r="2.5" fill="#1f7a4d" /><circle cx="175" cy="275.42925682539686" r="2.5" fill="#1f7a4d" /><circle cx="290" cy="275.42925682539686" r="2.5" fill="#1f7a4d" /><circle cx="405" cy="275.42925682539686" r="2.5" fill="#1f7a4d" /><circle cx="520" cy="277.7738996825397" r="2.5" fill="#1f7a4d" /><circle cx="635" cy="275.42925682539686" r="2.5" fill="#1f7a4d" /><circle cx="750" cy="277.7738996825397" r="2.5" fill="#1f7a4d" /><path d="M60.0,100.8 L175.0,146.7 L290.0,146.7 L405.0,149.5 L520.0,150.2 L635.0,149.5 L750.0,150.2" fill="none" stroke="#7a4d9c" stroke-width="2" stroke-dasharray="4,3" /><circle cx="60" cy="100.76449960317464" r="2.5" fill="#7a4d9c" /><circle cx="175" cy="146.67370009337066" r="2.5" fill="#7a4d9c" /><circle cx="290" cy="146.67370009337066" r="2.5" fill="#7a4d9c" /><circle cx="405" cy="149.5044304220266" r="2.5" fill="#7a4d9c" /><circle cx="520" cy="150.16455229067927" r="2.5" fill="#7a4d9c" /><circle cx="635" cy="149.5044304220266" r="2.5" fill="#7a4d9c" /><circle cx="750" cy="150.16455229067927" r="2.5" fill="#7a4d9c" /><line x1="760" y1="60" x2="784" y2="60" stroke="#1f7a4d" stroke-width="2" /><text x="790" y="63" fill="#1a1a1a">train (ratchet)</text><line x1="760" y1="78" x2="784" y2="78" stroke="#7a4d9c" stroke-width="2" stroke-dasharray="4,3" /><text x="790" y="81" fill="#1a1a1a">holdout</text></svg>