<svg xmlns="http://www.w3.org/2000/svg" viewBox="0 0 980 540" width="980" height="540" font-family="-apple-system, BlinkMacSystemFont, 'Segoe UI', system-ui, sans-serif" font-size="11"><rect width="980" height="540" fill="#fafaf7" /><text x="490" y="32" text-anchor="middle" fill="#1a1a1a" font-size="19" font-weight="700">WMAE Journey — fajr v1.0 → v1.4.3</text><text x="490" y="54" text-anchor="middle" fill="#5a5a5a" font-size="12">Train WMAE (ratchet) and Holdout WMAE across 23 eval runs · annotations call out the release that drove each delta</text><text x="490" y="72" text-anchor="middle" fill="#8a8a8a" font-size="11">Lower is better · y-axis clipped at 25 min for readability (early v1.4.0 holdout pre-tz-fix peaked at 151 min)</text><rect x="70" y="90" width="870" height="250" fill="#f1efe8" /><line x1="70" y1="340" x2="940" y2="340" stroke="#dcdcd0" stroke-width="1" stroke-dasharray="2,3" /><text x="62" y="344" text-anchor="end" fill="#8a8a8a" font-size="9">0</text><line x1="70" y1="290" x2="940" y2="290" stroke="#dcdcd0" stroke-width="1" stroke-dasharray="2,3" /><text x="62" y="294" text-anchor="end" fill="#8a8a8a" font-size="9">5</text><line x1="70" y1="240" x2="940" y2="240" stroke="#dcdcd0" stroke-width="1" stroke-dasharray="2,3" /><text x="62" y="244" text-anchor="end" fill="#8a8a8a" font-size="9">10</text><line x1="70" y1="190" x2="940" y2="190" stroke="#dcdcd0" stroke-width="1" stroke-dasharray="2,3" /><text x="62" y="194" text-anchor="end" fill="#8a8a8a" font-size="9">15</text><line x1="70" y1="140" x2="940" y2="140" stroke="#dcdcd0" stroke-width="1" stroke-dasharray="2,3" /><text x="62" y="144" text-anchor="end" fill="#8a8a8a" font-size="9">20</text><line x1="70" y1="90" x2="940" y2="90" stroke="#dcdcd0" stroke-width="1" stroke-dasharray="2,3" /><text x="62" y="94" text-anchor="end" fill="#8a8a8a" font-size="9">25</text><text x="20" y="215" text-anchor="middle" fill="#5a5a5a" font-size="10" transform="rotate(-90 20 215)">WMAE (minutes)</text><line x1="70" y1="340" x2="940" y2="340" stroke="#a8a89a" stroke-width="1.5" /><line x1="70" y1="90" x2="70" y2="340" stroke="#a8a89a" stroke-width="1.5" /><path d="M70.0,259.5 L109.5,277.2 L149.1,277.2 L188.6,278.3 L228.2,278.5 L267.7,278.3 L307.3,278.5 L346.8,278.5 L386.4,278.5 L425.9,278.5 L465.5,278.5 L505.0,90.0 L544.5,213.9 L584.1,213.9 L623.6,215.5 L663.2,215.5 L702.7,215.5 L742.3,216.4 L781.8,216.4 L821.4,216.4 L860.9,220.7 L900.5,220.7 L940.0,220.7 " fill="none" stroke="#7a4d9c" stroke-width="2" opacity="0.7" /><circle cx="70" cy="259.52480753968257" r="3.5" fill="#fafaf7" stroke="#7a4d9c" stroke-width="1.8" /><circle cx="109.54545454545455" cy="277.18219234360413" r="3.5" fill="#fafaf7" stroke="#7a4d9c" stroke-width="1.8" /><circle cx="149.0909090909091" cy="277.18219234360413" r="3.5" fill="#fafaf7" stroke="#7a4d9c" stroke-width="1.8" /><circle cx="188.63636363636363" cy="278.27093477770256" r="3.5" fill="#fafaf7" stroke="#7a4d9c" stroke-width="1.8" /><circle cx="228.1818181818182" cy="278.5248278041074" r="3.5" fill="#fafaf7" stroke="#7a4d9c" stroke-width="1.8" /><circle cx="267.72727272727275" cy="278.27093477770256" r="3.5" fill="#fafaf7" stroke="#7a4d9c" stroke-width="1.8" /><circle cx="307.27272727272725" cy="278.5248278041074" r="3.5" fill="#fafaf7" stroke="#7a4d9c" stroke-width="1.8" /><circle cx="346.8181818181818" cy="278.5248278041074" r="3.5" fill="#fafaf7" stroke="#7a4d9c" stroke-width="1.8" /><circle cx="386.3636363636364" cy="278.5248278041074" r="3.5" fill="#fafaf7" stroke="#7a4d9c" stroke-width="1.8" /><circle cx="425.90909090909093" cy="278.5248278041074" r="3.5" fill="#fafaf7" stroke="#7a4d9c" stroke-width="1.8" /><circle cx="465.45454545454544" cy="278.5248278041074" r="3.5" fill="#fafaf7" stroke="#7a4d9c" stroke-width="1.8" /><circle cx="505" cy="90" r="3.5" fill="#fafaf7" stroke="#7a4d9c" stroke-width="1.8" /><text x="505" y="82" text-anchor="middle" fill="#7a4d9c" font-size="9" font-weight="bold">↑</text><circle cx="544.5454545454545" cy="213.8678739521697" r="3.5" fill="#fafaf7" stroke="#7a4d9c" stroke-width="1.8" /><circle cx="584.0909090909091" cy="213.8678739521697" r="3.5" fill="#fafaf7" stroke="#7a4d9c" stroke-width="1.8" /><circle cx="623.6363636363636" cy="215.4912133435475" r="3.5" fill="#fafaf7" stroke="#7a4d9c" stroke-width="1.8" /><circle cx="663.1818181818181" cy="215.4912133435475" r="3.5" fill="#fafaf7" stroke="#7a4d9c" stroke-width="1.8" /><circle cx="702.7272727272727" cy="215.4912133435475" r="3.5" fill="#fafaf7" stroke="#7a4d9c" stroke-width="1.8" /><circle cx="742.2727272727273" cy="216.40034907523955" r="3.5" fill="#fafaf7" stroke="#7a4d9c" stroke-width="1.8" /><circle cx="781.8181818181819" cy="216.40034907523955" r="3.5" fill="#fafaf7" stroke="#7a4d9c" stroke-width="1.8" /><circle cx="821.3636363636364" cy="216.40034907523955" r="3.5" fill="#fafaf7" stroke="#7a4d9c" stroke-width="1.8" /><circle cx="860.9090909090909" cy="220.71450516572267" r="3.5" fill="#fafaf7" stroke="#7a4d9c" stroke-width="1.8" /><circle cx="900.4545454545455" cy="220.71450516572267" r="3.5" fill="#fafaf7" stroke="#7a4d9c" stroke-width="1.8" /><circle cx="940" cy="220.71450516572267" r="3.5" fill="#fafaf7" stroke="#7a4d9c" stroke-width="1.8" /><path d="M70.0,328.4 L109.5,326.7 L149.1,326.7 L188.6,326.7 L228.2,327.6 L267.7,326.7 L307.3,327.6 L346.8,327.5 L386.4,327.5 L425.9,327.5 L465.5,327.5 L505.0,327.5 L544.5,327.5 L584.1,327.5 L623.6,327.5 L663.2,327.5 L702.7,327.5 L742.3,329.6 L781.8,329.6 L821.4,329.6 L860.9,333.0 L900.5,332.8 L940.0,333.0 " fill="none" stroke="#1f7a4d" stroke-width="2.5" /><circle cx="70" cy="328.43591296296296" r="3.5" fill="#1f7a4d" /><circle cx="109.54545454545455" cy="326.7035603174603" r="3.5" fill="#1f7a4d" /><circle cx="149.0909090909091" cy="326.7035603174603" r="3.5" fill="#1f7a4d" /><circle cx="188.63636363636363" cy="326.7035603174603" r="3.5" fill="#1f7a4d" /><circle cx="228.1818181818182" cy="327.6053460317461" r="3.5" fill="#1f7a4d" /><circle cx="267.72727272727275" cy="326.7035603174603" r="3.5" fill="#1f7a4d" /><circle cx="307.27272727272725" cy="327.6053460317461" r="3.5" fill="#1f7a4d" /><circle cx="346.8181818181818" cy="327.5279650793651" r="3.5" fill="#1f7a4d" /><circle cx="386.3636363636364" cy="327.5279650793651" r="3.5" fill="#1f7a4d" /><circle cx="425.90909090909093" cy="327.5279650793651" r="3.5" fill="#1f7a4d" /><circle cx="465.45454545454544" cy="327.5279650793651" r="3.5" fill="#1f7a4d" /><circle cx="505" cy="327.5279650793651" r="3.5" fill="#1f7a4d" /><circle cx="544.5454545454545" cy="327.5279650793651" r="3.5" fill="#1f7a4d" /><circle cx="584.0909090909091" cy="327.5279650793651" r="3.5" fill="#1f7a4d" /><circle cx="623.6363636363636" cy="327.5279650793651" r="3.5" fill="#1f7a4d" /><circle cx="663.1818181818181" cy="327.5279650793651" r="3.5" fill="#1f7a4d" /><circle cx="702.7272727272727" cy="327.5279650793651" r="3.5" fill="#1f7a4d" /><circle cx="742.2727272727273" cy="329.6055256728779" r="3.5" fill="#1f7a4d" /><circle cx="781.8181818181819" cy="329.6055256728779" r="3.5" fill="#1f7a4d" /><circle cx="821.3636363636364" cy="329.6055256728779" r="3.5" fill="#1f7a4d" /><circle cx="860.9090909090909" cy="332.96239296066256" r="3.5" fill="#1f7a4d" /><circle cx="900.4545454545455" cy="332.7950310559006" r="3.5" fill="#1f7a4d" /><circle cx="940" cy="332.96239296066256" r="3.5" fill="#1f7a4d" /><line x1="70" y1="90" x2="70" y2="340" stroke="#c83030" stroke-width="1" stroke-dasharray="3,3" opacity="0.5" /><rect x="48" y="75" width="44" height="14" rx="3" fill="#c83030" opacity="0.9" /><text x="70" y="86" text-anchor="middle" fill="white" font-size="9" font-weight="600">v1.0</text><text x="76" y="320.43591296296296" fill="#1f7a4d" font-size="9" font-weight="600">1.16</text><text x="76" y="251.52480753968257" fill="#7a4d9c" font-size="9" font-weight="600">8.0</text><line x1="346.8181818181818" y1="90" x2="346.8181818181818" y2="340" stroke="#c83030" stroke-width="1" stroke-dasharray="3,3" opacity="0.5" /><rect x="324.8181818181818" y="61" width="44" height="14" rx="3" fill="#c83030" opacity="0.9" /><text x="346.8181818181818" y="72" text-anchor="middle" fill="white" font-size="9" font-weight="600">v1.1.1</text><text x="352.8181818181818" y="319.5279650793651" fill="#1f7a4d" font-size="9" font-weight="600">1.25</text><text x="352.8181818181818" y="270.5248278041074" fill="#7a4d9c" font-size="9" font-weight="600">6.1</text><line x1="425.90909090909093" y1="90" x2="425.90909090909093" y2="340" stroke="#c83030" stroke-width="1" stroke-dasharray="3,3" opacity="0.5" /><rect x="403.90909090909093" y="75" width="44" height="14" rx="3" fill="#c83030" opacity="0.9" /><text x="425.90909090909093" y="86" text-anchor="middle" fill="white" font-size="9" font-weight="600">v1.2</text><text x="431.90909090909093" y="319.5279650793651" fill="#1f7a4d" font-size="9" font-weight="600">1.25</text><text x="431.90909090909093" y="270.5248278041074" fill="#7a4d9c" font-size="9" font-weight="600">6.1</text><line x1="465.45454545454544" y1="90" x2="465.45454545454544" y2="340" stroke="#c83030" stroke-width="1" stroke-dasharray="3,3" opacity="0.5" /><rect x="443.45454545454544" y="61" width="44" height="14" rx="3" fill="#c83030" opacity="0.9" /><text x="465.45454545454544" y="72" text-anchor="middle" fill="white" font-size="9" font-weight="600">v1.3</text><text x="471.45454545454544" y="319.5279650793651" fill="#1f7a4d" font-size="9" font-weight="600">1.25</text><text x="471.45454545454544" y="270.5248278041074" fill="#7a4d9c" font-size="9" font-weight="600">6.1</text><line x1="623.6363636363636" y1="90" x2="623.6363636363636" y2="340" stroke="#c83030" stroke-width="1" stroke-dasharray="3,3" opacity="0.5" /><rect x="601.6363636363636" y="75" width="44" height="14" rx="3" fill="#c83030" opacity="0.9" /><text x="623.6363636363636" y="86" text-anchor="middle" fill="white" font-size="9" font-weight="600">v1.4</text><text x="629.6363636363636" y="319.5279650793651" fill="#1f7a4d" font-size="9" font-weight="600">1.25</text><text x="629.6363636363636" y="207.4912133435475" fill="#7a4d9c" font-size="9" font-weight="600">12.5</text><line x1="742.2727272727273" y1="90" x2="742.2727272727273" y2="340" stroke="#c83030" stroke-width="1" stroke-dasharray="3,3" opacity="0.5" /><rect x="720.2727272727273" y="61" width="44" height="14" rx="3" fill="#c83030" opacity="0.9" /><text x="742.2727272727273" y="72" text-anchor="middle" fill="white" font-size="9" font-weight="600">v1.4.1</text><text x="748.2727272727273" y="321.6055256728779" fill="#1f7a4d" font-size="9" font-weight="600">1.04</text><text x="748.2727272727273" y="208.40034907523955" fill="#7a4d9c" font-size="9" font-weight="600">12.4</text><line x1="940" y1="90" x2="940" y2="340" stroke="#c83030" stroke-width="1" stroke-dasharray="3,3" opacity="0.5" /><rect x="918" y="75" width="44" height="14" rx="3" fill="#c83030" opacity="0.9" /><text x="940" y="86" text-anchor="middle" fill="white" font-size="9" font-weight="600">v1.4.3</text><text x="946" y="324.96239296066256" fill="#1f7a4d" font-size="9" font-weight="600">0.70</text><text x="946" y="212.71450516572267" fill="#7a4d9c" font-size="9" font-weight="600">11.9</text><text x="70" y="372" fill="#1a1a1a" font-size="12" font-weight="600">Release timeline</text><text x="70" y="390" fill="#1a1a1a" font-size="11"><tspan font-weight="700" fill="#c83030">v1.0</tspan><tspan dx="8" fill="#1f7a4d">train 1.16</tspan><tspan dx="6" fill="#7a4d9c">holdout 8.05</tspan><tspan dx="10" fill="#5a5a5a">baseline (corpus + ratchet established)</tspan></text><text x="70" y="406" fill="#1a1a1a" font-size="11"><tspan font-weight="700" fill="#c83030">v1.1.1</tspan><tspan dx="8" fill="#1f7a4d">train 1.25</tspan><tspan dx="6" fill="#7a4d9c">holdout 6.15</tspan><tspan dx="10" fill="#5a5a5a">dayTimes elevation fix + npm publish CI</tspan></text><text x="70" y="422" fill="#1a1a1a" font-size="11"><tspan font-weight="700" fill="#c83030">v1.2</tspan><tspan dx="8" fill="#1f7a4d">train 1.25</tspan><tspan dx="6" fill="#7a4d9c">holdout 6.15</tspan><tspan dx="10" fill="#5a5a5a">notes field + scholarly grounding (13 papers)</tspan></text><text x="70" y="438" fill="#1a1a1a" font-size="11"><tspan font-weight="700" fill="#c83030">v1.3</tspan><tspan dx="8" fill="#1f7a4d">train 1.25</tspan><tspan dx="6" fill="#7a4d9c">holdout 6.15</tspan><tspan dx="10" fill="#5a5a5a">applyTayakkunBuffer + tarabishyTimes (Aabed/Tarabishy)</tspan></text><text x="70" y="454" fill="#1a1a1a" font-size="11"><tspan font-weight="700" fill="#c83030">v1.4</tspan><tspan dx="8" fill="#1f7a4d">train 1.25</tspan><tspan dx="6" fill="#7a4d9c">holdout 12.45</tspan><tspan dx="10" fill="#5a5a5a">world-coverage eval (163 countries) + 9 engine bboxes</tspan></text><text x="70" y="470" fill="#1a1a1a" font-size="11"><tspan font-weight="700" fill="#c83030">v1.4.1</tspan><tspan dx="8" fill="#1f7a4d">train 1.04</tspan><tspan dx="6" fill="#7a4d9c">holdout 12.36</tspan><tspan dx="10" fill="#5a5a5a">JAKIM Path A ihtiyati offset (train −16.6%)</tspan></text><text x="70" y="486" fill="#1a1a1a" font-size="11"><tspan font-weight="700" fill="#c83030">v1.4.3</tspan><tspan dx="8" fill="#1f7a4d">train 0.70</tspan><tspan dx="6" fill="#7a4d9c">holdout 11.93</tspan><tspan dx="10" fill="#5a5a5a">eval elevation-policy fix (train −32% to 0.70)</tspan></text><rect x="714" y="86" width="216" height="40" rx="3" fill="#fafaf7" stroke="#dcdcd0" /><circle cx="728" cy="98" r="4" fill="#1f7a4d" /><text x="738" y="101" fill="#1a1a1a" font-size="10">Train WMAE (ratchet)</text><circle cx="728" cy="116" r="4" fill="#fafaf7" stroke="#7a4d9c" stroke-width="1.5" /><text x="738" y="119" fill="#1a1a1a" font-size="10">Holdout WMAE (diagnostic)</text></svg>