<svg xmlns="http://www.w3.org/2000/svg" viewBox="0 0 12520 380" width="12520" height="380" font-family="-apple-system, BlinkMacSystemFont, 'Segoe UI', system-ui, sans-serif" font-size="11"><rect width="12520" height="380" fill="#fafaf7" /><text x="6260" y="26" text-anchor="middle" fill="#1a1a1a" font-size="17" font-weight="600">WMAE per region — latest run</text><line x1="60" y1="250" x2="12380" y2="250" stroke="#dcdcd0" stroke-width="0.5" /><text x="54" y="253" text-anchor="end" fill="#1a1a1a">0.00</text><line x1="60" y1="210" x2="12380" y2="210" stroke="#dcdcd0" stroke-width="0.5" /><text x="54" y="213" text-anchor="end" fill="#1a1a1a">40.00</text><line x1="60" y1="170" x2="12380" y2="170" stroke="#dcdcd0" stroke-width="0.5" /><text x="54" y="173" text-anchor="end" fill="#1a1a1a">80.00</text><line x1="60" y1="130" x2="12380" y2="130" stroke="#dcdcd0" stroke-width="0.5" /><text x="54" y="133" text-anchor="end" fill="#1a1a1a">120.00</text><line x1="60" y1="90" x2="12380" y2="90" stroke="#dcdcd0" stroke-width="0.5" /><text x="54" y="93" text-anchor="end" fill="#1a1a1a">160.00</text><line x1="60" y1="50" x2="12380" y2="50" stroke="#dcdcd0" stroke-width="0.5" /><text x="54" y="53" text-anchor="end" fill="#1a1a1a">200.00</text><text x="22" y="150" transform="rotate(-90 22 150)" text-anchor="middle" fill="#1a1a1a">WMAE (min)</text><rect x="91.19607843137254" y="132.8469387755102" width="24.15686274509804" height="117.15306122448979" fill="#7a4d9c" /><text x="103.27450980392156" y="129.8469387755102" text-anchor="middle" fill="#1a1a1a" font-size="9">117.15</text><text x="90.19607843137254" y="262" transform="rotate(-35 90.19607843137254 262)" text-anchor="end" fill="#1a1a1a" font-size="10">Astana</text><rect x="151.58823529411765" y="187.14285714285714" width="24.15686274509804" height="62.85714285714286" fill="#7a4d9c" /><text x="163.66666666666669" y="184.14285714285714" text-anchor="middle" fill="#1a1a1a" font-size="9">62.86</text><text x="150.58823529411765" y="262" transform="rotate(-35 150.58823529411765 262)" text-anchor="end" fill="#1a1a1a" font-size="10">Vilnius</text><rect x="211.98039215686273" y="188.3265306122449" width="24.15686274509804" height="61.67346938775509" fill="#7a4d9c" /><text x="224.05882352941177" y="185.3265306122449" text-anchor="middle" fill="#1a1a1a" font-size="9">61.67</text><text x="210.98039215686273" y="262" transform="rotate(-35 210.98039215686273 262)" text-anchor="end" fill="#1a1a1a" font-size="10">Tehran</text><rect x="272.37254901960785" y="189.07142857142856" width="24.15686274509804" height="60.928571428571445" fill="#7a4d9c" /><text x="284.45098039215685" y="186.07142857142856" text-anchor="middle" fill="#1a1a1a" font-size="9">60.93</text><text x="271.37254901960785" y="262" transform="rotate(-35 271.37254901960785 262)" text-anchor="end" fill="#1a1a1a" font-size="10">Asunción</text><rect x="332.7647058823529" y="189.31936071428572" width="24.15686274509804" height="60.68063928571428" fill="#7a4d9c" /><text x="344.84313725490193" y="186.31936071428572" text-anchor="middle" fill="#1a1a1a" font-size="9">60.68</text><text x="331.7647058823529" y="262" transform="rotate(-35 331.7647058823529 262)" text-anchor="end" fill="#1a1a1a" font-size="10">Moscow</text><rect x="393.156862745098" y="189.69387755102042" width="24.15686274509804" height="60.30612244897958" fill="#7a4d9c" /><text x="405.235294117647" y="186.69387755102042" text-anchor="middle" fill="#1a1a1a" font-size="9">60.31</text><text x="392.156862745098" y="262" transform="rotate(-35 392.156862745098 262)" text-anchor="end" fill="#1a1a1a" font-size="10">Tbilisi</text><rect x="453.54901960784315" y="189.77551020408163" width="24.15686274509804" height="60.22448979591837" fill="#7a4d9c" /><text x="465.62745098039215" y="186.77551020408163" text-anchor="middle" fill="#1a1a1a" font-size="9">60.22</text><text x="452.54901960784315" y="262" transform="rotate(-35 452.54901960784315 262)" text-anchor="end" fill="#1a1a1a" font-size="10">Yerevan</text><rect x="513.9411764705883" y="190" width="24.15686274509804" height="60" fill="#7a4d9c" /><text x="526.0196078431374" y="187" text-anchor="middle" fill="#1a1a1a" font-size="9">60.00</text><text x="512.9411764705883" y="262" transform="rotate(-35 512.9411764705883 262)" text-anchor="end" fill="#1a1a1a" font-size="10">Windhoek</text><rect x="574.3333333333334" y="190.29591836734693" width="24.15686274509804" height="59.70408163265307" fill="#7a4d9c" /><text x="586.4117647058824" y="187.29591836734693" text-anchor="middle" fill="#1a1a1a" font-size="9">59.70</text><text x="573.3333333333334" y="262" transform="rotate(-35 573.3333333333334 262)" text-anchor="end" fill="#1a1a1a" font-size="10">Islamabad</text><rect x="634.7254901960785" y="190.3469387755102" width="24.15686274509804" height="59.65306122448979" fill="#7a4d9c" /><text x="646.8039215686275" y="187.3469387755102" text-anchor="middle" fill="#1a1a1a" font-size="9">59.65</text><text x="633.7254901960785" y="262" transform="rotate(-35 633.7254901960785 262)" text-anchor="end" fill="#1a1a1a" font-size="10">Baku</text><rect x="695.1176470588235" y="190.94897959183675" width="24.15686274509804" height="59.051020408163254" fill="#7a4d9c" /><text x="707.1960784313726" y="187.94897959183675" text-anchor="middle" fill="#1a1a1a" font-size="9">59.05</text><text x="694.1176470588235" y="262" transform="rotate(-35 694.1176470588235 262)" text-anchor="end" fill="#1a1a1a" font-size="10">Baghdad</text><rect x="755.5098039215686" y="191.35714285714286" width="24.15686274509804" height="58.64285714285714" fill="#7a4d9c" /><text x="767.5882352941177" y="188.35714285714286" text-anchor="middle" fill="#1a1a1a" font-size="9">58.64</text><text x="754.5098039215686" y="262" transform="rotate(-35 754.5098039215686 262)" text-anchor="end" fill="#1a1a1a" font-size="10">Mexico City</text><rect x="815.9019607843137" y="191.8673469387755" width="24.15686274509804" height="58.13265306122449" fill="#7a4d9c" /><text x="827.9803921568628" y="188.8673469387755" text-anchor="middle" fill="#1a1a1a" font-size="9">58.13</text><text x="814.9019607843137" y="262" transform="rotate(-35 814.9019607843137 262)" text-anchor="end" fill="#1a1a1a" font-size="10">Juba</text><rect x="876.2941176470588" y="191.9591836734694" width="24.15686274509804" height="58.0408163265306" fill="#7a4d9c" /><text x="888.3725490196078" y="188.9591836734694" text-anchor="middle" fill="#1a1a1a" font-size="9">58.04</text><text x="875.2941176470588" y="262" transform="rotate(-35 875.2941176470588 262)" text-anchor="end" fill="#1a1a1a" font-size="10">Khartoum</text><rect x="936.6862745098039" y="192.3673469387755" width="24.15686274509804" height="57.63265306122449" fill="#7a4d9c" /><text x="948.7647058823529" y="189.3673469387755" text-anchor="middle" fill="#1a1a1a" font-size="9">57.63</text><text x="935.6862745098039" y="262" transform="rotate(-35 935.6862745098039 262)" text-anchor="end" fill="#1a1a1a" font-size="10">Ulaanbaatar</text><rect x="997.078431372549" y="207.94948979591837" width="24.15686274509804" height="42.05051020408163" fill="#7a4d9c" /><text x="1009.156862745098" y="204.94948979591837" text-anchor="middle" fill="#1a1a1a" font-size="9">42.05</text><text x="996.078431372549" y="262" transform="rotate(-35 996.078431372549 262)" text-anchor="end" fill="#1a1a1a" font-size="10">Riga</text><rect x="1057.4705882352941" y="208.16326530612244" width="24.15686274509804" height="41.83673469387756" fill="#7a4d9c" /><text x="1069.549019607843" y="205.16326530612244" text-anchor="middle" fill="#1a1a1a" font-size="9">41.84</text><text x="1056.4705882352941" y="262" transform="rotate(-35 1056.4705882352941 262)" text-anchor="end" fill="#1a1a1a" font-size="10">Stockholm</text><rect x="1117.862745098039" y="208.72448979591837" width="24.15686274509804" height="41.27551020408163" fill="#7a4d9c" /><text x="1129.941176470588" y="205.72448979591837" text-anchor="middle" fill="#1a1a1a" font-size="9">41.28</text><text x="1116.862745098039" y="262" transform="rotate(-35 1116.862745098039 262)" text-anchor="end" fill="#1a1a1a" font-size="10">Oslo</text><rect x="1178.2549019607843" y="210.14261821428573" width="24.15686274509804" height="39.85738178571427" fill="#7a4d9c" /><text x="1190.3333333333333" y="207.14261821428573" text-anchor="middle" fill="#1a1a1a" font-size="9">39.86</text><text x="1177.2549019607843" y="262" transform="rotate(-35 1177.2549019607843 262)" text-anchor="end" fill="#1a1a1a" font-size="10">Longyearbyen</text><rect x="1238.6470588235293" y="214.0408163265306" width="24.15686274509804" height="35.9591836734694" fill="#7a4d9c" /><text x="1250.7254901960782" y="211.0408163265306" text-anchor="middle" fill="#1a1a1a" font-size="9">35.96</text><text x="1237.6470588235293" y="262" transform="rotate(-35 1237.6470588235293 262)" text-anchor="end" fill="#1a1a1a" font-size="10">Reykjavík</text><rect x="1299.0392156862745" y="220.0408163265306" width="24.15686274509804" height="29.959183673469397" fill="#7a4d9c" /><text x="1311.1176470588234" y="217.0408163265306" text-anchor="middle" fill="#1a1a1a" font-size="9">29.96</text><text x="1298.0392156862745" y="262" transform="rotate(-35 1298.0392156862745 262)" text-anchor="end" fill="#1a1a1a" font-size="10">Colombo</text><rect x="1359.4313725490197" y="225.55102040816325" width="24.15686274509804" height="24.448979591836746" fill="#7a4d9c" /><text x="1371.5098039215686" y="222.55102040816325" text-anchor="middle" fill="#1a1a1a" font-size="9">24.45</text><text x="1358.4313725490197" y="262" transform="rotate(-35 1358.4313725490197 262)" text-anchor="end" fill="#1a1a1a" font-size="10">Brussels</text><rect x="1419.8235294117646" y="228.30612244897958" width="24.15686274509804" height="21.69387755102042" fill="#7a4d9c" /><text x="1431.9019607843136" y="225.30612244897958" text-anchor="middle" fill="#1a1a1a" font-size="9">21.69</text><text x="1418.8235294117646" y="262" transform="rotate(-35 1418.8235294117646 262)" text-anchor="end" fill="#1a1a1a" font-size="10">Dublin</text><rect x="1480.2156862745098" y="230.26530612244898" width="24.15686274509804" height="19.734693877551024" fill="#7a4d9c" /><text x="1492.2941176470588" y="227.26530612244898" text-anchor="middle" fill="#1a1a1a" font-size="9">19.73</text><text x="1479.2156862745098" y="262" transform="rotate(-35 1479.2156862745098 262)" text-anchor="end" fill="#1a1a1a" font-size="10">Bern</text><rect x="1540.6078431372548" y="237.85714285714286" width="24.15686274509804" height="12.142857142857139" fill="#7a4d9c" /><text x="1552.6862745098038" y="234.85714285714286" text-anchor="middle" fill="#1a1a1a" font-size="9">12.14</text><text x="1539.6078431372548" y="262" transform="rotate(-35 1539.6078431372548 262)" text-anchor="end" fill="#1a1a1a" font-size="10">Warsaw</text><rect x="1601" y="238.01020408163265" width="24.15686274509804" height="11.98979591836735" fill="#7a4d9c" /><text x="1613.078431372549" y="235.01020408163265" text-anchor="middle" fill="#1a1a1a" font-size="9">11.99</text><text x="1600" y="262" transform="rotate(-35 1600 262)" text-anchor="end" fill="#1a1a1a" font-size="10">Amsterdam</text><rect x="1661.392156862745" y="238.24489795918367" width="24.15686274509804" height="11.755102040816325" fill="#7a4d9c" /><text x="1673.470588235294" y="235.24489795918367" text-anchor="middle" fill="#1a1a1a" font-size="9">11.76</text><text x="1660.392156862745" y="262" transform="rotate(-35 1660.392156862745 262)" text-anchor="end" fill="#1a1a1a" font-size="10">Berlin</text><rect x="1721.7843137254902" y="238.27551020408163" width="24.15686274509804" height="11.724489795918373" fill="#7a4d9c" /><text x="1733.862745098039" y="235.27551020408163" text-anchor="middle" fill="#1a1a1a" font-size="9">11.72</text><text x="1720.7843137254902" y="262" transform="rotate(-35 1720.7843137254902 262)" text-anchor="end" fill="#1a1a1a" font-size="10">Kyiv</text><rect x="1782.1764705882354" y="238.44897959183675" width="24.15686274509804" height="11.551020408163254" fill="#7a4d9c" /><text x="1794.2549019607843" y="235.44897959183675" text-anchor="middle" fill="#1a1a1a" font-size="9">11.55</text><text x="1781.1764705882354" y="262" transform="rotate(-35 1781.1764705882354 262)" text-anchor="end" fill="#1a1a1a" font-size="10">Prague</text><rect x="1842.5686274509803" y="239.28571428571428" width="24.15686274509804" height="10.714285714285722" fill="#7a4d9c" /><text x="1854.6470588235293" y="236.28571428571428" text-anchor="middle" fill="#1a1a1a" font-size="9">10.71</text><text x="1841.5686274509803" y="262" transform="rotate(-35 1841.5686274509803 262)" text-anchor="end" fill="#1a1a1a" font-size="10">Tunis</text><rect x="1902.9607843137255" y="239.77551020408163" width="24.15686274509804" height="10.224489795918373" fill="#7a4d9c" /><text x="1915.0392156862745" y="236.77551020408163" text-anchor="middle" fill="#1a1a1a" font-size="9">10.22</text><text x="1901.9607843137255" y="262" transform="rotate(-35 1901.9607843137255 262)" text-anchor="end" fill="#1a1a1a" font-size="10">Vienna</text><rect x="1963.3529411764705" y="239.78571428571428" width="24.15686274509804" height="10.214285714285722" fill="#7a4d9c" /><text x="1975.4313725490194" y="236.78571428571428" text-anchor="middle" fill="#1a1a1a" font-size="9">10.21</text><text x="1962.3529411764705" y="262" transform="rotate(-35 1962.3529411764705 262)" text-anchor="end" fill="#1a1a1a" font-size="10">Bratislava</text><rect x="2023.7450980392157" y="240.08163265306123" width="24.15686274509804" height="9.918367346938766" fill="#7a4d9c" /><text x="2035.8235294117646" y="237.08163265306123" text-anchor="middle" fill="#1a1a1a" font-size="9">9.92</text><text x="2022.7450980392157" y="262" transform="rotate(-35 2022.7450980392157 262)" text-anchor="end" fill="#1a1a1a" font-size="10">Budapest</text><rect x="2084.1372549019607" y="240.3877551020408" width="24.15686274509804" height="9.612244897959187" fill="#7a4d9c" /><text x="2096.2156862745096" y="237.3877551020408" text-anchor="middle" fill="#1a1a1a" font-size="9">9.61</text><text x="2083.1372549019607" y="262" transform="rotate(-35 2083.1372549019607 262)" text-anchor="end" fill="#1a1a1a" font-size="10">Lisbon</text><rect x="2144.529411764706" y="240.5" width="24.15686274509804" height="9.5" fill="#7a4d9c" /><text x="2156.607843137255" y="237.5" text-anchor="middle" fill="#1a1a1a" font-size="9">9.50</text><text x="2143.529411764706" y="262" transform="rotate(-35 2143.529411764706 262)" text-anchor="end" fill="#1a1a1a" font-size="10">Chișinău</text><rect x="2204.921568627451" y="240.5612244897959" width="24.15686274509804" height="9.438775510204096" fill="#7a4d9c" /><text x="2217" y="237.5612244897959" text-anchor="middle" fill="#1a1a1a" font-size="9">9.44</text><text x="2203.921568627451" y="262" transform="rotate(-35 2203.921568627451 262)" text-anchor="end" fill="#1a1a1a" font-size="10">Sofia</text><rect x="2265.3137254901962" y="240.79591836734693" width="24.15686274509804" height="9.204081632653072" fill="#7a4d9c" /><text x="2277.392156862745" y="237.79591836734693" text-anchor="middle" fill="#1a1a1a" font-size="9">9.20</text><text x="2264.3137254901962" y="262" transform="rotate(-35 2264.3137254901962 262)" text-anchor="end" fill="#1a1a1a" font-size="10">Ljubljana</text><rect x="2325.705882352941" y="240.85714285714286" width="24.15686274509804" height="9.142857142857139" fill="#7a4d9c" /><text x="2337.78431372549" y="237.85714285714286" text-anchor="middle" fill="#1a1a1a" font-size="9">9.14</text><text x="2324.705882352941" y="262" transform="rotate(-35 2324.705882352941 262)" text-anchor="end" fill="#1a1a1a" font-size="10">Dammam</text><rect x="2386.098039215686" y="240.89795918367346" width="24.15686274509804" height="9.102040816326536" fill="#7a4d9c" /><text x="2398.176470588235" y="237.89795918367346" text-anchor="middle" fill="#1a1a1a" font-size="9">9.10</text><text x="2385.098039215686" y="262" transform="rotate(-35 2385.098039215686 262)" text-anchor="end" fill="#1a1a1a" font-size="10">Zagreb</text><rect x="2446.4901960784314" y="241.05102040816325" width="24.15686274509804" height="8.948979591836746" fill="#7a4d9c" /><text x="2458.5686274509803" y="238.05102040816325" text-anchor="middle" fill="#1a1a1a" font-size="9">8.95</text><text x="2445.4901960784314" y="262" transform="rotate(-35 2445.4901960784314 262)" text-anchor="end" fill="#1a1a1a" font-size="10">Beirut</text><rect x="2506.8823529411766" y="241.09183673469389" width="24.15686274509804" height="8.908163265306115" fill="#7a4d9c" /><text x="2518.9607843137255" y="238.09183673469389" text-anchor="middle" fill="#1a1a1a" font-size="9">8.91</text><text x="2505.8823529411766" y="262" transform="rotate(-35 2505.8823529411766 262)" text-anchor="end" fill="#1a1a1a" font-size="10">Tirana</text><rect x="2567.2745098039213" y="241.20408163265307" width="24.15686274509804" height="8.795918367346928" fill="#7a4d9c" /><text x="2579.3529411764703" y="238.20408163265307" text-anchor="middle" fill="#1a1a1a" font-size="9">8.80</text><text x="2566.2745098039213" y="262" transform="rotate(-35 2566.2745098039213 262)" text-anchor="end" fill="#1a1a1a" font-size="10">Tripoli</text><rect x="2627.6666666666665" y="241.27551020408163" width="24.15686274509804" height="8.724489795918373" fill="#7a4d9c" /><text x="2639.7450980392155" y="238.27551020408163" text-anchor="middle" fill="#1a1a1a" font-size="9">8.72</text><text x="2626.6666666666665" y="262" transform="rotate(-35 2626.6666666666665 262)" text-anchor="end" fill="#1a1a1a" font-size="10">Damascus</text><rect x="2688.0588235294117" y="241.33673469387756" width="24.15686274509804" height="8.66326530612244" fill="#7a4d9c" /><text x="2700.1372549019607" y="238.33673469387756" text-anchor="middle" fill="#1a1a1a" font-size="9">8.66</text><text x="2687.0588235294117" y="262" transform="rotate(-35 2687.0588235294117 262)" text-anchor="end" fill="#1a1a1a" font-size="10">Belgrade</text><rect x="2748.450980392157" y="241.46938775510205" width="24.15686274509804" height="8.530612244897952" fill="#7a4d9c" /><text x="2760.529411764706" y="238.46938775510205" text-anchor="middle" fill="#1a1a1a" font-size="9">8.53</text><text x="2747.450980392157" y="262" transform="rotate(-35 2747.450980392157 262)" text-anchor="end" fill="#1a1a1a" font-size="10">Bucharest</text><rect x="2808.843137254902" y="241.5612244897959" width="24.15686274509804" height="8.438775510204096" fill="#7a4d9c" /><text x="2820.921568627451" y="238.5612244897959" text-anchor="middle" fill="#1a1a1a" font-size="9">8.44</text><text x="2807.843137254902" y="262" transform="rotate(-35 2807.843137254902 262)" text-anchor="end" fill="#1a1a1a" font-size="10">Sarajevo</text><rect x="2869.235294117647" y="241.64285714285714" width="24.15686274509804" height="8.357142857142861" fill="#7a4d9c" /><text x="2881.313725490196" y="238.64285714285714" text-anchor="middle" fill="#1a1a1a" font-size="9">8.36</text><text x="2868.235294117647" y="262" transform="rotate(-35 2868.235294117647 262)" text-anchor="end" fill="#1a1a1a" font-size="10">Athens</text><rect x="2929.627450980392" y="241.98214285714286" width="24.15686274509804" height="8.017857142857139" fill="#7a4d9c" /><text x="2941.705882352941" y="238.98214285714286" text-anchor="middle" fill="#1a1a1a" font-size="9">8.02</text><text x="2928.627450980392" y="262" transform="rotate(-35 2928.627450980392 262)" text-anchor="end" fill="#1a1a1a" font-size="10">Algiers</text><rect x="2990.0196078431372" y="242.0408163265306" width="24.15686274509804" height="7.959183673469397" fill="#7a4d9c" /><text x="3002.098039215686" y="239.0408163265306" text-anchor="middle" fill="#1a1a1a" font-size="9">7.96</text><text x="2989.0196078431372" y="262" transform="rotate(-35 2989.0196078431372 262)" text-anchor="end" fill="#1a1a1a" font-size="10">Pristina</text><rect x="3050.4117647058824" y="242.07142857142858" width="24.15686274509804" height="7.928571428571416" fill="#7a4d9c" /><text x="3062.4901960784314" y="239.07142857142858" text-anchor="middle" fill="#1a1a1a" font-size="9">7.93</text><text x="3049.4117647058824" y="262" transform="rotate(-35 3049.4117647058824 262)" text-anchor="end" fill="#1a1a1a" font-size="10">Podgorica</text><rect x="3110.803921568627" y="242.1122448979592" width="24.15686274509804" height="7.887755102040813" fill="#7a4d9c" /><text x="3122.882352941176" y="239.1122448979592" text-anchor="middle" fill="#1a1a1a" font-size="9">7.89</text><text x="3109.803921568627" y="262" transform="rotate(-35 3109.803921568627 262)" text-anchor="end" fill="#1a1a1a" font-size="10">Rome</text><rect x="3171.1960784313724" y="242.16326530612244" width="24.15686274509804" height="7.83673469387756" fill="#7a4d9c" /><text x="3183.2745098039213" y="239.16326530612244" text-anchor="middle" fill="#1a1a1a" font-size="9">7.84</text><text x="3170.1960784313724" y="262" transform="rotate(-35 3170.1960784313724 262)" text-anchor="end" fill="#1a1a1a" font-size="10">Skopje</text><rect x="3231.5882352941176" y="242.57142857142858" width="24.15686274509804" height="7.428571428571416" fill="#7a4d9c" /><text x="3243.6666666666665" y="239.57142857142858" text-anchor="middle" fill="#1a1a1a" font-size="9">7.43</text><text x="3230.5882352941176" y="262" transform="rotate(-35 3230.5882352941176 262)" text-anchor="end" fill="#1a1a1a" font-size="10">Madrid</text><rect x="3291.9803921568628" y="242.81632653061226" width="24.15686274509804" height="7.183673469387742" fill="#7a4d9c" /><text x="3304.0588235294117" y="239.81632653061226" text-anchor="middle" fill="#1a1a1a" font-size="9">7.18</text><text x="3290.9803921568628" y="262" transform="rotate(-35 3290.9803921568628 262)" text-anchor="end" fill="#1a1a1a" font-size="10">Pyongyang</text><rect x="3352.372549019608" y="242.9795918367347" width="24.15686274509804" height="7.0204081632653015" fill="#7a4d9c" /><text x="3364.450980392157" y="239.9795918367347" text-anchor="middle" fill="#1a1a1a" font-size="9">7.02</text><text x="3351.372549019608" y="262" transform="rotate(-35 3351.372549019608 262)" text-anchor="end" fill="#1a1a1a" font-size="10">New Delhi</text><rect x="3412.7647058823527" y="242.9795918367347" width="24.15686274509804" height="7.0204081632653015" fill="#7a4d9c" /><text x="3424.8431372549016" y="239.9795918367347" text-anchor="middle" fill="#1a1a1a" font-size="9">7.02</text><text x="3411.7647058823527" y="262" transform="rotate(-35 3411.7647058823527 262)" text-anchor="end" fill="#1a1a1a" font-size="10">Kathmandu</text><rect x="3473.156862745098" y="243.01020408163265" width="24.15686274509804" height="6.989795918367349" fill="#7a4d9c" /><text x="3485.235294117647" y="240.01020408163265" text-anchor="middle" fill="#1a1a1a" font-size="9">6.99</text><text x="3472.156862745098" y="262" transform="rotate(-35 3472.156862745098 262)" text-anchor="end" fill="#1a1a1a" font-size="10">Asmara</text><rect x="3533.549019607843" y="243.0612244897959" width="24.15686274509804" height="6.9387755102040956" fill="#7a4d9c" /><text x="3545.627450980392" y="240.0612244897959" text-anchor="middle" fill="#1a1a1a" font-size="9">6.94</text><text x="3532.549019607843" y="262" transform="rotate(-35 3532.549019607843 262)" text-anchor="end" fill="#1a1a1a" font-size="10">Seoul</text><rect x="3593.9411764705883" y="243.1122448979592" width="24.15686274509804" height="6.887755102040813" fill="#7a4d9c" /><text x="3606.0196078431372" y="240.1122448979592" text-anchor="middle" fill="#1a1a1a" font-size="9">6.89</text><text x="3592.9411764705883" y="262" transform="rotate(-35 3592.9411764705883 262)" text-anchor="end" fill="#1a1a1a" font-size="10">Minsk</text><rect x="3654.333333333333" y="243.12244897959184" width="24.15686274509804" height="6.877551020408163" fill="#7a4d9c" /><text x="3666.411764705882" y="240.12244897959184" text-anchor="middle" fill="#1a1a1a" font-size="9">6.88</text><text x="3653.333333333333" y="262" transform="rotate(-35 3653.333333333333 262)" text-anchor="end" fill="#1a1a1a" font-size="10">Port Louis</text><rect x="3714.725490196078" y="243.1734693877551" width="24.15686274509804" height="6.826530612244909" fill="#7a4d9c" /><text x="3726.803921568627" y="240.1734693877551" text-anchor="middle" fill="#1a1a1a" font-size="9">6.83</text><text x="3713.725490196078" y="262" transform="rotate(-35 3713.725490196078 262)" text-anchor="end" fill="#1a1a1a" font-size="10">N&apos;Djamena</text><rect x="3775.1176470588234" y="243.21428571428572" width="24.15686274509804" height="6.785714285714278" fill="#7a4d9c" /><text x="3787.1960784313724" y="240.21428571428572" text-anchor="middle" fill="#1a1a1a" font-size="9">6.79</text><text x="3774.1176470588234" y="262" transform="rotate(-35 3774.1176470588234 262)" text-anchor="end" fill="#1a1a1a" font-size="10">Antananarivo</text><rect x="3835.5098039215686" y="243.25510204081633" width="24.15686274509804" height="6.744897959183675" fill="#7a4d9c" /><text x="3847.5882352941176" y="240.25510204081633" text-anchor="middle" fill="#1a1a1a" font-size="9">6.74</text><text x="3834.5098039215686" y="262" transform="rotate(-35 3834.5098039215686 262)" text-anchor="end" fill="#1a1a1a" font-size="10">Thimphu</text><rect x="3895.901960784314" y="243.25510204081633" width="24.15686274509804" height="6.744897959183675" fill="#7a4d9c" /><text x="3907.9803921568628" y="240.25510204081633" text-anchor="middle" fill="#1a1a1a" font-size="9">6.74</text><text x="3894.901960784314" y="262" transform="rotate(-35 3894.901960784314 262)" text-anchor="end" fill="#1a1a1a" font-size="10">Ashgabat</text><rect x="3956.2941176470586" y="243.27551020408163" width="24.15686274509804" height="6.724489795918373" fill="#7a4d9c" /><text x="3968.3725490196075" y="240.27551020408163" text-anchor="middle" fill="#1a1a1a" font-size="9">6.72</text><text x="3955.2941176470586" y="262" transform="rotate(-35 3955.2941176470586 262)" text-anchor="end" fill="#1a1a1a" font-size="10">Djibouti</text><rect x="4016.6862745098038" y="243.27551020408163" width="24.15686274509804" height="6.724489795918373" fill="#7a4d9c" /><text x="4028.7647058823527" y="240.27551020408163" text-anchor="middle" fill="#1a1a1a" font-size="9">6.72</text><text x="4015.6862745098038" y="262" transform="rotate(-35 4015.6862745098038 262)" text-anchor="end" fill="#1a1a1a" font-size="10">Addis Ababa</text><rect x="4077.078431372549" y="243.31632653061226" width="24.15686274509804" height="6.683673469387742" fill="#7a4d9c" /><text x="4089.156862745098" y="240.31632653061226" text-anchor="middle" fill="#1a1a1a" font-size="9">6.68</text><text x="4076.078431372549" y="262" transform="rotate(-35 4076.078431372549 262)" text-anchor="end" fill="#1a1a1a" font-size="10">Lilongwe</text><rect x="4137.470588235294" y="243.33673469387756" width="24.15686274509804" height="6.66326530612244" fill="#7a4d9c" /><text x="4149.549019607843" y="240.33673469387756" text-anchor="middle" fill="#1a1a1a" font-size="9">6.66</text><text x="4136.470588235294" y="262" transform="rotate(-35 4136.470588235294 262)" text-anchor="end" fill="#1a1a1a" font-size="10">Tokyo</text><rect x="4197.862745098039" y="243.3673469387755" width="24.15686274509804" height="6.632653061224488" fill="#7a4d9c" /><text x="4209.941176470588" y="240.3673469387755" text-anchor="middle" fill="#1a1a1a" font-size="9">6.63</text><text x="4196.862745098039" y="262" transform="rotate(-35 4196.862745098039 262)" text-anchor="end" fill="#1a1a1a" font-size="10">Nairobi</text><rect x="4258.254901960784" y="243.3673469387755" width="24.15686274509804" height="6.632653061224488" fill="#7a4d9c" /><text x="4270.333333333333" y="240.3673469387755" text-anchor="middle" fill="#1a1a1a" font-size="9">6.63</text><text x="4257.254901960784" y="262" transform="rotate(-35 4257.254901960784 262)" text-anchor="end" fill="#1a1a1a" font-size="10">Kampala</text><rect x="4318.64705882353" y="243.42857142857142" width="24.15686274509804" height="6.571428571428584" fill="#7a4d9c" /><text x="4330.725490196079" y="240.42857142857142" text-anchor="middle" fill="#1a1a1a" font-size="9">6.57</text><text x="4317.64705882353" y="262" transform="rotate(-35 4317.64705882353 262)" text-anchor="end" fill="#1a1a1a" font-size="10">Dhaka</text><rect x="4379.0392156862745" y="243.42857142857142" width="24.15686274509804" height="6.571428571428584" fill="#7a4d9c" /><text x="4391.117647058823" y="240.42857142857142" text-anchor="middle" fill="#1a1a1a" font-size="9">6.57</text><text x="4378.0392156862745" y="262" transform="rotate(-35 4378.0392156862745 262)" text-anchor="end" fill="#1a1a1a" font-size="10">Moroni</text><rect x="4439.431372549019" y="243.4795918367347" width="24.15686274509804" height="6.5204081632653015" fill="#7a4d9c" /><text x="4451.509803921568" y="240.4795918367347" text-anchor="middle" fill="#1a1a1a" font-size="9">6.52</text><text x="4438.431372549019" y="262" transform="rotate(-35 4438.431372549019 262)" text-anchor="end" fill="#1a1a1a" font-size="10">Kigali</text><rect x="4499.823529411765" y="243.51020408163265" width="24.15686274509804" height="6.489795918367349" fill="#7a4d9c" /><text x="4511.901960784314" y="240.51020408163265" text-anchor="middle" fill="#1a1a1a" font-size="9">6.49</text><text x="4498.823529411765" y="262" transform="rotate(-35 4498.823529411765 262)" text-anchor="end" fill="#1a1a1a" font-size="10">Dodoma</text><rect x="4560.21568627451" y="243.53061224489795" width="24.15686274509804" height="6.469387755102048" fill="#7a4d9c" /><text x="4572.294117647059" y="240.53061224489795" text-anchor="middle" fill="#1a1a1a" font-size="9">6.47</text><text x="4559.21568627451" y="262" transform="rotate(-35 4559.21568627451 262)" text-anchor="end" fill="#1a1a1a" font-size="10">Mogadishu</text><rect x="4620.607843137254" y="243.55102040816325" width="24.15686274509804" height="6.448979591836746" fill="#7a4d9c" /><text x="4632.686274509803" y="240.55102040816325" text-anchor="middle" fill="#1a1a1a" font-size="9">6.45</text><text x="4619.607843137254" y="262" transform="rotate(-35 4619.607843137254 262)" text-anchor="end" fill="#1a1a1a" font-size="10">Gitega</text><rect x="4681" y="243.55102040816325" width="24.15686274509804" height="6.448979591836746" fill="#7a4d9c" /><text x="4693.078431372549" y="240.55102040816325" text-anchor="middle" fill="#1a1a1a" font-size="9">6.45</text><text x="4680" y="262" transform="rotate(-35 4680 262)" text-anchor="end" fill="#1a1a1a" font-size="10">Victoria</text><rect x="4741.392156862745" y="243.6122448979592" width="24.15686274509804" height="6.387755102040813" fill="#7a4d9c" /><text x="4753.470588235294" y="240.6122448979592" text-anchor="middle" fill="#1a1a1a" font-size="9">6.39</text><text x="4740.392156862745" y="262" transform="rotate(-35 4740.392156862745 262)" text-anchor="end" fill="#1a1a1a" font-size="10">Wellington</text><rect x="4801.78431372549" y="244.14285714285714" width="24.15686274509804" height="5.857142857142861" fill="#7a4d9c" /><text x="4813.862745098039" y="241.14285714285714" text-anchor="middle" fill="#1a1a1a" font-size="9">5.86</text><text x="4800.78431372549" y="262" transform="rotate(-35 4800.78431372549 262)" text-anchor="end" fill="#1a1a1a" font-size="10">Buenos Aires</text><rect x="4862.176470588235" y="244.20408163265307" width="24.15686274509804" height="5.795918367346928" fill="#7a4d9c" /><text x="4874.254901960784" y="241.20408163265307" text-anchor="middle" fill="#1a1a1a" font-size="9">5.80</text><text x="4861.176470588235" y="262" transform="rotate(-35 4861.176470588235 262)" text-anchor="end" fill="#1a1a1a" font-size="10">Canberra</text><rect x="4922.56862745098" y="244.21428571428572" width="24.15686274509804" height="5.785714285714278" fill="#7a4d9c" /><text x="4934.647058823529" y="241.21428571428572" text-anchor="middle" fill="#1a1a1a" font-size="9">5.79</text><text x="4921.56862745098" y="262" transform="rotate(-35 4921.56862745098 262)" text-anchor="end" fill="#1a1a1a" font-size="10">Montevideo</text><rect x="4982.9607843137255" y="244.31632653061226" width="24.15686274509804" height="5.683673469387742" fill="#7a4d9c" /><text x="4995.0392156862745" y="241.31632653061226" text-anchor="middle" fill="#1a1a1a" font-size="9">5.68</text><text x="4981.9607843137255" y="262" transform="rotate(-35 4981.9607843137255 262)" text-anchor="end" fill="#1a1a1a" font-size="10">Malé</text><rect x="5043.35294117647" y="244.33673469387756" width="24.15686274509804" height="5.66326530612244" fill="#7a4d9c" /><text x="5055.431372549019" y="241.33673469387756" text-anchor="middle" fill="#1a1a1a" font-size="9">5.66</text><text x="5042.35294117647" y="262" transform="rotate(-35 5042.35294117647 262)" text-anchor="end" fill="#1a1a1a" font-size="10">Santiago</text><rect x="5103.745098039216" y="244.3877551020408" width="24.15686274509804" height="5.612244897959187" fill="#7a4d9c" /><text x="5115.823529411765" y="241.3877551020408" text-anchor="middle" fill="#1a1a1a" font-size="9">5.61</text><text x="5102.745098039216" y="262" transform="rotate(-35 5102.745098039216 262)" text-anchor="end" fill="#1a1a1a" font-size="10">Taipei</text><rect x="5164.137254901961" y="244.4795918367347" width="24.15686274509804" height="5.5204081632653015" fill="#7a4d9c" /><text x="5176.21568627451" y="241.4795918367347" text-anchor="middle" fill="#1a1a1a" font-size="9">5.52</text><text x="5163.137254901961" y="262" transform="rotate(-35 5163.137254901961 262)" text-anchor="end" fill="#1a1a1a" font-size="10">Havana</text><rect x="5224.529411764705" y="244.6530612244898" width="24.15686274509804" height="5.3469387755102105" fill="#7a4d9c" /><text x="5236.607843137254" y="241.6530612244898" text-anchor="middle" fill="#1a1a1a" font-size="9">5.35</text><text x="5223.529411764705" y="262" transform="rotate(-35 5223.529411764705 262)" text-anchor="end" fill="#1a1a1a" font-size="10">Hanoi</text><rect x="5284.921568627451" y="244.71428571428572" width="24.15686274509804" height="5.285714285714278" fill="#7a4d9c" /><text x="5297" y="241.71428571428572" text-anchor="middle" fill="#1a1a1a" font-size="9">5.29</text><text x="5283.921568627451" y="262" transform="rotate(-35 5283.921568627451 262)" text-anchor="end" fill="#1a1a1a" font-size="10">Abu Dhabi</text><rect x="5345.313725490196" y="244.72448979591837" width="24.15686274509804" height="5.275510204081627" fill="#7a4d9c" /><text x="5357.392156862745" y="241.72448979591837" text-anchor="middle" fill="#1a1a1a" font-size="9">5.28</text><text x="5344.313725490196" y="262" transform="rotate(-35 5344.313725490196 262)" text-anchor="end" fill="#1a1a1a" font-size="10">Naypyidaw</text><rect x="5405.705882352941" y="244.78571428571428" width="24.15686274509804" height="5.214285714285722" fill="#7a4d9c" /><text x="5417.78431372549" y="241.78571428571428" text-anchor="middle" fill="#1a1a1a" font-size="9">5.21</text><text x="5404.705882352941" y="262" transform="rotate(-35 5404.705882352941 262)" text-anchor="end" fill="#1a1a1a" font-size="10">Santo Domingo</text><rect x="5466.098039215686" y="244.80357142857142" width="24.15686274509804" height="5.196428571428584" fill="#7a4d9c" /><text x="5478.176470588235" y="241.80357142857142" text-anchor="middle" fill="#1a1a1a" font-size="9">5.20</text><text x="5465.098039215686" y="262" transform="rotate(-35 5465.098039215686 262)" text-anchor="end" fill="#1a1a1a" font-size="10">Singapore</text><rect x="5526.490196078431" y="244.80612244897958" width="24.15686274509804" height="5.193877551020421" fill="#7a4d9c" /><text x="5538.56862745098" y="241.80612244897958" text-anchor="middle" fill="#1a1a1a" font-size="9">5.19</text><text x="5525.490196078431" y="262" transform="rotate(-35 5525.490196078431 262)" text-anchor="end" fill="#1a1a1a" font-size="10">Kingston</text><rect x="5586.882352941177" y="244.81632653061226" width="24.15686274509804" height="5.183673469387742" fill="#7a4d9c" /><text x="5598.9607843137255" y="241.81632653061226" text-anchor="middle" fill="#1a1a1a" font-size="9">5.18</text><text x="5585.882352941177" y="262" transform="rotate(-35 5585.882352941177 262)" text-anchor="end" fill="#1a1a1a" font-size="10">Vientiane</text><rect x="5647.274509803921" y="244.8673469387755" width="24.15686274509804" height="5.132653061224488" fill="#7a4d9c" /><text x="5659.35294117647" y="241.8673469387755" text-anchor="middle" fill="#1a1a1a" font-size="9">5.13</text><text x="5646.274509803921" y="262" transform="rotate(-35 5646.274509803921 262)" text-anchor="end" fill="#1a1a1a" font-size="10">Nouakchott</text><rect x="5707.666666666667" y="244.9591836734694" width="24.15686274509804" height="5.040816326530603" fill="#7a4d9c" /><text x="5719.745098039216" y="241.9591836734694" text-anchor="middle" fill="#1a1a1a" font-size="9">5.04</text><text x="5706.666666666667" y="262" transform="rotate(-35 5706.666666666667 262)" text-anchor="end" fill="#1a1a1a" font-size="10">Sanaa</text><rect x="5768.058823529412" y="244.96938775510205" width="24.15686274509804" height="5.030612244897952" fill="#7a4d9c" /><text x="5780.137254901961" y="241.96938775510205" text-anchor="middle" fill="#1a1a1a" font-size="9">5.03</text><text x="5767.058823529412" y="262" transform="rotate(-35 5767.058823529412 262)" text-anchor="end" fill="#1a1a1a" font-size="10">Guatemala City</text><rect x="5828.450980392156" y="244.96938775510205" width="24.15686274509804" height="5.030612244897952" fill="#7a4d9c" /><text x="5840.529411764705" y="241.96938775510205" text-anchor="middle" fill="#1a1a1a" font-size="9">5.03</text><text x="5827.450980392156" y="262" transform="rotate(-35 5827.450980392156 262)" text-anchor="end" fill="#1a1a1a" font-size="10">Manila</text><rect x="5888.843137254902" y="244.96938775510205" width="24.15686274509804" height="5.030612244897952" fill="#7a4d9c" /><text x="5900.921568627451" y="241.96938775510205" text-anchor="middle" fill="#1a1a1a" font-size="9">5.03</text><text x="5887.843137254902" y="262" transform="rotate(-35 5887.843137254902 262)" text-anchor="end" fill="#1a1a1a" font-size="10">Praia</text><rect x="5949.235294117647" y="244.9795918367347" width="24.15686274509804" height="5.0204081632653015" fill="#7a4d9c" /><text x="5961.313725490196" y="241.9795918367347" text-anchor="middle" fill="#1a1a1a" font-size="9">5.02</text><text x="5948.235294117647" y="262" transform="rotate(-35 5948.235294117647 262)" text-anchor="end" fill="#1a1a1a" font-size="10">Bangkok</text><rect x="6009.627450980392" y="245" width="24.15686274509804" height="5" fill="#7a4d9c" /><text x="6021.7058823529405" y="242" text-anchor="middle" fill="#1a1a1a" font-size="9">5.00</text><text x="6008.627450980392" y="262" transform="rotate(-35 6008.627450980392 262)" text-anchor="end" fill="#1a1a1a" font-size="10">Dakar</text><rect x="6070.019607843137" y="245" width="24.15686274509804" height="5" fill="#7a4d9c" /><text x="6082.098039215686" y="242" text-anchor="middle" fill="#1a1a1a" font-size="9">5.00</text><text x="6069.019607843137" y="262" transform="rotate(-35 6069.019607843137 262)" text-anchor="end" fill="#1a1a1a" font-size="10">Harare</text><rect x="6130.411764705882" y="245.01020408163265" width="24.15686274509804" height="4.989795918367349" fill="#7a4d9c" /><text x="6142.490196078431" y="242.01020408163265" text-anchor="middle" fill="#1a1a1a" font-size="9">4.99</text><text x="6129.411764705882" y="262" transform="rotate(-35 6129.411764705882 262)" text-anchor="end" fill="#1a1a1a" font-size="10">Ouagadougou</text><rect x="6190.803921568628" y="245.01020408163265" width="24.15686274509804" height="4.989795918367349" fill="#7a4d9c" /><text x="6202.882352941177" y="242.01020408163265" text-anchor="middle" fill="#1a1a1a" font-size="9">4.99</text><text x="6189.803921568628" y="262" transform="rotate(-35 6189.803921568628 262)" text-anchor="end" fill="#1a1a1a" font-size="10">Bissau</text><rect x="6251.196078431372" y="245.05102040816325" width="24.15686274509804" height="4.948979591836746" fill="#7a4d9c" /><text x="6263.274509803921" y="242.05102040816325" text-anchor="middle" fill="#1a1a1a" font-size="9">4.95</text><text x="6250.196078431372" y="262" transform="rotate(-35 6250.196078431372 262)" text-anchor="end" fill="#1a1a1a" font-size="10">Bamako</text><rect x="6311.588235294117" y="245.0612244897959" width="24.15686274509804" height="4.9387755102040956" fill="#7a4d9c" /><text x="6323.666666666666" y="242.0612244897959" text-anchor="middle" fill="#1a1a1a" font-size="9">4.94</text><text x="6310.588235294117" y="262" transform="rotate(-35 6310.588235294117 262)" text-anchor="end" fill="#1a1a1a" font-size="10">Banjul</text><rect x="6371.980392156863" y="245.0612244897959" width="24.15686274509804" height="4.9387755102040956" fill="#7a4d9c" /><text x="6384.058823529412" y="242.0612244897959" text-anchor="middle" fill="#1a1a1a" font-size="9">4.94</text><text x="6370.980392156863" y="262" transform="rotate(-35 6370.980392156863 262)" text-anchor="end" fill="#1a1a1a" font-size="10">Port of Spain</text><rect x="6432.3725490196075" y="245.08163265306123" width="24.15686274509804" height="4.918367346938766" fill="#7a4d9c" /><text x="6444.450980392156" y="242.08163265306123" text-anchor="middle" fill="#1a1a1a" font-size="9">4.92</text><text x="6431.3725490196075" y="262" transform="rotate(-35 6431.3725490196075 262)" text-anchor="end" fill="#1a1a1a" font-size="10">Niamey</text><rect x="6492.764705882353" y="245.1122448979592" width="24.15686274509804" height="4.887755102040813" fill="#7a4d9c" /><text x="6504.843137254902" y="242.1122448979592" text-anchor="middle" fill="#1a1a1a" font-size="9">4.89</text><text x="6491.764705882353" y="262" transform="rotate(-35 6491.764705882353 262)" text-anchor="end" fill="#1a1a1a" font-size="10">Suva</text><rect x="6553.156862745098" y="245.1122448979592" width="24.15686274509804" height="4.887755102040813" fill="#7a4d9c" /><text x="6565.235294117647" y="242.1122448979592" text-anchor="middle" fill="#1a1a1a" font-size="9">4.89</text><text x="6552.156862745098" y="262" transform="rotate(-35 6552.156862745098 262)" text-anchor="end" fill="#1a1a1a" font-size="10">Conakry</text><rect x="6613.549019607843" y="245.1122448979592" width="24.15686274509804" height="4.887755102040813" fill="#7a4d9c" /><text x="6625.627450980392" y="242.1122448979592" text-anchor="middle" fill="#1a1a1a" font-size="9">4.89</text><text x="6612.549019607843" y="262" transform="rotate(-35 6612.549019607843 262)" text-anchor="end" fill="#1a1a1a" font-size="10">Lusaka</text><rect x="6673.941176470588" y="245.1326530612245" width="24.15686274509804" height="4.867346938775512" fill="#7a4d9c" /><text x="6686.019607843137" y="242.1326530612245" text-anchor="middle" fill="#1a1a1a" font-size="9">4.87</text><text x="6672.941176470588" y="262" transform="rotate(-35 6672.941176470588 262)" text-anchor="end" fill="#1a1a1a" font-size="10">Brasília</text><rect x="6734.333333333333" y="245.14285714285714" width="24.15686274509804" height="4.857142857142861" fill="#7a4d9c" /><text x="6746.411764705882" y="242.14285714285714" text-anchor="middle" fill="#1a1a1a" font-size="9">4.86</text><text x="6733.333333333333" y="262" transform="rotate(-35 6733.333333333333 262)" text-anchor="end" fill="#1a1a1a" font-size="10">Phnom Penh</text><rect x="6794.725490196079" y="245.14285714285714" width="24.15686274509804" height="4.857142857142861" fill="#7a4d9c" /><text x="6806.803921568628" y="242.14285714285714" text-anchor="middle" fill="#1a1a1a" font-size="9">4.86</text><text x="6793.725490196079" y="262" transform="rotate(-35 6793.725490196079 262)" text-anchor="end" fill="#1a1a1a" font-size="10">Freetown</text><rect x="6855.117647058823" y="245.1530612244898" width="24.15686274509804" height="4.8469387755102105" fill="#7a4d9c" /><text x="6867.196078431372" y="242.1530612244898" text-anchor="middle" fill="#1a1a1a" font-size="9">4.85</text><text x="6854.117647058823" y="262" transform="rotate(-35 6854.117647058823 262)" text-anchor="end" fill="#1a1a1a" font-size="10">Yamoussoukro</text><rect x="6915.509803921568" y="245.1530612244898" width="24.15686274509804" height="4.8469387755102105" fill="#7a4d9c" /><text x="6927.588235294117" y="242.1530612244898" text-anchor="middle" fill="#1a1a1a" font-size="9">4.85</text><text x="6914.509803921568" y="262" transform="rotate(-35 6914.509803921568 262)" text-anchor="end" fill="#1a1a1a" font-size="10">Malabo</text><rect x="6975.901960784314" y="245.1530612244898" width="24.15686274509804" height="4.8469387755102105" fill="#7a4d9c" /><text x="6987.980392156863" y="242.1530612244898" text-anchor="middle" fill="#1a1a1a" font-size="9">4.85</text><text x="6974.901960784314" y="262" transform="rotate(-35 6974.901960784314 262)" text-anchor="end" fill="#1a1a1a" font-size="10">Abuja</text><rect x="7036.294117647059" y="245.1734693877551" width="24.15686274509804" height="4.826530612244909" fill="#7a4d9c" /><text x="7048.3725490196075" y="242.1734693877551" text-anchor="middle" fill="#1a1a1a" font-size="9">4.83</text><text x="7035.294117647059" y="262" transform="rotate(-35 7035.294117647059 262)" text-anchor="end" fill="#1a1a1a" font-size="10">Luanda</text><rect x="7096.686274509804" y="245.1734693877551" width="24.15686274509804" height="4.826530612244909" fill="#7a4d9c" /><text x="7108.764705882353" y="242.1734693877551" text-anchor="middle" fill="#1a1a1a" font-size="9">4.83</text><text x="7095.686274509804" y="262" transform="rotate(-35 7095.686274509804 262)" text-anchor="end" fill="#1a1a1a" font-size="10">Port Moresby</text><rect x="7157.078431372549" y="245.18367346938774" width="24.15686274509804" height="4.816326530612258" fill="#7a4d9c" /><text x="7169.156862745098" y="242.18367346938774" text-anchor="middle" fill="#1a1a1a" font-size="9">4.82</text><text x="7156.078431372549" y="262" transform="rotate(-35 7156.078431372549 262)" text-anchor="end" fill="#1a1a1a" font-size="10">Georgetown</text><rect x="7217.470588235294" y="245.18367346938777" width="24.15686274509804" height="4.81632653061223" fill="#7a4d9c" /><text x="7229.549019607843" y="242.18367346938777" text-anchor="middle" fill="#1a1a1a" font-size="9">4.82</text><text x="7216.470588235294" y="262" transform="rotate(-35 7216.470588235294 262)" text-anchor="end" fill="#1a1a1a" font-size="10">Accra</text><rect x="7277.862745098039" y="245.18367346938777" width="24.15686274509804" height="4.81632653061223" fill="#7a4d9c" /><text x="7289.941176470588" y="242.18367346938777" text-anchor="middle" fill="#1a1a1a" font-size="9">4.82</text><text x="7276.862745098039" y="262" transform="rotate(-35 7276.862745098039 262)" text-anchor="end" fill="#1a1a1a" font-size="10">Paramaribo</text><rect x="7338.254901960784" y="245.19387755102042" width="24.15686274509804" height="4.806122448979579" fill="#7a4d9c" /><text x="7350.333333333333" y="242.19387755102042" text-anchor="middle" fill="#1a1a1a" font-size="9">4.81</text><text x="7337.254901960784" y="262" transform="rotate(-35 7337.254901960784 262)" text-anchor="end" fill="#1a1a1a" font-size="10">Lomé</text><rect x="7398.647058823529" y="245.20408163265307" width="24.15686274509804" height="4.795918367346928" fill="#7a4d9c" /><text x="7410.725490196078" y="242.20408163265307" text-anchor="middle" fill="#1a1a1a" font-size="9">4.80</text><text x="7397.647058823529" y="262" transform="rotate(-35 7397.647058823529 262)" text-anchor="end" fill="#1a1a1a" font-size="10">Yaoundé</text><rect x="7459.0392156862745" y="245.21428571428572" width="24.15686274509804" height="4.785714285714278" fill="#7a4d9c" /><text x="7471.117647058823" y="242.21428571428572" text-anchor="middle" fill="#1a1a1a" font-size="9">4.79</text><text x="7458.0392156862745" y="262" transform="rotate(-35 7458.0392156862745 262)" text-anchor="end" fill="#1a1a1a" font-size="10">Brazzaville</text><rect x="7519.431372549019" y="245.21428571428572" width="24.15686274509804" height="4.785714285714278" fill="#7a4d9c" /><text x="7531.509803921568" y="242.21428571428572" text-anchor="middle" fill="#1a1a1a" font-size="9">4.79</text><text x="7518.431372549019" y="262" transform="rotate(-35 7518.431372549019 262)" text-anchor="end" fill="#1a1a1a" font-size="10">Monrovia</text><rect x="7579.823529411765" y="245.21428571428572" width="24.15686274509804" height="4.785714285714278" fill="#7a4d9c" /><text x="7591.901960784314" y="242.21428571428572" text-anchor="middle" fill="#1a1a1a" font-size="9">4.79</text><text x="7578.823529411765" y="262" transform="rotate(-35 7578.823529411765 262)" text-anchor="end" fill="#1a1a1a" font-size="10">Lima</text><rect x="7640.21568627451" y="245.25510204081633" width="24.15686274509804" height="4.744897959183675" fill="#7a4d9c" /><text x="7652.294117647059" y="242.25510204081633" text-anchor="middle" fill="#1a1a1a" font-size="9">4.74</text><text x="7639.21568627451" y="262" transform="rotate(-35 7639.21568627451 262)" text-anchor="end" fill="#1a1a1a" font-size="10">Porto-Novo</text><rect x="7700.607843137254" y="245.25510204081633" width="24.15686274509804" height="4.744897959183675" fill="#7a4d9c" /><text x="7712.686274509803" y="242.25510204081633" text-anchor="middle" fill="#1a1a1a" font-size="9">4.74</text><text x="7699.607843137254" y="262" transform="rotate(-35 7699.607843137254 262)" text-anchor="end" fill="#1a1a1a" font-size="10">Bangui</text><rect x="7761" y="245.33673469387756" width="24.15686274509804" height="4.66326530612244" fill="#7a4d9c" /><text x="7773.078431372549" y="242.33673469387756" text-anchor="middle" fill="#1a1a1a" font-size="9">4.66</text><text x="7760" y="262" transform="rotate(-35 7760 262)" text-anchor="end" fill="#1a1a1a" font-size="10">Kinshasa</text><rect x="7821.392156862745" y="245.35714285714286" width="24.15686274509804" height="4.642857142857139" fill="#7a4d9c" /><text x="7833.470588235294" y="242.35714285714286" text-anchor="middle" fill="#1a1a1a" font-size="9">4.64</text><text x="7820.392156862745" y="262" transform="rotate(-35 7820.392156862745 262)" text-anchor="end" fill="#1a1a1a" font-size="10">Libreville</text><rect x="7881.78431372549" y="245.3673469387755" width="24.15686274509804" height="4.632653061224488" fill="#7a4d9c" /><text x="7893.862745098039" y="242.3673469387755" text-anchor="middle" fill="#1a1a1a" font-size="9">4.63</text><text x="7880.78431372549" y="262" transform="rotate(-35 7880.78431372549 262)" text-anchor="end" fill="#1a1a1a" font-size="10">São Tomé</text><rect x="7942.176470588235" y="245.89795918367346" width="24.15686274509804" height="4.102040816326536" fill="#7a4d9c" /><text x="7954.254901960784" y="242.89795918367346" text-anchor="middle" fill="#1a1a1a" font-size="9">4.10</text><text x="7941.176470588235" y="262" transform="rotate(-35 7941.176470588235 262)" text-anchor="end" fill="#1a1a1a" font-size="10">Amman</text><rect x="8002.56862745098" y="245.9387755102041" width="24.15686274509804" height="4.0612244897959044" fill="#7a4d9c" /><text x="8014.647058823529" y="242.9387755102041" text-anchor="middle" fill="#1a1a1a" font-size="9">4.06</text><text x="8001.56862745098" y="262" transform="rotate(-35 8001.56862745098 262)" text-anchor="end" fill="#1a1a1a" font-size="10">Muscat</text><rect x="8062.9607843137255" y="246.14285714285714" width="24.15686274509804" height="3.857142857142861" fill="#7a4d9c" /><text x="8075.0392156862745" y="243.14285714285714" text-anchor="middle" fill="#1a1a1a" font-size="9">3.86</text><text x="8061.9607843137255" y="262" transform="rotate(-35 8061.9607843137255 262)" text-anchor="end" fill="#1a1a1a" font-size="10">Limoges</text><rect x="8123.35294117647" y="246.26530612244898" width="24.15686274509804" height="3.734693877551024" fill="#7a4d9c" /><text x="8135.431372549019" y="243.26530612244898" text-anchor="middle" fill="#1a1a1a" font-size="9">3.73</text><text x="8122.35294117647" y="262" transform="rotate(-35 8122.35294117647 262)" text-anchor="end" fill="#1a1a1a" font-size="10">Manama</text><rect x="8183.745098039216" y="246.9579831932773" width="24.15686274509804" height="3.0420168067226996" fill="#7a4d9c" /><text x="8195.823529411766" y="243.9579831932773" text-anchor="middle" fill="#1a1a1a" font-size="9">3.04</text><text x="8182.745098039216" y="262" transform="rotate(-35 8182.745098039216 262)" text-anchor="end" fill="#1a1a1a" font-size="10">Reykjavik</text><rect x="8244.137254901962" y="246.98979591836735" width="24.15686274509804" height="3.0102040816326507" fill="#7a4d9c" /><text x="8256.21568627451" y="243.98979591836735" text-anchor="middle" fill="#1a1a1a" font-size="9">3.01</text><text x="8243.137254901962" y="262" transform="rotate(-35 8243.137254901962 262)" text-anchor="end" fill="#1a1a1a" font-size="10">Kuwait City</text><rect x="8304.529411764706" y="247.14285714285714" width="24.15686274509804" height="2.857142857142861" fill="#7a4d9c" /><text x="8316.607843137255" y="244.14285714285714" text-anchor="middle" fill="#1a1a1a" font-size="9">2.86</text><text x="8303.529411764706" y="262" transform="rotate(-35 8303.529411764706 262)" text-anchor="end" fill="#1a1a1a" font-size="10">Marseille</text><rect x="8364.921568627451" y="247.14285714285714" width="24.15686274509804" height="2.857142857142861" fill="#7a4d9c" /><text x="8377" y="244.14285714285714" text-anchor="middle" fill="#1a1a1a" font-size="9">2.86</text><text x="8363.921568627451" y="262" transform="rotate(-35 8363.921568627451 262)" text-anchor="end" fill="#1a1a1a" font-size="10">Mulhouse</text><rect x="8399.156862745098" y="247.35714285714286" width="24.15686274509804" height="2.642857142857139" fill="#1f7a4d" /><text x="8411.235294117647" y="244.35714285714286" text-anchor="middle" fill="#1a1a1a" font-size="9">2.64</text><rect x="8425.313725490196" y="230.9313186813187" width="24.15686274509804" height="19.068681318681314" fill="#7a4d9c" /><text x="8437.392156862745" y="227.9313186813187" text-anchor="middle" fill="#1a1a1a" font-size="9">19.07</text><text x="8424.313725490196" y="262" transform="rotate(-35 8424.313725490196 262)" text-anchor="end" fill="#1a1a1a" font-size="10">Cairo</text><rect x="8459.549019607843" y="247.47857142857143" width="24.15686274509804" height="2.5214285714285722" fill="#1f7a4d" /><text x="8471.627450980392" y="244.47857142857143" text-anchor="middle" fill="#1a1a1a" font-size="9">2.52</text><text x="8484.70588235294" y="262" transform="rotate(-35 8484.70588235294 262)" text-anchor="end" fill="#1a1a1a" font-size="10">Alexandria</text><rect x="8546.098039215685" y="247.6858332142857" width="24.15686274509804" height="2.314166785714292" fill="#7a4d9c" /><text x="8558.176470588234" y="244.6858332142857" text-anchor="middle" fill="#1a1a1a" font-size="9">2.31</text><text x="8545.098039215685" y="262" transform="rotate(-35 8545.098039215685 262)" text-anchor="end" fill="#1a1a1a" font-size="10">Anchorage</text><rect x="8580.333333333334" y="247.78571428571428" width="24.15686274509804" height="2.2142857142857224" fill="#1f7a4d" /><text x="8592.411764705883" y="244.78571428571428" text-anchor="middle" fill="#1a1a1a" font-size="9">2.21</text><text x="8605.490196078432" y="262" transform="rotate(-35 8605.490196078432 262)" text-anchor="end" fill="#1a1a1a" font-size="10">Settat</text><rect x="8666.882352941177" y="247.80612244897958" width="24.15686274509804" height="2.193877551020421" fill="#7a4d9c" /><text x="8678.960784313726" y="244.80612244897958" text-anchor="middle" fill="#1a1a1a" font-size="9">2.19</text><text x="8665.882352941177" y="262" transform="rotate(-35 8665.882352941177 262)" text-anchor="end" fill="#1a1a1a" font-size="10">Bandar Seri Begawan</text><rect x="8727.274509803921" y="247.875" width="24.15686274509804" height="2.125" fill="#7a4d9c" /><text x="8739.35294117647" y="244.875" text-anchor="middle" fill="#1a1a1a" font-size="9">2.13</text><text x="8726.274509803921" y="262" transform="rotate(-35 8726.274509803921 262)" text-anchor="end" fill="#1a1a1a" font-size="10">Doha</text><rect x="8787.666666666666" y="247.9591836734694" width="24.15686274509804" height="2.040816326530603" fill="#7a4d9c" /><text x="8799.745098039215" y="244.9591836734694" text-anchor="middle" fill="#1a1a1a" font-size="9">2.04</text><text x="8786.666666666666" y="262" transform="rotate(-35 8786.666666666666 262)" text-anchor="end" fill="#1a1a1a" font-size="10">Jerusalem</text><rect x="8848.05882352941" y="248" width="24.15686274509804" height="2" fill="#7a4d9c" /><text x="8860.13725490196" y="245" text-anchor="middle" fill="#1a1a1a" font-size="9">2.00</text><text x="8847.05882352941" y="262" transform="rotate(-35 8847.05882352941 262)" text-anchor="end" fill="#1a1a1a" font-size="10">Bishkek</text><rect x="8908.450980392157" y="248.0290525510204" width="24.15686274509804" height="1.9709474489795866" fill="#7a4d9c" /><text x="8920.529411764706" y="245.0290525510204" text-anchor="middle" fill="#1a1a1a" font-size="9">1.97</text><text x="8907.450980392157" y="262" transform="rotate(-35 8907.450980392157 262)" text-anchor="end" fill="#1a1a1a" font-size="10">Helsinki</text><rect x="8968.843137254902" y="248.09183673469389" width="24.15686274509804" height="1.908163265306115" fill="#7a4d9c" /><text x="8980.921568627451" y="245.09183673469389" text-anchor="middle" fill="#1a1a1a" font-size="9">1.91</text><text x="8967.843137254902" y="262" transform="rotate(-35 8967.843137254902 262)" text-anchor="end" fill="#1a1a1a" font-size="10">Tashkent</text><rect x="9003.078431372549" y="248.10714285714286" width="24.15686274509804" height="1.8928571428571388" fill="#1f7a4d" /><text x="9015.156862745098" y="245.10714285714286" text-anchor="middle" fill="#1a1a1a" font-size="9">1.89</text><text x="9028.235294117647" y="262" transform="rotate(-35 9028.235294117647 262)" text-anchor="end" fill="#1a1a1a" font-size="10">Oujda</text><rect x="9063.470588235294" y="248.14285714285714" width="24.15686274509804" height="1.8571428571428612" fill="#1f7a4d" /><text x="9075.549019607843" y="245.14285714285714" text-anchor="middle" fill="#1a1a1a" font-size="9">1.86</text><text x="9088.627450980392" y="262" transform="rotate(-35 9088.627450980392 262)" text-anchor="end" fill="#1a1a1a" font-size="10">Taroudant</text><rect x="9150.019607843136" y="248.14285714285714" width="24.15686274509804" height="1.8571428571428612" fill="#7a4d9c" /><text x="9162.098039215685" y="245.14285714285714" text-anchor="middle" fill="#1a1a1a" font-size="9">1.86</text><text x="9149.019607843136" y="262" transform="rotate(-35 9149.019607843136 262)" text-anchor="end" fill="#1a1a1a" font-size="10">Ramallah</text><rect x="9210.411764705883" y="248.21428571428572" width="24.15686274509804" height="1.7857142857142776" fill="#7a4d9c" /><text x="9222.490196078432" y="245.21428571428572" text-anchor="middle" fill="#1a1a1a" font-size="9">1.79</text><text x="9209.411764705883" y="262" transform="rotate(-35 9209.411764705883 262)" text-anchor="end" fill="#1a1a1a" font-size="10">Kuwait</text><rect x="9270.803921568628" y="248.24489795918367" width="24.15686274509804" height="1.7551020408163254" fill="#7a4d9c" /><text x="9282.882352941177" y="245.24489795918367" text-anchor="middle" fill="#1a1a1a" font-size="9">1.76</text><text x="9269.803921568628" y="262" transform="rotate(-35 9269.803921568628 262)" text-anchor="end" fill="#1a1a1a" font-size="10">Beijing</text><rect x="9305.039215686274" y="248.28571428571428" width="24.15686274509804" height="1.7142857142857224" fill="#1f7a4d" /><text x="9317.117647058823" y="245.28571428571428" text-anchor="middle" fill="#1a1a1a" font-size="9">1.71</text><text x="9330.196078431372" y="262" transform="rotate(-35 9330.196078431372 262)" text-anchor="end" fill="#1a1a1a" font-size="10">Ouarzazate</text><rect x="9365.43137254902" y="248.28571428571428" width="24.15686274509804" height="1.7142857142857224" fill="#1f7a4d" /><text x="9377.509803921568" y="245.28571428571428" text-anchor="middle" fill="#1a1a1a" font-size="9">1.71</text><text x="9390.588235294117" y="262" transform="rotate(-35 9390.588235294117 262)" text-anchor="end" fill="#1a1a1a" font-size="10">Errachidia</text><rect x="9451.980392156862" y="248.29591836734693" width="24.15686274509804" height="1.7040816326530717" fill="#7a4d9c" /><text x="9464.05882352941" y="245.29591836734693" text-anchor="middle" fill="#1a1a1a" font-size="9">1.70</text><text x="9450.980392156862" y="262" transform="rotate(-35 9450.980392156862 262)" text-anchor="end" fill="#1a1a1a" font-size="10">Dushanbe</text><rect x="9486.21568627451" y="248.30714285714285" width="24.15686274509804" height="1.6928571428571502" fill="#1f7a4d" /><text x="9498.29411764706" y="245.30714285714285" text-anchor="middle" fill="#1a1a1a" font-size="9">1.69</text><rect x="9512.372549019608" y="233.27197802197801" width="24.15686274509804" height="16.728021978021985" fill="#7a4d9c" /><text x="9524.450980392157" y="230.27197802197801" text-anchor="middle" fill="#1a1a1a" font-size="9">16.73</text><text x="9511.372549019608" y="262" transform="rotate(-35 9511.372549019608 262)" text-anchor="end" fill="#1a1a1a" font-size="10">London</text><rect x="9572.764705882353" y="248.31632653061226" width="24.15686274509804" height="1.6836734693877418" fill="#7a4d9c" /><text x="9584.843137254902" y="245.31632653061226" text-anchor="middle" fill="#1a1a1a" font-size="9">1.68</text><text x="9571.764705882353" y="262" transform="rotate(-35 9571.764705882353 262)" text-anchor="end" fill="#1a1a1a" font-size="10">Tromsø</text><rect x="9607" y="248.42857142857142" width="24.15686274509804" height="1.5714285714285836" fill="#1f7a4d" /><text x="9619.078431372549" y="245.42857142857142" text-anchor="middle" fill="#1a1a1a" font-size="9">1.57</text><rect x="9633.156862745098" y="224.37394957983193" width="24.15686274509804" height="25.62605042016807" fill="#7a4d9c" /><text x="9645.235294117647" y="221.37394957983193" text-anchor="middle" fill="#1a1a1a" font-size="9">25.63</text><text x="9632.156862745098" y="262" transform="rotate(-35 9632.156862745098 262)" text-anchor="end" fill="#1a1a1a" font-size="10">Rabat</text><rect x="9667.392156862745" y="248.42857142857142" width="24.15686274509804" height="1.5714285714285836" fill="#1f7a4d" /><text x="9679.470588235294" y="245.42857142857142" text-anchor="middle" fill="#1a1a1a" font-size="9">1.57</text><text x="9692.549019607843" y="262" transform="rotate(-35 9692.549019607843 262)" text-anchor="end" fill="#1a1a1a" font-size="10">Khouribga</text><rect x="9727.78431372549" y="248.57142857142858" width="24.15686274509804" height="1.4285714285714164" fill="#1f7a4d" /><text x="9739.862745098038" y="245.57142857142858" text-anchor="middle" fill="#1a1a1a" font-size="9">1.43</text><text x="9752.941176470587" y="262" transform="rotate(-35 9752.941176470587 262)" text-anchor="end" fill="#1a1a1a" font-size="10">Nador</text><rect x="9788.176470588236" y="248.64285714285714" width="24.15686274509804" height="1.3571428571428612" fill="#1f7a4d" /><text x="9800.254901960785" y="245.64285714285714" text-anchor="middle" fill="#1a1a1a" font-size="9">1.36</text><text x="9813.333333333334" y="262" transform="rotate(-35 9813.333333333334 262)" text-anchor="end" fill="#1a1a1a" font-size="10">Kenitra</text><rect x="9848.56862745098" y="248.67857142857142" width="24.15686274509804" height="1.3214285714285836" fill="#1f7a4d" /><text x="9860.64705882353" y="245.67857142857142" text-anchor="middle" fill="#1a1a1a" font-size="9">1.32</text><text x="9873.725490196079" y="262" transform="rotate(-35 9873.725490196079 262)" text-anchor="end" fill="#1a1a1a" font-size="10">Tanger</text><rect x="9935.117647058823" y="248.67857142857142" width="24.15686274509804" height="1.3214285714285836" fill="#7a4d9c" /><text x="9947.196078431372" y="245.67857142857142" text-anchor="middle" fill="#1a1a1a" font-size="9">1.32</text><text x="9934.117647058823" y="262" transform="rotate(-35 9934.117647058823 262)" text-anchor="end" fill="#1a1a1a" font-size="10">Mecca</text><rect x="9969.35294117647" y="248.71428571428572" width="24.15686274509804" height="1.2857142857142776" fill="#1f7a4d" /><text x="9981.43137254902" y="245.71428571428572" text-anchor="middle" fill="#1a1a1a" font-size="9">1.29</text><rect x="9995.509803921568" y="249.07142857142858" width="24.15686274509804" height="0.9285714285714164" fill="#7a4d9c" /><text x="10007.588235294117" y="246.07142857142858" text-anchor="middle" fill="#1a1a1a" font-size="9">0.93</text><text x="9994.509803921568" y="262" transform="rotate(-35 9994.509803921568 262)" text-anchor="end" fill="#1a1a1a" font-size="10">Casablanca</text><rect x="10029.745098039215" y="248.71428571428572" width="24.15686274509804" height="1.2857142857142776" fill="#1f7a4d" /><text x="10041.823529411764" y="245.71428571428572" text-anchor="middle" fill="#1a1a1a" font-size="9">1.29</text><text x="10054.901960784313" y="262" transform="rotate(-35 10054.901960784313 262)" text-anchor="end" fill="#1a1a1a" font-size="10">Essaouira</text><rect x="10090.137254901962" y="248.78571428571428" width="24.15686274509804" height="1.2142857142857224" fill="#1f7a4d" /><text x="10102.21568627451" y="245.78571428571428" text-anchor="middle" fill="#1a1a1a" font-size="9">1.21</text><text x="10115.29411764706" y="262" transform="rotate(-35 10115.29411764706 262)" text-anchor="end" fill="#1a1a1a" font-size="10">Taza</text><rect x="10150.529411764706" y="248.85714285714286" width="24.15686274509804" height="1.1428571428571388" fill="#1f7a4d" /><text x="10162.607843137255" y="245.85714285714286" text-anchor="middle" fill="#1a1a1a" font-size="9">1.14</text><text x="10175.686274509804" y="262" transform="rotate(-35 10175.686274509804 262)" text-anchor="end" fill="#1a1a1a" font-size="10">Safi</text><rect x="10237.078431372549" y="248.85714285714286" width="24.15686274509804" height="1.1428571428571388" fill="#7a4d9c" /><text x="10249.156862745098" y="245.85714285714286" text-anchor="middle" fill="#1a1a1a" font-size="9">1.14</text><text x="10236.078431372549" y="262" transform="rotate(-35 10236.078431372549 262)" text-anchor="end" fill="#1a1a1a" font-size="10">Bogota</text><rect x="10271.313725490196" y="248.92857142857142" width="24.15686274509804" height="1.0714285714285836" fill="#1f7a4d" /><text x="10283.392156862745" y="245.92857142857142" text-anchor="middle" fill="#1a1a1a" font-size="9">1.07</text><text x="10296.470588235294" y="262" transform="rotate(-35 10296.470588235294 262)" text-anchor="end" fill="#1a1a1a" font-size="10">Marrakech</text><rect x="10331.70588235294" y="248.92857142857142" width="24.15686274509804" height="1.0714285714285836" fill="#1f7a4d" /><text x="10343.78431372549" y="245.92857142857142" text-anchor="middle" fill="#1a1a1a" font-size="9">1.07</text><text x="10356.862745098038" y="262" transform="rotate(-35 10356.862745098038 262)" text-anchor="end" fill="#1a1a1a" font-size="10">Meknes</text><rect x="10392.098039215685" y="249.07142857142858" width="24.15686274509804" height="0.9285714285714164" fill="#1f7a4d" /><text x="10404.176470588234" y="246.07142857142858" text-anchor="middle" fill="#1a1a1a" font-size="9">0.93</text><text x="10417.254901960783" y="262" transform="rotate(-35 10417.254901960783 262)" text-anchor="end" fill="#1a1a1a" font-size="10">Sale</text><rect x="10452.490196078432" y="249.0935119047619" width="24.15686274509804" height="0.9064880952381031" fill="#1f7a4d" /><text x="10464.56862745098" y="246.0935119047619" text-anchor="middle" fill="#1a1a1a" font-size="9">0.91</text><rect x="10478.64705882353" y="248.16326530612244" width="24.15686274509804" height="1.8367346938775597" fill="#7a4d9c" /><text x="10490.725490196079" y="245.16326530612244" text-anchor="middle" fill="#1a1a1a" font-size="9">1.84</text><text x="10477.64705882353" y="262" transform="rotate(-35 10477.64705882353 262)" text-anchor="end" fill="#1a1a1a" font-size="10">Kuala Lumpur</text><rect x="10512.882352941177" y="249.14285714285714" width="24.15686274509804" height="0.8571428571428612" fill="#1f7a4d" /><text x="10524.960784313726" y="246.14285714285714" text-anchor="middle" fill="#1a1a1a" font-size="9">0.86</text><text x="10538.039215686274" y="262" transform="rotate(-35 10538.039215686274 262)" text-anchor="end" fill="#1a1a1a" font-size="10">Agadir</text><rect x="10573.274509803921" y="249.20162523809523" width="24.15686274509804" height="0.7983747619047676" fill="#1f7a4d" /><text x="10585.35294117647" y="246.20162523809523" text-anchor="middle" fill="#1a1a1a" font-size="9">0.80</text><text x="10598.43137254902" y="262" transform="rotate(-35 10598.43137254902 262)" text-anchor="end" fill="#1a1a1a" font-size="10">George Town</text><rect x="10659.823529411764" y="249.2091836734694" width="24.15686274509804" height="0.790816326530603" fill="#7a4d9c" /><text x="10671.901960784313" y="246.2091836734694" text-anchor="middle" fill="#1a1a1a" font-size="9">0.79</text><text x="10658.823529411764" y="262" transform="rotate(-35 10658.823529411764 262)" text-anchor="end" fill="#1a1a1a" font-size="10">La Paz</text><rect x="10720.215686274509" y="249.29364846938776" width="24.15686274509804" height="0.7063515306122383" fill="#7a4d9c" /><text x="10732.294117647058" y="246.29364846938776" text-anchor="middle" fill="#1a1a1a" font-size="9">0.71</text><text x="10719.215686274509" y="262" transform="rotate(-35 10719.215686274509 262)" text-anchor="end" fill="#1a1a1a" font-size="10">Copenhagen</text><rect x="10780.607843137255" y="249.30220459183673" width="24.15686274509804" height="0.6977954081632731" fill="#7a4d9c" /><text x="10792.686274509804" y="246.30220459183673" text-anchor="middle" fill="#1a1a1a" font-size="9">0.70</text><text x="10779.607843137255" y="262" transform="rotate(-35 10779.607843137255 262)" text-anchor="end" fill="#1a1a1a" font-size="10">Tallinn</text><rect x="10814.843137254902" y="249.30714285714285" width="24.15686274509804" height="0.6928571428571502" fill="#1f7a4d" /><text x="10826.921568627451" y="246.30714285714285" text-anchor="middle" fill="#1a1a1a" font-size="9">0.69</text><rect x="10841" y="246.90178571428572" width="24.15686274509804" height="3.0982142857142776" fill="#7a4d9c" /><text x="10853.078431372549" y="243.90178571428572" text-anchor="middle" fill="#1a1a1a" font-size="9">3.10</text><text x="10840" y="262" transform="rotate(-35 10840 262)" text-anchor="end" fill="#1a1a1a" font-size="10">Jakarta</text><rect x="10901.392156862745" y="249.35714285714286" width="24.15686274509804" height="0.6428571428571388" fill="#7a4d9c" /><text x="10913.470588235294" y="246.35714285714286" text-anchor="middle" fill="#1a1a1a" font-size="9">0.64</text><text x="10900.392156862745" y="262" transform="rotate(-35 10900.392156862745 262)" text-anchor="end" fill="#1a1a1a" font-size="10">Washington D.C.</text><rect x="10961.78431372549" y="249.40816326530611" width="24.15686274509804" height="0.5918367346938851" fill="#7a4d9c" /><text x="10973.862745098038" y="246.40816326530611" text-anchor="middle" fill="#1a1a1a" font-size="9">0.59</text><text x="10960.78431372549" y="262" transform="rotate(-35 10960.78431372549 262)" text-anchor="end" fill="#1a1a1a" font-size="10">Ottawa</text><rect x="10996.019607843136" y="249.4142857142857" width="24.15686274509804" height="0.585714285714289" fill="#1f7a4d" /><text x="11008.098039215685" y="246.4142857142857" text-anchor="middle" fill="#1a1a1a" font-size="9">0.59</text><rect x="11022.176470588234" y="249.47857142857143" width="24.15686274509804" height="0.5214285714285722" fill="#7a4d9c" /><text x="11034.254901960783" y="246.47857142857143" text-anchor="middle" fill="#1a1a1a" font-size="9">0.52</text><text x="11021.176470588234" y="262" transform="rotate(-35 11021.176470588234 262)" text-anchor="end" fill="#1a1a1a" font-size="10">New York</text><rect x="11056.411764705883" y="249.4469380952381" width="24.15686274509804" height="0.5530619047619041" fill="#1f7a4d" /><text x="11068.490196078432" y="246.4469380952381" text-anchor="middle" fill="#1a1a1a" font-size="9">0.55</text><text x="11081.56862745098" y="262" transform="rotate(-35 11081.56862745098 262)" text-anchor="end" fill="#1a1a1a" font-size="10">Shah Alam</text><rect x="11142.960784313726" y="249.46938775510205" width="24.15686274509804" height="0.5306122448979522" fill="#7a4d9c" /><text x="11155.039215686274" y="246.46938775510205" text-anchor="middle" fill="#1a1a1a" font-size="9">0.53</text><text x="11141.960784313726" y="262" transform="rotate(-35 11141.960784313726 262)" text-anchor="end" fill="#1a1a1a" font-size="10">Kabul</text><rect x="11177.196078431372" y="249.49285714285713" width="24.15686274509804" height="0.5071428571428669" fill="#1f7a4d" /><text x="11189.274509803921" y="246.49285714285713" text-anchor="middle" fill="#1a1a1a" font-size="9">0.51</text><rect x="11203.35294117647" y="249.75510204081633" width="24.15686274509804" height="0.24489795918367463" fill="#7a4d9c" /><text x="11215.43137254902" y="246.75510204081633" text-anchor="middle" fill="#1a1a1a" font-size="9">0.24</text><text x="11202.35294117647" y="262" transform="rotate(-35 11202.35294117647 262)" text-anchor="end" fill="#1a1a1a" font-size="10">Riyadh</text><rect x="11237.588235294117" y="249.55" width="24.15686274509804" height="0.44999999999998863" fill="#1f7a4d" /><text x="11249.666666666666" y="246.55" text-anchor="middle" fill="#1a1a1a" font-size="9">0.45</text><text x="11262.745098039215" y="262" transform="rotate(-35 11262.745098039215 262)" text-anchor="end" fill="#1a1a1a" font-size="10">Toronto</text><rect x="11324.13725490196" y="249.57142857142858" width="24.15686274509804" height="0.4285714285714164" fill="#7a4d9c" /><text x="11336.215686274509" y="246.57142857142858" text-anchor="middle" fill="#1a1a1a" font-size="9">0.43</text><text x="11323.13725490196" y="262" transform="rotate(-35 11323.13725490196 262)" text-anchor="end" fill="#1a1a1a" font-size="10">Maputo</text><rect x="11384.529411764706" y="249.59183673469389" width="24.15686274509804" height="0.4081632653061149" fill="#7a4d9c" /><text x="11396.607843137255" y="246.59183673469389" text-anchor="middle" fill="#1a1a1a" font-size="9">0.41</text><text x="11383.529411764706" y="262" transform="rotate(-35 11383.529411764706 262)" text-anchor="end" fill="#1a1a1a" font-size="10">Mbabane</text><rect x="11444.921568627451" y="249.60204081632654" width="24.15686274509804" height="0.39795918367346417" fill="#7a4d9c" /><text x="11457" y="246.60204081632654" text-anchor="middle" fill="#1a1a1a" font-size="9">0.40</text><text x="11443.921568627451" y="262" transform="rotate(-35 11443.921568627451 262)" text-anchor="end" fill="#1a1a1a" font-size="10">Denver</text><rect x="11479.156862745098" y="249.61428571428573" width="24.15686274509804" height="0.3857142857142719" fill="#1f7a4d" /><text x="11491.235294117647" y="246.61428571428573" text-anchor="middle" fill="#1a1a1a" font-size="9">0.39</text><rect x="11505.313725490196" y="228.3403361344538" width="24.15686274509804" height="21.659663865546207" fill="#7a4d9c" /><text x="11517.392156862745" y="225.3403361344538" text-anchor="middle" fill="#1a1a1a" font-size="9">21.66</text><text x="11504.313725490196" y="262" transform="rotate(-35 11504.313725490196 262)" text-anchor="end" fill="#1a1a1a" font-size="10">Paris</text><rect x="11565.70588235294" y="249.6326530612245" width="24.15686274509804" height="0.36734693877551194" fill="#7a4d9c" /><text x="11577.78431372549" y="246.6326530612245" text-anchor="middle" fill="#1a1a1a" font-size="9">0.37</text><text x="11564.70588235294" y="262" transform="rotate(-35 11564.70588235294 262)" text-anchor="end" fill="#1a1a1a" font-size="10">Maseru</text><rect x="11626.098039215685" y="249.66326530612244" width="24.15686274509804" height="0.3367346938775597" fill="#7a4d9c" /><text x="11638.176470588234" y="246.66326530612244" text-anchor="middle" fill="#1a1a1a" font-size="9">0.34</text><text x="11625.098039215685" y="262" transform="rotate(-35 11625.098039215685 262)" text-anchor="end" fill="#1a1a1a" font-size="10">Caracas</text><rect x="11686.490196078432" y="249.66326530612244" width="24.15686274509804" height="0.3367346938775597" fill="#7a4d9c" /><text x="11698.56862745098" y="246.66326530612244" text-anchor="middle" fill="#1a1a1a" font-size="9">0.34</text><text x="11685.490196078432" y="262" transform="rotate(-35 11685.490196078432 262)" text-anchor="end" fill="#1a1a1a" font-size="10">Pretoria</text><rect x="11720.725490196079" y="249.6642857142857" width="24.15686274509804" height="0.33571428571428896" fill="#1f7a4d" /><text x="11732.803921568628" y="246.6642857142857" text-anchor="middle" fill="#1a1a1a" font-size="9">0.34</text><rect x="11746.882352941177" y="244.5793650793651" width="24.15686274509804" height="5.42063492063491" fill="#7a4d9c" /><text x="11758.960784313726" y="241.5793650793651" text-anchor="middle" fill="#1a1a1a" font-size="9">5.42</text><text x="11745.882352941177" y="262" transform="rotate(-35 11745.882352941177 262)" text-anchor="end" fill="#1a1a1a" font-size="10">Karachi</text><rect x="11781.117647058823" y="249.6642857142857" width="24.15686274509804" height="0.33571428571428896" fill="#1f7a4d" /><text x="11793.196078431372" y="246.6642857142857" text-anchor="middle" fill="#1a1a1a" font-size="9">0.34</text><text x="11806.274509803921" y="262" transform="rotate(-35 11806.274509803921 262)" text-anchor="end" fill="#1a1a1a" font-size="10">Los Angeles</text><rect x="11867.666666666666" y="249.68487394957984" width="24.15686274509804" height="0.3151260504201616" fill="#7a4d9c" /><text x="11879.745098039215" y="246.68487394957984" text-anchor="middle" fill="#1a1a1a" font-size="9">0.32</text><text x="11866.666666666666" y="262" transform="rotate(-35 11866.666666666666 262)" text-anchor="end" fill="#1a1a1a" font-size="10">Quito</text><rect x="11928.05882352941" y="249.71428571428572" width="24.15686274509804" height="0.2857142857142776" fill="#7a4d9c" /><text x="11940.13725490196" y="246.71428571428572" text-anchor="middle" fill="#1a1a1a" font-size="9">0.29</text><text x="11927.05882352941" y="262" transform="rotate(-35 11927.05882352941 262)" text-anchor="end" fill="#1a1a1a" font-size="10">Gaborone</text><rect x="11988.450980392157" y="249.72448979591837" width="24.15686274509804" height="0.27551020408162685" fill="#7a4d9c" /><text x="12000.529411764706" y="246.72448979591837" text-anchor="middle" fill="#1a1a1a" font-size="9">0.28</text><text x="11987.450980392157" y="262" transform="rotate(-35 11987.450980392157 262)" text-anchor="end" fill="#1a1a1a" font-size="10">Bogotá</text><rect x="12022.686274509804" y="249.72857142857143" width="24.15686274509804" height="0.27142857142857224" fill="#1f7a4d" /><text x="12034.764705882353" y="246.72857142857143" text-anchor="middle" fill="#1a1a1a" font-size="9">0.27</text><rect x="12048.843137254902" y="248.0142857142857" width="24.15686274509804" height="1.9857142857142946" fill="#7a4d9c" /><text x="12060.921568627451" y="245.0142857142857" text-anchor="middle" fill="#1a1a1a" font-size="9">1.99</text><text x="12047.843137254902" y="262" transform="rotate(-35 12047.843137254902 262)" text-anchor="end" fill="#1a1a1a" font-size="10">Madinah</text><rect x="12083.078431372549" y="249.7357142857143" width="24.15686274509804" height="0.26428571428570535" fill="#1f7a4d" /><text x="12095.156862745098" y="246.7357142857143" text-anchor="middle" fill="#1a1a1a" font-size="9">0.26</text><text x="12108.235294117647" y="262" transform="rotate(-35 12108.235294117647 262)" text-anchor="end" fill="#1a1a1a" font-size="10">Makkah</text><rect x="12143.470588235294" y="249.75714285714287" width="24.15686274509804" height="0.2428571428571331" fill="#1f7a4d" /><text x="12155.549019607843" y="246.75714285714287" text-anchor="middle" fill="#1a1a1a" font-size="9">0.24</text><rect x="12169.627450980392" y="248.31785714285715" width="24.15686274509804" height="1.6821428571428498" fill="#7a4d9c" /><text x="12181.70588235294" y="245.31785714285715" text-anchor="middle" fill="#1a1a1a" font-size="9">1.68</text><text x="12168.627450980392" y="262" transform="rotate(-35 12168.627450980392 262)" text-anchor="end" fill="#1a1a1a" font-size="10">Istanbul</text><rect x="12203.862745098038" y="249.8" width="24.15686274509804" height="0.19999999999998863" fill="#1f7a4d" /><text x="12215.941176470587" y="246.8" text-anchor="middle" fill="#1a1a1a" font-size="9">0.20</text><rect x="12230.019607843136" y="246.8125" width="24.15686274509804" height="3.1875" fill="#7a4d9c" /><text x="12242.098039215685" y="243.8125" text-anchor="middle" fill="#1a1a1a" font-size="9">3.19</text><text x="12229.019607843136" y="262" transform="rotate(-35 12229.019607843136 262)" text-anchor="end" fill="#1a1a1a" font-size="10">Dubai</text><rect x="12264.254901960785" y="249.8357142857143" width="24.15686274509804" height="0.16428571428571104" fill="#1f7a4d" /><text x="12276.333333333334" y="246.8357142857143" text-anchor="middle" fill="#1a1a1a" font-size="9">0.16</text><text x="12289.411764705883" y="262" transform="rotate(-35 12289.411764705883 262)" text-anchor="end" fill="#1a1a1a" font-size="10">Izmir</text><rect x="12324.64705882353" y="249.85714285714286" width="24.15686274509804" height="0.1428571428571388" fill="#1f7a4d" /><text x="12336.725490196079" y="246.85714285714286" text-anchor="middle" fill="#1a1a1a" font-size="9">0.14</text><rect x="12350.803921568628" y="242" width="24.15686274509804" height="8" fill="#7a4d9c" /><text x="12362.882352941177" y="239" text-anchor="middle" fill="#1a1a1a" font-size="9">8.00</text><text x="12349.803921568628" y="262" transform="rotate(-35 12349.803921568628 262)" text-anchor="end" fill="#1a1a1a" font-size="10">Ankara</text><rect x="12340" y="50" width="12" height="10" fill="#1f7a4d" /><text x="12356" y="59" fill="#1a1a1a">train (ratchet)</text><rect x="12340" y="66" width="12" height="10" fill="#7a4d9c" /><text x="12356" y="75" fill="#1a1a1a">holdout</text></svg>