<svg xmlns="http://www.w3.org/2000/svg" viewBox="0 0 880 360" width="880" height="360" font-family="-apple-system, BlinkMacSystemFont, 'Segoe UI', system-ui, sans-serif" font-size="11"><rect width="880" height="360" fill="#fafaf7" /><text x="440" y="26" text-anchor="middle" fill="#1a1a1a" font-size="17" font-weight="600">WMAE over time — train (ratchet) vs. holdout</text><line x1="60" y1="310" x2="750" y2="310" stroke="#dcdcd0" stroke-width="0.5" /><text x="54" y="313" text-anchor="end" fill="#1a1a1a">0.00</text><line x1="60" y1="258" x2="750" y2="258" stroke="#dcdcd0" stroke-width="0.5" /><text x="54" y="261" text-anchor="end" fill="#1a1a1a">40.00</text><line x1="60" y1="206" x2="750" y2="206" stroke="#dcdcd0" stroke-width="0.5" /><text x="54" y="209" text-anchor="end" fill="#1a1a1a">80.00</text><line x1="60" y1="154" x2="750" y2="154" stroke="#dcdcd0" stroke-width="0.5" /><text x="54" y="157" text-anchor="end" fill="#1a1a1a">120.00</text><line x1="60" y1="102" x2="750" y2="102" stroke="#dcdcd0" stroke-width="0.5" /><text x="54" y="105" text-anchor="end" fill="#1a1a1a">160.00</text><line x1="60" y1="50" x2="750" y2="50" stroke="#dcdcd0" stroke-width="0.5" /><text x="54" y="53" text-anchor="end" fill="#1a1a1a">200.00</text><line x1="60" y1="310" x2="60" y2="314" stroke="#1a1a1a" /><text x="60" y="328" text-anchor="middle" fill="#1a1a1a" font-size="9">04-30 20:49</text><line x1="146.25" y1="310" x2="146.25" y2="314" stroke="#1a1a1a" /><text x="146.25" y="328" text-anchor="middle" fill="#1a1a1a" font-size="9">04-30 21:27</text><line x1="232.5" y1="310" x2="232.5" y2="314" stroke="#1a1a1a" /><text x="232.5" y="328" text-anchor="middle" fill="#1a1a1a" font-size="9">04-30 21:41</text><line x1="318.75" y1="310" x2="318.75" y2="314" stroke="#1a1a1a" /><text x="318.75" y="328" text-anchor="middle" fill="#1a1a1a" font-size="9">05-01 22:32</text><line x1="405" y1="310" x2="405" y2="314" stroke="#1a1a1a" /><text x="405" y="328" text-anchor="middle" fill="#1a1a1a" font-size="9">05-02 00:46</text><line x1="491.25" y1="310" x2="491.25" y2="314" stroke="#1a1a1a" /><text x="491.25" y="328" text-anchor="middle" fill="#1a1a1a" font-size="9">05-02 01:06</text><line x1="577.5" y1="310" x2="577.5" y2="314" stroke="#1a1a1a" /><text x="577.5" y="328" text-anchor="middle" fill="#1a1a1a" font-size="9">05-02 08:57</text><line x1="663.75" y1="310" x2="663.75" y2="314" stroke="#1a1a1a" /><text x="663.75" y="328" text-anchor="middle" fill="#1a1a1a" font-size="9">05-02 09:49</text><line x1="750" y1="310" x2="750" y2="314" stroke="#1a1a1a" /><text x="750" y="328" text-anchor="middle" fill="#1a1a1a" font-size="9">05-02 09:56</text><text x="22" y="180" transform="rotate(-90 22 180)" text-anchor="middle" fill="#1a1a1a">WMAE (min)</text><path d="M60.0,308.5 L88.8,308.3 L117.5,308.3 L146.3,308.3 L175.0,308.4 L203.8,308.3 L232.5,308.4 L261.3,308.4 L290.0,308.4 L318.8,308.4 L347.5,308.4 L376.3,308.4 L405.0,308.4 L433.8,308.4 L462.5,308.4 L491.3,308.4 L520.0,308.4 L548.8,308.6 L577.5,308.6 L606.3,308.6 L635.0,309.1 L663.8,309.1 L692.5,309.1 L721.3,309.1 L750.0,309.1" fill="none" stroke="#1f7a4d" stroke-width="2" /><circle cx="60" cy="308.49666868518517" r="2.5" fill="#1f7a4d" /><circle cx="88.75" cy="308.27146284126985" r="2.5" fill="#1f7a4d" /><circle cx="117.5" cy="308.27146284126985" r="2.5" fill="#1f7a4d" /><circle cx="146.25" cy="308.27146284126985" r="2.5" fill="#1f7a4d" /><circle cx="175" cy="308.38869498412697" r="2.5" fill="#1f7a4d" /><circle cx="203.75" cy="308.27146284126985" r="2.5" fill="#1f7a4d" /><circle cx="232.5" cy="308.38869498412697" r="2.5" fill="#1f7a4d" /><circle cx="261.25" cy="308.37863546031747" r="2.5" fill="#1f7a4d" /><circle cx="290" cy="308.37863546031747" r="2.5" fill="#1f7a4d" /><circle cx="318.75" cy="308.37863546031747" r="2.5" fill="#1f7a4d" /><circle cx="347.5" cy="308.37863546031747" r="2.5" fill="#1f7a4d" /><circle cx="376.25" cy="308.37863546031747" r="2.5" fill="#1f7a4d" /><circle cx="405" cy="308.37863546031747" r="2.5" fill="#1f7a4d" /><circle cx="433.75" cy="308.37863546031747" r="2.5" fill="#1f7a4d" /><circle cx="462.5" cy="308.37863546031747" r="2.5" fill="#1f7a4d" /><circle cx="491.25" cy="308.37863546031747" r="2.5" fill="#1f7a4d" /><circle cx="520" cy="308.37863546031747" r="2.5" fill="#1f7a4d" /><circle cx="548.75" cy="308.6487183374741" r="2.5" fill="#1f7a4d" /><circle cx="577.5" cy="308.6487183374741" r="2.5" fill="#1f7a4d" /><circle cx="606.25" cy="308.6487183374741" r="2.5" fill="#1f7a4d" /><circle cx="635" cy="309.08511108488614" r="2.5" fill="#1f7a4d" /><circle cx="663.75" cy="309.06335403726706" r="2.5" fill="#1f7a4d" /><circle cx="692.5" cy="309.08511108488614" r="2.5" fill="#1f7a4d" /><circle cx="721.25" cy="309.08511108488614" r="2.5" fill="#1f7a4d" /><circle cx="750" cy="309.1141794078675" r="2.5" fill="#1f7a4d" /><path d="M60.0,299.5 L88.8,301.8 L117.5,301.8 L146.3,302.0 L175.0,302.0 L203.8,302.0 L232.5,302.0 L261.3,302.0 L290.0,302.0 L318.8,302.0 L347.5,302.0 L376.3,112.7 L405.0,293.6 L433.8,293.6 L462.5,293.8 L491.3,293.8 L520.0,293.8 L548.8,293.9 L577.5,293.9 L606.3,293.9 L635.0,294.5 L663.8,294.5 L692.5,294.5 L721.3,294.5 L750.0,294.5" fill="none" stroke="#7a4d9c" stroke-width="2" stroke-dasharray="4,3" /><circle cx="60" cy="299.53822498015876" r="2.5" fill="#7a4d9c" /><circle cx="88.75" cy="301.83368500466855" r="2.5" fill="#7a4d9c" /><circle cx="117.5" cy="301.83368500466855" r="2.5" fill="#7a4d9c" /><circle cx="146.25" cy="301.97522152110133" r="2.5" fill="#7a4d9c" /><circle cx="175" cy="302.00822761453395" r="2.5" fill="#7a4d9c" /><circle cx="203.75" cy="301.97522152110133" r="2.5" fill="#7a4d9c" /><circle cx="232.5" cy="302.00822761453395" r="2.5" fill="#7a4d9c" /><circle cx="261.25" cy="302.00822761453395" r="2.5" fill="#7a4d9c" /><circle cx="290" cy="302.00822761453395" r="2.5" fill="#7a4d9c" /><circle cx="318.75" cy="302.00822761453395" r="2.5" fill="#7a4d9c" /><circle cx="347.5" cy="302.00822761453395" r="2.5" fill="#7a4d9c" /><circle cx="376.25" cy="112.65169373740824" r="2.5" fill="#7a4d9c" /><circle cx="405" cy="293.60282361378205" r="2.5" fill="#7a4d9c" /><circle cx="433.75" cy="293.60282361378205" r="2.5" fill="#7a4d9c" /><circle cx="462.5" cy="293.81385773466116" r="2.5" fill="#7a4d9c" /><circle cx="491.25" cy="293.81385773466116" r="2.5" fill="#7a4d9c" /><circle cx="520" cy="293.81385773466116" r="2.5" fill="#7a4d9c" /><circle cx="548.75" cy="293.93204537978113" r="2.5" fill="#7a4d9c" /><circle cx="577.5" cy="293.93204537978113" r="2.5" fill="#7a4d9c" /><circle cx="606.25" cy="293.93204537978113" r="2.5" fill="#7a4d9c" /><circle cx="635" cy="294.49288567154395" r="2.5" fill="#7a4d9c" /><circle cx="663.75" cy="294.49288567154395" r="2.5" fill="#7a4d9c" /><circle cx="692.5" cy="294.49288567154395" r="2.5" fill="#7a4d9c" /><circle cx="721.25" cy="294.49288567154395" r="2.5" fill="#7a4d9c" /><circle cx="750" cy="294.4881814550556" r="2.5" fill="#7a4d9c" /><line x1="760" y1="60" x2="784" y2="60" stroke="#1f7a4d" stroke-width="2" /><text x="790" y="63" fill="#1a1a1a">train (ratchet)</text><line x1="760" y1="78" x2="784" y2="78" stroke="#7a4d9c" stroke-width="2" stroke-dasharray="4,3" /><text x="790" y="81" fill="#1a1a1a">holdout</text></svg>