<svg xmlns="http://www.w3.org/2000/svg" viewBox="0 0 880 360" width="880" height="360" font-family="-apple-system, BlinkMacSystemFont, 'Segoe UI', system-ui, sans-serif" font-size="11"><rect width="880" height="360" fill="#fafaf7" /><text x="440" y="26" text-anchor="middle" fill="#1a1a1a" font-size="17" font-weight="600">WMAE over time — train (ratchet) vs. holdout</text><line x1="60" y1="310" x2="750" y2="310" stroke="#dcdcd0" stroke-width="0.5" /><text x="54" y="313" text-anchor="end" fill="#1a1a1a">0.00</text><line x1="60" y1="258" x2="750" y2="258" stroke="#dcdcd0" stroke-width="0.5" /><text x="54" y="261" text-anchor="end" fill="#1a1a1a">40.00</text><line x1="60" y1="206" x2="750" y2="206" stroke="#dcdcd0" stroke-width="0.5" /><text x="54" y="209" text-anchor="end" fill="#1a1a1a">80.00</text><line x1="60" y1="154" x2="750" y2="154" stroke="#dcdcd0" stroke-width="0.5" /><text x="54" y="157" text-anchor="end" fill="#1a1a1a">120.00</text><line x1="60" y1="102" x2="750" y2="102" stroke="#dcdcd0" stroke-width="0.5" /><text x="54" y="105" text-anchor="end" fill="#1a1a1a">160.00</text><line x1="60" y1="50" x2="750" y2="50" stroke="#dcdcd0" stroke-width="0.5" /><text x="54" y="53" text-anchor="end" fill="#1a1a1a">200.00</text><line x1="60" y1="310" x2="60" y2="314" stroke="#1a1a1a" /><text x="60" y="328" text-anchor="middle" fill="#1a1a1a" font-size="9">04-30 20:49</text><line x1="141.1764705882353" y1="310" x2="141.1764705882353" y2="314" stroke="#1a1a1a" /><text x="141.1764705882353" y="328" text-anchor="middle" fill="#1a1a1a" font-size="9">04-30 21:04</text><line x1="222.35294117647058" y1="310" x2="222.35294117647058" y2="314" stroke="#1a1a1a" /><text x="222.35294117647058" y="328" text-anchor="middle" fill="#1a1a1a" font-size="9">04-30 21:27</text><line x1="303.52941176470586" y1="310" x2="303.52941176470586" y2="314" stroke="#1a1a1a" /><text x="303.52941176470586" y="328" text-anchor="middle" fill="#1a1a1a" font-size="9">04-30 21:41</text><line x1="384.70588235294116" y1="310" x2="384.70588235294116" y2="314" stroke="#1a1a1a" /><text x="384.70588235294116" y="328" text-anchor="middle" fill="#1a1a1a" font-size="9">05-01 14:00</text><line x1="465.88235294117646" y1="310" x2="465.88235294117646" y2="314" stroke="#1a1a1a" /><text x="465.88235294117646" y="328" text-anchor="middle" fill="#1a1a1a" font-size="9">05-01 23:16</text><line x1="547.0588235294117" y1="310" x2="547.0588235294117" y2="314" stroke="#1a1a1a" /><text x="547.0588235294117" y="328" text-anchor="middle" fill="#1a1a1a" font-size="9">05-02 00:46</text><line x1="628.2352941176471" y1="310" x2="628.2352941176471" y2="314" stroke="#1a1a1a" /><text x="628.2352941176471" y="328" text-anchor="middle" fill="#1a1a1a" font-size="9">05-02 01:02</text><line x1="709.4117647058823" y1="310" x2="709.4117647058823" y2="314" stroke="#1a1a1a" /><text x="709.4117647058823" y="328" text-anchor="middle" fill="#1a1a1a" font-size="9">05-02 01:06</text><text x="22" y="180" transform="rotate(-90 22 180)" text-anchor="middle" fill="#1a1a1a">WMAE (min)</text><path d="M60.0,308.5 L100.6,308.3 L141.2,308.3 L181.8,308.3 L222.4,308.4 L262.9,308.3 L303.5,308.4 L344.1,308.4 L384.7,308.4 L425.3,308.4 L465.9,308.4 L506.5,308.4 L547.1,308.4 L587.6,308.4 L628.2,308.4 L668.8,308.4 L709.4,308.4 L750.0,308.6" fill="none" stroke="#1f7a4d" stroke-width="2" /><circle cx="60" cy="308.49666868518517" r="2.5" fill="#1f7a4d" /><circle cx="100.58823529411765" cy="308.27146284126985" r="2.5" fill="#1f7a4d" /><circle cx="141.1764705882353" cy="308.27146284126985" r="2.5" fill="#1f7a4d" /><circle cx="181.76470588235293" cy="308.27146284126985" r="2.5" fill="#1f7a4d" /><circle cx="222.35294117647058" cy="308.38869498412697" r="2.5" fill="#1f7a4d" /><circle cx="262.94117647058823" cy="308.27146284126985" r="2.5" fill="#1f7a4d" /><circle cx="303.52941176470586" cy="308.38869498412697" r="2.5" fill="#1f7a4d" /><circle cx="344.11764705882354" cy="308.37863546031747" r="2.5" fill="#1f7a4d" /><circle cx="384.70588235294116" cy="308.37863546031747" r="2.5" fill="#1f7a4d" /><circle cx="425.29411764705884" cy="308.37863546031747" r="2.5" fill="#1f7a4d" /><circle cx="465.88235294117646" cy="308.37863546031747" r="2.5" fill="#1f7a4d" /><circle cx="506.47058823529414" cy="308.37863546031747" r="2.5" fill="#1f7a4d" /><circle cx="547.0588235294117" cy="308.37863546031747" r="2.5" fill="#1f7a4d" /><circle cx="587.6470588235294" cy="308.37863546031747" r="2.5" fill="#1f7a4d" /><circle cx="628.2352941176471" cy="308.37863546031747" r="2.5" fill="#1f7a4d" /><circle cx="668.8235294117648" cy="308.37863546031747" r="2.5" fill="#1f7a4d" /><circle cx="709.4117647058823" cy="308.37863546031747" r="2.5" fill="#1f7a4d" /><circle cx="750" cy="308.6487183374741" r="2.5" fill="#1f7a4d" /><path d="M60.0,299.5 L100.6,301.8 L141.2,301.8 L181.8,302.0 L222.4,302.0 L262.9,302.0 L303.5,302.0 L344.1,302.0 L384.7,302.0 L425.3,302.0 L465.9,302.0 L506.5,112.7 L547.1,293.6 L587.6,293.6 L628.2,293.8 L668.8,293.8 L709.4,293.8 L750.0,293.9" fill="none" stroke="#7a4d9c" stroke-width="2" stroke-dasharray="4,3" /><circle cx="60" cy="299.53822498015876" r="2.5" fill="#7a4d9c" /><circle cx="100.58823529411765" cy="301.83368500466855" r="2.5" fill="#7a4d9c" /><circle cx="141.1764705882353" cy="301.83368500466855" r="2.5" fill="#7a4d9c" /><circle cx="181.76470588235293" cy="301.97522152110133" r="2.5" fill="#7a4d9c" /><circle cx="222.35294117647058" cy="302.00822761453395" r="2.5" fill="#7a4d9c" /><circle cx="262.94117647058823" cy="301.97522152110133" r="2.5" fill="#7a4d9c" /><circle cx="303.52941176470586" cy="302.00822761453395" r="2.5" fill="#7a4d9c" /><circle cx="344.11764705882354" cy="302.00822761453395" r="2.5" fill="#7a4d9c" /><circle cx="384.70588235294116" cy="302.00822761453395" r="2.5" fill="#7a4d9c" /><circle cx="425.29411764705884" cy="302.00822761453395" r="2.5" fill="#7a4d9c" /><circle cx="465.88235294117646" cy="302.00822761453395" r="2.5" fill="#7a4d9c" /><circle cx="506.47058823529414" cy="112.65169373740824" r="2.5" fill="#7a4d9c" /><circle cx="547.0588235294117" cy="293.60282361378205" r="2.5" fill="#7a4d9c" /><circle cx="587.6470588235294" cy="293.60282361378205" r="2.5" fill="#7a4d9c" /><circle cx="628.2352941176471" cy="293.81385773466116" r="2.5" fill="#7a4d9c" /><circle cx="668.8235294117648" cy="293.81385773466116" r="2.5" fill="#7a4d9c" /><circle cx="709.4117647058823" cy="293.81385773466116" r="2.5" fill="#7a4d9c" /><circle cx="750" cy="293.93204537978113" r="2.5" fill="#7a4d9c" /><line x1="760" y1="60" x2="784" y2="60" stroke="#1f7a4d" stroke-width="2" /><text x="790" y="63" fill="#1a1a1a">train (ratchet)</text><line x1="760" y1="78" x2="784" y2="78" stroke="#7a4d9c" stroke-width="2" stroke-dasharray="4,3" /><text x="790" y="81" fill="#1a1a1a">holdout</text></svg>