<svg xmlns="http://www.w3.org/2000/svg" viewBox="0 0 880 360" width="880" height="360" font-family="-apple-system, BlinkMacSystemFont, 'Segoe UI', system-ui, sans-serif" font-size="11"><rect width="880" height="360" fill="#fafaf7" /><text x="440" y="26" text-anchor="middle" fill="#1a1a1a" font-size="17" font-weight="600">WMAE over time — train (ratchet) vs. holdout</text><line x1="60" y1="310" x2="750" y2="310" stroke="#dcdcd0" stroke-width="0.5" /><text x="54" y="313" text-anchor="end" fill="#1a1a1a">0.00</text><line x1="60" y1="258" x2="750" y2="258" stroke="#dcdcd0" stroke-width="0.5" /><text x="54" y="261" text-anchor="end" fill="#1a1a1a">40.00</text><line x1="60" y1="206" x2="750" y2="206" stroke="#dcdcd0" stroke-width="0.5" /><text x="54" y="209" text-anchor="end" fill="#1a1a1a">80.00</text><line x1="60" y1="154" x2="750" y2="154" stroke="#dcdcd0" stroke-width="0.5" /><text x="54" y="157" text-anchor="end" fill="#1a1a1a">120.00</text><line x1="60" y1="102" x2="750" y2="102" stroke="#dcdcd0" stroke-width="0.5" /><text x="54" y="105" text-anchor="end" fill="#1a1a1a">160.00</text><line x1="60" y1="50" x2="750" y2="50" stroke="#dcdcd0" stroke-width="0.5" /><text x="54" y="53" text-anchor="end" fill="#1a1a1a">200.00</text><line x1="60" y1="310" x2="60" y2="314" stroke="#1a1a1a" /><text x="60" y="328" text-anchor="middle" fill="#1a1a1a" font-size="9">04-30 20:49</text><line x1="142.8" y1="310" x2="142.8" y2="314" stroke="#1a1a1a" /><text x="142.8" y="328" text-anchor="middle" fill="#1a1a1a" font-size="9">04-30 21:27</text><line x1="225.6" y1="310" x2="225.6" y2="314" stroke="#1a1a1a" /><text x="225.6" y="328" text-anchor="middle" fill="#1a1a1a" font-size="9">04-30 21:41</text><line x1="308.4" y1="310" x2="308.4" y2="314" stroke="#1a1a1a" /><text x="308.4" y="328" text-anchor="middle" fill="#1a1a1a" font-size="9">05-01 22:32</text><line x1="391.2" y1="310" x2="391.2" y2="314" stroke="#1a1a1a" /><text x="391.2" y="328" text-anchor="middle" fill="#1a1a1a" font-size="9">05-02 00:46</text><line x1="474" y1="310" x2="474" y2="314" stroke="#1a1a1a" /><text x="474" y="328" text-anchor="middle" fill="#1a1a1a" font-size="9">05-02 01:06</text><line x1="556.8" y1="310" x2="556.8" y2="314" stroke="#1a1a1a" /><text x="556.8" y="328" text-anchor="middle" fill="#1a1a1a" font-size="9">05-02 08:57</text><line x1="639.6" y1="310" x2="639.6" y2="314" stroke="#1a1a1a" /><text x="639.6" y="328" text-anchor="middle" fill="#1a1a1a" font-size="9">05-02 09:49</text><line x1="722.4" y1="310" x2="722.4" y2="314" stroke="#1a1a1a" /><text x="722.4" y="328" text-anchor="middle" fill="#1a1a1a" font-size="9">05-02 09:56</text><text x="22" y="180" transform="rotate(-90 22 180)" text-anchor="middle" fill="#1a1a1a">WMAE (min)</text><path d="M60.0,308.5 L87.6,308.3 L115.2,308.3 L142.8,308.3 L170.4,308.4 L198.0,308.3 L225.6,308.4 L253.2,308.4 L280.8,308.4 L308.4,308.4 L336.0,308.4 L363.6,308.4 L391.2,308.4 L418.8,308.4 L446.4,308.4 L474.0,308.4 L501.6,308.4 L529.2,308.6 L556.8,308.6 L584.4,308.6 L612.0,309.1 L639.6,309.1 L667.2,309.1 L694.8,309.1 L722.4,309.1 L750.0,309.1" fill="none" stroke="#1f7a4d" stroke-width="2" /><circle cx="60" cy="308.49666868518517" r="2.5" fill="#1f7a4d" /><circle cx="87.6" cy="308.27146284126985" r="2.5" fill="#1f7a4d" /><circle cx="115.2" cy="308.27146284126985" r="2.5" fill="#1f7a4d" /><circle cx="142.8" cy="308.27146284126985" r="2.5" fill="#1f7a4d" /><circle cx="170.4" cy="308.38869498412697" r="2.5" fill="#1f7a4d" /><circle cx="198" cy="308.27146284126985" r="2.5" fill="#1f7a4d" /><circle cx="225.6" cy="308.38869498412697" r="2.5" fill="#1f7a4d" /><circle cx="253.2" cy="308.37863546031747" r="2.5" fill="#1f7a4d" /><circle cx="280.8" cy="308.37863546031747" r="2.5" fill="#1f7a4d" /><circle cx="308.4" cy="308.37863546031747" r="2.5" fill="#1f7a4d" /><circle cx="336" cy="308.37863546031747" r="2.5" fill="#1f7a4d" /><circle cx="363.6" cy="308.37863546031747" r="2.5" fill="#1f7a4d" /><circle cx="391.2" cy="308.37863546031747" r="2.5" fill="#1f7a4d" /><circle cx="418.8" cy="308.37863546031747" r="2.5" fill="#1f7a4d" /><circle cx="446.4" cy="308.37863546031747" r="2.5" fill="#1f7a4d" /><circle cx="474" cy="308.37863546031747" r="2.5" fill="#1f7a4d" /><circle cx="501.6" cy="308.37863546031747" r="2.5" fill="#1f7a4d" /><circle cx="529.2" cy="308.6487183374741" r="2.5" fill="#1f7a4d" /><circle cx="556.8" cy="308.6487183374741" r="2.5" fill="#1f7a4d" /><circle cx="584.4" cy="308.6487183374741" r="2.5" fill="#1f7a4d" /><circle cx="612" cy="309.08511108488614" r="2.5" fill="#1f7a4d" /><circle cx="639.6" cy="309.06335403726706" r="2.5" fill="#1f7a4d" /><circle cx="667.2" cy="309.08511108488614" r="2.5" fill="#1f7a4d" /><circle cx="694.8" cy="309.08511108488614" r="2.5" fill="#1f7a4d" /><circle cx="722.4" cy="309.1141794078675" r="2.5" fill="#1f7a4d" /><circle cx="750" cy="309.124883569161" r="2.5" fill="#1f7a4d" /><path d="M60.0,299.5 L87.6,301.8 L115.2,301.8 L142.8,302.0 L170.4,302.0 L198.0,302.0 L225.6,302.0 L253.2,302.0 L280.8,302.0 L308.4,302.0 L336.0,302.0 L363.6,112.7 L391.2,293.6 L418.8,293.6 L446.4,293.8 L474.0,293.8 L501.6,293.8 L529.2,293.9 L556.8,293.9 L584.4,293.9 L612.0,294.5 L639.6,294.5 L667.2,294.5 L694.8,294.5 L722.4,294.5 L750.0,294.7" fill="none" stroke="#7a4d9c" stroke-width="2" stroke-dasharray="4,3" /><circle cx="60" cy="299.53822498015876" r="2.5" fill="#7a4d9c" /><circle cx="87.6" cy="301.83368500466855" r="2.5" fill="#7a4d9c" /><circle cx="115.2" cy="301.83368500466855" r="2.5" fill="#7a4d9c" /><circle cx="142.8" cy="301.97522152110133" r="2.5" fill="#7a4d9c" /><circle cx="170.4" cy="302.00822761453395" r="2.5" fill="#7a4d9c" /><circle cx="198" cy="301.97522152110133" r="2.5" fill="#7a4d9c" /><circle cx="225.6" cy="302.00822761453395" r="2.5" fill="#7a4d9c" /><circle cx="253.2" cy="302.00822761453395" r="2.5" fill="#7a4d9c" /><circle cx="280.8" cy="302.00822761453395" r="2.5" fill="#7a4d9c" /><circle cx="308.4" cy="302.00822761453395" r="2.5" fill="#7a4d9c" /><circle cx="336" cy="302.00822761453395" r="2.5" fill="#7a4d9c" /><circle cx="363.6" cy="112.65169373740824" r="2.5" fill="#7a4d9c" /><circle cx="391.2" cy="293.60282361378205" r="2.5" fill="#7a4d9c" /><circle cx="418.8" cy="293.60282361378205" r="2.5" fill="#7a4d9c" /><circle cx="446.4" cy="293.81385773466116" r="2.5" fill="#7a4d9c" /><circle cx="474" cy="293.81385773466116" r="2.5" fill="#7a4d9c" /><circle cx="501.6" cy="293.81385773466116" r="2.5" fill="#7a4d9c" /><circle cx="529.2" cy="293.93204537978113" r="2.5" fill="#7a4d9c" /><circle cx="556.8" cy="293.93204537978113" r="2.5" fill="#7a4d9c" /><circle cx="584.4" cy="293.93204537978113" r="2.5" fill="#7a4d9c" /><circle cx="612" cy="294.49288567154395" r="2.5" fill="#7a4d9c" /><circle cx="639.6" cy="294.49288567154395" r="2.5" fill="#7a4d9c" /><circle cx="667.2" cy="294.49288567154395" r="2.5" fill="#7a4d9c" /><circle cx="694.8" cy="294.49288567154395" r="2.5" fill="#7a4d9c" /><circle cx="722.4" cy="294.4881814550556" r="2.5" fill="#7a4d9c" /><circle cx="750" cy="294.70070518839157" r="2.5" fill="#7a4d9c" /><line x1="760" y1="60" x2="784" y2="60" stroke="#1f7a4d" stroke-width="2" /><text x="790" y="63" fill="#1a1a1a">train (ratchet)</text><line x1="760" y1="78" x2="784" y2="78" stroke="#7a4d9c" stroke-width="2" stroke-dasharray="4,3" /><text x="790" y="81" fill="#1a1a1a">holdout</text></svg>