<svg xmlns="http://www.w3.org/2000/svg" viewBox="0 0 720 380" width="720" height="380" font-family="-apple-system, BlinkMacSystemFont, 'Segoe UI', system-ui, sans-serif" font-size="11"><rect width="720" height="380" fill="#fafaf7" /><text x="360" y="26" text-anchor="middle" fill="#1a1a1a" font-size="17" font-weight="600">WMAE per source — latest run</text><line x1="60" y1="250" x2="580" y2="250" stroke="#dcdcd0" stroke-width="0.5" /><text x="54" y="253" text-anchor="end" fill="#1a1a1a">0.00</text><line x1="60" y1="210" x2="580" y2="210" stroke="#dcdcd0" stroke-width="0.5" /><text x="54" y="213" text-anchor="end" fill="#1a1a1a">10.00</text><line x1="60" y1="170" x2="580" y2="170" stroke="#dcdcd0" stroke-width="0.5" /><text x="54" y="173" text-anchor="end" fill="#1a1a1a">20.00</text><line x1="60" y1="130" x2="580" y2="130" stroke="#dcdcd0" stroke-width="0.5" /><text x="54" y="133" text-anchor="end" fill="#1a1a1a">30.00</text><line x1="60" y1="90" x2="580" y2="90" stroke="#dcdcd0" stroke-width="0.5" /><text x="54" y="93" text-anchor="end" fill="#1a1a1a">40.00</text><line x1="60" y1="50" x2="580" y2="50" stroke="#dcdcd0" stroke-width="0.5" /><text x="54" y="53" text-anchor="end" fill="#1a1a1a">50.00</text><text x="22" y="150" transform="rotate(-90 22 150)" text-anchor="middle" fill="#1a1a1a">WMAE (min)</text><rect x="104.33333333333334" y="146.31080476190476" width="28" height="103.68919523809524" fill="#7a4d9c" /><text x="118.33333333333334" y="143.31080476190476" text-anchor="middle" fill="#1a1a1a" font-size="9">25.92</text><text x="103.33333333333334" y="262" transform="rotate(-35 103.33333333333334 262)" text-anchor="end" fill="#1a1a1a" font-size="10">muslimsalat.com (third-party a</text><rect x="191" y="237.03033504761905" width="28" height="12.969664952380953" fill="#7a4d9c" /><text x="205" y="234.03033504761905" text-anchor="middle" fill="#1a1a1a" font-size="9">3.24</text><text x="190" y="262" transform="rotate(-35 190 262)" text-anchor="end" fill="#1a1a1a" font-size="10">praytimes.org reference (Hamid</text><rect x="277.6666666666667" y="241.0612244897959" width="28" height="8.938775510204096" fill="#7a4d9c" /><text x="291.6666666666667" y="238.0612244897959" text-anchor="middle" fill="#1a1a1a" font-size="9">2.23</text><text x="276.6666666666667" y="262" transform="rotate(-35 276.6666666666667 262)" text-anchor="end" fill="#1a1a1a" font-size="10">Mawaqit (mosque-published)</text><rect x="334.33333333333337" y="245.7586253968254" width="28" height="4.241374603174592" fill="#1f7a4d" /><text x="348.33333333333337" y="242.7586253968254" text-anchor="middle" fill="#1a1a1a" font-size="9">1.06</text><text x="363.33333333333337" y="262" transform="rotate(-35 363.33333333333337 262)" text-anchor="end" fill="#1a1a1a" font-size="10">Diyanet İşleri Başkanlığı (Tür</text><rect x="421" y="245.77551775910365" width="28" height="4.22448224089635" fill="#1f7a4d" /><text x="435" y="242.77551775910365" text-anchor="middle" fill="#1a1a1a" font-size="9">1.06</text><rect x="451" y="198.76574190320449" width="28" height="51.234258096795514" fill="#7a4d9c" /><text x="465" y="195.76574190320449" text-anchor="middle" fill="#1a1a1a" font-size="9">12.81</text><text x="450" y="262" transform="rotate(-35 450 262)" text-anchor="end" fill="#1a1a1a" font-size="10">Aladhan API</text><rect x="507.66666666666674" y="246.30371936507936" width="28" height="3.6962806349206403" fill="#1f7a4d" /><text x="521.6666666666667" y="243.30371936507936" text-anchor="middle" fill="#1a1a1a" font-size="9">0.92</text><text x="536.6666666666667" y="262" transform="rotate(-35 536.6666666666667 262)" text-anchor="end" fill="#1a1a1a" font-size="10">JAKIM (via waktusolat.app)</text><rect x="540" y="50" width="12" height="10" fill="#1f7a4d" /><text x="556" y="59" fill="#1a1a1a">train (ratchet)</text><rect x="540" y="66" width="12" height="10" fill="#7a4d9c" /><text x="556" y="75" fill="#1a1a1a">holdout</text></svg>