<svg xmlns="http://www.w3.org/2000/svg" viewBox="0 0 880 360" width="880" height="360" font-family="-apple-system, BlinkMacSystemFont, 'Segoe UI', system-ui, sans-serif" font-size="11"><rect width="880" height="360" fill="#fafaf7" /><text x="440" y="26" text-anchor="middle" fill="#1a1a1a" font-size="17" font-weight="600">WMAE over time — train (ratchet) vs. holdout</text><line x1="60" y1="310" x2="750" y2="310" stroke="#dcdcd0" stroke-width="0.5" /><text x="54" y="313" text-anchor="end" fill="#1a1a1a">0.00</text><line x1="60" y1="258" x2="750" y2="258" stroke="#dcdcd0" stroke-width="0.5" /><text x="54" y="261" text-anchor="end" fill="#1a1a1a">40.00</text><line x1="60" y1="206" x2="750" y2="206" stroke="#dcdcd0" stroke-width="0.5" /><text x="54" y="209" text-anchor="end" fill="#1a1a1a">80.00</text><line x1="60" y1="154" x2="750" y2="154" stroke="#dcdcd0" stroke-width="0.5" /><text x="54" y="157" text-anchor="end" fill="#1a1a1a">120.00</text><line x1="60" y1="102" x2="750" y2="102" stroke="#dcdcd0" stroke-width="0.5" /><text x="54" y="105" text-anchor="end" fill="#1a1a1a">160.00</text><line x1="60" y1="50" x2="750" y2="50" stroke="#dcdcd0" stroke-width="0.5" /><text x="54" y="53" text-anchor="end" fill="#1a1a1a">200.00</text><line x1="60" y1="310" x2="60" y2="314" stroke="#1a1a1a" /><text x="60" y="328" text-anchor="middle" fill="#1a1a1a" font-size="9">04-30 20:49</text><line x1="133.1818181818182" y1="310" x2="133.1818181818182" y2="314" stroke="#1a1a1a" /><text x="133.1818181818182" y="328" text-anchor="middle" fill="#1a1a1a" font-size="9">05-01 05:37</text><line x1="206.36363636363637" y1="310" x2="206.36363636363637" y2="314" stroke="#1a1a1a" /><text x="206.36363636363637" y="328" text-anchor="middle" fill="#1a1a1a" font-size="9">05-02 01:02</text><line x1="279.5454545454545" y1="310" x2="279.5454545454545" y2="314" stroke="#1a1a1a" /><text x="279.5454545454545" y="328" text-anchor="middle" fill="#1a1a1a" font-size="9">05-02 09:49</text><line x1="352.72727272727275" y1="310" x2="352.72727272727275" y2="314" stroke="#1a1a1a" /><text x="352.72727272727275" y="328" text-anchor="middle" fill="#1a1a1a" font-size="9">05-02 10:10</text><line x1="425.90909090909093" y1="310" x2="425.90909090909093" y2="314" stroke="#1a1a1a" /><text x="425.90909090909093" y="328" text-anchor="middle" fill="#1a1a1a" font-size="9">05-02 22:02</text><line x1="499.09090909090907" y1="310" x2="499.09090909090907" y2="314" stroke="#1a1a1a" /><text x="499.09090909090907" y="328" text-anchor="middle" fill="#1a1a1a" font-size="9">05-02 16:20</text><line x1="572.2727272727273" y1="310" x2="572.2727272727273" y2="314" stroke="#1a1a1a" /><text x="572.2727272727273" y="328" text-anchor="middle" fill="#1a1a1a" font-size="9">05-02 22:12</text><line x1="645.4545454545455" y1="310" x2="645.4545454545455" y2="314" stroke="#1a1a1a" /><text x="645.4545454545455" y="328" text-anchor="middle" fill="#1a1a1a" font-size="9">05-03 02:11</text><line x1="718.6363636363636" y1="310" x2="718.6363636363636" y2="314" stroke="#1a1a1a" /><text x="718.6363636363636" y="328" text-anchor="middle" fill="#1a1a1a" font-size="9">05-03 02:45</text><text x="22" y="180" transform="rotate(-90 22 180)" text-anchor="middle" fill="#1a1a1a">WMAE (min)</text><path d="M60.0,308.5 L70.5,308.3 L80.9,308.3 L91.4,308.3 L101.8,308.4 L112.3,308.3 L122.7,308.4 L133.2,308.4 L143.6,308.4 L154.1,308.4 L164.5,308.4 L175.0,308.4 L185.5,308.4 L195.9,308.4 L206.4,308.4 L216.8,308.4 L227.3,308.4 L237.7,308.6 L248.2,308.6 L258.6,308.6 L269.1,309.1 L279.5,309.1 L290.0,309.1 L300.5,309.1 L310.9,309.1 L321.4,309.1 L331.8,309.1 L342.3,308.0 L352.7,309.1 L363.2,309.0 L373.6,308.9 L384.1,309.0 L394.5,309.0 L405.0,309.0 L415.5,309.0 L425.9,309.0 L436.4,309.0 L446.8,309.0 L457.3,309.0 L467.7,309.0 L478.2,309.0 L488.6,309.0 L499.1,308.9 L509.5,309.0 L520.0,309.0 L530.5,309.0 L540.9,309.0 L551.4,308.6 L561.8,308.6 L572.3,309.0 L582.7,309.0 L593.2,309.0 L603.6,309.0 L614.1,309.0 L624.5,309.0 L635.0,309.0 L645.5,308.6 L655.9,308.6 L666.4,308.6 L676.8,308.6 L687.3,308.6 L697.7,308.6 L708.2,308.6 L718.6,308.6 L729.1,308.6 L739.5,308.6 L750.0,308.6" fill="none" stroke="#1f7a4d" stroke-width="2" /><circle cx="60" cy="308.49666868518517" r="2.5" fill="#1f7a4d" /><circle cx="70.45454545454545" cy="308.27146284126985" r="2.5" fill="#1f7a4d" /><circle cx="80.9090909090909" cy="308.27146284126985" r="2.5" fill="#1f7a4d" /><circle cx="91.36363636363636" cy="308.27146284126985" r="2.5" fill="#1f7a4d" /><circle cx="101.81818181818181" cy="308.38869498412697" r="2.5" fill="#1f7a4d" /><circle cx="112.27272727272728" cy="308.27146284126985" r="2.5" fill="#1f7a4d" /><circle cx="122.72727272727272" cy="308.38869498412697" r="2.5" fill="#1f7a4d" /><circle cx="133.1818181818182" cy="308.37863546031747" r="2.5" fill="#1f7a4d" /><circle cx="143.63636363636363" cy="308.37863546031747" r="2.5" fill="#1f7a4d" /><circle cx="154.0909090909091" cy="308.37863546031747" r="2.5" fill="#1f7a4d" /><circle cx="164.54545454545456" cy="308.37863546031747" r="2.5" fill="#1f7a4d" /><circle cx="175" cy="308.37863546031747" r="2.5" fill="#1f7a4d" /><circle cx="185.45454545454544" cy="308.37863546031747" r="2.5" fill="#1f7a4d" /><circle cx="195.9090909090909" cy="308.37863546031747" r="2.5" fill="#1f7a4d" /><circle cx="206.36363636363637" cy="308.37863546031747" r="2.5" fill="#1f7a4d" /><circle cx="216.8181818181818" cy="308.37863546031747" r="2.5" fill="#1f7a4d" /><circle cx="227.27272727272728" cy="308.37863546031747" r="2.5" fill="#1f7a4d" /><circle cx="237.72727272727272" cy="308.6487183374741" r="2.5" fill="#1f7a4d" /><circle cx="248.1818181818182" cy="308.6487183374741" r="2.5" fill="#1f7a4d" /><circle cx="258.6363636363636" cy="308.6487183374741" r="2.5" fill="#1f7a4d" /><circle cx="269.0909090909091" cy="309.08511108488614" r="2.5" fill="#1f7a4d" /><circle cx="279.5454545454545" cy="309.06335403726706" r="2.5" fill="#1f7a4d" /><circle cx="290" cy="309.08511108488614" r="2.5" fill="#1f7a4d" /><circle cx="300.4545454545455" cy="309.08511108488614" r="2.5" fill="#1f7a4d" /><circle cx="310.9090909090909" cy="309.1141794078675" r="2.5" fill="#1f7a4d" /><circle cx="321.3636363636364" cy="309.124883569161" r="2.5" fill="#1f7a4d" /><circle cx="331.8181818181818" cy="309.124883569161" r="2.5" fill="#1f7a4d" /><circle cx="342.27272727272725" cy="307.9633059183673" r="2.5" fill="#1f7a4d" /><circle cx="352.72727272727275" cy="309.124883569161" r="2.5" fill="#1f7a4d" /><circle cx="363.1818181818182" cy="308.9628295416946" r="2.5" fill="#1f7a4d" /><circle cx="373.6363636363636" cy="308.87302404202995" r="2.5" fill="#1f7a4d" /><circle cx="384.09090909090907" cy="308.9628295416946" r="2.5" fill="#1f7a4d" /><circle cx="394.54545454545456" cy="308.95736135991143" r="2.5" fill="#1f7a4d" /><circle cx="405" cy="308.95736135991143" r="2.5" fill="#1f7a4d" /><circle cx="415.45454545454544" cy="308.95736135991143" r="2.5" fill="#1f7a4d" /><circle cx="425.90909090909093" cy="308.95736135991143" r="2.5" fill="#1f7a4d" /><circle cx="436.3636363636364" cy="308.95736135991143" r="2.5" fill="#1f7a4d" /><circle cx="446.8181818181818" cy="308.95736135991143" r="2.5" fill="#1f7a4d" /><circle cx="457.27272727272725" cy="308.95736135991143" r="2.5" fill="#1f7a4d" /><circle cx="467.72727272727275" cy="308.95736135991143" r="2.5" fill="#1f7a4d" /><circle cx="478.1818181818182" cy="308.95736135991143" r="2.5" fill="#1f7a4d" /><circle cx="488.6363636363636" cy="308.95736135991143" r="2.5" fill="#1f7a4d" /><circle cx="499.09090909090907" cy="308.85797546783624" r="2.5" fill="#1f7a4d" /><circle cx="509.54545454545456" cy="308.95736135991143" r="2.5" fill="#1f7a4d" /><circle cx="520" cy="308.95736135991143" r="2.5" fill="#1f7a4d" /><circle cx="530.4545454545455" cy="308.95736135991143" r="2.5" fill="#1f7a4d" /><circle cx="540.909090909091" cy="308.95736135991143" r="2.5" fill="#1f7a4d" /><circle cx="551.3636363636364" cy="308.5653081085271" r="2.5" fill="#1f7a4d" /><circle cx="561.8181818181818" cy="308.5977001351052" r="2.5" fill="#1f7a4d" /><circle cx="572.2727272727273" cy="308.95736135991143" r="2.5" fill="#1f7a4d" /><circle cx="582.7272727272727" cy="308.95736135991143" r="2.5" fill="#1f7a4d" /><circle cx="593.1818181818181" cy="308.95736135991143" r="2.5" fill="#1f7a4d" /><circle cx="603.6363636363636" cy="308.95736135991143" r="2.5" fill="#1f7a4d" /><circle cx="614.0909090909091" cy="308.95736135991143" r="2.5" fill="#1f7a4d" /><circle cx="624.5454545454545" cy="308.95736135991143" r="2.5" fill="#1f7a4d" /><circle cx="635" cy="308.95736135991143" r="2.5" fill="#1f7a4d" /><circle cx="645.4545454545455" cy="308.61318936877075" r="2.5" fill="#1f7a4d" /><circle cx="655.9090909090909" cy="308.61318936877075" r="2.5" fill="#1f7a4d" /><circle cx="666.3636363636364" cy="308.61318936877075" r="2.5" fill="#1f7a4d" /><circle cx="676.8181818181819" cy="308.61318936877075" r="2.5" fill="#1f7a4d" /><circle cx="687.2727272727273" cy="308.61318936877075" r="2.5" fill="#1f7a4d" /><circle cx="697.7272727272727" cy="308.61318936877075" r="2.5" fill="#1f7a4d" /><circle cx="708.1818181818181" cy="308.61318936877075" r="2.5" fill="#1f7a4d" /><circle cx="718.6363636363636" cy="308.61318936877075" r="2.5" fill="#1f7a4d" /><circle cx="729.0909090909091" cy="308.61318936877075" r="2.5" fill="#1f7a4d" /><circle cx="739.5454545454545" cy="308.61318936877075" r="2.5" fill="#1f7a4d" /><circle cx="750" cy="308.61318936877075" r="2.5" fill="#1f7a4d" /><path d="M60.0,299.5 L70.5,301.8 L80.9,301.8 L91.4,302.0 L101.8,302.0 L112.3,302.0 L122.7,302.0 L133.2,302.0 L143.6,302.0 L154.1,302.0 L164.5,302.0 L175.0,112.7 L185.5,293.6 L195.9,293.6 L206.4,293.8 L216.8,293.8 L227.3,293.8 L237.7,293.9 L248.2,293.9 L258.6,293.9 L269.1,294.5 L279.5,294.5 L290.0,294.5 L300.5,294.5 L310.9,294.5 L321.4,294.7 L331.8,294.7 L342.3,294.7 L352.7,294.7 L363.2,294.9 L373.6,294.9 L384.1,294.9 L394.5,294.9 L405.0,294.9 L415.5,294.9 L425.9,296.1 L436.4,296.1 L446.8,296.3 L457.3,296.3 L467.7,294.9 L478.2,300.0 L488.6,300.0 L499.1,300.0 L509.5,300.1 L520.0,300.1 L530.5,301.3 L540.9,301.1 L551.4,301.0 L561.8,301.0 L572.3,296.3 L582.7,296.3 L593.2,310.0 L603.6,310.0 L614.1,310.0 L624.5,301.3 L635.0,296.2 L645.5,304.0 L655.9,305.2 L666.4,304.0 L676.8,304.0 L687.3,304.0 L697.7,305.2 L708.2,305.2 L718.6,305.2 L729.1,305.2 L739.5,305.2 L750.0,305.2" fill="none" stroke="#7a4d9c" stroke-width="2" stroke-dasharray="4,3" /><circle cx="60" cy="299.53822498015876" r="2.5" fill="#7a4d9c" /><circle cx="70.45454545454545" cy="301.83368500466855" r="2.5" fill="#7a4d9c" /><circle cx="80.9090909090909" cy="301.83368500466855" r="2.5" fill="#7a4d9c" /><circle cx="91.36363636363636" cy="301.97522152110133" r="2.5" fill="#7a4d9c" /><circle cx="101.81818181818181" cy="302.00822761453395" r="2.5" fill="#7a4d9c" /><circle cx="112.27272727272728" cy="301.97522152110133" r="2.5" fill="#7a4d9c" /><circle cx="122.72727272727272" cy="302.00822761453395" r="2.5" fill="#7a4d9c" /><circle cx="133.1818181818182" cy="302.00822761453395" r="2.5" fill="#7a4d9c" /><circle cx="143.63636363636363" cy="302.00822761453395" r="2.5" fill="#7a4d9c" /><circle cx="154.0909090909091" cy="302.00822761453395" r="2.5" fill="#7a4d9c" /><circle cx="164.54545454545456" cy="302.00822761453395" r="2.5" fill="#7a4d9c" /><circle cx="175" cy="112.65169373740824" r="2.5" fill="#7a4d9c" /><circle cx="185.45454545454544" cy="293.60282361378205" r="2.5" fill="#7a4d9c" /><circle cx="195.9090909090909" cy="293.60282361378205" r="2.5" fill="#7a4d9c" /><circle cx="206.36363636363637" cy="293.81385773466116" r="2.5" fill="#7a4d9c" /><circle cx="216.8181818181818" cy="293.81385773466116" r="2.5" fill="#7a4d9c" /><circle cx="227.27272727272728" cy="293.81385773466116" r="2.5" fill="#7a4d9c" /><circle cx="237.72727272727272" cy="293.93204537978113" r="2.5" fill="#7a4d9c" /><circle cx="248.1818181818182" cy="293.93204537978113" r="2.5" fill="#7a4d9c" /><circle cx="258.6363636363636" cy="293.93204537978113" r="2.5" fill="#7a4d9c" /><circle cx="269.0909090909091" cy="294.49288567154395" r="2.5" fill="#7a4d9c" /><circle cx="279.5454545454545" cy="294.49288567154395" r="2.5" fill="#7a4d9c" /><circle cx="290" cy="294.49288567154395" r="2.5" fill="#7a4d9c" /><circle cx="300.4545454545455" cy="294.49288567154395" r="2.5" fill="#7a4d9c" /><circle cx="310.9090909090909" cy="294.4881814550556" r="2.5" fill="#7a4d9c" /><circle cx="321.3636363636364" cy="294.70070518839157" r="2.5" fill="#7a4d9c" /><circle cx="331.8181818181818" cy="294.70070518839157" r="2.5" fill="#7a4d9c" /><circle cx="342.27272727272725" cy="294.70070518839157" r="2.5" fill="#7a4d9c" /><circle cx="352.72727272727275" cy="294.70070518839157" r="2.5" fill="#7a4d9c" /><circle cx="363.1818181818182" cy="294.92498701222604" r="2.5" fill="#7a4d9c" /><circle cx="373.6363636363636" cy="294.9427934245637" r="2.5" fill="#7a4d9c" /><circle cx="384.09090909090907" cy="294.92498701222604" r="2.5" fill="#7a4d9c" /><circle cx="394.54545454545456" cy="294.92498701222604" r="2.5" fill="#7a4d9c" /><circle cx="405" cy="294.92498701222604" r="2.5" fill="#7a4d9c" /><circle cx="415.45454545454544" cy="294.92498701222604" r="2.5" fill="#7a4d9c" /><circle cx="425.90909090909093" cy="296.06538879794033" r="2.5" fill="#7a4d9c" /><circle cx="436.3636363636364" cy="296.06538879794033" r="2.5" fill="#7a4d9c" /><circle cx="446.8181818181818" cy="296.3106556404728" r="2.5" fill="#7a4d9c" /><circle cx="457.27272727272725" cy="296.3106556404728" r="2.5" fill="#7a4d9c" /><circle cx="467.72727272727275" cy="294.92498701222604" r="2.5" fill="#7a4d9c" /><circle cx="478.1818181818182" cy="300.0204753390101" r="2.5" fill="#7a4d9c" /><circle cx="488.6363636363636" cy="300.0204753390101" r="2.5" fill="#7a4d9c" /><circle cx="499.09090909090907" cy="300.02058848743764" r="2.5" fill="#7a4d9c" /><circle cx="509.54545454545456" cy="300.05837356378066" r="2.5" fill="#7a4d9c" /><circle cx="520" cy="300.05837356378066" r="2.5" fill="#7a4d9c" /><circle cx="530.4545454545455" cy="301.28353983865696" r="2.5" fill="#7a4d9c" /><circle cx="540.909090909091" cy="301.09971494762704" r="2.5" fill="#7a4d9c" /><circle cx="551.3636363636364" cy="300.99226510067115" r="2.5" fill="#7a4d9c" /><circle cx="561.8181818181818" cy="301.0236744966443" r="2.5" fill="#7a4d9c" /><circle cx="572.2727272727273" cy="296.3106556404728" r="2.5" fill="#7a4d9c" /><circle cx="582.7272727272727" cy="296.3106556404728" r="2.5" fill="#7a4d9c" /><circle cx="593.1818181818181" cy="310" r="2.5" fill="#7a4d9c" /><circle cx="603.6363636363636" cy="310" r="2.5" fill="#7a4d9c" /><circle cx="614.0909090909091" cy="310" r="2.5" fill="#7a4d9c" /><circle cx="624.5454545454545" cy="301.2534519067066" r="2.5" fill="#7a4d9c" /><circle cx="635" cy="296.197551947291" r="2.5" fill="#7a4d9c" /><circle cx="645.4545454545455" cy="304.03355465004796" r="2.5" fill="#7a4d9c" /><circle cx="655.9090909090909" cy="305.1885354745925" r="2.5" fill="#7a4d9c" /><circle cx="666.3636363636364" cy="304.03355465004796" r="2.5" fill="#7a4d9c" /><circle cx="676.8181818181819" cy="304.03355465004796" r="2.5" fill="#7a4d9c" /><circle cx="687.2727272727273" cy="304.03355465004796" r="2.5" fill="#7a4d9c" /><circle cx="697.7272727272727" cy="305.1885354745925" r="2.5" fill="#7a4d9c" /><circle cx="708.1818181818181" cy="305.23848513902203" r="2.5" fill="#7a4d9c" /><circle cx="718.6363636363636" cy="305.23885906040266" r="2.5" fill="#7a4d9c" /><circle cx="729.0909090909091" cy="305.23885906040266" r="2.5" fill="#7a4d9c" /><circle cx="739.5454545454545" cy="305.23885906040266" r="2.5" fill="#7a4d9c" /><circle cx="750" cy="305.23885906040266" r="2.5" fill="#7a4d9c" /><line x1="760" y1="60" x2="784" y2="60" stroke="#1f7a4d" stroke-width="2" /><text x="790" y="63" fill="#1a1a1a">train (ratchet)</text><line x1="760" y1="78" x2="784" y2="78" stroke="#7a4d9c" stroke-width="2" stroke-dasharray="4,3" /><text x="790" y="81" fill="#1a1a1a">holdout</text></svg>