<svg xmlns="http://www.w3.org/2000/svg" viewBox="0 0 1120 380" width="1120" height="380" font-family="-apple-system, BlinkMacSystemFont, 'Segoe UI', system-ui, sans-serif" font-size="11"><rect width="1120" height="380" fill="#fafaf7" /><text x="560" y="26" text-anchor="middle" fill="#1a1a1a" font-size="17" font-weight="600">WMAE per source — latest run</text><line x1="60" y1="250" x2="980" y2="250" stroke="#dcdcd0" stroke-width="0.5" /><text x="54" y="253" text-anchor="end" fill="#1a1a1a">0.00</text><line x1="60" y1="210" x2="980" y2="210" stroke="#dcdcd0" stroke-width="0.5" /><text x="54" y="213" text-anchor="end" fill="#1a1a1a">10.00</text><line x1="60" y1="170" x2="980" y2="170" stroke="#dcdcd0" stroke-width="0.5" /><text x="54" y="173" text-anchor="end" fill="#1a1a1a">20.00</text><line x1="60" y1="130" x2="980" y2="130" stroke="#dcdcd0" stroke-width="0.5" /><text x="54" y="133" text-anchor="end" fill="#1a1a1a">30.00</text><line x1="60" y1="90" x2="980" y2="90" stroke="#dcdcd0" stroke-width="0.5" /><text x="54" y="93" text-anchor="end" fill="#1a1a1a">40.00</text><line x1="60" y1="50" x2="980" y2="50" stroke="#dcdcd0" stroke-width="0.5" /><text x="54" y="53" text-anchor="end" fill="#1a1a1a">50.00</text><text x="22" y="150" transform="rotate(-90 22 150)" text-anchor="middle" fill="#1a1a1a">WMAE (min)</text><rect x="93.85714285714286" y="145.63392857142856" width="26.285714285714285" height="104.36607142857144" fill="#7a4d9c" /><text x="107" y="142.63392857142856" text-anchor="middle" fill="#1a1a1a" font-size="9">26.09</text><text x="92.85714285714286" y="262" transform="rotate(-35 92.85714285714286 262)" text-anchor="end" fill="#1a1a1a" font-size="10">muslimsalat.com (third-party a</text><rect x="159.57142857142856" y="222.76773566569486" width="26.285714285714285" height="27.232264334305142" fill="#7a4d9c" /><text x="172.7142857142857" y="219.76773566569486" text-anchor="middle" fill="#1a1a1a" font-size="9">6.81</text><text x="158.57142857142856" y="262" transform="rotate(-35 158.57142857142856 262)" text-anchor="end" fill="#1a1a1a" font-size="10">KEMENAG (Kementerian Agama Rep</text><rect x="225.28571428571428" y="235.76285714285714" width="26.285714285714285" height="14.237142857142857" fill="#7a4d9c" /><text x="238.42857142857142" y="232.76285714285714" text-anchor="middle" fill="#1a1a1a" font-size="9">3.56</text><text x="224.28571428571428" y="262" transform="rotate(-35 224.28571428571428 262)" text-anchor="end" fill="#1a1a1a" font-size="10">praytimes.org reference (Hamid</text><rect x="291" y="240.9379235565194" width="26.285714285714285" height="9.062076443480606" fill="#7a4d9c" /><text x="304.14285714285717" y="237.9379235565194" text-anchor="middle" fill="#1a1a1a" font-size="9">2.27</text><text x="290" y="262" transform="rotate(-35 290 262)" text-anchor="end" fill="#1a1a1a" font-size="10">KEMENAG (Kementerian Agama Rep</text><rect x="356.71428571428567" y="242.63848662752773" width="26.285714285714285" height="7.361513372472274" fill="#7a4d9c" /><text x="369.85714285714283" y="239.63848662752773" text-anchor="middle" fill="#1a1a1a" font-size="9">1.84</text><text x="355.71428571428567" y="262" transform="rotate(-35 355.71428571428567 262)" text-anchor="end" fill="#1a1a1a" font-size="10">Aladhan (Islamic Society of th</text><rect x="422.4285714285714" y="244.52380952380952" width="26.285714285714285" height="5.476190476190482" fill="#7a4d9c" /><text x="435.57142857142856" y="241.52380952380952" text-anchor="middle" fill="#1a1a1a" font-size="9">1.37</text><text x="421.4285714285714" y="262" transform="rotate(-35 421.4285714285714 262)" text-anchor="end" fill="#1a1a1a" font-size="10">Habous</text><rect x="488.1428571428571" y="244.94170274170273" width="26.285714285714285" height="5.058297258297273" fill="#7a4d9c" /><text x="501.2857142857143" y="241.94170274170273" text-anchor="middle" fill="#1a1a1a" font-size="9">1.26</text><text x="487.1428571428571" y="262" transform="rotate(-35 487.1428571428571 262)" text-anchor="end" fill="#1a1a1a" font-size="10">Ministry of Habous and Islamic</text><rect x="525.5714285714286" y="245.1076923076923" width="26.285714285714285" height="4.892307692307696" fill="#1f7a4d" /><text x="538.7142857142857" y="242.1076923076923" text-anchor="middle" fill="#1a1a1a" font-size="9">1.22</text><rect x="553.8571428571429" y="231.68329374505146" width="26.285714285714285" height="18.316706254948542" fill="#7a4d9c" /><text x="567" y="228.68329374505146" text-anchor="middle" fill="#1a1a1a" font-size="9">4.58</text><text x="552.8571428571429" y="262" transform="rotate(-35 552.8571428571429 262)" text-anchor="end" fill="#1a1a1a" font-size="10">Aladhan API</text><rect x="591.2857142857142" y="246.46857142857144" width="26.285714285714285" height="3.531428571428563" fill="#1f7a4d" /><text x="604.4285714285713" y="243.46857142857144" text-anchor="middle" fill="#1a1a1a" font-size="9">0.88</text><rect x="619.5714285714286" y="211.12388084914693" width="26.285714285714285" height="38.87611915085307" fill="#7a4d9c" /><text x="632.7142857142857" y="208.12388084914693" text-anchor="middle" fill="#1a1a1a" font-size="9">9.72</text><text x="618.5714285714286" y="262" transform="rotate(-35 618.5714285714286 262)" text-anchor="end" fill="#1a1a1a" font-size="10">Mawaqit (mosque-published)</text><rect x="685.2857142857142" y="247.11045009784735" width="26.285714285714285" height="2.889549902152652" fill="#7a4d9c" /><text x="698.4285714285713" y="244.11045009784735" text-anchor="middle" fill="#1a1a1a" font-size="9">0.72</text><text x="684.2857142857142" y="262" transform="rotate(-35 684.2857142857142 262)" text-anchor="end" fill="#1a1a1a" font-size="10">Aladhan (University of Islamic</text><rect x="750.9999999999999" y="247.62739726027397" width="26.285714285714285" height="2.372602739726034" fill="#7a4d9c" /><text x="764.142857142857" y="244.62739726027397" text-anchor="middle" fill="#1a1a1a" font-size="9">0.59</text><text x="749.9999999999999" y="262" transform="rotate(-35 749.9999999999999 262)" text-anchor="end" fill="#1a1a1a" font-size="10">Aladhan (Institute of Geophysi</text><rect x="788.4285714285713" y="247.9904761904762" width="26.285714285714285" height="2.009523809523813" fill="#1f7a4d" /><text x="801.5714285714284" y="244.9904761904762" text-anchor="middle" fill="#1a1a1a" font-size="9">0.50</text><text x="815.7142857142857" y="262" transform="rotate(-35 815.7142857142857 262)" text-anchor="end" fill="#1a1a1a" font-size="10">Diyanet İşleri Başkanlığı (Tür</text><rect x="854.142857142857" y="248.1809523809524" width="26.285714285714285" height="1.819047619047609" fill="#1f7a4d" /><text x="867.2857142857141" y="245.1809523809524" text-anchor="middle" fill="#1a1a1a" font-size="9">0.45</text><text x="881.4285714285713" y="262" transform="rotate(-35 881.4285714285713 262)" text-anchor="end" fill="#1a1a1a" font-size="10">JAKIM (via waktusolat.app)</text><rect x="948.1428571428571" y="248.21526418786692" width="26.285714285714285" height="1.7847358121330785" fill="#7a4d9c" /><text x="961.2857142857142" y="245.21526418786692" text-anchor="middle" fill="#1a1a1a" font-size="9">0.45</text><text x="947.1428571428571" y="262" transform="rotate(-35 947.1428571428571 262)" text-anchor="end" fill="#1a1a1a" font-size="10">MUIS (Majlis Ugama Islam Singa</text><rect x="940" y="50" width="12" height="10" fill="#1f7a4d" /><text x="956" y="59" fill="#1a1a1a">train (ratchet)</text><rect x="940" y="66" width="12" height="10" fill="#7a4d9c" /><text x="956" y="75" fill="#1a1a1a">holdout</text></svg>