<svg xmlns="http://www.w3.org/2000/svg" viewBox="0 0 11440 380" width="11440" height="380" font-family="-apple-system, BlinkMacSystemFont, 'Segoe UI', system-ui, sans-serif" font-size="11"><rect width="11440" height="380" fill="#fafaf7" /><text x="5720" y="26" text-anchor="middle" fill="#1a1a1a" font-size="17" font-weight="600">WMAE per region — latest run</text><line x1="60" y1="250" x2="11300" y2="250" stroke="#dcdcd0" stroke-width="0.5" /><text x="54" y="253" text-anchor="end" fill="#1a1a1a">0.00</text><line x1="60" y1="210" x2="11300" y2="210" stroke="#dcdcd0" stroke-width="0.5" /><text x="54" y="213" text-anchor="end" fill="#1a1a1a">40.00</text><line x1="60" y1="170" x2="11300" y2="170" stroke="#dcdcd0" stroke-width="0.5" /><text x="54" y="173" text-anchor="end" fill="#1a1a1a">80.00</text><line x1="60" y1="130" x2="11300" y2="130" stroke="#dcdcd0" stroke-width="0.5" /><text x="54" y="133" text-anchor="end" fill="#1a1a1a">120.00</text><line x1="60" y1="90" x2="11300" y2="90" stroke="#dcdcd0" stroke-width="0.5" /><text x="54" y="93" text-anchor="end" fill="#1a1a1a">160.00</text><line x1="60" y1="50" x2="11300" y2="50" stroke="#dcdcd0" stroke-width="0.5" /><text x="54" y="53" text-anchor="end" fill="#1a1a1a">200.00</text><text x="22" y="150" transform="rotate(-90 22 150)" text-anchor="middle" fill="#1a1a1a">WMAE (min)</text><rect x="91.21505376344086" y="132.8469387755102" width="24.172043010752688" height="117.15306122448979" fill="#7a4d9c" /><text x="103.30107526881721" y="129.8469387755102" text-anchor="middle" fill="#1a1a1a" font-size="9">117.15</text><text x="90.21505376344086" y="262" transform="rotate(-35 90.21505376344086 262)" text-anchor="end" fill="#1a1a1a" font-size="10">Astana</text><rect x="151.64516129032256" y="187.14285714285714" width="24.172043010752688" height="62.85714285714286" fill="#7a4d9c" /><text x="163.7311827956989" y="184.14285714285714" text-anchor="middle" fill="#1a1a1a" font-size="9">62.86</text><text x="150.64516129032256" y="262" transform="rotate(-35 150.64516129032256 262)" text-anchor="end" fill="#1a1a1a" font-size="10">Vilnius</text><rect x="212.0752688172043" y="188.3265306122449" width="24.172043010752688" height="61.67346938775509" fill="#7a4d9c" /><text x="224.16129032258064" y="185.3265306122449" text-anchor="middle" fill="#1a1a1a" font-size="9">61.67</text><text x="211.0752688172043" y="262" transform="rotate(-35 211.0752688172043 262)" text-anchor="end" fill="#1a1a1a" font-size="10">Tehran</text><rect x="272.505376344086" y="189.07142857142856" width="24.172043010752688" height="60.928571428571445" fill="#7a4d9c" /><text x="284.59139784946234" y="186.07142857142856" text-anchor="middle" fill="#1a1a1a" font-size="9">60.93</text><text x="271.505376344086" y="262" transform="rotate(-35 271.505376344086 262)" text-anchor="end" fill="#1a1a1a" font-size="10">Asunción</text><rect x="332.93548387096774" y="189.31936071428572" width="24.172043010752688" height="60.68063928571428" fill="#7a4d9c" /><text x="345.02150537634407" y="186.31936071428572" text-anchor="middle" fill="#1a1a1a" font-size="9">60.68</text><text x="331.93548387096774" y="262" transform="rotate(-35 331.93548387096774 262)" text-anchor="end" fill="#1a1a1a" font-size="10">Moscow</text><rect x="393.36559139784947" y="189.69387755102042" width="24.172043010752688" height="60.30612244897958" fill="#7a4d9c" /><text x="405.4516129032258" y="186.69387755102042" text-anchor="middle" fill="#1a1a1a" font-size="9">60.31</text><text x="392.36559139784947" y="262" transform="rotate(-35 392.36559139784947 262)" text-anchor="end" fill="#1a1a1a" font-size="10">Tbilisi</text><rect x="453.7956989247312" y="189.77551020408163" width="24.172043010752688" height="60.22448979591837" fill="#7a4d9c" /><text x="465.8817204301075" y="186.77551020408163" text-anchor="middle" fill="#1a1a1a" font-size="9">60.22</text><text x="452.7956989247312" y="262" transform="rotate(-35 452.7956989247312 262)" text-anchor="end" fill="#1a1a1a" font-size="10">Yerevan</text><rect x="514.2258064516129" y="190" width="24.172043010752688" height="60" fill="#7a4d9c" /><text x="526.3118279569893" y="187" text-anchor="middle" fill="#1a1a1a" font-size="9">60.00</text><text x="513.2258064516129" y="262" transform="rotate(-35 513.2258064516129 262)" text-anchor="end" fill="#1a1a1a" font-size="10">Windhoek</text><rect x="574.6559139784946" y="190.29591836734693" width="24.172043010752688" height="59.70408163265307" fill="#7a4d9c" /><text x="586.741935483871" y="187.29591836734693" text-anchor="middle" fill="#1a1a1a" font-size="9">59.70</text><text x="573.6559139784946" y="262" transform="rotate(-35 573.6559139784946 262)" text-anchor="end" fill="#1a1a1a" font-size="10">Islamabad</text><rect x="635.0860215053764" y="190.3469387755102" width="24.172043010752688" height="59.65306122448979" fill="#7a4d9c" /><text x="647.1720430107528" y="187.3469387755102" text-anchor="middle" fill="#1a1a1a" font-size="9">59.65</text><text x="634.0860215053764" y="262" transform="rotate(-35 634.0860215053764 262)" text-anchor="end" fill="#1a1a1a" font-size="10">Baku</text><rect x="695.516129032258" y="190.94897959183675" width="24.172043010752688" height="59.051020408163254" fill="#7a4d9c" /><text x="707.6021505376344" y="187.94897959183675" text-anchor="middle" fill="#1a1a1a" font-size="9">59.05</text><text x="694.516129032258" y="262" transform="rotate(-35 694.516129032258 262)" text-anchor="end" fill="#1a1a1a" font-size="10">Baghdad</text><rect x="755.9462365591398" y="191.35714285714286" width="24.172043010752688" height="58.64285714285714" fill="#7a4d9c" /><text x="768.0322580645162" y="188.35714285714286" text-anchor="middle" fill="#1a1a1a" font-size="9">58.64</text><text x="754.9462365591398" y="262" transform="rotate(-35 754.9462365591398 262)" text-anchor="end" fill="#1a1a1a" font-size="10">Mexico City</text><rect x="816.3763440860215" y="191.8673469387755" width="24.172043010752688" height="58.13265306122449" fill="#7a4d9c" /><text x="828.4623655913979" y="188.8673469387755" text-anchor="middle" fill="#1a1a1a" font-size="9">58.13</text><text x="815.3763440860215" y="262" transform="rotate(-35 815.3763440860215 262)" text-anchor="end" fill="#1a1a1a" font-size="10">Juba</text><rect x="876.8064516129032" y="191.9591836734694" width="24.172043010752688" height="58.0408163265306" fill="#7a4d9c" /><text x="888.8924731182796" y="188.9591836734694" text-anchor="middle" fill="#1a1a1a" font-size="9">58.04</text><text x="875.8064516129032" y="262" transform="rotate(-35 875.8064516129032 262)" text-anchor="end" fill="#1a1a1a" font-size="10">Khartoum</text><rect x="937.236559139785" y="192.3673469387755" width="24.172043010752688" height="57.63265306122449" fill="#7a4d9c" /><text x="949.3225806451613" y="189.3673469387755" text-anchor="middle" fill="#1a1a1a" font-size="9">57.63</text><text x="936.236559139785" y="262" transform="rotate(-35 936.236559139785 262)" text-anchor="end" fill="#1a1a1a" font-size="10">Ulaanbaatar</text><rect x="997.6666666666666" y="207.94948979591837" width="24.172043010752688" height="42.05051020408163" fill="#7a4d9c" /><text x="1009.752688172043" y="204.94948979591837" text-anchor="middle" fill="#1a1a1a" font-size="9">42.05</text><text x="996.6666666666666" y="262" transform="rotate(-35 996.6666666666666 262)" text-anchor="end" fill="#1a1a1a" font-size="10">Riga</text><rect x="1058.0967741935483" y="208.16326530612244" width="24.172043010752688" height="41.83673469387756" fill="#7a4d9c" /><text x="1070.1827956989246" y="205.16326530612244" text-anchor="middle" fill="#1a1a1a" font-size="9">41.84</text><text x="1057.0967741935483" y="262" transform="rotate(-35 1057.0967741935483 262)" text-anchor="end" fill="#1a1a1a" font-size="10">Stockholm</text><rect x="1118.52688172043" y="208.72448979591837" width="24.172043010752688" height="41.27551020408163" fill="#7a4d9c" /><text x="1130.6129032258063" y="205.72448979591837" text-anchor="middle" fill="#1a1a1a" font-size="9">41.28</text><text x="1117.52688172043" y="262" transform="rotate(-35 1117.52688172043 262)" text-anchor="end" fill="#1a1a1a" font-size="10">Oslo</text><rect x="1178.9569892473119" y="210.14261821428573" width="24.172043010752688" height="39.85738178571427" fill="#7a4d9c" /><text x="1191.0430107526881" y="207.14261821428573" text-anchor="middle" fill="#1a1a1a" font-size="9">39.86</text><text x="1177.9569892473119" y="262" transform="rotate(-35 1177.9569892473119 262)" text-anchor="end" fill="#1a1a1a" font-size="10">Longyearbyen</text><rect x="1239.3870967741937" y="214.0408163265306" width="24.172043010752688" height="35.9591836734694" fill="#7a4d9c" /><text x="1251.47311827957" y="211.0408163265306" text-anchor="middle" fill="#1a1a1a" font-size="9">35.96</text><text x="1238.3870967741937" y="262" transform="rotate(-35 1238.3870967741937 262)" text-anchor="end" fill="#1a1a1a" font-size="10">Reykjavík</text><rect x="1299.8172043010752" y="220.0408163265306" width="24.172043010752688" height="29.959183673469397" fill="#7a4d9c" /><text x="1311.9032258064515" y="217.0408163265306" text-anchor="middle" fill="#1a1a1a" font-size="9">29.96</text><text x="1298.8172043010752" y="262" transform="rotate(-35 1298.8172043010752 262)" text-anchor="end" fill="#1a1a1a" font-size="10">Colombo</text><rect x="1360.247311827957" y="225.55102040816325" width="24.172043010752688" height="24.448979591836746" fill="#7a4d9c" /><text x="1372.3333333333333" y="222.55102040816325" text-anchor="middle" fill="#1a1a1a" font-size="9">24.45</text><text x="1359.247311827957" y="262" transform="rotate(-35 1359.247311827957 262)" text-anchor="end" fill="#1a1a1a" font-size="10">Brussels</text><rect x="1420.6774193548388" y="228.30612244897958" width="24.172043010752688" height="21.69387755102042" fill="#7a4d9c" /><text x="1432.763440860215" y="225.30612244897958" text-anchor="middle" fill="#1a1a1a" font-size="9">21.69</text><text x="1419.6774193548388" y="262" transform="rotate(-35 1419.6774193548388 262)" text-anchor="end" fill="#1a1a1a" font-size="10">Dublin</text><rect x="1481.1075268817203" y="230.26530612244898" width="24.172043010752688" height="19.734693877551024" fill="#7a4d9c" /><text x="1493.1935483870966" y="227.26530612244898" text-anchor="middle" fill="#1a1a1a" font-size="9">19.73</text><text x="1480.1075268817203" y="262" transform="rotate(-35 1480.1075268817203 262)" text-anchor="end" fill="#1a1a1a" font-size="10">Bern</text><rect x="1541.5376344086021" y="237.85714285714286" width="24.172043010752688" height="12.142857142857139" fill="#7a4d9c" /><text x="1553.6236559139784" y="234.85714285714286" text-anchor="middle" fill="#1a1a1a" font-size="9">12.14</text><text x="1540.5376344086021" y="262" transform="rotate(-35 1540.5376344086021 262)" text-anchor="end" fill="#1a1a1a" font-size="10">Warsaw</text><rect x="1601.967741935484" y="238.01020408163265" width="24.172043010752688" height="11.98979591836735" fill="#7a4d9c" /><text x="1614.0537634408602" y="235.01020408163265" text-anchor="middle" fill="#1a1a1a" font-size="9">11.99</text><text x="1600.967741935484" y="262" transform="rotate(-35 1600.967741935484 262)" text-anchor="end" fill="#1a1a1a" font-size="10">Amsterdam</text><rect x="1662.3978494623657" y="238.24489795918367" width="24.172043010752688" height="11.755102040816325" fill="#7a4d9c" /><text x="1674.483870967742" y="235.24489795918367" text-anchor="middle" fill="#1a1a1a" font-size="9">11.76</text><text x="1661.3978494623657" y="262" transform="rotate(-35 1661.3978494623657 262)" text-anchor="end" fill="#1a1a1a" font-size="10">Berlin</text><rect x="1722.8279569892472" y="238.27551020408163" width="24.172043010752688" height="11.724489795918373" fill="#7a4d9c" /><text x="1734.9139784946235" y="235.27551020408163" text-anchor="middle" fill="#1a1a1a" font-size="9">11.72</text><text x="1721.8279569892472" y="262" transform="rotate(-35 1721.8279569892472 262)" text-anchor="end" fill="#1a1a1a" font-size="10">Kyiv</text><rect x="1783.258064516129" y="238.44897959183675" width="24.172043010752688" height="11.551020408163254" fill="#7a4d9c" /><text x="1795.3440860215053" y="235.44897959183675" text-anchor="middle" fill="#1a1a1a" font-size="9">11.55</text><text x="1782.258064516129" y="262" transform="rotate(-35 1782.258064516129 262)" text-anchor="end" fill="#1a1a1a" font-size="10">Prague</text><rect x="1843.6881720430108" y="239.10204081632654" width="24.172043010752688" height="10.897959183673464" fill="#7a4d9c" /><text x="1855.774193548387" y="236.10204081632654" text-anchor="middle" fill="#1a1a1a" font-size="9">10.90</text><text x="1842.6881720430108" y="262" transform="rotate(-35 1842.6881720430108 262)" text-anchor="end" fill="#1a1a1a" font-size="10">Tunis</text><rect x="1904.1182795698924" y="239.77551020408163" width="24.172043010752688" height="10.224489795918373" fill="#7a4d9c" /><text x="1916.2043010752686" y="236.77551020408163" text-anchor="middle" fill="#1a1a1a" font-size="9">10.22</text><text x="1903.1182795698924" y="262" transform="rotate(-35 1903.1182795698924 262)" text-anchor="end" fill="#1a1a1a" font-size="10">Vienna</text><rect x="1964.5483870967741" y="239.78571428571428" width="24.172043010752688" height="10.214285714285722" fill="#7a4d9c" /><text x="1976.6344086021504" y="236.78571428571428" text-anchor="middle" fill="#1a1a1a" font-size="9">10.21</text><text x="1963.5483870967741" y="262" transform="rotate(-35 1963.5483870967741 262)" text-anchor="end" fill="#1a1a1a" font-size="10">Bratislava</text><rect x="2024.978494623656" y="240.08163265306123" width="24.172043010752688" height="9.918367346938766" fill="#7a4d9c" /><text x="2037.0645161290322" y="237.08163265306123" text-anchor="middle" fill="#1a1a1a" font-size="9">9.92</text><text x="2023.978494623656" y="262" transform="rotate(-35 2023.978494623656 262)" text-anchor="end" fill="#1a1a1a" font-size="10">Budapest</text><rect x="2085.4086021505377" y="240.3877551020408" width="24.172043010752688" height="9.612244897959187" fill="#7a4d9c" /><text x="2097.494623655914" y="237.3877551020408" text-anchor="middle" fill="#1a1a1a" font-size="9">9.61</text><text x="2084.4086021505377" y="262" transform="rotate(-35 2084.4086021505377 262)" text-anchor="end" fill="#1a1a1a" font-size="10">Lisbon</text><rect x="2145.8387096774195" y="240.5" width="24.172043010752688" height="9.5" fill="#7a4d9c" /><text x="2157.9247311827958" y="237.5" text-anchor="middle" fill="#1a1a1a" font-size="9">9.50</text><text x="2144.8387096774195" y="262" transform="rotate(-35 2144.8387096774195 262)" text-anchor="end" fill="#1a1a1a" font-size="10">Chișinău</text><rect x="2206.2688172043013" y="240.5612244897959" width="24.172043010752688" height="9.438775510204096" fill="#7a4d9c" /><text x="2218.3548387096776" y="237.5612244897959" text-anchor="middle" fill="#1a1a1a" font-size="9">9.44</text><text x="2205.2688172043013" y="262" transform="rotate(-35 2205.2688172043013 262)" text-anchor="end" fill="#1a1a1a" font-size="10">Sofia</text><rect x="2266.6989247311826" y="240.79591836734693" width="24.172043010752688" height="9.204081632653072" fill="#7a4d9c" /><text x="2278.784946236559" y="237.79591836734693" text-anchor="middle" fill="#1a1a1a" font-size="9">9.20</text><text x="2265.6989247311826" y="262" transform="rotate(-35 2265.6989247311826 262)" text-anchor="end" fill="#1a1a1a" font-size="10">Ljubljana</text><rect x="2327.1290322580644" y="240.89795918367346" width="24.172043010752688" height="9.102040816326536" fill="#7a4d9c" /><text x="2339.2150537634407" y="237.89795918367346" text-anchor="middle" fill="#1a1a1a" font-size="9">9.10</text><text x="2326.1290322580644" y="262" transform="rotate(-35 2326.1290322580644 262)" text-anchor="end" fill="#1a1a1a" font-size="10">Zagreb</text><rect x="2387.559139784946" y="241.05102040816325" width="24.172043010752688" height="8.948979591836746" fill="#7a4d9c" /><text x="2399.6451612903224" y="238.05102040816325" text-anchor="middle" fill="#1a1a1a" font-size="9">8.95</text><text x="2386.559139784946" y="262" transform="rotate(-35 2386.559139784946 262)" text-anchor="end" fill="#1a1a1a" font-size="10">Beirut</text><rect x="2447.989247311828" y="241.09183673469389" width="24.172043010752688" height="8.908163265306115" fill="#7a4d9c" /><text x="2460.0752688172042" y="238.09183673469389" text-anchor="middle" fill="#1a1a1a" font-size="9">8.91</text><text x="2446.989247311828" y="262" transform="rotate(-35 2446.989247311828 262)" text-anchor="end" fill="#1a1a1a" font-size="10">Tirana</text><rect x="2508.4193548387098" y="241.20408163265307" width="24.172043010752688" height="8.795918367346928" fill="#7a4d9c" /><text x="2520.505376344086" y="238.20408163265307" text-anchor="middle" fill="#1a1a1a" font-size="9">8.80</text><text x="2507.4193548387098" y="262" transform="rotate(-35 2507.4193548387098 262)" text-anchor="end" fill="#1a1a1a" font-size="10">Tripoli</text><rect x="2568.8494623655915" y="241.27551020408163" width="24.172043010752688" height="8.724489795918373" fill="#7a4d9c" /><text x="2580.935483870968" y="238.27551020408163" text-anchor="middle" fill="#1a1a1a" font-size="9">8.72</text><text x="2567.8494623655915" y="262" transform="rotate(-35 2567.8494623655915 262)" text-anchor="end" fill="#1a1a1a" font-size="10">Damascus</text><rect x="2629.2795698924733" y="241.33673469387756" width="24.172043010752688" height="8.66326530612244" fill="#7a4d9c" /><text x="2641.3655913978496" y="238.33673469387756" text-anchor="middle" fill="#1a1a1a" font-size="9">8.66</text><text x="2628.2795698924733" y="262" transform="rotate(-35 2628.2795698924733 262)" text-anchor="end" fill="#1a1a1a" font-size="10">Belgrade</text><rect x="2689.7096774193546" y="241.46938775510205" width="24.172043010752688" height="8.530612244897952" fill="#7a4d9c" /><text x="2701.795698924731" y="238.46938775510205" text-anchor="middle" fill="#1a1a1a" font-size="9">8.53</text><text x="2688.7096774193546" y="262" transform="rotate(-35 2688.7096774193546 262)" text-anchor="end" fill="#1a1a1a" font-size="10">Bucharest</text><rect x="2750.1397849462364" y="241.5612244897959" width="24.172043010752688" height="8.438775510204096" fill="#7a4d9c" /><text x="2762.2258064516127" y="238.5612244897959" text-anchor="middle" fill="#1a1a1a" font-size="9">8.44</text><text x="2749.1397849462364" y="262" transform="rotate(-35 2749.1397849462364 262)" text-anchor="end" fill="#1a1a1a" font-size="10">Sarajevo</text><rect x="2810.569892473118" y="241.64285714285714" width="24.172043010752688" height="8.357142857142861" fill="#7a4d9c" /><text x="2822.6559139784945" y="238.64285714285714" text-anchor="middle" fill="#1a1a1a" font-size="9">8.36</text><text x="2809.569892473118" y="262" transform="rotate(-35 2809.569892473118 262)" text-anchor="end" fill="#1a1a1a" font-size="10">Athens</text><rect x="2871" y="241.8877551020408" width="24.172043010752688" height="8.112244897959187" fill="#7a4d9c" /><text x="2883.0860215053763" y="238.8877551020408" text-anchor="middle" fill="#1a1a1a" font-size="9">8.11</text><text x="2870" y="262" transform="rotate(-35 2870 262)" text-anchor="end" fill="#1a1a1a" font-size="10">Algiers</text><rect x="2931.430107526882" y="242.0408163265306" width="24.172043010752688" height="7.959183673469397" fill="#7a4d9c" /><text x="2943.516129032258" y="239.0408163265306" text-anchor="middle" fill="#1a1a1a" font-size="9">7.96</text><text x="2930.430107526882" y="262" transform="rotate(-35 2930.430107526882 262)" text-anchor="end" fill="#1a1a1a" font-size="10">Pristina</text><rect x="2991.8602150537636" y="242.07142857142858" width="24.172043010752688" height="7.928571428571416" fill="#7a4d9c" /><text x="3003.94623655914" y="239.07142857142858" text-anchor="middle" fill="#1a1a1a" font-size="9">7.93</text><text x="2990.8602150537636" y="262" transform="rotate(-35 2990.8602150537636 262)" text-anchor="end" fill="#1a1a1a" font-size="10">Podgorica</text><rect x="3052.2903225806454" y="242.1122448979592" width="24.172043010752688" height="7.887755102040813" fill="#7a4d9c" /><text x="3064.3763440860216" y="239.1122448979592" text-anchor="middle" fill="#1a1a1a" font-size="9">7.89</text><text x="3051.2903225806454" y="262" transform="rotate(-35 3051.2903225806454 262)" text-anchor="end" fill="#1a1a1a" font-size="10">Rome</text><rect x="3112.7204301075267" y="242.16326530612244" width="24.172043010752688" height="7.83673469387756" fill="#7a4d9c" /><text x="3124.806451612903" y="239.16326530612244" text-anchor="middle" fill="#1a1a1a" font-size="9">7.84</text><text x="3111.7204301075267" y="262" transform="rotate(-35 3111.7204301075267 262)" text-anchor="end" fill="#1a1a1a" font-size="10">Skopje</text><rect x="3173.1505376344085" y="242.57142857142858" width="24.172043010752688" height="7.428571428571416" fill="#7a4d9c" /><text x="3185.2365591397847" y="239.57142857142858" text-anchor="middle" fill="#1a1a1a" font-size="9">7.43</text><text x="3172.1505376344085" y="262" transform="rotate(-35 3172.1505376344085 262)" text-anchor="end" fill="#1a1a1a" font-size="10">Madrid</text><rect x="3233.5806451612902" y="242.81632653061226" width="24.172043010752688" height="7.183673469387742" fill="#7a4d9c" /><text x="3245.6666666666665" y="239.81632653061226" text-anchor="middle" fill="#1a1a1a" font-size="9">7.18</text><text x="3232.5806451612902" y="262" transform="rotate(-35 3232.5806451612902 262)" text-anchor="end" fill="#1a1a1a" font-size="10">Pyongyang</text><rect x="3294.010752688172" y="242.9795918367347" width="24.172043010752688" height="7.0204081632653015" fill="#7a4d9c" /><text x="3306.0967741935483" y="239.9795918367347" text-anchor="middle" fill="#1a1a1a" font-size="9">7.02</text><text x="3293.010752688172" y="262" transform="rotate(-35 3293.010752688172 262)" text-anchor="end" fill="#1a1a1a" font-size="10">New Delhi</text><rect x="3354.440860215054" y="242.9795918367347" width="24.172043010752688" height="7.0204081632653015" fill="#7a4d9c" /><text x="3366.52688172043" y="239.9795918367347" text-anchor="middle" fill="#1a1a1a" font-size="9">7.02</text><text x="3353.440860215054" y="262" transform="rotate(-35 3353.440860215054 262)" text-anchor="end" fill="#1a1a1a" font-size="10">Kathmandu</text><rect x="3414.8709677419356" y="243.01020408163265" width="24.172043010752688" height="6.989795918367349" fill="#7a4d9c" /><text x="3426.956989247312" y="240.01020408163265" text-anchor="middle" fill="#1a1a1a" font-size="9">6.99</text><text x="3413.8709677419356" y="262" transform="rotate(-35 3413.8709677419356 262)" text-anchor="end" fill="#1a1a1a" font-size="10">Asmara</text><rect x="3475.3010752688174" y="243.0612244897959" width="24.172043010752688" height="6.9387755102040956" fill="#7a4d9c" /><text x="3487.3870967741937" y="240.0612244897959" text-anchor="middle" fill="#1a1a1a" font-size="9">6.94</text><text x="3474.3010752688174" y="262" transform="rotate(-35 3474.3010752688174 262)" text-anchor="end" fill="#1a1a1a" font-size="10">Seoul</text><rect x="3535.7311827956987" y="243.1122448979592" width="24.172043010752688" height="6.887755102040813" fill="#7a4d9c" /><text x="3547.817204301075" y="240.1122448979592" text-anchor="middle" fill="#1a1a1a" font-size="9">6.89</text><text x="3534.7311827956987" y="262" transform="rotate(-35 3534.7311827956987 262)" text-anchor="end" fill="#1a1a1a" font-size="10">Minsk</text><rect x="3596.1612903225805" y="243.12244897959184" width="24.172043010752688" height="6.877551020408163" fill="#7a4d9c" /><text x="3608.2473118279568" y="240.12244897959184" text-anchor="middle" fill="#1a1a1a" font-size="9">6.88</text><text x="3595.1612903225805" y="262" transform="rotate(-35 3595.1612903225805 262)" text-anchor="end" fill="#1a1a1a" font-size="10">Port Louis</text><rect x="3656.5913978494623" y="243.1734693877551" width="24.172043010752688" height="6.826530612244909" fill="#7a4d9c" /><text x="3668.6774193548385" y="240.1734693877551" text-anchor="middle" fill="#1a1a1a" font-size="9">6.83</text><text x="3655.5913978494623" y="262" transform="rotate(-35 3655.5913978494623 262)" text-anchor="end" fill="#1a1a1a" font-size="10">N&apos;Djamena</text><rect x="3717.021505376344" y="243.21428571428572" width="24.172043010752688" height="6.785714285714278" fill="#7a4d9c" /><text x="3729.1075268817203" y="240.21428571428572" text-anchor="middle" fill="#1a1a1a" font-size="9">6.79</text><text x="3716.021505376344" y="262" transform="rotate(-35 3716.021505376344 262)" text-anchor="end" fill="#1a1a1a" font-size="10">Antananarivo</text><rect x="3777.451612903226" y="243.25510204081633" width="24.172043010752688" height="6.744897959183675" fill="#7a4d9c" /><text x="3789.537634408602" y="240.25510204081633" text-anchor="middle" fill="#1a1a1a" font-size="9">6.74</text><text x="3776.451612903226" y="262" transform="rotate(-35 3776.451612903226 262)" text-anchor="end" fill="#1a1a1a" font-size="10">Thimphu</text><rect x="3837.8817204301076" y="243.25510204081633" width="24.172043010752688" height="6.744897959183675" fill="#7a4d9c" /><text x="3849.967741935484" y="240.25510204081633" text-anchor="middle" fill="#1a1a1a" font-size="9">6.74</text><text x="3836.8817204301076" y="262" transform="rotate(-35 3836.8817204301076 262)" text-anchor="end" fill="#1a1a1a" font-size="10">Ashgabat</text><rect x="3898.3118279569894" y="243.27551020408163" width="24.172043010752688" height="6.724489795918373" fill="#7a4d9c" /><text x="3910.3978494623657" y="240.27551020408163" text-anchor="middle" fill="#1a1a1a" font-size="9">6.72</text><text x="3897.3118279569894" y="262" transform="rotate(-35 3897.3118279569894 262)" text-anchor="end" fill="#1a1a1a" font-size="10">Djibouti</text><rect x="3958.7419354838707" y="243.27551020408163" width="24.172043010752688" height="6.724489795918373" fill="#7a4d9c" /><text x="3970.827956989247" y="240.27551020408163" text-anchor="middle" fill="#1a1a1a" font-size="9">6.72</text><text x="3957.7419354838707" y="262" transform="rotate(-35 3957.7419354838707 262)" text-anchor="end" fill="#1a1a1a" font-size="10">Addis Ababa</text><rect x="4019.1720430107525" y="243.31632653061226" width="24.172043010752688" height="6.683673469387742" fill="#7a4d9c" /><text x="4031.258064516129" y="240.31632653061226" text-anchor="middle" fill="#1a1a1a" font-size="9">6.68</text><text x="4018.1720430107525" y="262" transform="rotate(-35 4018.1720430107525 262)" text-anchor="end" fill="#1a1a1a" font-size="10">Lilongwe</text><rect x="4079.6021505376343" y="243.33673469387756" width="24.172043010752688" height="6.66326530612244" fill="#7a4d9c" /><text x="4091.6881720430106" y="240.33673469387756" text-anchor="middle" fill="#1a1a1a" font-size="9">6.66</text><text x="4078.6021505376343" y="262" transform="rotate(-35 4078.6021505376343 262)" text-anchor="end" fill="#1a1a1a" font-size="10">Tokyo</text><rect x="4140.032258064516" y="243.3673469387755" width="24.172043010752688" height="6.632653061224488" fill="#7a4d9c" /><text x="4152.118279569892" y="240.3673469387755" text-anchor="middle" fill="#1a1a1a" font-size="9">6.63</text><text x="4139.032258064516" y="262" transform="rotate(-35 4139.032258064516 262)" text-anchor="end" fill="#1a1a1a" font-size="10">Nairobi</text><rect x="4200.462365591397" y="243.3673469387755" width="24.172043010752688" height="6.632653061224488" fill="#7a4d9c" /><text x="4212.548387096774" y="240.3673469387755" text-anchor="middle" fill="#1a1a1a" font-size="9">6.63</text><text x="4199.462365591397" y="262" transform="rotate(-35 4199.462365591397 262)" text-anchor="end" fill="#1a1a1a" font-size="10">Kampala</text><rect x="4260.89247311828" y="243.42857142857142" width="24.172043010752688" height="6.571428571428584" fill="#7a4d9c" /><text x="4272.978494623656" y="240.42857142857142" text-anchor="middle" fill="#1a1a1a" font-size="9">6.57</text><text x="4259.89247311828" y="262" transform="rotate(-35 4259.89247311828 262)" text-anchor="end" fill="#1a1a1a" font-size="10">Dhaka</text><rect x="4321.322580645161" y="243.42857142857142" width="24.172043010752688" height="6.571428571428584" fill="#7a4d9c" /><text x="4333.408602150537" y="240.42857142857142" text-anchor="middle" fill="#1a1a1a" font-size="9">6.57</text><text x="4320.322580645161" y="262" transform="rotate(-35 4320.322580645161 262)" text-anchor="end" fill="#1a1a1a" font-size="10">Moroni</text><rect x="4381.752688172043" y="243.4795918367347" width="24.172043010752688" height="6.5204081632653015" fill="#7a4d9c" /><text x="4393.8387096774195" y="240.4795918367347" text-anchor="middle" fill="#1a1a1a" font-size="9">6.52</text><text x="4380.752688172043" y="262" transform="rotate(-35 4380.752688172043 262)" text-anchor="end" fill="#1a1a1a" font-size="10">Kigali</text><rect x="4442.182795698925" y="243.51020408163265" width="24.172043010752688" height="6.489795918367349" fill="#7a4d9c" /><text x="4454.268817204301" y="240.51020408163265" text-anchor="middle" fill="#1a1a1a" font-size="9">6.49</text><text x="4441.182795698925" y="262" transform="rotate(-35 4441.182795698925 262)" text-anchor="end" fill="#1a1a1a" font-size="10">Dodoma</text><rect x="4502.612903225807" y="243.53061224489795" width="24.172043010752688" height="6.469387755102048" fill="#7a4d9c" /><text x="4514.698924731183" y="240.53061224489795" text-anchor="middle" fill="#1a1a1a" font-size="9">6.47</text><text x="4501.612903225807" y="262" transform="rotate(-35 4501.612903225807 262)" text-anchor="end" fill="#1a1a1a" font-size="10">Mogadishu</text><rect x="4563.043010752688" y="243.55102040816325" width="24.172043010752688" height="6.448979591836746" fill="#7a4d9c" /><text x="4575.129032258064" y="240.55102040816325" text-anchor="middle" fill="#1a1a1a" font-size="9">6.45</text><text x="4562.043010752688" y="262" transform="rotate(-35 4562.043010752688 262)" text-anchor="end" fill="#1a1a1a" font-size="10">Gitega</text><rect x="4623.4731182795695" y="243.55102040816325" width="24.172043010752688" height="6.448979591836746" fill="#7a4d9c" /><text x="4635.559139784946" y="240.55102040816325" text-anchor="middle" fill="#1a1a1a" font-size="9">6.45</text><text x="4622.4731182795695" y="262" transform="rotate(-35 4622.4731182795695 262)" text-anchor="end" fill="#1a1a1a" font-size="10">Victoria</text><rect x="4683.903225806452" y="243.6122448979592" width="24.172043010752688" height="6.387755102040813" fill="#7a4d9c" /><text x="4695.989247311828" y="240.6122448979592" text-anchor="middle" fill="#1a1a1a" font-size="9">6.39</text><text x="4682.903225806452" y="262" transform="rotate(-35 4682.903225806452 262)" text-anchor="end" fill="#1a1a1a" font-size="10">Wellington</text><rect x="4744.333333333333" y="244.1326530612245" width="24.172043010752688" height="5.867346938775512" fill="#7a4d9c" /><text x="4756.419354838709" y="241.1326530612245" text-anchor="middle" fill="#1a1a1a" font-size="9">5.87</text><text x="4743.333333333333" y="262" transform="rotate(-35 4743.333333333333 262)" text-anchor="end" fill="#1a1a1a" font-size="10">Singapore</text><rect x="4804.763440860215" y="244.14285714285714" width="24.172043010752688" height="5.857142857142861" fill="#7a4d9c" /><text x="4816.8494623655915" y="241.14285714285714" text-anchor="middle" fill="#1a1a1a" font-size="9">5.86</text><text x="4803.763440860215" y="262" transform="rotate(-35 4803.763440860215 262)" text-anchor="end" fill="#1a1a1a" font-size="10">Buenos Aires</text><rect x="4865.193548387097" y="244.20408163265307" width="24.172043010752688" height="5.795918367346928" fill="#7a4d9c" /><text x="4877.279569892473" y="241.20408163265307" text-anchor="middle" fill="#1a1a1a" font-size="9">5.80</text><text x="4864.193548387097" y="262" transform="rotate(-35 4864.193548387097 262)" text-anchor="end" fill="#1a1a1a" font-size="10">Canberra</text><rect x="4925.623655913979" y="244.21428571428572" width="24.172043010752688" height="5.785714285714278" fill="#7a4d9c" /><text x="4937.709677419355" y="241.21428571428572" text-anchor="middle" fill="#1a1a1a" font-size="9">5.79</text><text x="4924.623655913979" y="262" transform="rotate(-35 4924.623655913979 262)" text-anchor="end" fill="#1a1a1a" font-size="10">Montevideo</text><rect x="4986.05376344086" y="244.31632653061226" width="24.172043010752688" height="5.683673469387742" fill="#7a4d9c" /><text x="4998.139784946236" y="241.31632653061226" text-anchor="middle" fill="#1a1a1a" font-size="9">5.68</text><text x="4985.05376344086" y="262" transform="rotate(-35 4985.05376344086 262)" text-anchor="end" fill="#1a1a1a" font-size="10">Malé</text><rect x="5046.4838709677415" y="244.33673469387756" width="24.172043010752688" height="5.66326530612244" fill="#7a4d9c" /><text x="5058.569892473118" y="241.33673469387756" text-anchor="middle" fill="#1a1a1a" font-size="9">5.66</text><text x="5045.4838709677415" y="262" transform="rotate(-35 5045.4838709677415 262)" text-anchor="end" fill="#1a1a1a" font-size="10">Santiago</text><rect x="5106.913978494624" y="244.3877551020408" width="24.172043010752688" height="5.612244897959187" fill="#7a4d9c" /><text x="5119" y="241.3877551020408" text-anchor="middle" fill="#1a1a1a" font-size="9">5.61</text><text x="5105.913978494624" y="262" transform="rotate(-35 5105.913978494624 262)" text-anchor="end" fill="#1a1a1a" font-size="10">Taipei</text><rect x="5167.344086021505" y="244.4795918367347" width="24.172043010752688" height="5.5204081632653015" fill="#7a4d9c" /><text x="5179.430107526881" y="241.4795918367347" text-anchor="middle" fill="#1a1a1a" font-size="9">5.52</text><text x="5166.344086021505" y="262" transform="rotate(-35 5166.344086021505 262)" text-anchor="end" fill="#1a1a1a" font-size="10">Havana</text><rect x="5227.774193548387" y="244.6530612244898" width="24.172043010752688" height="5.3469387755102105" fill="#7a4d9c" /><text x="5239.860215053764" y="241.6530612244898" text-anchor="middle" fill="#1a1a1a" font-size="9">5.35</text><text x="5226.774193548387" y="262" transform="rotate(-35 5226.774193548387 262)" text-anchor="end" fill="#1a1a1a" font-size="10">Hanoi</text><rect x="5288.204301075269" y="244.71428571428572" width="24.172043010752688" height="5.285714285714278" fill="#7a4d9c" /><text x="5300.290322580645" y="241.71428571428572" text-anchor="middle" fill="#1a1a1a" font-size="9">5.29</text><text x="5287.204301075269" y="262" transform="rotate(-35 5287.204301075269 262)" text-anchor="end" fill="#1a1a1a" font-size="10">Abu Dhabi</text><rect x="5348.634408602151" y="244.72448979591837" width="24.172043010752688" height="5.275510204081627" fill="#7a4d9c" /><text x="5360.720430107527" y="241.72448979591837" text-anchor="middle" fill="#1a1a1a" font-size="9">5.28</text><text x="5347.634408602151" y="262" transform="rotate(-35 5347.634408602151 262)" text-anchor="end" fill="#1a1a1a" font-size="10">Naypyidaw</text><rect x="5409.064516129032" y="244.78571428571428" width="24.172043010752688" height="5.214285714285722" fill="#7a4d9c" /><text x="5421.1505376344085" y="241.78571428571428" text-anchor="middle" fill="#1a1a1a" font-size="9">5.21</text><text x="5408.064516129032" y="262" transform="rotate(-35 5408.064516129032 262)" text-anchor="end" fill="#1a1a1a" font-size="10">Santo Domingo</text><rect x="5469.4946236559135" y="244.80612244897958" width="24.172043010752688" height="5.193877551020421" fill="#7a4d9c" /><text x="5481.58064516129" y="241.80612244897958" text-anchor="middle" fill="#1a1a1a" font-size="9">5.19</text><text x="5468.4946236559135" y="262" transform="rotate(-35 5468.4946236559135 262)" text-anchor="end" fill="#1a1a1a" font-size="10">Kingston</text><rect x="5529.924731182796" y="244.81632653061226" width="24.172043010752688" height="5.183673469387742" fill="#7a4d9c" /><text x="5542.010752688172" y="241.81632653061226" text-anchor="middle" fill="#1a1a1a" font-size="9">5.18</text><text x="5528.924731182796" y="262" transform="rotate(-35 5528.924731182796 262)" text-anchor="end" fill="#1a1a1a" font-size="10">Vientiane</text><rect x="5590.354838709677" y="244.8673469387755" width="24.172043010752688" height="5.132653061224488" fill="#7a4d9c" /><text x="5602.440860215053" y="241.8673469387755" text-anchor="middle" fill="#1a1a1a" font-size="9">5.13</text><text x="5589.354838709677" y="262" transform="rotate(-35 5589.354838709677 262)" text-anchor="end" fill="#1a1a1a" font-size="10">Nouakchott</text><rect x="5650.784946236559" y="244.9591836734694" width="24.172043010752688" height="5.040816326530603" fill="#7a4d9c" /><text x="5662.870967741936" y="241.9591836734694" text-anchor="middle" fill="#1a1a1a" font-size="9">5.04</text><text x="5649.784946236559" y="262" transform="rotate(-35 5649.784946236559 262)" text-anchor="end" fill="#1a1a1a" font-size="10">Sanaa</text><rect x="5711.215053763441" y="244.96938775510205" width="24.172043010752688" height="5.030612244897952" fill="#7a4d9c" /><text x="5723.301075268817" y="241.96938775510205" text-anchor="middle" fill="#1a1a1a" font-size="9">5.03</text><text x="5710.215053763441" y="262" transform="rotate(-35 5710.215053763441 262)" text-anchor="end" fill="#1a1a1a" font-size="10">Guatemala City</text><rect x="5771.645161290323" y="244.96938775510205" width="24.172043010752688" height="5.030612244897952" fill="#7a4d9c" /><text x="5783.731182795699" y="241.96938775510205" text-anchor="middle" fill="#1a1a1a" font-size="9">5.03</text><text x="5770.645161290323" y="262" transform="rotate(-35 5770.645161290323 262)" text-anchor="end" fill="#1a1a1a" font-size="10">Manila</text><rect x="5832.075268817204" y="244.96938775510205" width="24.172043010752688" height="5.030612244897952" fill="#7a4d9c" /><text x="5844.1612903225805" y="241.96938775510205" text-anchor="middle" fill="#1a1a1a" font-size="9">5.03</text><text x="5831.075268817204" y="262" transform="rotate(-35 5831.075268817204 262)" text-anchor="end" fill="#1a1a1a" font-size="10">Praia</text><rect x="5892.505376344086" y="244.9795918367347" width="24.172043010752688" height="5.0204081632653015" fill="#7a4d9c" /><text x="5904.591397849462" y="241.9795918367347" text-anchor="middle" fill="#1a1a1a" font-size="9">5.02</text><text x="5891.505376344086" y="262" transform="rotate(-35 5891.505376344086 262)" text-anchor="end" fill="#1a1a1a" font-size="10">Bangkok</text><rect x="5952.935483870968" y="245" width="24.172043010752688" height="5" fill="#7a4d9c" /><text x="5965.021505376344" y="242" text-anchor="middle" fill="#1a1a1a" font-size="9">5.00</text><text x="5951.935483870968" y="262" transform="rotate(-35 5951.935483870968 262)" text-anchor="end" fill="#1a1a1a" font-size="10">Dakar</text><rect x="6013.365591397849" y="245" width="24.172043010752688" height="5" fill="#7a4d9c" /><text x="6025.451612903225" y="242" text-anchor="middle" fill="#1a1a1a" font-size="9">5.00</text><text x="6012.365591397849" y="262" transform="rotate(-35 6012.365591397849 262)" text-anchor="end" fill="#1a1a1a" font-size="10">Harare</text><rect x="6073.795698924731" y="245.01020408163265" width="24.172043010752688" height="4.989795918367349" fill="#7a4d9c" /><text x="6085.881720430108" y="242.01020408163265" text-anchor="middle" fill="#1a1a1a" font-size="9">4.99</text><text x="6072.795698924731" y="262" transform="rotate(-35 6072.795698924731 262)" text-anchor="end" fill="#1a1a1a" font-size="10">Ouagadougou</text><rect x="6134.225806451613" y="245.01020408163265" width="24.172043010752688" height="4.989795918367349" fill="#7a4d9c" /><text x="6146.311827956989" y="242.01020408163265" text-anchor="middle" fill="#1a1a1a" font-size="9">4.99</text><text x="6133.225806451613" y="262" transform="rotate(-35 6133.225806451613 262)" text-anchor="end" fill="#1a1a1a" font-size="10">Bissau</text><rect x="6194.655913978495" y="245.05102040816325" width="24.172043010752688" height="4.948979591836746" fill="#7a4d9c" /><text x="6206.741935483871" y="242.05102040816325" text-anchor="middle" fill="#1a1a1a" font-size="9">4.95</text><text x="6193.655913978495" y="262" transform="rotate(-35 6193.655913978495 262)" text-anchor="end" fill="#1a1a1a" font-size="10">Bamako</text><rect x="6255.086021505376" y="245.0612244897959" width="24.172043010752688" height="4.9387755102040956" fill="#7a4d9c" /><text x="6267.1720430107525" y="242.0612244897959" text-anchor="middle" fill="#1a1a1a" font-size="9">4.94</text><text x="6254.086021505376" y="262" transform="rotate(-35 6254.086021505376 262)" text-anchor="end" fill="#1a1a1a" font-size="10">Banjul</text><rect x="6315.516129032258" y="245.0612244897959" width="24.172043010752688" height="4.9387755102040956" fill="#7a4d9c" /><text x="6327.602150537634" y="242.0612244897959" text-anchor="middle" fill="#1a1a1a" font-size="9">4.94</text><text x="6314.516129032258" y="262" transform="rotate(-35 6314.516129032258 262)" text-anchor="end" fill="#1a1a1a" font-size="10">Port of Spain</text><rect x="6375.94623655914" y="245.08163265306123" width="24.172043010752688" height="4.918367346938766" fill="#7a4d9c" /><text x="6388.032258064516" y="242.08163265306123" text-anchor="middle" fill="#1a1a1a" font-size="9">4.92</text><text x="6374.94623655914" y="262" transform="rotate(-35 6374.94623655914 262)" text-anchor="end" fill="#1a1a1a" font-size="10">Niamey</text><rect x="6436.376344086021" y="245.1122448979592" width="24.172043010752688" height="4.887755102040813" fill="#7a4d9c" /><text x="6448.462365591397" y="242.1122448979592" text-anchor="middle" fill="#1a1a1a" font-size="9">4.89</text><text x="6435.376344086021" y="262" transform="rotate(-35 6435.376344086021 262)" text-anchor="end" fill="#1a1a1a" font-size="10">Suva</text><rect x="6496.806451612903" y="245.1122448979592" width="24.172043010752688" height="4.887755102040813" fill="#7a4d9c" /><text x="6508.89247311828" y="242.1122448979592" text-anchor="middle" fill="#1a1a1a" font-size="9">4.89</text><text x="6495.806451612903" y="262" transform="rotate(-35 6495.806451612903 262)" text-anchor="end" fill="#1a1a1a" font-size="10">Conakry</text><rect x="6557.236559139785" y="245.1122448979592" width="24.172043010752688" height="4.887755102040813" fill="#7a4d9c" /><text x="6569.322580645161" y="242.1122448979592" text-anchor="middle" fill="#1a1a1a" font-size="9">4.89</text><text x="6556.236559139785" y="262" transform="rotate(-35 6556.236559139785 262)" text-anchor="end" fill="#1a1a1a" font-size="10">Lusaka</text><rect x="6617.666666666667" y="245.1326530612245" width="24.172043010752688" height="4.867346938775512" fill="#7a4d9c" /><text x="6629.752688172043" y="242.1326530612245" text-anchor="middle" fill="#1a1a1a" font-size="9">4.87</text><text x="6616.666666666667" y="262" transform="rotate(-35 6616.666666666667 262)" text-anchor="end" fill="#1a1a1a" font-size="10">Brasília</text><rect x="6678.096774193548" y="245.14285714285714" width="24.172043010752688" height="4.857142857142861" fill="#7a4d9c" /><text x="6690.182795698925" y="242.14285714285714" text-anchor="middle" fill="#1a1a1a" font-size="9">4.86</text><text x="6677.096774193548" y="262" transform="rotate(-35 6677.096774193548 262)" text-anchor="end" fill="#1a1a1a" font-size="10">Phnom Penh</text><rect x="6738.52688172043" y="245.14285714285714" width="24.172043010752688" height="4.857142857142861" fill="#7a4d9c" /><text x="6750.612903225806" y="242.14285714285714" text-anchor="middle" fill="#1a1a1a" font-size="9">4.86</text><text x="6737.52688172043" y="262" transform="rotate(-35 6737.52688172043 262)" text-anchor="end" fill="#1a1a1a" font-size="10">Freetown</text><rect x="6798.956989247312" y="245.1530612244898" width="24.172043010752688" height="4.8469387755102105" fill="#7a4d9c" /><text x="6811.043010752688" y="242.1530612244898" text-anchor="middle" fill="#1a1a1a" font-size="9">4.85</text><text x="6797.956989247312" y="262" transform="rotate(-35 6797.956989247312 262)" text-anchor="end" fill="#1a1a1a" font-size="10">Yamoussoukro</text><rect x="6859.387096774193" y="245.1530612244898" width="24.172043010752688" height="4.8469387755102105" fill="#7a4d9c" /><text x="6871.4731182795695" y="242.1530612244898" text-anchor="middle" fill="#1a1a1a" font-size="9">4.85</text><text x="6858.387096774193" y="262" transform="rotate(-35 6858.387096774193 262)" text-anchor="end" fill="#1a1a1a" font-size="10">Malabo</text><rect x="6919.817204301075" y="245.1530612244898" width="24.172043010752688" height="4.8469387755102105" fill="#7a4d9c" /><text x="6931.903225806452" y="242.1530612244898" text-anchor="middle" fill="#1a1a1a" font-size="9">4.85</text><text x="6918.817204301075" y="262" transform="rotate(-35 6918.817204301075 262)" text-anchor="end" fill="#1a1a1a" font-size="10">Abuja</text><rect x="6980.247311827957" y="245.1734693877551" width="24.172043010752688" height="4.826530612244909" fill="#7a4d9c" /><text x="6992.333333333333" y="242.1734693877551" text-anchor="middle" fill="#1a1a1a" font-size="9">4.83</text><text x="6979.247311827957" y="262" transform="rotate(-35 6979.247311827957 262)" text-anchor="end" fill="#1a1a1a" font-size="10">Luanda</text><rect x="7040.677419354839" y="245.1734693877551" width="24.172043010752688" height="4.826530612244909" fill="#7a4d9c" /><text x="7052.763440860215" y="242.1734693877551" text-anchor="middle" fill="#1a1a1a" font-size="9">4.83</text><text x="7039.677419354839" y="262" transform="rotate(-35 7039.677419354839 262)" text-anchor="end" fill="#1a1a1a" font-size="10">Port Moresby</text><rect x="7101.10752688172" y="245.18367346938774" width="24.172043010752688" height="4.816326530612258" fill="#7a4d9c" /><text x="7113.193548387097" y="242.18367346938774" text-anchor="middle" fill="#1a1a1a" font-size="9">4.82</text><text x="7100.10752688172" y="262" transform="rotate(-35 7100.10752688172 262)" text-anchor="end" fill="#1a1a1a" font-size="10">Georgetown</text><rect x="7161.537634408602" y="245.18367346938777" width="24.172043010752688" height="4.81632653061223" fill="#7a4d9c" /><text x="7173.623655913978" y="242.18367346938777" text-anchor="middle" fill="#1a1a1a" font-size="9">4.82</text><text x="7160.537634408602" y="262" transform="rotate(-35 7160.537634408602 262)" text-anchor="end" fill="#1a1a1a" font-size="10">Accra</text><rect x="7221.967741935484" y="245.18367346938777" width="24.172043010752688" height="4.81632653061223" fill="#7a4d9c" /><text x="7234.05376344086" y="242.18367346938777" text-anchor="middle" fill="#1a1a1a" font-size="9">4.82</text><text x="7220.967741935484" y="262" transform="rotate(-35 7220.967741935484 262)" text-anchor="end" fill="#1a1a1a" font-size="10">Paramaribo</text><rect x="7282.397849462365" y="245.19387755102042" width="24.172043010752688" height="4.806122448979579" fill="#7a4d9c" /><text x="7294.4838709677415" y="242.19387755102042" text-anchor="middle" fill="#1a1a1a" font-size="9">4.81</text><text x="7281.397849462365" y="262" transform="rotate(-35 7281.397849462365 262)" text-anchor="end" fill="#1a1a1a" font-size="10">Lomé</text><rect x="7342.8279569892475" y="245.20408163265307" width="24.172043010752688" height="4.795918367346928" fill="#7a4d9c" /><text x="7354.913978494624" y="242.20408163265307" text-anchor="middle" fill="#1a1a1a" font-size="9">4.80</text><text x="7341.8279569892475" y="262" transform="rotate(-35 7341.8279569892475 262)" text-anchor="end" fill="#1a1a1a" font-size="10">Yaoundé</text><rect x="7403.258064516129" y="245.21428571428572" width="24.172043010752688" height="4.785714285714278" fill="#7a4d9c" /><text x="7415.344086021505" y="242.21428571428572" text-anchor="middle" fill="#1a1a1a" font-size="9">4.79</text><text x="7402.258064516129" y="262" transform="rotate(-35 7402.258064516129 262)" text-anchor="end" fill="#1a1a1a" font-size="10">Brazzaville</text><rect x="7463.688172043011" y="245.21428571428572" width="24.172043010752688" height="4.785714285714278" fill="#7a4d9c" /><text x="7475.774193548387" y="242.21428571428572" text-anchor="middle" fill="#1a1a1a" font-size="9">4.79</text><text x="7462.688172043011" y="262" transform="rotate(-35 7462.688172043011 262)" text-anchor="end" fill="#1a1a1a" font-size="10">Monrovia</text><rect x="7524.118279569892" y="245.21428571428572" width="24.172043010752688" height="4.785714285714278" fill="#7a4d9c" /><text x="7536.204301075269" y="242.21428571428572" text-anchor="middle" fill="#1a1a1a" font-size="9">4.79</text><text x="7523.118279569892" y="262" transform="rotate(-35 7523.118279569892 262)" text-anchor="end" fill="#1a1a1a" font-size="10">Lima</text><rect x="7584.548387096774" y="245.25510204081633" width="24.172043010752688" height="4.744897959183675" fill="#7a4d9c" /><text x="7596.63440860215" y="242.25510204081633" text-anchor="middle" fill="#1a1a1a" font-size="9">4.74</text><text x="7583.548387096774" y="262" transform="rotate(-35 7583.548387096774 262)" text-anchor="end" fill="#1a1a1a" font-size="10">Porto-Novo</text><rect x="7644.978494623656" y="245.25510204081633" width="24.172043010752688" height="4.744897959183675" fill="#7a4d9c" /><text x="7657.064516129032" y="242.25510204081633" text-anchor="middle" fill="#1a1a1a" font-size="9">4.74</text><text x="7643.978494623656" y="262" transform="rotate(-35 7643.978494623656 262)" text-anchor="end" fill="#1a1a1a" font-size="10">Bangui</text><rect x="7705.408602150537" y="245.33673469387756" width="24.172043010752688" height="4.66326530612244" fill="#7a4d9c" /><text x="7717.4946236559135" y="242.33673469387756" text-anchor="middle" fill="#1a1a1a" font-size="9">4.66</text><text x="7704.408602150537" y="262" transform="rotate(-35 7704.408602150537 262)" text-anchor="end" fill="#1a1a1a" font-size="10">Kinshasa</text><rect x="7765.8387096774195" y="245.35714285714286" width="24.172043010752688" height="4.642857142857139" fill="#7a4d9c" /><text x="7777.924731182796" y="242.35714285714286" text-anchor="middle" fill="#1a1a1a" font-size="9">4.64</text><text x="7764.8387096774195" y="262" transform="rotate(-35 7764.8387096774195 262)" text-anchor="end" fill="#1a1a1a" font-size="10">Libreville</text><rect x="7826.268817204301" y="245.3673469387755" width="24.172043010752688" height="4.632653061224488" fill="#7a4d9c" /><text x="7838.354838709677" y="242.3673469387755" text-anchor="middle" fill="#1a1a1a" font-size="9">4.63</text><text x="7825.268817204301" y="262" transform="rotate(-35 7825.268817204301 262)" text-anchor="end" fill="#1a1a1a" font-size="10">São Tomé</text><rect x="7886.698924731183" y="245.89795918367346" width="24.172043010752688" height="4.102040816326536" fill="#7a4d9c" /><text x="7898.784946236559" y="242.89795918367346" text-anchor="middle" fill="#1a1a1a" font-size="9">4.10</text><text x="7885.698924731183" y="262" transform="rotate(-35 7885.698924731183 262)" text-anchor="end" fill="#1a1a1a" font-size="10">Amman</text><rect x="7947.129032258064" y="245.9387755102041" width="24.172043010752688" height="4.0612244897959044" fill="#7a4d9c" /><text x="7959.215053763441" y="242.9387755102041" text-anchor="middle" fill="#1a1a1a" font-size="9">4.06</text><text x="7946.129032258064" y="262" transform="rotate(-35 7946.129032258064 262)" text-anchor="end" fill="#1a1a1a" font-size="10">Muscat</text><rect x="8007.559139784947" y="246.26530612244898" width="24.172043010752688" height="3.734693877551024" fill="#7a4d9c" /><text x="8019.645161290323" y="243.26530612244898" text-anchor="middle" fill="#1a1a1a" font-size="9">3.73</text><text x="8006.559139784947" y="262" transform="rotate(-35 8006.559139784947 262)" text-anchor="end" fill="#1a1a1a" font-size="10">Manama</text><rect x="8067.989247311828" y="246.35714285714286" width="24.172043010752688" height="3.642857142857139" fill="#7a4d9c" /><text x="8080.075268817204" y="243.35714285714286" text-anchor="middle" fill="#1a1a1a" font-size="9">3.64</text><text x="8066.989247311828" y="262" transform="rotate(-35 8066.989247311828 262)" text-anchor="end" fill="#1a1a1a" font-size="10">Limoges</text><rect x="8128.419354838709" y="246.9579831932773" width="24.172043010752688" height="3.0420168067226996" fill="#7a4d9c" /><text x="8140.505376344086" y="243.9579831932773" text-anchor="middle" fill="#1a1a1a" font-size="9">3.04</text><text x="8127.419354838709" y="262" transform="rotate(-35 8127.419354838709 262)" text-anchor="end" fill="#1a1a1a" font-size="10">Reykjavik</text><rect x="8188.8494623655915" y="246.98979591836735" width="24.172043010752688" height="3.0102040816326507" fill="#7a4d9c" /><text x="8200.935483870968" y="243.98979591836735" text-anchor="middle" fill="#1a1a1a" font-size="9">3.01</text><text x="8187.8494623655915" y="262" transform="rotate(-35 8187.8494623655915 262)" text-anchor="end" fill="#1a1a1a" font-size="10">Kuwait City</text><rect x="8249.279569892473" y="247.21428571428572" width="24.172043010752688" height="2.7857142857142776" fill="#7a4d9c" /><text x="8261.36559139785" y="244.21428571428572" text-anchor="middle" fill="#1a1a1a" font-size="9">2.79</text><text x="8248.279569892473" y="262" transform="rotate(-35 8248.279569892473 262)" text-anchor="end" fill="#1a1a1a" font-size="10">Mulhouse</text><rect x="8283.537634408602" y="247.35714285714286" width="24.172043010752688" height="2.642857142857139" fill="#1f7a4d" /><text x="8295.623655913978" y="244.35714285714286" text-anchor="middle" fill="#1a1a1a" font-size="9">2.64</text><rect x="8309.709677419354" y="230.18857142857144" width="24.172043010752688" height="19.811428571428564" fill="#7a4d9c" /><text x="8321.79569892473" y="227.18857142857144" text-anchor="middle" fill="#1a1a1a" font-size="9">19.81</text><text x="8308.709677419354" y="262" transform="rotate(-35 8308.709677419354 262)" text-anchor="end" fill="#1a1a1a" font-size="10">Cairo</text><rect x="8343.967741935485" y="247.47857142857143" width="24.172043010752688" height="2.5214285714285722" fill="#1f7a4d" /><text x="8356.053763440861" y="244.47857142857143" text-anchor="middle" fill="#1a1a1a" font-size="9">2.52</text><text x="8369.139784946237" y="262" transform="rotate(-35 8369.139784946237 262)" text-anchor="end" fill="#1a1a1a" font-size="10">Alexandria</text><rect x="8430.569892473119" y="247.6858332142857" width="24.172043010752688" height="2.314166785714292" fill="#7a4d9c" /><text x="8442.655913978495" y="244.6858332142857" text-anchor="middle" fill="#1a1a1a" font-size="9">2.31</text><text x="8429.569892473119" y="262" transform="rotate(-35 8429.569892473119 262)" text-anchor="end" fill="#1a1a1a" font-size="10">Anchorage</text><rect x="8491" y="247.74489795918367" width="24.172043010752688" height="2.2551020408163254" fill="#7a4d9c" /><text x="8503.086021505376" y="244.74489795918367" text-anchor="middle" fill="#1a1a1a" font-size="9">2.26</text><text x="8490" y="262" transform="rotate(-35 8490 262)" text-anchor="end" fill="#1a1a1a" font-size="10">Doha</text><rect x="8551.430107526881" y="247.80612244897958" width="24.172043010752688" height="2.193877551020421" fill="#7a4d9c" /><text x="8563.516129032258" y="244.80612244897958" text-anchor="middle" fill="#1a1a1a" font-size="9">2.19</text><text x="8550.430107526881" y="262" transform="rotate(-35 8550.430107526881 262)" text-anchor="end" fill="#1a1a1a" font-size="10">Bandar Seri Begawan</text><rect x="8611.860215053763" y="247.9591836734694" width="24.172043010752688" height="2.040816326530603" fill="#7a4d9c" /><text x="8623.946236559139" y="244.9591836734694" text-anchor="middle" fill="#1a1a1a" font-size="9">2.04</text><text x="8610.860215053763" y="262" transform="rotate(-35 8610.860215053763 262)" text-anchor="end" fill="#1a1a1a" font-size="10">Jerusalem</text><rect x="8672.290322580646" y="248" width="24.172043010752688" height="2" fill="#7a4d9c" /><text x="8684.376344086022" y="245" text-anchor="middle" fill="#1a1a1a" font-size="9">2.00</text><text x="8671.290322580646" y="262" transform="rotate(-35 8671.290322580646 262)" text-anchor="end" fill="#1a1a1a" font-size="10">Bishkek</text><rect x="8732.720430107527" y="248.0290525510204" width="24.172043010752688" height="1.9709474489795866" fill="#7a4d9c" /><text x="8744.806451612903" y="245.0290525510204" text-anchor="middle" fill="#1a1a1a" font-size="9">1.97</text><text x="8731.720430107527" y="262" transform="rotate(-35 8731.720430107527 262)" text-anchor="end" fill="#1a1a1a" font-size="10">Helsinki</text><rect x="8793.150537634408" y="248.09183673469389" width="24.172043010752688" height="1.908163265306115" fill="#7a4d9c" /><text x="8805.236559139785" y="245.09183673469389" text-anchor="middle" fill="#1a1a1a" font-size="9">1.91</text><text x="8792.150537634408" y="262" transform="rotate(-35 8792.150537634408 262)" text-anchor="end" fill="#1a1a1a" font-size="10">Tashkent</text><rect x="8853.58064516129" y="248.14285714285714" width="24.172043010752688" height="1.8571428571428612" fill="#7a4d9c" /><text x="8865.666666666666" y="245.14285714285714" text-anchor="middle" fill="#1a1a1a" font-size="9">1.86</text><text x="8852.58064516129" y="262" transform="rotate(-35 8852.58064516129 262)" text-anchor="end" fill="#1a1a1a" font-size="10">Ramallah</text><rect x="8914.010752688171" y="248.24489795918367" width="24.172043010752688" height="1.7551020408163254" fill="#7a4d9c" /><text x="8926.096774193547" y="245.24489795918367" text-anchor="middle" fill="#1a1a1a" font-size="9">1.76</text><text x="8913.010752688171" y="262" transform="rotate(-35 8913.010752688171 262)" text-anchor="end" fill="#1a1a1a" font-size="10">Beijing</text><rect x="8974.440860215054" y="248.29591836734693" width="24.172043010752688" height="1.7040816326530717" fill="#7a4d9c" /><text x="8986.52688172043" y="245.29591836734693" text-anchor="middle" fill="#1a1a1a" font-size="9">1.70</text><text x="8973.440860215054" y="262" transform="rotate(-35 8973.440860215054 262)" text-anchor="end" fill="#1a1a1a" font-size="10">Dushanbe</text><rect x="9008.698924731183" y="248.30714285714285" width="24.172043010752688" height="1.6928571428571502" fill="#1f7a4d" /><text x="9020.78494623656" y="245.30714285714285" text-anchor="middle" fill="#1a1a1a" font-size="9">1.69</text><rect x="9034.870967741936" y="233.08" width="24.172043010752688" height="16.919999999999987" fill="#7a4d9c" /><text x="9046.956989247312" y="230.08" text-anchor="middle" fill="#1a1a1a" font-size="9">16.92</text><text x="9033.870967741936" y="262" transform="rotate(-35 9033.870967741936 262)" text-anchor="end" fill="#1a1a1a" font-size="10">London</text><rect x="9095.301075268817" y="248.31632653061226" width="24.172043010752688" height="1.6836734693877418" fill="#7a4d9c" /><text x="9107.387096774193" y="245.31632653061226" text-anchor="middle" fill="#1a1a1a" font-size="9">1.68</text><text x="9094.301075268817" y="262" transform="rotate(-35 9094.301075268817 262)" text-anchor="end" fill="#1a1a1a" font-size="10">Tromsø</text><rect x="9155.731182795698" y="248.42857142857142" width="24.172043010752688" height="1.5714285714285836" fill="#7a4d9c" /><text x="9167.817204301075" y="245.42857142857142" text-anchor="middle" fill="#1a1a1a" font-size="9">1.57</text><text x="9154.731182795698" y="262" transform="rotate(-35 9154.731182795698 262)" text-anchor="end" fill="#1a1a1a" font-size="10">Marrakech</text><rect x="9216.161290322581" y="248.67857142857142" width="24.172043010752688" height="1.3214285714285836" fill="#7a4d9c" /><text x="9228.247311827958" y="245.67857142857142" text-anchor="middle" fill="#1a1a1a" font-size="9">1.32</text><text x="9215.161290322581" y="262" transform="rotate(-35 9215.161290322581 262)" text-anchor="end" fill="#1a1a1a" font-size="10">Mecca</text><rect x="9276.591397849463" y="248.85714285714286" width="24.172043010752688" height="1.1428571428571388" fill="#7a4d9c" /><text x="9288.677419354839" y="245.85714285714286" text-anchor="middle" fill="#1a1a1a" font-size="9">1.14</text><text x="9275.591397849463" y="262" transform="rotate(-35 9275.591397849463 262)" text-anchor="end" fill="#1a1a1a" font-size="10">Bogota</text><rect x="9310.849462365592" y="249.0935119047619" width="24.172043010752688" height="0.9064880952381031" fill="#1f7a4d" /><text x="9322.935483870968" y="246.0935119047619" text-anchor="middle" fill="#1a1a1a" font-size="9">0.91</text><rect x="9337.021505376344" y="248.15343915343917" width="24.172043010752688" height="1.846560846560834" fill="#7a4d9c" /><text x="9349.10752688172" y="245.15343915343917" text-anchor="middle" fill="#1a1a1a" font-size="9">1.85</text><text x="9336.021505376344" y="262" transform="rotate(-35 9336.021505376344 262)" text-anchor="end" fill="#1a1a1a" font-size="10">Kuala Lumpur</text><rect x="9371.279569892473" y="249.20162523809523" width="24.172043010752688" height="0.7983747619047676" fill="#1f7a4d" /><text x="9383.36559139785" y="246.20162523809523" text-anchor="middle" fill="#1a1a1a" font-size="9">0.80</text><text x="9396.451612903225" y="262" transform="rotate(-35 9396.451612903225 262)" text-anchor="end" fill="#1a1a1a" font-size="10">George Town</text><rect x="9457.881720430107" y="249.2091836734694" width="24.172043010752688" height="0.790816326530603" fill="#7a4d9c" /><text x="9469.967741935483" y="246.2091836734694" text-anchor="middle" fill="#1a1a1a" font-size="9">0.79</text><text x="9456.881720430107" y="262" transform="rotate(-35 9456.881720430107 262)" text-anchor="end" fill="#1a1a1a" font-size="10">La Paz</text><rect x="9518.31182795699" y="249.29364846938776" width="24.172043010752688" height="0.7063515306122383" fill="#7a4d9c" /><text x="9530.397849462366" y="246.29364846938776" text-anchor="middle" fill="#1a1a1a" font-size="9">0.71</text><text x="9517.31182795699" y="262" transform="rotate(-35 9517.31182795699 262)" text-anchor="end" fill="#1a1a1a" font-size="10">Copenhagen</text><rect x="9578.741935483871" y="249.30220459183673" width="24.172043010752688" height="0.6977954081632731" fill="#7a4d9c" /><text x="9590.827956989247" y="246.30220459183673" text-anchor="middle" fill="#1a1a1a" font-size="9">0.70</text><text x="9577.741935483871" y="262" transform="rotate(-35 9577.741935483871 262)" text-anchor="end" fill="#1a1a1a" font-size="10">Tallinn</text><rect x="9613" y="249.30714285714285" width="24.172043010752688" height="0.6928571428571502" fill="#1f7a4d" /><text x="9625.086021505376" y="246.30714285714285" text-anchor="middle" fill="#1a1a1a" font-size="9">0.69</text><rect x="9639.172043010753" y="246.74489795918367" width="24.172043010752688" height="3.2551020408163254" fill="#7a4d9c" /><text x="9651.258064516129" y="243.74489795918367" text-anchor="middle" fill="#1a1a1a" font-size="9">3.26</text><text x="9638.172043010753" y="262" transform="rotate(-35 9638.172043010753 262)" text-anchor="end" fill="#1a1a1a" font-size="10">Jakarta</text><rect x="9699.602150537634" y="249.35714285714286" width="24.172043010752688" height="0.6428571428571388" fill="#7a4d9c" /><text x="9711.68817204301" y="246.35714285714286" text-anchor="middle" fill="#1a1a1a" font-size="9">0.64</text><text x="9698.602150537634" y="262" transform="rotate(-35 9698.602150537634 262)" text-anchor="end" fill="#1a1a1a" font-size="10">Washington D.C.</text><rect x="9760.032258064515" y="249.40816326530611" width="24.172043010752688" height="0.5918367346938851" fill="#7a4d9c" /><text x="9772.118279569891" y="246.40816326530611" text-anchor="middle" fill="#1a1a1a" font-size="9">0.59</text><text x="9759.032258064515" y="262" transform="rotate(-35 9759.032258064515 262)" text-anchor="end" fill="#1a1a1a" font-size="10">Ottawa</text><rect x="9794.290322580646" y="249.4142857142857" width="24.172043010752688" height="0.585714285714289" fill="#1f7a4d" /><text x="9806.376344086022" y="246.4142857142857" text-anchor="middle" fill="#1a1a1a" font-size="9">0.59</text><rect x="9820.462365591398" y="249.47857142857143" width="24.172043010752688" height="0.5214285714285722" fill="#7a4d9c" /><text x="9832.548387096775" y="246.47857142857143" text-anchor="middle" fill="#1a1a1a" font-size="9">0.52</text><text x="9819.462365591398" y="262" transform="rotate(-35 9819.462365591398 262)" text-anchor="end" fill="#1a1a1a" font-size="10">New York</text><rect x="9854.720430107527" y="249.4469380952381" width="24.172043010752688" height="0.5530619047619041" fill="#1f7a4d" /><text x="9866.806451612903" y="246.4469380952381" text-anchor="middle" fill="#1a1a1a" font-size="9">0.55</text><text x="9879.89247311828" y="262" transform="rotate(-35 9879.89247311828 262)" text-anchor="end" fill="#1a1a1a" font-size="10">Shah Alam</text><rect x="9941.322580645161" y="249.46938775510205" width="24.172043010752688" height="0.5306122448979522" fill="#7a4d9c" /><text x="9953.408602150537" y="246.46938775510205" text-anchor="middle" fill="#1a1a1a" font-size="9">0.53</text><text x="9940.322580645161" y="262" transform="rotate(-35 9940.322580645161 262)" text-anchor="end" fill="#1a1a1a" font-size="10">Kabul</text><rect x="9975.58064516129" y="249.49285714285713" width="24.172043010752688" height="0.5071428571428669" fill="#1f7a4d" /><text x="9987.666666666666" y="246.49285714285713" text-anchor="middle" fill="#1a1a1a" font-size="9">0.51</text><rect x="10001.752688172042" y="249.75510204081633" width="24.172043010752688" height="0.24489795918367463" fill="#7a4d9c" /><text x="10013.838709677419" y="246.75510204081633" text-anchor="middle" fill="#1a1a1a" font-size="9">0.24</text><text x="10000.752688172042" y="262" transform="rotate(-35 10000.752688172042 262)" text-anchor="end" fill="#1a1a1a" font-size="10">Riyadh</text><rect x="10036.010752688173" y="249.55" width="24.172043010752688" height="0.44999999999998863" fill="#1f7a4d" /><text x="10048.09677419355" y="246.55" text-anchor="middle" fill="#1a1a1a" font-size="9">0.45</text><text x="10061.182795698925" y="262" transform="rotate(-35 10061.182795698925 262)" text-anchor="end" fill="#1a1a1a" font-size="10">Toronto</text><rect x="10122.612903225807" y="249.57142857142858" width="24.172043010752688" height="0.4285714285714164" fill="#7a4d9c" /><text x="10134.698924731183" y="246.57142857142858" text-anchor="middle" fill="#1a1a1a" font-size="9">0.43</text><text x="10121.612903225807" y="262" transform="rotate(-35 10121.612903225807 262)" text-anchor="end" fill="#1a1a1a" font-size="10">Maputo</text><rect x="10183.043010752688" y="249.59183673469389" width="24.172043010752688" height="0.4081632653061149" fill="#7a4d9c" /><text x="10195.129032258064" y="246.59183673469389" text-anchor="middle" fill="#1a1a1a" font-size="9">0.41</text><text x="10182.043010752688" y="262" transform="rotate(-35 10182.043010752688 262)" text-anchor="end" fill="#1a1a1a" font-size="10">Mbabane</text><rect x="10243.47311827957" y="249.60204081632654" width="24.172043010752688" height="0.39795918367346417" fill="#7a4d9c" /><text x="10255.559139784946" y="246.60204081632654" text-anchor="middle" fill="#1a1a1a" font-size="9">0.40</text><text x="10242.47311827957" y="262" transform="rotate(-35 10242.47311827957 262)" text-anchor="end" fill="#1a1a1a" font-size="10">Denver</text><rect x="10277.731182795698" y="249.61428571428573" width="24.172043010752688" height="0.3857142857142719" fill="#1f7a4d" /><text x="10289.817204301075" y="246.61428571428573" text-anchor="middle" fill="#1a1a1a" font-size="9">0.39</text><rect x="10303.90322580645" y="228.3403361344538" width="24.172043010752688" height="21.659663865546207" fill="#7a4d9c" /><text x="10315.989247311827" y="225.3403361344538" text-anchor="middle" fill="#1a1a1a" font-size="9">21.66</text><text x="10302.90322580645" y="262" transform="rotate(-35 10302.90322580645 262)" text-anchor="end" fill="#1a1a1a" font-size="10">Paris</text><rect x="10364.333333333334" y="249.6326530612245" width="24.172043010752688" height="0.36734693877551194" fill="#7a4d9c" /><text x="10376.41935483871" y="246.6326530612245" text-anchor="middle" fill="#1a1a1a" font-size="9">0.37</text><text x="10363.333333333334" y="262" transform="rotate(-35 10363.333333333334 262)" text-anchor="end" fill="#1a1a1a" font-size="10">Maseru</text><rect x="10424.763440860215" y="249.66326530612244" width="24.172043010752688" height="0.3367346938775597" fill="#7a4d9c" /><text x="10436.849462365592" y="246.66326530612244" text-anchor="middle" fill="#1a1a1a" font-size="9">0.34</text><text x="10423.763440860215" y="262" transform="rotate(-35 10423.763440860215 262)" text-anchor="end" fill="#1a1a1a" font-size="10">Caracas</text><rect x="10485.193548387097" y="249.66326530612244" width="24.172043010752688" height="0.3367346938775597" fill="#7a4d9c" /><text x="10497.279569892473" y="246.66326530612244" text-anchor="middle" fill="#1a1a1a" font-size="9">0.34</text><text x="10484.193548387097" y="262" transform="rotate(-35 10484.193548387097 262)" text-anchor="end" fill="#1a1a1a" font-size="10">Pretoria</text><rect x="10519.451612903225" y="249.6642857142857" width="24.172043010752688" height="0.33571428571428896" fill="#1f7a4d" /><text x="10531.537634408602" y="246.6642857142857" text-anchor="middle" fill="#1a1a1a" font-size="9">0.34</text><rect x="10545.623655913978" y="244.5793650793651" width="24.172043010752688" height="5.42063492063491" fill="#7a4d9c" /><text x="10557.709677419354" y="241.5793650793651" text-anchor="middle" fill="#1a1a1a" font-size="9">5.42</text><text x="10544.623655913978" y="262" transform="rotate(-35 10544.623655913978 262)" text-anchor="end" fill="#1a1a1a" font-size="10">Karachi</text><rect x="10579.881720430107" y="249.6642857142857" width="24.172043010752688" height="0.33571428571428896" fill="#1f7a4d" /><text x="10591.967741935483" y="246.6642857142857" text-anchor="middle" fill="#1a1a1a" font-size="9">0.34</text><text x="10605.05376344086" y="262" transform="rotate(-35 10605.05376344086 262)" text-anchor="end" fill="#1a1a1a" font-size="10">Los Angeles</text><rect x="10666.483870967742" y="249.68487394957984" width="24.172043010752688" height="0.3151260504201616" fill="#7a4d9c" /><text x="10678.569892473119" y="246.68487394957984" text-anchor="middle" fill="#1a1a1a" font-size="9">0.32</text><text x="10665.483870967742" y="262" transform="rotate(-35 10665.483870967742 262)" text-anchor="end" fill="#1a1a1a" font-size="10">Quito</text><rect x="10726.913978494624" y="249.71428571428572" width="24.172043010752688" height="0.2857142857142776" fill="#7a4d9c" /><text x="10739" y="246.71428571428572" text-anchor="middle" fill="#1a1a1a" font-size="9">0.29</text><text x="10725.913978494624" y="262" transform="rotate(-35 10725.913978494624 262)" text-anchor="end" fill="#1a1a1a" font-size="10">Gaborone</text><rect x="10787.344086021505" y="249.72448979591837" width="24.172043010752688" height="0.27551020408162685" fill="#7a4d9c" /><text x="10799.430107526881" y="246.72448979591837" text-anchor="middle" fill="#1a1a1a" font-size="9">0.28</text><text x="10786.344086021505" y="262" transform="rotate(-35 10786.344086021505 262)" text-anchor="end" fill="#1a1a1a" font-size="10">Bogotá</text><rect x="10821.602150537634" y="249.72857142857143" width="24.172043010752688" height="0.27142857142857224" fill="#1f7a4d" /><text x="10833.68817204301" y="246.72857142857143" text-anchor="middle" fill="#1a1a1a" font-size="9">0.27</text><rect x="10847.774193548386" y="248.0142857142857" width="24.172043010752688" height="1.9857142857142946" fill="#7a4d9c" /><text x="10859.860215053763" y="245.0142857142857" text-anchor="middle" fill="#1a1a1a" font-size="9">1.99</text><text x="10846.774193548386" y="262" transform="rotate(-35 10846.774193548386 262)" text-anchor="end" fill="#1a1a1a" font-size="10">Madinah</text><rect x="10882.032258064517" y="249.7357142857143" width="24.172043010752688" height="0.26428571428570535" fill="#1f7a4d" /><text x="10894.118279569893" y="246.7357142857143" text-anchor="middle" fill="#1a1a1a" font-size="9">0.26</text><text x="10907.20430107527" y="262" transform="rotate(-35 10907.20430107527 262)" text-anchor="end" fill="#1a1a1a" font-size="10">Makkah</text><rect x="10942.462365591398" y="249.75714285714287" width="24.172043010752688" height="0.2428571428571331" fill="#1f7a4d" /><text x="10954.548387096775" y="246.75714285714287" text-anchor="middle" fill="#1a1a1a" font-size="9">0.24</text><rect x="10968.63440860215" y="248.31785714285715" width="24.172043010752688" height="1.6821428571428498" fill="#7a4d9c" /><text x="10980.720430107527" y="245.31785714285715" text-anchor="middle" fill="#1a1a1a" font-size="9">1.68</text><text x="10967.63440860215" y="262" transform="rotate(-35 10967.63440860215 262)" text-anchor="end" fill="#1a1a1a" font-size="10">Istanbul</text><rect x="11002.89247311828" y="249.77142857142857" width="24.172043010752688" height="0.22857142857142776" fill="#1f7a4d" /><text x="11014.978494623656" y="246.77142857142857" text-anchor="middle" fill="#1a1a1a" font-size="9">0.23</text><rect x="11029.064516129032" y="197.09821428571428" width="24.172043010752688" height="52.90178571428572" fill="#7a4d9c" /><text x="11041.150537634408" y="194.09821428571428" text-anchor="middle" fill="#1a1a1a" font-size="9">52.90</text><text x="11028.064516129032" y="262" transform="rotate(-35 11028.064516129032 262)" text-anchor="end" fill="#1a1a1a" font-size="10">Rabat</text><rect x="11063.322580645161" y="249.78571428571428" width="24.172043010752688" height="0.2142857142857224" fill="#1f7a4d" /><text x="11075.408602150537" y="246.78571428571428" text-anchor="middle" fill="#1a1a1a" font-size="9">0.21</text><rect x="11089.494623655914" y="248.11904761904762" width="24.172043010752688" height="1.8809523809523796" fill="#7a4d9c" /><text x="11101.58064516129" y="245.11904761904762" text-anchor="middle" fill="#1a1a1a" font-size="9">1.88</text><text x="11088.494623655914" y="262" transform="rotate(-35 11088.494623655914 262)" text-anchor="end" fill="#1a1a1a" font-size="10">Casablanca</text><rect x="11123.752688172042" y="249.8" width="24.172043010752688" height="0.19999999999998863" fill="#1f7a4d" /><text x="11135.838709677419" y="246.8" text-anchor="middle" fill="#1a1a1a" font-size="9">0.20</text><rect x="11149.924731182795" y="246.8125" width="24.172043010752688" height="3.1875" fill="#7a4d9c" /><text x="11162.010752688171" y="243.8125" text-anchor="middle" fill="#1a1a1a" font-size="9">3.19</text><text x="11148.924731182795" y="262" transform="rotate(-35 11148.924731182795 262)" text-anchor="end" fill="#1a1a1a" font-size="10">Dubai</text><rect x="11184.182795698925" y="249.8357142857143" width="24.172043010752688" height="0.16428571428571104" fill="#1f7a4d" /><text x="11196.268817204302" y="246.8357142857143" text-anchor="middle" fill="#1a1a1a" font-size="9">0.16</text><text x="11209.354838709678" y="262" transform="rotate(-35 11209.354838709678 262)" text-anchor="end" fill="#1a1a1a" font-size="10">Izmir</text><rect x="11244.612903225807" y="249.85714285714286" width="24.172043010752688" height="0.1428571428571388" fill="#1f7a4d" /><text x="11256.698924731183" y="246.85714285714286" text-anchor="middle" fill="#1a1a1a" font-size="9">0.14</text><rect x="11270.78494623656" y="242" width="24.172043010752688" height="8" fill="#7a4d9c" /><text x="11282.870967741936" y="239" text-anchor="middle" fill="#1a1a1a" font-size="9">8.00</text><text x="11269.78494623656" y="262" transform="rotate(-35 11269.78494623656 262)" text-anchor="end" fill="#1a1a1a" font-size="10">Ankara</text><rect x="11260" y="50" width="12" height="10" fill="#1f7a4d" /><text x="11276" y="59" fill="#1a1a1a">train (ratchet)</text><rect x="11260" y="66" width="12" height="10" fill="#7a4d9c" /><text x="11276" y="75" fill="#1a1a1a">holdout</text></svg>