<svg xmlns="http://www.w3.org/2000/svg" viewBox="0 0 760 380" width="760" height="380" font-family="-apple-system, BlinkMacSystemFont, 'Segoe UI', system-ui, sans-serif" font-size="11"><rect width="760" height="380" fill="#fafaf7" /><text x="380" y="26" text-anchor="middle" fill="#1a1a1a" font-size="17" font-weight="600">WMAE per source — latest run</text><line x1="60" y1="250" x2="620" y2="250" stroke="#dcdcd0" stroke-width="0.5" /><text x="54" y="253" text-anchor="end" fill="#1a1a1a">0.00</text><line x1="60" y1="210" x2="620" y2="210" stroke="#dcdcd0" stroke-width="0.5" /><text x="54" y="213" text-anchor="end" fill="#1a1a1a">10.00</text><line x1="60" y1="170" x2="620" y2="170" stroke="#dcdcd0" stroke-width="0.5" /><text x="54" y="173" text-anchor="end" fill="#1a1a1a">20.00</text><line x1="60" y1="130" x2="620" y2="130" stroke="#dcdcd0" stroke-width="0.5" /><text x="54" y="133" text-anchor="end" fill="#1a1a1a">30.00</text><line x1="60" y1="90" x2="620" y2="90" stroke="#dcdcd0" stroke-width="0.5" /><text x="54" y="93" text-anchor="end" fill="#1a1a1a">40.00</text><line x1="60" y1="50" x2="620" y2="50" stroke="#dcdcd0" stroke-width="0.5" /><text x="54" y="53" text-anchor="end" fill="#1a1a1a">50.00</text><text x="22" y="150" transform="rotate(-90 22 150)" text-anchor="middle" fill="#1a1a1a">WMAE (min)</text><rect x="96" y="145.63392857142856" width="28" height="104.36607142857144" fill="#7a4d9c" /><text x="110" y="142.63392857142856" text-anchor="middle" fill="#1a1a1a" font-size="9">26.09</text><text x="95" y="262" transform="rotate(-35 95 262)" text-anchor="end" fill="#1a1a1a" font-size="10">muslimsalat.com (third-party a</text><rect x="166" y="235.87714285714287" width="28" height="14.122857142857129" fill="#7a4d9c" /><text x="180" y="232.87714285714287" text-anchor="middle" fill="#1a1a1a" font-size="9">3.53</text><text x="165" y="262" transform="rotate(-35 165 262)" text-anchor="end" fill="#1a1a1a" font-size="10">praytimes.org reference (Hamid</text><rect x="236" y="240.75304960693956" width="28" height="9.246950393060445" fill="#7a4d9c" /><text x="250" y="237.75304960693956" text-anchor="middle" fill="#1a1a1a" font-size="9">2.31</text><text x="235" y="262" transform="rotate(-35 235 262)" text-anchor="end" fill="#1a1a1a" font-size="10">KEMENAG (Kementerian Agama Rep</text><rect x="276" y="243.93142857142857" width="28" height="6.068571428571431" fill="#1f7a4d" /><text x="290" y="240.93142857142857" text-anchor="middle" fill="#1a1a1a" font-size="9">1.52</text><rect x="306" y="218.38037865748709" width="28" height="31.619621342512914" fill="#7a4d9c" /><text x="320" y="215.38037865748709" text-anchor="middle" fill="#1a1a1a" font-size="9">7.90</text><text x="305" y="262" transform="rotate(-35 305 262)" text-anchor="end" fill="#1a1a1a" font-size="10">Mawaqit (mosque-published)</text><rect x="346" y="245.1076923076923" width="28" height="4.892307692307696" fill="#1f7a4d" /><text x="360" y="242.1076923076923" text-anchor="middle" fill="#1a1a1a" font-size="9">1.22</text><rect x="376" y="231.58556724352448" width="28" height="18.41443275647552" fill="#7a4d9c" /><text x="390" y="228.58556724352448" text-anchor="middle" fill="#1a1a1a" font-size="9">4.60</text><text x="375" y="262" transform="rotate(-35 375 262)" text-anchor="end" fill="#1a1a1a" font-size="10">Aladhan API</text><rect x="416" y="247.68571428571428" width="28" height="2.3142857142857167" fill="#1f7a4d" /><text x="430" y="244.68571428571428" text-anchor="middle" fill="#1a1a1a" font-size="9">0.58</text><text x="445" y="262" transform="rotate(-35 445 262)" text-anchor="end" fill="#1a1a1a" font-size="10">JAKIM (via waktusolat.app)</text><rect x="486" y="247.9904761904762" width="28" height="2.009523809523813" fill="#1f7a4d" /><text x="500" y="244.9904761904762" text-anchor="middle" fill="#1a1a1a" font-size="9">0.50</text><text x="515" y="262" transform="rotate(-35 515 262)" text-anchor="end" fill="#1a1a1a" font-size="10">Diyanet İşleri Başkanlığı (Tür</text><rect x="586" y="248.21526418786692" width="28" height="1.7847358121330785" fill="#7a4d9c" /><text x="600" y="245.21526418786692" text-anchor="middle" fill="#1a1a1a" font-size="9">0.45</text><text x="585" y="262" transform="rotate(-35 585 262)" text-anchor="end" fill="#1a1a1a" font-size="10">MUIS (Majlis Ugama Islam Singa</text><rect x="580" y="50" width="12" height="10" fill="#1f7a4d" /><text x="596" y="59" fill="#1a1a1a">train (ratchet)</text><rect x="580" y="66" width="12" height="10" fill="#7a4d9c" /><text x="596" y="75" fill="#1a1a1a">holdout</text></svg>