<svg xmlns="http://www.w3.org/2000/svg" viewBox="0 0 880 360" width="880" height="360" font-family="-apple-system, BlinkMacSystemFont, 'Segoe UI', system-ui, sans-serif" font-size="11"><rect width="880" height="360" fill="#fafaf7" /><text x="440" y="26" text-anchor="middle" fill="#1a1a1a" font-size="17" font-weight="600">WMAE over time — train (ratchet) vs. holdout</text><line x1="60" y1="310" x2="750" y2="310" stroke="#dcdcd0" stroke-width="0.5" /><text x="54" y="313" text-anchor="end" fill="#1a1a1a">0.00</text><line x1="60" y1="258" x2="750" y2="258" stroke="#dcdcd0" stroke-width="0.5" /><text x="54" y="261" text-anchor="end" fill="#1a1a1a">40.00</text><line x1="60" y1="206" x2="750" y2="206" stroke="#dcdcd0" stroke-width="0.5" /><text x="54" y="209" text-anchor="end" fill="#1a1a1a">80.00</text><line x1="60" y1="154" x2="750" y2="154" stroke="#dcdcd0" stroke-width="0.5" /><text x="54" y="157" text-anchor="end" fill="#1a1a1a">120.00</text><line x1="60" y1="102" x2="750" y2="102" stroke="#dcdcd0" stroke-width="0.5" /><text x="54" y="105" text-anchor="end" fill="#1a1a1a">160.00</text><line x1="60" y1="50" x2="750" y2="50" stroke="#dcdcd0" stroke-width="0.5" /><text x="54" y="53" text-anchor="end" fill="#1a1a1a">200.00</text><line x1="60" y1="310" x2="60" y2="314" stroke="#1a1a1a" /><text x="60" y="328" text-anchor="middle" fill="#1a1a1a" font-size="9">04-30 20:49</text><line x1="154.0909090909091" y1="310" x2="154.0909090909091" y2="314" stroke="#1a1a1a" /><text x="154.0909090909091" y="328" text-anchor="middle" fill="#1a1a1a" font-size="9">04-30 21:27</text><line x1="248.1818181818182" y1="310" x2="248.1818181818182" y2="314" stroke="#1a1a1a" /><text x="248.1818181818182" y="328" text-anchor="middle" fill="#1a1a1a" font-size="9">04-30 21:41</text><line x1="342.27272727272725" y1="310" x2="342.27272727272725" y2="314" stroke="#1a1a1a" /><text x="342.27272727272725" y="328" text-anchor="middle" fill="#1a1a1a" font-size="9">05-01 22:32</text><line x1="436.3636363636364" y1="310" x2="436.3636363636364" y2="314" stroke="#1a1a1a" /><text x="436.3636363636364" y="328" text-anchor="middle" fill="#1a1a1a" font-size="9">05-02 00:46</text><line x1="530.4545454545455" y1="310" x2="530.4545454545455" y2="314" stroke="#1a1a1a" /><text x="530.4545454545455" y="328" text-anchor="middle" fill="#1a1a1a" font-size="9">05-02 01:06</text><line x1="624.5454545454545" y1="310" x2="624.5454545454545" y2="314" stroke="#1a1a1a" /><text x="624.5454545454545" y="328" text-anchor="middle" fill="#1a1a1a" font-size="9">05-02 08:57</text><line x1="718.6363636363636" y1="310" x2="718.6363636363636" y2="314" stroke="#1a1a1a" /><text x="718.6363636363636" y="328" text-anchor="middle" fill="#1a1a1a" font-size="9">05-02 09:49</text><text x="22" y="180" transform="rotate(-90 22 180)" text-anchor="middle" fill="#1a1a1a">WMAE (min)</text><path d="M60.0,308.5 L91.4,308.3 L122.7,308.3 L154.1,308.3 L185.5,308.4 L216.8,308.3 L248.2,308.4 L279.5,308.4 L310.9,308.4 L342.3,308.4 L373.6,308.4 L405.0,308.4 L436.4,308.4 L467.7,308.4 L499.1,308.4 L530.5,308.4 L561.8,308.4 L593.2,308.6 L624.5,308.6 L655.9,308.6 L687.3,309.1 L718.6,309.1 L750.0,309.1" fill="none" stroke="#1f7a4d" stroke-width="2" /><circle cx="60" cy="308.49666868518517" r="2.5" fill="#1f7a4d" /><circle cx="91.36363636363636" cy="308.27146284126985" r="2.5" fill="#1f7a4d" /><circle cx="122.72727272727272" cy="308.27146284126985" r="2.5" fill="#1f7a4d" /><circle cx="154.0909090909091" cy="308.27146284126985" r="2.5" fill="#1f7a4d" /><circle cx="185.45454545454544" cy="308.38869498412697" r="2.5" fill="#1f7a4d" /><circle cx="216.8181818181818" cy="308.27146284126985" r="2.5" fill="#1f7a4d" /><circle cx="248.1818181818182" cy="308.38869498412697" r="2.5" fill="#1f7a4d" /><circle cx="279.5454545454545" cy="308.37863546031747" r="2.5" fill="#1f7a4d" /><circle cx="310.9090909090909" cy="308.37863546031747" r="2.5" fill="#1f7a4d" /><circle cx="342.27272727272725" cy="308.37863546031747" r="2.5" fill="#1f7a4d" /><circle cx="373.6363636363636" cy="308.37863546031747" r="2.5" fill="#1f7a4d" /><circle cx="405" cy="308.37863546031747" r="2.5" fill="#1f7a4d" /><circle cx="436.3636363636364" cy="308.37863546031747" r="2.5" fill="#1f7a4d" /><circle cx="467.72727272727275" cy="308.37863546031747" r="2.5" fill="#1f7a4d" /><circle cx="499.09090909090907" cy="308.37863546031747" r="2.5" fill="#1f7a4d" /><circle cx="530.4545454545455" cy="308.37863546031747" r="2.5" fill="#1f7a4d" /><circle cx="561.8181818181818" cy="308.37863546031747" r="2.5" fill="#1f7a4d" /><circle cx="593.1818181818181" cy="308.6487183374741" r="2.5" fill="#1f7a4d" /><circle cx="624.5454545454545" cy="308.6487183374741" r="2.5" fill="#1f7a4d" /><circle cx="655.9090909090909" cy="308.6487183374741" r="2.5" fill="#1f7a4d" /><circle cx="687.2727272727273" cy="309.08511108488614" r="2.5" fill="#1f7a4d" /><circle cx="718.6363636363636" cy="309.06335403726706" r="2.5" fill="#1f7a4d" /><circle cx="750" cy="309.08511108488614" r="2.5" fill="#1f7a4d" /><path d="M60.0,299.5 L91.4,301.8 L122.7,301.8 L154.1,302.0 L185.5,302.0 L216.8,302.0 L248.2,302.0 L279.5,302.0 L310.9,302.0 L342.3,302.0 L373.6,302.0 L405.0,112.7 L436.4,293.6 L467.7,293.6 L499.1,293.8 L530.5,293.8 L561.8,293.8 L593.2,293.9 L624.5,293.9 L655.9,293.9 L687.3,294.5 L718.6,294.5 L750.0,294.5" fill="none" stroke="#7a4d9c" stroke-width="2" stroke-dasharray="4,3" /><circle cx="60" cy="299.53822498015876" r="2.5" fill="#7a4d9c" /><circle cx="91.36363636363636" cy="301.83368500466855" r="2.5" fill="#7a4d9c" /><circle cx="122.72727272727272" cy="301.83368500466855" r="2.5" fill="#7a4d9c" /><circle cx="154.0909090909091" cy="301.97522152110133" r="2.5" fill="#7a4d9c" /><circle cx="185.45454545454544" cy="302.00822761453395" r="2.5" fill="#7a4d9c" /><circle cx="216.8181818181818" cy="301.97522152110133" r="2.5" fill="#7a4d9c" /><circle cx="248.1818181818182" cy="302.00822761453395" r="2.5" fill="#7a4d9c" /><circle cx="279.5454545454545" cy="302.00822761453395" r="2.5" fill="#7a4d9c" /><circle cx="310.9090909090909" cy="302.00822761453395" r="2.5" fill="#7a4d9c" /><circle cx="342.27272727272725" cy="302.00822761453395" r="2.5" fill="#7a4d9c" /><circle cx="373.6363636363636" cy="302.00822761453395" r="2.5" fill="#7a4d9c" /><circle cx="405" cy="112.65169373740824" r="2.5" fill="#7a4d9c" /><circle cx="436.3636363636364" cy="293.60282361378205" r="2.5" fill="#7a4d9c" /><circle cx="467.72727272727275" cy="293.60282361378205" r="2.5" fill="#7a4d9c" /><circle cx="499.09090909090907" cy="293.81385773466116" r="2.5" fill="#7a4d9c" /><circle cx="530.4545454545455" cy="293.81385773466116" r="2.5" fill="#7a4d9c" /><circle cx="561.8181818181818" cy="293.81385773466116" r="2.5" fill="#7a4d9c" /><circle cx="593.1818181818181" cy="293.93204537978113" r="2.5" fill="#7a4d9c" /><circle cx="624.5454545454545" cy="293.93204537978113" r="2.5" fill="#7a4d9c" /><circle cx="655.9090909090909" cy="293.93204537978113" r="2.5" fill="#7a4d9c" /><circle cx="687.2727272727273" cy="294.49288567154395" r="2.5" fill="#7a4d9c" /><circle cx="718.6363636363636" cy="294.49288567154395" r="2.5" fill="#7a4d9c" /><circle cx="750" cy="294.49288567154395" r="2.5" fill="#7a4d9c" /><line x1="760" y1="60" x2="784" y2="60" stroke="#1f7a4d" stroke-width="2" /><text x="790" y="63" fill="#1a1a1a">train (ratchet)</text><line x1="760" y1="78" x2="784" y2="78" stroke="#7a4d9c" stroke-width="2" stroke-dasharray="4,3" /><text x="790" y="81" fill="#1a1a1a">holdout</text></svg>