<svg xmlns="http://www.w3.org/2000/svg" viewBox="0 0 880 360" width="880" height="360" font-family="-apple-system, BlinkMacSystemFont, 'Segoe UI', system-ui, sans-serif" font-size="11"><rect width="880" height="360" fill="#fafaf7" /><text x="440" y="26" text-anchor="middle" fill="#1a1a1a" font-size="17" font-weight="600">WMAE over time — train (ratchet) vs. holdout</text><line x1="60" y1="310" x2="750" y2="310" stroke="#dcdcd0" stroke-width="0.5" /><text x="54" y="313" text-anchor="end" fill="#1a1a1a">0.00</text><line x1="60" y1="258" x2="750" y2="258" stroke="#dcdcd0" stroke-width="0.5" /><text x="54" y="261" text-anchor="end" fill="#1a1a1a">40.00</text><line x1="60" y1="206" x2="750" y2="206" stroke="#dcdcd0" stroke-width="0.5" /><text x="54" y="209" text-anchor="end" fill="#1a1a1a">80.00</text><line x1="60" y1="154" x2="750" y2="154" stroke="#dcdcd0" stroke-width="0.5" /><text x="54" y="157" text-anchor="end" fill="#1a1a1a">120.00</text><line x1="60" y1="102" x2="750" y2="102" stroke="#dcdcd0" stroke-width="0.5" /><text x="54" y="105" text-anchor="end" fill="#1a1a1a">160.00</text><line x1="60" y1="50" x2="750" y2="50" stroke="#dcdcd0" stroke-width="0.5" /><text x="54" y="53" text-anchor="end" fill="#1a1a1a">200.00</text><line x1="60" y1="310" x2="60" y2="314" stroke="#1a1a1a" /><text x="60" y="328" text-anchor="middle" fill="#1a1a1a" font-size="9">04-30 20:49</text><line x1="133.92857142857144" y1="310" x2="133.92857142857144" y2="314" stroke="#1a1a1a" /><text x="133.92857142857144" y="328" text-anchor="middle" fill="#1a1a1a" font-size="9">04-30 21:27</text><line x1="207.85714285714286" y1="310" x2="207.85714285714286" y2="314" stroke="#1a1a1a" /><text x="207.85714285714286" y="328" text-anchor="middle" fill="#1a1a1a" font-size="9">04-30 21:41</text><line x1="281.7857142857143" y1="310" x2="281.7857142857143" y2="314" stroke="#1a1a1a" /><text x="281.7857142857143" y="328" text-anchor="middle" fill="#1a1a1a" font-size="9">05-01 22:32</text><line x1="355.7142857142857" y1="310" x2="355.7142857142857" y2="314" stroke="#1a1a1a" /><text x="355.7142857142857" y="328" text-anchor="middle" fill="#1a1a1a" font-size="9">05-02 00:46</text><line x1="429.64285714285717" y1="310" x2="429.64285714285717" y2="314" stroke="#1a1a1a" /><text x="429.64285714285717" y="328" text-anchor="middle" fill="#1a1a1a" font-size="9">05-02 01:06</text><line x1="503.57142857142856" y1="310" x2="503.57142857142856" y2="314" stroke="#1a1a1a" /><text x="503.57142857142856" y="328" text-anchor="middle" fill="#1a1a1a" font-size="9">05-02 08:57</text><line x1="577.5" y1="310" x2="577.5" y2="314" stroke="#1a1a1a" /><text x="577.5" y="328" text-anchor="middle" fill="#1a1a1a" font-size="9">05-02 09:49</text><line x1="651.4285714285714" y1="310" x2="651.4285714285714" y2="314" stroke="#1a1a1a" /><text x="651.4285714285714" y="328" text-anchor="middle" fill="#1a1a1a" font-size="9">05-02 09:56</text><line x1="725.3571428571429" y1="310" x2="725.3571428571429" y2="314" stroke="#1a1a1a" /><text x="725.3571428571429" y="328" text-anchor="middle" fill="#1a1a1a" font-size="9">05-02 10:09</text><text x="22" y="180" transform="rotate(-90 22 180)" text-anchor="middle" fill="#1a1a1a">WMAE (min)</text><path d="M60.0,308.5 L84.6,308.3 L109.3,308.3 L133.9,308.3 L158.6,308.4 L183.2,308.3 L207.9,308.4 L232.5,308.4 L257.1,308.4 L281.8,308.4 L306.4,308.4 L331.1,308.4 L355.7,308.4 L380.4,308.4 L405.0,308.4 L429.6,308.4 L454.3,308.4 L478.9,308.6 L503.6,308.6 L528.2,308.6 L552.9,309.1 L577.5,309.1 L602.1,309.1 L626.8,309.1 L651.4,309.1 L676.1,309.1 L700.7,309.1 L725.4,308.0 L750.0,309.1" fill="none" stroke="#1f7a4d" stroke-width="2" /><circle cx="60" cy="308.49666868518517" r="2.5" fill="#1f7a4d" /><circle cx="84.64285714285714" cy="308.27146284126985" r="2.5" fill="#1f7a4d" /><circle cx="109.28571428571428" cy="308.27146284126985" r="2.5" fill="#1f7a4d" /><circle cx="133.92857142857144" cy="308.27146284126985" r="2.5" fill="#1f7a4d" /><circle cx="158.57142857142856" cy="308.38869498412697" r="2.5" fill="#1f7a4d" /><circle cx="183.21428571428572" cy="308.27146284126985" r="2.5" fill="#1f7a4d" /><circle cx="207.85714285714286" cy="308.38869498412697" r="2.5" fill="#1f7a4d" /><circle cx="232.5" cy="308.37863546031747" r="2.5" fill="#1f7a4d" /><circle cx="257.1428571428571" cy="308.37863546031747" r="2.5" fill="#1f7a4d" /><circle cx="281.7857142857143" cy="308.37863546031747" r="2.5" fill="#1f7a4d" /><circle cx="306.42857142857144" cy="308.37863546031747" r="2.5" fill="#1f7a4d" /><circle cx="331.07142857142856" cy="308.37863546031747" r="2.5" fill="#1f7a4d" /><circle cx="355.7142857142857" cy="308.37863546031747" r="2.5" fill="#1f7a4d" /><circle cx="380.35714285714283" cy="308.37863546031747" r="2.5" fill="#1f7a4d" /><circle cx="405" cy="308.37863546031747" r="2.5" fill="#1f7a4d" /><circle cx="429.64285714285717" cy="308.37863546031747" r="2.5" fill="#1f7a4d" /><circle cx="454.2857142857143" cy="308.37863546031747" r="2.5" fill="#1f7a4d" /><circle cx="478.92857142857144" cy="308.6487183374741" r="2.5" fill="#1f7a4d" /><circle cx="503.57142857142856" cy="308.6487183374741" r="2.5" fill="#1f7a4d" /><circle cx="528.2142857142858" cy="308.6487183374741" r="2.5" fill="#1f7a4d" /><circle cx="552.8571428571429" cy="309.08511108488614" r="2.5" fill="#1f7a4d" /><circle cx="577.5" cy="309.06335403726706" r="2.5" fill="#1f7a4d" /><circle cx="602.1428571428571" cy="309.08511108488614" r="2.5" fill="#1f7a4d" /><circle cx="626.7857142857143" cy="309.08511108488614" r="2.5" fill="#1f7a4d" /><circle cx="651.4285714285714" cy="309.1141794078675" r="2.5" fill="#1f7a4d" /><circle cx="676.0714285714286" cy="309.124883569161" r="2.5" fill="#1f7a4d" /><circle cx="700.7142857142857" cy="309.124883569161" r="2.5" fill="#1f7a4d" /><circle cx="725.3571428571429" cy="307.9633059183673" r="2.5" fill="#1f7a4d" /><circle cx="750" cy="309.124883569161" r="2.5" fill="#1f7a4d" /><path d="M60.0,299.5 L84.6,301.8 L109.3,301.8 L133.9,302.0 L158.6,302.0 L183.2,302.0 L207.9,302.0 L232.5,302.0 L257.1,302.0 L281.8,302.0 L306.4,302.0 L331.1,112.7 L355.7,293.6 L380.4,293.6 L405.0,293.8 L429.6,293.8 L454.3,293.8 L478.9,293.9 L503.6,293.9 L528.2,293.9 L552.9,294.5 L577.5,294.5 L602.1,294.5 L626.8,294.5 L651.4,294.5 L676.1,294.7 L700.7,294.7 L725.4,294.7 L750.0,294.7" fill="none" stroke="#7a4d9c" stroke-width="2" stroke-dasharray="4,3" /><circle cx="60" cy="299.53822498015876" r="2.5" fill="#7a4d9c" /><circle cx="84.64285714285714" cy="301.83368500466855" r="2.5" fill="#7a4d9c" /><circle cx="109.28571428571428" cy="301.83368500466855" r="2.5" fill="#7a4d9c" /><circle cx="133.92857142857144" cy="301.97522152110133" r="2.5" fill="#7a4d9c" /><circle cx="158.57142857142856" cy="302.00822761453395" r="2.5" fill="#7a4d9c" /><circle cx="183.21428571428572" cy="301.97522152110133" r="2.5" fill="#7a4d9c" /><circle cx="207.85714285714286" cy="302.00822761453395" r="2.5" fill="#7a4d9c" /><circle cx="232.5" cy="302.00822761453395" r="2.5" fill="#7a4d9c" /><circle cx="257.1428571428571" cy="302.00822761453395" r="2.5" fill="#7a4d9c" /><circle cx="281.7857142857143" cy="302.00822761453395" r="2.5" fill="#7a4d9c" /><circle cx="306.42857142857144" cy="302.00822761453395" r="2.5" fill="#7a4d9c" /><circle cx="331.07142857142856" cy="112.65169373740824" r="2.5" fill="#7a4d9c" /><circle cx="355.7142857142857" cy="293.60282361378205" r="2.5" fill="#7a4d9c" /><circle cx="380.35714285714283" cy="293.60282361378205" r="2.5" fill="#7a4d9c" /><circle cx="405" cy="293.81385773466116" r="2.5" fill="#7a4d9c" /><circle cx="429.64285714285717" cy="293.81385773466116" r="2.5" fill="#7a4d9c" /><circle cx="454.2857142857143" cy="293.81385773466116" r="2.5" fill="#7a4d9c" /><circle cx="478.92857142857144" cy="293.93204537978113" r="2.5" fill="#7a4d9c" /><circle cx="503.57142857142856" cy="293.93204537978113" r="2.5" fill="#7a4d9c" /><circle cx="528.2142857142858" cy="293.93204537978113" r="2.5" fill="#7a4d9c" /><circle cx="552.8571428571429" cy="294.49288567154395" r="2.5" fill="#7a4d9c" /><circle cx="577.5" cy="294.49288567154395" r="2.5" fill="#7a4d9c" /><circle cx="602.1428571428571" cy="294.49288567154395" r="2.5" fill="#7a4d9c" /><circle cx="626.7857142857143" cy="294.49288567154395" r="2.5" fill="#7a4d9c" /><circle cx="651.4285714285714" cy="294.4881814550556" r="2.5" fill="#7a4d9c" /><circle cx="676.0714285714286" cy="294.70070518839157" r="2.5" fill="#7a4d9c" /><circle cx="700.7142857142857" cy="294.70070518839157" r="2.5" fill="#7a4d9c" /><circle cx="725.3571428571429" cy="294.70070518839157" r="2.5" fill="#7a4d9c" /><circle cx="750" cy="294.70070518839157" r="2.5" fill="#7a4d9c" /><line x1="760" y1="60" x2="784" y2="60" stroke="#1f7a4d" stroke-width="2" /><text x="790" y="63" fill="#1a1a1a">train (ratchet)</text><line x1="760" y1="78" x2="784" y2="78" stroke="#7a4d9c" stroke-width="2" stroke-dasharray="4,3" /><text x="790" y="81" fill="#1a1a1a">holdout</text></svg>