<svg xmlns="http://www.w3.org/2000/svg" viewBox="0 0 980 540" width="980" height="540" font-family="-apple-system, BlinkMacSystemFont, 'Segoe UI', system-ui, sans-serif" font-size="11"><rect width="980" height="540" fill="#fafaf7" /><text x="490" y="32" text-anchor="middle" fill="#1a1a1a" font-size="19" font-weight="700">WMAE Journey — fajr v1.0 → v1.5.0</text><text x="490" y="54" text-anchor="middle" fill="#5a5a5a" font-size="12">Train WMAE (ratchet) and Holdout WMAE across 94 eval runs · annotations call out the release that drove each delta</text><text x="490" y="72" text-anchor="middle" fill="#8a8a8a" font-size="11">Lower is better · y-axis clipped at 14 min for readability (early v1.4.0 holdout pre-tz-fix peaked at 151 min)</text><rect x="70" y="90" width="870" height="250" fill="#f1efe8" /><line x1="70" y1="340" x2="940" y2="340" stroke="#dcdcd0" stroke-width="1" stroke-dasharray="2,3" /><text x="62" y="344" text-anchor="end" fill="#8a8a8a" font-size="9">0</text><line x1="70" y1="249.90688320494033" x2="940" y2="249.90688320494033" stroke="#dcdcd0" stroke-width="1" stroke-dasharray="2,3" /><text x="62" y="253.90688320494033" text-anchor="end" fill="#8a8a8a" font-size="9">5</text><line x1="70" y1="159.81376640988066" x2="940" y2="159.81376640988066" stroke="#dcdcd0" stroke-width="1" stroke-dasharray="2,3" /><text x="62" y="163.81376640988066" text-anchor="end" fill="#8a8a8a" font-size="9">10</text><text x="20" y="215" text-anchor="middle" fill="#5a5a5a" font-size="10" transform="rotate(-90 20 215)">WMAE (minutes)</text><line x1="70" y1="340" x2="940" y2="340" stroke="#a8a89a" stroke-width="1.5" /><line x1="70" y1="90" x2="70" y2="340" stroke="#a8a89a" stroke-width="1.5" /><path d="M70.0,195.0 L79.4,226.8 L88.7,226.8 L98.1,228.8 L107.4,229.2 L116.8,228.8 L126.1,229.2 L135.5,229.2 L144.8,229.2 L154.2,229.2 L163.5,229.2 L172.9,90.0 L182.3,112.7 L191.6,112.7 L201.0,115.7 L210.3,115.7 L219.7,115.7 L229.0,117.3 L238.4,117.3 L247.7,117.3 L257.1,125.1 L266.5,125.1 L275.8,125.1 L285.2,125.1 L294.5,125.0 L303.9,127.9 L313.2,127.9 L322.6,127.9 L331.9,127.9 L341.3,131.1 L350.6,131.3 L360.0,131.1 L369.4,131.1 L378.7,131.1 L388.1,131.1 L397.4,146.9 L406.8,146.9 L416.1,150.3 L425.5,150.3 L434.8,131.1 L444.2,201.7 L453.5,201.7 L462.9,201.7 L472.3,202.2 L481.6,202.2 L491.0,219.2 L500.3,216.6 L509.7,215.1 L519.0,215.6 L528.4,150.3 L537.7,150.3 L575.2,218.8 L584.5,148.7 L593.9,257.3 L603.2,273.3 L612.6,257.3 L621.9,257.3 L631.3,257.3 L640.6,273.3 L650.0,274.0 L659.4,274.0 L668.7,274.0 L678.1,274.0 L687.4,274.0 L696.8,274.7 L706.1,274.8 L715.5,177.0 L724.8,193.8 L734.2,184.7 L743.5,184.7 L752.9,184.7 L762.3,190.0 L771.6,190.0 L781.0,190.0 L790.3,190.0 L799.7,187.2 L809.0,187.2 L818.4,187.2 L827.7,187.2 L837.1,187.2 L846.5,187.2 L855.8,190.0 L865.2,190.0 L874.5,190.0 L883.9,190.0 L893.2,207.4 L902.6,207.4 L911.9,219.6 L921.3,211.1 L930.6,208.0 L940.0,204.9 " fill="none" stroke="#7a4d9c" stroke-width="2" opacity="0.7" /><circle cx="70" cy="194.9947817313543" r="3.5" fill="#fafaf7" stroke="#7a4d9c" stroke-width="1.8" /><circle cx="79.35483870967742" cy="226.8109583600546" r="3.5" fill="#fafaf7" stroke="#7a4d9c" stroke-width="1.8" /><circle cx="88.70967741935485" cy="226.8109583600546" r="3.5" fill="#fafaf7" stroke="#7a4d9c" stroke-width="1.8" /><circle cx="98.06451612903226" cy="228.772722345554" r="3.5" fill="#fafaf7" stroke="#7a4d9c" stroke-width="1.8" /><circle cx="107.41935483870968" cy="229.2302026271809" r="3.5" fill="#fafaf7" stroke="#7a4d9c" stroke-width="1.8" /><circle cx="116.7741935483871" cy="228.772722345554" r="3.5" fill="#fafaf7" stroke="#7a4d9c" stroke-width="1.8" /><circle cx="126.12903225806451" cy="229.2302026271809" r="3.5" fill="#fafaf7" stroke="#7a4d9c" stroke-width="1.8" /><circle cx="135.48387096774195" cy="229.2302026271809" r="3.5" fill="#fafaf7" stroke="#7a4d9c" stroke-width="1.8" /><circle cx="144.83870967741936" cy="229.2302026271809" r="3.5" fill="#fafaf7" stroke="#7a4d9c" stroke-width="1.8" /><circle cx="154.19354838709677" cy="229.2302026271809" r="3.5" fill="#fafaf7" stroke="#7a4d9c" stroke-width="1.8" /><circle cx="163.5483870967742" cy="229.2302026271809" r="3.5" fill="#fafaf7" stroke="#7a4d9c" stroke-width="1.8" /><circle cx="172.90322580645162" cy="90" r="3.5" fill="#fafaf7" stroke="#7a4d9c" stroke-width="1.8" /><text x="172.90322580645162" y="82" text-anchor="middle" fill="#7a4d9c" font-size="9" font-weight="bold">↑</text><circle cx="182.25806451612902" cy="112.72727272727276" r="3.5" fill="#fafaf7" stroke="#7a4d9c" stroke-width="1.8" /><circle cx="191.61290322580643" cy="112.72727272727276" r="3.5" fill="#fafaf7" stroke="#7a4d9c" stroke-width="1.8" /><circle cx="200.96774193548387" cy="115.65230683498123" r="3.5" fill="#fafaf7" stroke="#7a4d9c" stroke-width="1.8" /><circle cx="210.32258064516128" cy="115.65230683498123" r="3.5" fill="#fafaf7" stroke="#7a4d9c" stroke-width="1.8" /><circle cx="219.67741935483872" cy="115.65230683498123" r="3.5" fill="#fafaf7" stroke="#7a4d9c" stroke-width="1.8" /><circle cx="229.03225806451613" cy="117.29044426813904" r="3.5" fill="#fafaf7" stroke="#7a4d9c" stroke-width="1.8" /><circle cx="238.38709677419354" cy="117.29044426813904" r="3.5" fill="#fafaf7" stroke="#7a4d9c" stroke-width="1.8" /><circle cx="247.74193548387098" cy="117.29044426813904" r="3.5" fill="#fafaf7" stroke="#7a4d9c" stroke-width="1.8" /><circle cx="257.0967741935484" cy="125.06395963877932" r="3.5" fill="#fafaf7" stroke="#7a4d9c" stroke-width="1.8" /><circle cx="266.4516129032258" cy="125.06395963877932" r="3.5" fill="#fafaf7" stroke="#7a4d9c" stroke-width="1.8" /><circle cx="275.80645161290323" cy="125.06395963877932" r="3.5" fill="#fafaf7" stroke="#7a4d9c" stroke-width="1.8" /><circle cx="285.1612903225806" cy="125.06395963877932" r="3.5" fill="#fafaf7" stroke="#7a4d9c" stroke-width="1.8" /><circle cx="294.51612903225805" cy="124.99875694254627" r="3.5" fill="#fafaf7" stroke="#7a4d9c" stroke-width="1.8" /><circle cx="303.8709677419355" cy="127.94443779318627" r="3.5" fill="#fafaf7" stroke="#7a4d9c" stroke-width="1.8" /><circle cx="313.22580645161287" cy="127.94443779318627" r="3.5" fill="#fafaf7" stroke="#7a4d9c" stroke-width="1.8" /><circle cx="322.58064516129036" cy="127.94443779318627" r="3.5" fill="#fafaf7" stroke="#7a4d9c" stroke-width="1.8" /><circle cx="331.93548387096774" cy="127.94443779318627" r="3.5" fill="#fafaf7" stroke="#7a4d9c" stroke-width="1.8" /><circle cx="341.2903225806452" cy="131.05309141622166" r="3.5" fill="#fafaf7" stroke="#7a4d9c" stroke-width="1.8" /><circle cx="350.64516129032256" cy="131.29989682951978" r="3.5" fill="#fafaf7" stroke="#7a4d9c" stroke-width="1.8" /><circle cx="360" cy="131.05309141622166" r="3.5" fill="#fafaf7" stroke="#7a4d9c" stroke-width="1.8" /><circle cx="369.35483870967744" cy="131.05309141622166" r="3.5" fill="#fafaf7" stroke="#7a4d9c" stroke-width="1.8" /><circle cx="378.7096774193549" cy="131.05309141622166" r="3.5" fill="#fafaf7" stroke="#7a4d9c" stroke-width="1.8" /><circle cx="388.06451612903226" cy="131.05309141622166" r="3.5" fill="#fafaf7" stroke="#7a4d9c" stroke-width="1.8" /><circle cx="397.4193548387097" cy="146.8596069967834" r="3.5" fill="#fafaf7" stroke="#7a4d9c" stroke-width="1.8" /><circle cx="406.7741935483871" cy="146.8596069967834" r="3.5" fill="#fafaf7" stroke="#7a4d9c" stroke-width="1.8" /><circle cx="416.1290322580645" cy="150.25912304143466" r="3.5" fill="#fafaf7" stroke="#7a4d9c" stroke-width="1.8" /><circle cx="425.48387096774195" cy="150.25912304143466" r="3.5" fill="#fafaf7" stroke="#7a4d9c" stroke-width="1.8" /><circle cx="434.8387096774194" cy="131.05309141622166" r="3.5" fill="#fafaf7" stroke="#7a4d9c" stroke-width="1.8" /><circle cx="444.19354838709677" cy="201.6790029474244" r="3.5" fill="#fafaf7" stroke="#7a4d9c" stroke-width="1.8" /><circle cx="453.5483870967742" cy="201.6790029474244" r="3.5" fill="#fafaf7" stroke="#7a4d9c" stroke-width="1.8" /><circle cx="462.9032258064516" cy="201.68057123888534" r="3.5" fill="#fafaf7" stroke="#7a4d9c" stroke-width="1.8" /><circle cx="472.258064516129" cy="202.20429051520594" r="3.5" fill="#fafaf7" stroke="#7a4d9c" stroke-width="1.8" /><circle cx="481.61290322580646" cy="202.20429051520594" r="3.5" fill="#fafaf7" stroke="#7a4d9c" stroke-width="1.8" /><circle cx="490.9677419354839" cy="219.1856825607131" r="3.5" fill="#fafaf7" stroke="#7a4d9c" stroke-width="1.8" /><circle cx="500.3225806451613" cy="216.6377814257291" r="3.5" fill="#fafaf7" stroke="#7a4d9c" stroke-width="1.8" /><circle cx="509.6774193548387" cy="215.14847502397384" r="3.5" fill="#fafaf7" stroke="#7a4d9c" stroke-width="1.8" /><circle cx="519.0322580645161" cy="215.5838243131849" r="3.5" fill="#fafaf7" stroke="#7a4d9c" stroke-width="1.8" /><circle cx="528.3870967741935" cy="150.25912304143466" r="3.5" fill="#fafaf7" stroke="#7a4d9c" stroke-width="1.8" /><circle cx="537.741935483871" cy="150.25912304143466" r="3.5" fill="#fafaf7" stroke="#7a4d9c" stroke-width="1.8" /><circle cx="575.1612903225807" cy="218.76864939650912" r="3.5" fill="#fafaf7" stroke="#7a4d9c" stroke-width="1.8" /><circle cx="584.516129032258" cy="148.69145161992972" r="3.5" fill="#fafaf7" stroke="#7a4d9c" stroke-width="1.8" /><circle cx="593.8709677419355" cy="257.3022064977582" r="3.5" fill="#fafaf7" stroke="#7a4d9c" stroke-width="1.8" /><circle cx="603.2258064516129" cy="273.31079454725807" r="3.5" fill="#fafaf7" stroke="#7a4d9c" stroke-width="1.8" /><circle cx="612.5806451612904" cy="257.3022064977582" r="3.5" fill="#fafaf7" stroke="#7a4d9c" stroke-width="1.8" /><circle cx="621.9354838709677" cy="257.3022064977582" r="3.5" fill="#fafaf7" stroke="#7a4d9c" stroke-width="1.8" /><circle cx="631.2903225806451" cy="257.3022064977582" r="3.5" fill="#fafaf7" stroke="#7a4d9c" stroke-width="1.8" /><circle cx="640.6451612903226" cy="273.31079454725807" r="3.5" fill="#fafaf7" stroke="#7a4d9c" stroke-width="1.8" /><circle cx="650" cy="274.0031208474618" r="3.5" fill="#fafaf7" stroke="#7a4d9c" stroke-width="1.8" /><circle cx="659.3548387096773" cy="274.0083035770952" r="3.5" fill="#fafaf7" stroke="#7a4d9c" stroke-width="1.8" /><circle cx="668.7096774193549" cy="274.0083035770952" r="3.5" fill="#fafaf7" stroke="#7a4d9c" stroke-width="1.8" /><circle cx="678.0645161290323" cy="274.0083035770952" r="3.5" fill="#fafaf7" stroke="#7a4d9c" stroke-width="1.8" /><circle cx="687.4193548387098" cy="274.0083035770952" r="3.5" fill="#fafaf7" stroke="#7a4d9c" stroke-width="1.8" /><circle cx="696.7741935483871" cy="274.6958790418015" r="3.5" fill="#fafaf7" stroke="#7a4d9c" stroke-width="1.8" /><circle cx="706.1290322580645" cy="274.8409954715386" r="3.5" fill="#fafaf7" stroke="#7a4d9c" stroke-width="1.8" /><circle cx="715.483870967742" cy="177.01908533888863" r="3.5" fill="#fafaf7" stroke="#7a4d9c" stroke-width="1.8" /><circle cx="724.8387096774194" cy="193.76564592228615" r="3.5" fill="#fafaf7" stroke="#7a4d9c" stroke-width="1.8" /><circle cx="734.1935483870967" cy="184.72472833894497" r="3.5" fill="#fafaf7" stroke="#7a4d9c" stroke-width="1.8" /><circle cx="743.5483870967741" cy="184.72472833894497" r="3.5" fill="#fafaf7" stroke="#7a4d9c" stroke-width="1.8" /><circle cx="752.9032258064516" cy="184.72472833894497" r="3.5" fill="#fafaf7" stroke="#7a4d9c" stroke-width="1.8" /><circle cx="762.258064516129" cy="189.99865100467304" r="3.5" fill="#fafaf7" stroke="#7a4d9c" stroke-width="1.8" /><circle cx="771.6129032258065" cy="189.99865100467304" r="3.5" fill="#fafaf7" stroke="#7a4d9c" stroke-width="1.8" /><circle cx="780.9677419354839" cy="189.99865100467304" r="3.5" fill="#fafaf7" stroke="#7a4d9c" stroke-width="1.8" /><circle cx="790.3225806451613" cy="189.99865100467304" r="3.5" fill="#fafaf7" stroke="#7a4d9c" stroke-width="1.8" /><circle cx="799.6774193548388" cy="187.18629014317713" r="3.5" fill="#fafaf7" stroke="#7a4d9c" stroke-width="1.8" /><circle cx="809.0322580645161" cy="187.18629014317713" r="3.5" fill="#fafaf7" stroke="#7a4d9c" stroke-width="1.8" /><circle cx="818.3870967741935" cy="187.18629014317713" r="3.5" fill="#fafaf7" stroke="#7a4d9c" stroke-width="1.8" /><circle cx="827.741935483871" cy="187.18629014317713" r="3.5" fill="#fafaf7" stroke="#7a4d9c" stroke-width="1.8" /><circle cx="837.0967741935484" cy="187.18629014317713" r="3.5" fill="#fafaf7" stroke="#7a4d9c" stroke-width="1.8" /><circle cx="846.4516129032257" cy="187.18629014317713" r="3.5" fill="#fafaf7" stroke="#7a4d9c" stroke-width="1.8" /><circle cx="855.8064516129032" cy="189.99865100467304" r="3.5" fill="#fafaf7" stroke="#7a4d9c" stroke-width="1.8" /><circle cx="865.1612903225806" cy="189.99865100467304" r="3.5" fill="#fafaf7" stroke="#7a4d9c" stroke-width="1.8" /><circle cx="874.516129032258" cy="189.99865100467304" r="3.5" fill="#fafaf7" stroke="#7a4d9c" stroke-width="1.8" /><circle cx="883.8709677419355" cy="189.99865100467304" r="3.5" fill="#fafaf7" stroke="#7a4d9c" stroke-width="1.8" /><circle cx="893.2258064516129" cy="207.38400417102963" r="3.5" fill="#fafaf7" stroke="#7a4d9c" stroke-width="1.8" /><circle cx="902.5806451612904" cy="207.44621143421122" r="3.5" fill="#fafaf7" stroke="#7a4d9c" stroke-width="1.8" /><circle cx="911.9354838709678" cy="219.6203989832575" r="3.5" fill="#fafaf7" stroke="#7a4d9c" stroke-width="1.8" /><circle cx="921.2903225806451" cy="211.10538677285814" r="3.5" fill="#fafaf7" stroke="#7a4d9c" stroke-width="1.8" /><circle cx="930.6451612903226" cy="207.96317592360253" r="3.5" fill="#fafaf7" stroke="#7a4d9c" stroke-width="1.8" /><circle cx="940" cy="204.8673440450319" r="3.5" fill="#fafaf7" stroke="#7a4d9c" stroke-width="1.8" /><path d="M70.0,319.2 L79.4,316.0 L88.7,316.0 L98.1,316.0 L107.4,317.7 L116.8,316.0 L126.1,317.7 L135.5,317.5 L144.8,317.5 L154.2,317.5 L163.5,317.5 L172.9,317.5 L182.3,317.5 L191.6,317.5 L201.0,317.5 L210.3,317.5 L219.7,317.5 L229.0,321.3 L238.4,321.3 L247.7,321.3 L257.1,327.3 L266.5,327.0 L275.8,327.3 L285.2,327.3 L294.5,327.7 L303.9,327.9 L313.2,327.9 L322.6,311.8 L331.9,327.9 L341.3,325.6 L350.6,324.4 L360.0,325.6 L369.4,325.5 L378.7,325.5 L388.1,325.5 L397.4,325.5 L406.8,325.5 L416.1,325.5 L425.5,325.5 L434.8,325.5 L444.2,325.5 L453.5,325.5 L462.9,324.2 L472.3,325.5 L481.6,325.5 L491.0,325.5 L500.3,325.5 L509.7,320.1 L519.0,320.6 L528.4,325.5 L537.7,325.5 L547.1,325.5 L556.5,325.5 L565.8,325.5 L575.2,325.5 L584.5,325.5 L593.9,320.8 L603.2,320.8 L612.6,320.8 L621.9,320.8 L631.3,320.8 L640.6,320.8 L650.0,320.8 L659.4,320.8 L668.7,320.8 L678.1,320.8 L687.4,320.8 L696.8,322.1 L706.1,322.4 L715.5,319.9 L724.8,322.4 L734.2,322.4 L743.5,322.4 L752.9,322.4 L762.3,322.4 L771.6,322.4 L781.0,322.4 L790.3,322.4 L799.7,322.4 L809.0,322.4 L818.4,322.4 L827.7,322.4 L837.1,322.4 L846.5,322.4 L855.8,322.4 L865.2,322.4 L874.5,322.4 L883.9,322.4 L893.2,322.4 L902.6,322.4 L911.9,322.4 L921.3,322.4 L930.6,322.4 L940.0,322.4 " fill="none" stroke="#1f7a4d" stroke-width="2.5" /><circle cx="70" cy="319.16310711887974" r="3.5" fill="#1f7a4d" /><circle cx="79.35483870967742" cy="316.0416461344497" r="3.5" fill="#1f7a4d" /><circle cx="88.70967741935485" cy="316.0416461344497" r="3.5" fill="#1f7a4d" /><circle cx="98.06451612903226" cy="316.0416461344497" r="3.5" fill="#1f7a4d" /><circle cx="107.41935483870968" cy="317.6665398480749" r="3.5" fill="#1f7a4d" /><circle cx="116.7741935483871" cy="316.0416461344497" r="3.5" fill="#1f7a4d" /><circle cx="126.12903225806451" cy="317.6665398480749" r="3.5" fill="#1f7a4d" /><circle cx="135.48387096774195" cy="317.5271100244635" r="3.5" fill="#1f7a4d" /><circle cx="144.83870967741936" cy="317.5271100244635" r="3.5" fill="#1f7a4d" /><circle cx="154.19354838709677" cy="317.5271100244635" r="3.5" fill="#1f7a4d" /><circle cx="163.5483870967742" cy="317.5271100244635" r="3.5" fill="#1f7a4d" /><circle cx="172.90322580645162" cy="317.5271100244635" r="3.5" fill="#1f7a4d" /><circle cx="182.25806451612902" cy="317.5271100244635" r="3.5" fill="#1f7a4d" /><circle cx="191.61290322580643" cy="317.5271100244635" r="3.5" fill="#1f7a4d" /><circle cx="200.96774193548387" cy="317.5271100244635" r="3.5" fill="#1f7a4d" /><circle cx="210.32258064516128" cy="317.5271100244635" r="3.5" fill="#1f7a4d" /><circle cx="219.67741935483872" cy="317.5271100244635" r="3.5" fill="#1f7a4d" /><circle cx="229.03225806451613" cy="321.2705882084667" r="3.5" fill="#1f7a4d" /><circle cx="238.38709677419354" cy="321.2705882084667" r="3.5" fill="#1f7a4d" /><circle cx="247.74193548387098" cy="321.2705882084667" r="3.5" fill="#1f7a4d" /><circle cx="257.0967741935484" cy="327.3192009409447" r="3.5" fill="#1f7a4d" /><circle cx="266.4516129032258" cy="327.01763782828954" r="3.5" fill="#1f7a4d" /><circle cx="275.80645161290323" cy="327.3192009409447" r="3.5" fill="#1f7a4d" /><circle cx="285.1612903225806" cy="327.3192009409447" r="3.5" fill="#1f7a4d" /><circle cx="294.51612903225805" cy="327.7221018359288" r="3.5" fill="#1f7a4d" /><circle cx="303.8709677419355" cy="327.8704666441763" r="3.5" fill="#1f7a4d" /><circle cx="313.22580645161287" cy="327.8704666441763" r="3.5" fill="#1f7a4d" /><circle cx="322.58064516129036" cy="311.7704434196404" r="3.5" fill="#1f7a4d" /><circle cx="331.93548387096774" cy="327.8704666441763" r="3.5" fill="#1f7a4d" /><circle cx="341.2903225806452" cy="325.6243201174626" r="3.5" fill="#1f7a4d" /><circle cx="350.64516129032256" cy="324.3795728297509" r="3.5" fill="#1f7a4d" /><circle cx="360" cy="325.6243201174626" r="3.5" fill="#1f7a4d" /><circle cx="369.35483870967744" cy="325.54852849591634" r="3.5" fill="#1f7a4d" /><circle cx="378.7096774193549" cy="325.54852849591634" r="3.5" fill="#1f7a4d" /><circle cx="388.06451612903226" cy="325.54852849591634" r="3.5" fill="#1f7a4d" /><circle cx="397.4193548387097" cy="325.54852849591634" r="3.5" fill="#1f7a4d" /><circle cx="406.7741935483871" cy="325.54852849591634" r="3.5" fill="#1f7a4d" /><circle cx="416.1290322580645" cy="325.54852849591634" r="3.5" fill="#1f7a4d" /><circle cx="425.48387096774195" cy="325.54852849591634" r="3.5" fill="#1f7a4d" /><circle cx="434.8387096774194" cy="325.54852849591634" r="3.5" fill="#1f7a4d" /><circle cx="444.19354838709677" cy="325.54852849591634" r="3.5" fill="#1f7a4d" /><circle cx="453.5483870967742" cy="325.54852849591634" r="3.5" fill="#1f7a4d" /><circle cx="462.9032258064516" cy="324.17099237553055" r="3.5" fill="#1f7a4d" /><circle cx="472.258064516129" cy="325.54852849591634" r="3.5" fill="#1f7a4d" /><circle cx="481.61290322580646" cy="325.54852849591634" r="3.5" fill="#1f7a4d" /><circle cx="490.9677419354839" cy="325.54852849591634" r="3.5" fill="#1f7a4d" /><circle cx="500.3225806451613" cy="325.54852849591634" r="3.5" fill="#1f7a4d" /><circle cx="509.6774193548387" cy="320.1144824394784" r="3.5" fill="#1f7a4d" /><circle cx="519.0322580645161" cy="320.5634514600518" r="3.5" fill="#1f7a4d" /><circle cx="528.3870967741935" cy="325.54852849591634" r="3.5" fill="#1f7a4d" /><circle cx="537.741935483871" cy="325.54852849591634" r="3.5" fill="#1f7a4d" /><circle cx="547.0967741935483" cy="325.54852849591634" r="3.5" fill="#1f7a4d" /><circle cx="556.4516129032257" cy="325.54852849591634" r="3.5" fill="#1f7a4d" /><circle cx="565.8064516129033" cy="325.54852849591634" r="3.5" fill="#1f7a4d" /><circle cx="575.1612903225807" cy="325.54852849591634" r="3.5" fill="#1f7a4d" /><circle cx="584.516129032258" cy="325.54852849591634" r="3.5" fill="#1f7a4d" /><circle cx="593.8709677419355" cy="320.7781396658514" r="3.5" fill="#1f7a4d" /><circle cx="603.2258064516129" cy="320.7781396658514" r="3.5" fill="#1f7a4d" /><circle cx="612.5806451612904" cy="320.7781396658514" r="3.5" fill="#1f7a4d" /><circle cx="621.9354838709677" cy="320.7781396658514" r="3.5" fill="#1f7a4d" /><circle cx="631.2903225806451" cy="320.7781396658514" r="3.5" fill="#1f7a4d" /><circle cx="640.6451612903226" cy="320.7781396658514" r="3.5" fill="#1f7a4d" /><circle cx="650" cy="320.7781396658514" r="3.5" fill="#1f7a4d" /><circle cx="659.3548387096773" cy="320.7781396658514" r="3.5" fill="#1f7a4d" /><circle cx="668.7096774193549" cy="320.7781396658514" r="3.5" fill="#1f7a4d" /><circle cx="678.0645161290323" cy="320.7781396658514" r="3.5" fill="#1f7a4d" /><circle cx="687.4193548387098" cy="320.7781396658514" r="3.5" fill="#1f7a4d" /><circle cx="696.7741935483871" cy="322.1070879667486" r="3.5" fill="#1f7a4d" /><circle cx="706.1290322580645" cy="322.41837315434617" r="3.5" fill="#1f7a4d" /><circle cx="715.483870967742" cy="319.9280916535658" r="3.5" fill="#1f7a4d" /><circle cx="724.8387096774194" cy="322.41837315434617" r="3.5" fill="#1f7a4d" /><circle cx="734.1935483870967" cy="322.41837315434617" r="3.5" fill="#1f7a4d" /><circle cx="743.5483870967741" cy="322.41837315434617" r="3.5" fill="#1f7a4d" /><circle cx="752.9032258064516" cy="322.41837315434617" r="3.5" fill="#1f7a4d" /><circle cx="762.258064516129" cy="322.41837315434617" r="3.5" fill="#1f7a4d" /><circle cx="771.6129032258065" cy="322.41837315434617" r="3.5" fill="#1f7a4d" /><circle cx="780.9677419354839" cy="322.41837315434617" r="3.5" fill="#1f7a4d" /><circle cx="790.3225806451613" cy="322.41837315434617" r="3.5" fill="#1f7a4d" /><circle cx="799.6774193548388" cy="322.41837315434617" r="3.5" fill="#1f7a4d" /><circle cx="809.0322580645161" cy="322.41837315434617" r="3.5" fill="#1f7a4d" /><circle cx="818.3870967741935" cy="322.41837315434617" r="3.5" fill="#1f7a4d" /><circle cx="827.741935483871" cy="322.41837315434617" r="3.5" fill="#1f7a4d" /><circle cx="837.0967741935484" cy="322.41837315434617" r="3.5" fill="#1f7a4d" /><circle cx="846.4516129032257" cy="322.41837315434617" r="3.5" fill="#1f7a4d" /><circle cx="855.8064516129032" cy="322.41837315434617" r="3.5" fill="#1f7a4d" /><circle cx="865.1612903225806" cy="322.41837315434617" r="3.5" fill="#1f7a4d" /><circle cx="874.516129032258" cy="322.41837315434617" r="3.5" fill="#1f7a4d" /><circle cx="883.8709677419355" cy="322.41837315434617" r="3.5" fill="#1f7a4d" /><circle cx="893.2258064516129" cy="322.41837315434617" r="3.5" fill="#1f7a4d" /><circle cx="902.5806451612904" cy="322.41837315434617" r="3.5" fill="#1f7a4d" /><circle cx="911.9354838709678" cy="322.41837315434617" r="3.5" fill="#1f7a4d" /><circle cx="921.2903225806451" cy="322.41837315434617" r="3.5" fill="#1f7a4d" /><circle cx="930.6451612903226" cy="322.41837315434617" r="3.5" fill="#1f7a4d" /><circle cx="940" cy="322.41837315434617" r="3.5" fill="#1f7a4d" /><line x1="70" y1="90" x2="70" y2="340" stroke="#c83030" stroke-width="1" stroke-dasharray="3,3" opacity="0.5" /><rect x="48" y="75" width="44" height="14" rx="3" fill="#c83030" opacity="0.9" /><text x="70" y="86" text-anchor="middle" fill="white" font-size="9" font-weight="600">v1.0</text><text x="76" y="311.16310711887974" fill="#1f7a4d" font-size="9" font-weight="600">1.16</text><text x="76" y="186.9947817313543" fill="#7a4d9c" font-size="9" font-weight="600">8.0</text><line x1="135.48387096774195" y1="90" x2="135.48387096774195" y2="340" stroke="#c83030" stroke-width="1" stroke-dasharray="3,3" opacity="0.5" /><rect x="113.48387096774195" y="61" width="44" height="14" rx="3" fill="#c83030" opacity="0.9" /><text x="135.48387096774195" y="72" text-anchor="middle" fill="white" font-size="9" font-weight="600">v1.1.1</text><text x="141.48387096774195" y="309.5271100244635" fill="#1f7a4d" font-size="9" font-weight="600">1.25</text><text x="141.48387096774195" y="221.2302026271809" fill="#7a4d9c" font-size="9" font-weight="600">6.1</text><line x1="154.19354838709677" y1="90" x2="154.19354838709677" y2="340" stroke="#c83030" stroke-width="1" stroke-dasharray="3,3" opacity="0.5" /><rect x="132.19354838709677" y="75" width="44" height="14" rx="3" fill="#c83030" opacity="0.9" /><text x="154.19354838709677" y="86" text-anchor="middle" fill="white" font-size="9" font-weight="600">v1.2</text><text x="160.19354838709677" y="309.5271100244635" fill="#1f7a4d" font-size="9" font-weight="600">1.25</text><text x="160.19354838709677" y="221.2302026271809" fill="#7a4d9c" font-size="9" font-weight="600">6.1</text><line x1="163.5483870967742" y1="90" x2="163.5483870967742" y2="340" stroke="#c83030" stroke-width="1" stroke-dasharray="3,3" opacity="0.5" /><rect x="141.5483870967742" y="61" width="44" height="14" rx="3" fill="#c83030" opacity="0.9" /><text x="163.5483870967742" y="72" text-anchor="middle" fill="white" font-size="9" font-weight="600">v1.3</text><text x="169.5483870967742" y="309.5271100244635" fill="#1f7a4d" font-size="9" font-weight="600">1.25</text><text x="169.5483870967742" y="221.2302026271809" fill="#7a4d9c" font-size="9" font-weight="600">6.1</text><line x1="200.96774193548387" y1="90" x2="200.96774193548387" y2="340" stroke="#c83030" stroke-width="1" stroke-dasharray="3,3" opacity="0.5" /><rect x="178.96774193548387" y="75" width="44" height="14" rx="3" fill="#c83030" opacity="0.9" /><text x="200.96774193548387" y="86" text-anchor="middle" fill="white" font-size="9" font-weight="600">v1.4</text><text x="206.96774193548387" y="309.5271100244635" fill="#1f7a4d" font-size="9" font-weight="600">1.25</text><text x="206.96774193548387" y="107.65230683498123" fill="#7a4d9c" font-size="9" font-weight="600">12.5</text><line x1="229.03225806451613" y1="90" x2="229.03225806451613" y2="340" stroke="#c83030" stroke-width="1" stroke-dasharray="3,3" opacity="0.5" /><rect x="207.03225806451613" y="61" width="44" height="14" rx="3" fill="#c83030" opacity="0.9" /><text x="229.03225806451613" y="72" text-anchor="middle" fill="white" font-size="9" font-weight="600">v1.4.1</text><text x="235.03225806451613" y="313.2705882084667" fill="#1f7a4d" font-size="9" font-weight="600">1.04</text><text x="235.03225806451613" y="109.29044426813904" fill="#7a4d9c" font-size="9" font-weight="600">12.4</text><line x1="257.0967741935484" y1="90" x2="257.0967741935484" y2="340" stroke="#c83030" stroke-width="1" stroke-dasharray="3,3" opacity="0.5" /><rect x="235.0967741935484" y="75" width="44" height="14" rx="3" fill="#c83030" opacity="0.9" /><text x="257.0967741935484" y="86" text-anchor="middle" fill="white" font-size="9" font-weight="600">v1.4.3</text><text x="263.0967741935484" y="319.3192009409447" fill="#1f7a4d" font-size="9" font-weight="600">0.70</text><text x="263.0967741935484" y="117.06395963877932" fill="#7a4d9c" font-size="9" font-weight="600">11.9</text><line x1="294.51612903225805" y1="90" x2="294.51612903225805" y2="340" stroke="#c83030" stroke-width="1" stroke-dasharray="3,3" opacity="0.5" /><rect x="272.51612903225805" y="61" width="44" height="14" rx="3" fill="#c83030" opacity="0.9" /><text x="294.51612903225805" y="72" text-anchor="middle" fill="white" font-size="9" font-weight="600">v1.4.4</text><text x="300.51612903225805" y="319.7221018359288" fill="#1f7a4d" font-size="9" font-weight="600">0.68</text><text x="300.51612903225805" y="116.99875694254627" fill="#7a4d9c" font-size="9" font-weight="600">11.9</text><line x1="303.8709677419355" y1="90" x2="303.8709677419355" y2="340" stroke="#c83030" stroke-width="1" stroke-dasharray="3,3" opacity="0.5" /><rect x="281.8709677419355" y="75" width="44" height="14" rx="3" fill="#c83030" opacity="0.9" /><text x="303.8709677419355" y="86" text-anchor="middle" fill="white" font-size="9" font-weight="600">v1.4.5</text><text x="309.8709677419355" y="319.8704666441763" fill="#1f7a4d" font-size="9" font-weight="600">0.67</text><text x="309.8709677419355" y="119.94443779318627" fill="#7a4d9c" font-size="9" font-weight="600">11.8</text><line x1="360" y1="90" x2="360" y2="340" stroke="#c83030" stroke-width="1" stroke-dasharray="3,3" opacity="0.5" /><rect x="338" y="61" width="44" height="14" rx="3" fill="#c83030" opacity="0.9" /><text x="360" y="72" text-anchor="middle" fill="white" font-size="9" font-weight="600">v1.5.0</text><text x="366" y="317.6243201174626" fill="#1f7a4d" font-size="9" font-weight="600">0.80</text><text x="366" y="123.05309141622166" fill="#7a4d9c" font-size="9" font-weight="600">11.6</text><text x="70" y="372" fill="#1a1a1a" font-size="12" font-weight="600">Release timeline</text><text x="70" y="390" fill="#1a1a1a" font-size="11"><tspan font-weight="700" fill="#c83030">v1.0</tspan><tspan dx="8" fill="#1f7a4d">train 1.16</tspan><tspan dx="6" fill="#7a4d9c">holdout 8.05</tspan><tspan dx="10" fill="#5a5a5a">baseline (corpus + ratchet established)</tspan></text><text x="70" y="406" fill="#1a1a1a" font-size="11"><tspan font-weight="700" fill="#c83030">v1.1.1</tspan><tspan dx="8" fill="#1f7a4d">train 1.25</tspan><tspan dx="6" fill="#7a4d9c">holdout 6.15</tspan><tspan dx="10" fill="#5a5a5a">dayTimes elevation fix + npm publish CI</tspan></text><text x="70" y="422" fill="#1a1a1a" font-size="11"><tspan font-weight="700" fill="#c83030">v1.2</tspan><tspan dx="8" fill="#1f7a4d">train 1.25</tspan><tspan dx="6" fill="#7a4d9c">holdout 6.15</tspan><tspan dx="10" fill="#5a5a5a">notes field + scholarly grounding (13 papers)</tspan></text><text x="70" y="438" fill="#1a1a1a" font-size="11"><tspan font-weight="700" fill="#c83030">v1.3</tspan><tspan dx="8" fill="#1f7a4d">train 1.25</tspan><tspan dx="6" fill="#7a4d9c">holdout 6.15</tspan><tspan dx="10" fill="#5a5a5a">applyTayakkunBuffer + tarabishyTimes (Aabed/Tarabishy)</tspan></text><text x="70" y="454" fill="#1a1a1a" font-size="11"><tspan font-weight="700" fill="#c83030">v1.4</tspan><tspan dx="8" fill="#1f7a4d">train 1.25</tspan><tspan dx="6" fill="#7a4d9c">holdout 12.45</tspan><tspan dx="10" fill="#5a5a5a">world-coverage eval (163 countries) + 9 engine bboxes</tspan></text><text x="70" y="470" fill="#1a1a1a" font-size="11"><tspan font-weight="700" fill="#c83030">v1.4.1</tspan><tspan dx="8" fill="#1f7a4d">train 1.04</tspan><tspan dx="6" fill="#7a4d9c">holdout 12.36</tspan><tspan dx="10" fill="#5a5a5a">JAKIM Path A ihtiyati offset (train −16.6%)</tspan></text><text x="70" y="486" fill="#1a1a1a" font-size="11"><tspan font-weight="700" fill="#c83030">v1.4.3</tspan><tspan dx="8" fill="#1f7a4d">train 0.70</tspan><tspan dx="6" fill="#7a4d9c">holdout 11.93</tspan><tspan dx="10" fill="#5a5a5a">eval elevation-policy fix (train −32% to 0.70)</tspan></text><text x="70" y="502" fill="#1a1a1a" font-size="11"><tspan font-weight="700" fill="#c83030">v1.4.4</tspan><tspan dx="8" fill="#1f7a4d">train 0.68</tspan><tspan dx="6" fill="#7a4d9c">holdout 11.93</tspan><tspan dx="10" fill="#5a5a5a">JAKIM Isha +1min Path A (train 0.70 → 0.68)</tspan></text><text x="70" y="518" fill="#1a1a1a" font-size="11"><tspan font-weight="700" fill="#c83030">v1.4.5</tspan><tspan dx="8" fill="#1f7a4d">train 0.67</tspan><tspan dx="6" fill="#7a4d9c">holdout 11.77</tspan><tspan dx="10" fill="#5a5a5a">Diyanet Maghrib/Isha −1min Path A + corpus curation (train 0.68 → 0.67)</tspan></text><text x="70" y="534" fill="#1a1a1a" font-size="11"><tspan font-weight="700" fill="#c83030">v1.5.0</tspan><tspan dx="8" fill="#1f7a4d">train 0.80</tspan><tspan dx="6" fill="#7a4d9c">holdout 11.60</tspan><tspan dx="10" fill="#5a5a5a">Morocco Maghrib +5min Path A + 23-mosque Mawaqit-Morocco corpus (clean −0.07)</tspan></text><rect x="714" y="86" width="216" height="40" rx="3" fill="#fafaf7" stroke="#dcdcd0" /><circle cx="728" cy="98" r="4" fill="#1f7a4d" /><text x="738" y="101" fill="#1a1a1a" font-size="10">Train WMAE (ratchet)</text><circle cx="728" cy="116" r="4" fill="#fafaf7" stroke="#7a4d9c" stroke-width="1.5" /><text x="738" y="119" fill="#1a1a1a" font-size="10">Holdout WMAE (diagnostic)</text></svg>